G04 #@! TF.GenerationSoftware,KiCad,Pcbnew,9.0.6*
G04 #@! TF.CreationDate,2026-01-13T15:48:08+02:00*
G04 #@! TF.ProjectId,jf-ecu32.7,6a662d65-6375-4333-922e-372e6b696361,rev?*
G04 #@! TF.SameCoordinates,Original*
G04 #@! TF.FileFunction,Soldermask,Top*
G04 #@! TF.FilePolarity,Negative*
%FSLAX46Y46*%
G04 Gerber Fmt 4.6, Leading zero omitted, Abs format (unit mm)*
G04 Created by KiCad (PCBNEW 9.0.6) date 2026-01-13 15:48:08*
%MOMM*%
%LPD*%
G01*
G04 APERTURE LIST*
G04 Aperture macros list*
%AMRoundRect*
0 Rectangle with rounded corners*
0 $1 Rounding radius*
0 $2 $3 $4 $5 $6 $7 $8 $9 X,Y pos of 4 corners*
0 Add a 4 corners polygon primitive as box body*
4,1,4,$2,$3,$4,$5,$6,$7,$8,$9,$2,$3,0*
0 Add four circle primitives for the rounded corners*
1,1,$1+$1,$2,$3*
1,1,$1+$1,$4,$5*
1,1,$1+$1,$6,$7*
1,1,$1+$1,$8,$9*
0 Add four rect primitives between the rounded corners*
20,1,$1+$1,$2,$3,$4,$5,0*
20,1,$1+$1,$4,$5,$6,$7,0*
20,1,$1+$1,$6,$7,$8,$9,0*
20,1,$1+$1,$8,$9,$2,$3,0*%
G04 Aperture macros list end*
%ADD10RoundRect,0.218750X0.256250X-0.218750X0.256250X0.218750X-0.256250X0.218750X-0.256250X-0.218750X0*%
%ADD11R,1.350000X1.350000*%
%ADD12R,2.200000X1.200000*%
%ADD13R,6.400000X5.800000*%
%ADD14RoundRect,0.200000X-0.200000X-0.275000X0.200000X-0.275000X0.200000X0.275000X-0.200000X0.275000X0*%
%ADD15RoundRect,0.225000X0.225000X0.250000X-0.225000X0.250000X-0.225000X-0.250000X0.225000X-0.250000X0*%
%ADD16R,1.700000X1.700000*%
%ADD17O,1.700000X1.700000*%
%ADD18RoundRect,0.200000X0.275000X-0.200000X0.275000X0.200000X-0.275000X0.200000X-0.275000X-0.200000X0*%
%ADD19RoundRect,0.218750X-0.256250X0.218750X-0.256250X-0.218750X0.256250X-0.218750X0.256250X0.218750X0*%
%ADD20RoundRect,0.200000X-0.275000X0.200000X-0.275000X-0.200000X0.275000X-0.200000X0.275000X0.200000X0*%
%ADD21RoundRect,0.200000X0.200000X0.275000X-0.200000X0.275000X-0.200000X-0.275000X0.200000X-0.275000X0*%
%ADD22R,3.800000X3.800000*%
%ADD23C,4.000000*%
%ADD24RoundRect,0.250000X-0.362500X-1.425000X0.362500X-1.425000X0.362500X1.425000X-0.362500X1.425000X0*%
%ADD25RoundRect,0.218750X0.218750X0.256250X-0.218750X0.256250X-0.218750X-0.256250X0.218750X-0.256250X0*%
%ADD26R,1.300000X1.700000*%
%ADD27RoundRect,0.150000X-0.150000X0.587500X-0.150000X-0.587500X0.150000X-0.587500X0.150000X0.587500X0*%
%ADD28C,3.800000*%
%ADD29R,1.500000X0.900000*%
%ADD30R,0.900000X1.500000*%
%ADD31R,4.200000X4.200000*%
%ADD32RoundRect,0.150000X0.587500X0.150000X-0.587500X0.150000X-0.587500X-0.150000X0.587500X-0.150000X0*%
%ADD33R,2.000000X1.500000*%
%ADD34R,2.000000X3.800000*%
%ADD35RoundRect,0.250000X-0.625000X0.350000X-0.625000X-0.350000X0.625000X-0.350000X0.625000X0.350000X0*%
%ADD36O,1.750000X1.200000*%
%ADD37RoundRect,0.250000X-1.250000X-0.550000X1.250000X-0.550000X1.250000X0.550000X-1.250000X0.550000X0*%
%ADD38RoundRect,0.250000X0.550000X-1.250000X0.550000X1.250000X-0.550000X1.250000X-0.550000X-1.250000X0*%
%ADD39RoundRect,0.225000X-0.250000X0.225000X-0.250000X-0.225000X0.250000X-0.225000X0.250000X0.225000X0*%
%ADD40RoundRect,0.250000X0.850000X0.350000X-0.850000X0.350000X-0.850000X-0.350000X0.850000X-0.350000X0*%
%ADD41RoundRect,0.249997X2.950003X2.650003X-2.950003X2.650003X-2.950003X-2.650003X2.950003X-2.650003X0*%
%ADD42RoundRect,0.225000X0.250000X-0.225000X0.250000X0.225000X-0.250000X0.225000X-0.250000X-0.225000X0*%
%ADD43RoundRect,0.218750X-0.218750X-0.256250X0.218750X-0.256250X0.218750X0.256250X-0.218750X0.256250X0*%
%ADD44C,0.900000*%
G04 APERTURE END LIST*
D10*
G04 #@! TO.C,D6*
X44450000Y-187477500D03*
X44450000Y-185902500D03*
G04 #@! TD*
D11*
G04 #@! TO.C,TDI1*
X47371000Y-163068000D03*
G04 #@! TD*
D12*
G04 #@! TO.C,Q5*
X36629000Y-188590000D03*
D13*
X30329000Y-186310000D03*
D12*
X36629000Y-184030000D03*
G04 #@! TD*
G04 #@! TO.C,Q6*
X36550000Y-174618000D03*
D13*
X30250000Y-172338000D03*
D12*
X36550000Y-170058000D03*
G04 #@! TD*
D14*
G04 #@! TO.C,R4*
X23013000Y-160909000D03*
X24663000Y-160909000D03*
G04 #@! TD*
D15*
G04 #@! TO.C,C7*
X58941000Y-168021000D03*
X57391000Y-168021000D03*
G04 #@! TD*
D16*
G04 #@! TO.C,J16*
X54610000Y-175880000D03*
D17*
X54610000Y-173340000D03*
X54610000Y-170800000D03*
G04 #@! TD*
D18*
G04 #@! TO.C,R25*
X46228000Y-187515000D03*
X46228000Y-185865000D03*
G04 #@! TD*
D14*
G04 #@! TO.C,R3*
X20003000Y-160909000D03*
X21653000Y-160909000D03*
G04 #@! TD*
D18*
G04 #@! TO.C,R11*
X36576000Y-193548000D03*
X36576000Y-191898000D03*
G04 #@! TD*
D16*
G04 #@! TO.C,J18*
X54860000Y-189970000D03*
D17*
X54860000Y-192510000D03*
X54860000Y-195050000D03*
G04 #@! TD*
D19*
G04 #@! TO.C,D2*
X36576000Y-185521500D03*
X36576000Y-187096500D03*
G04 #@! TD*
D16*
G04 #@! TO.C,J7*
X18811000Y-166624000D03*
D17*
X21351000Y-166624000D03*
X23891000Y-166624000D03*
G04 #@! TD*
D16*
G04 #@! TO.C,J4*
X49246600Y-189970000D03*
D17*
X49246600Y-192510000D03*
X49246600Y-195050000D03*
G04 #@! TD*
D16*
G04 #@! TO.C,J15*
X52066000Y-189970000D03*
D17*
X52066000Y-192510000D03*
X52066000Y-195050000D03*
G04 #@! TD*
D16*
G04 #@! TO.C,J10*
X27940000Y-153162000D03*
D17*
X30480000Y-153162000D03*
G04 #@! TD*
D20*
G04 #@! TO.C,R7*
X38608000Y-185484000D03*
X38608000Y-187134000D03*
G04 #@! TD*
D16*
G04 #@! TO.C,J19*
X54830000Y-185050000D03*
D17*
X54830000Y-182510000D03*
G04 #@! TD*
D21*
G04 #@! TO.C,R12*
X34416000Y-165481000D03*
X32766000Y-165481000D03*
G04 #@! TD*
D22*
G04 #@! TO.C,J9*
X22693000Y-180086000D03*
D23*
X17693000Y-180086000D03*
G04 #@! TD*
D11*
G04 #@! TO.C,GND1*
X69088000Y-168402000D03*
G04 #@! TD*
D12*
G04 #@! TO.C,Q4*
X36585000Y-181605000D03*
D13*
X30285000Y-179325000D03*
D12*
X36585000Y-177045000D03*
G04 #@! TD*
D24*
G04 #@! TO.C,R2*
X40067500Y-190990000D03*
X45992500Y-190990000D03*
G04 #@! TD*
D18*
G04 #@! TO.C,R15*
X62357000Y-171259000D03*
X62357000Y-169609000D03*
G04 #@! TD*
D25*
G04 #@! TO.C,D5*
X31521500Y-165481000D03*
X29946500Y-165481000D03*
G04 #@! TD*
D16*
G04 #@! TO.C,J6*
X18811000Y-169418000D03*
D17*
X21351000Y-169418000D03*
X23891000Y-169418000D03*
G04 #@! TD*
D26*
G04 #@! TO.C,D18*
X38001000Y-159232600D03*
X41501000Y-159232600D03*
G04 #@! TD*
D11*
G04 #@! TO.C,TMS1*
X59690000Y-164719000D03*
G04 #@! TD*
G04 #@! TO.C,TCK1*
X66929000Y-168402000D03*
G04 #@! TD*
D16*
G04 #@! TO.C,J3*
X49530000Y-175895000D03*
D17*
X49530000Y-173355000D03*
X49530000Y-170815000D03*
G04 #@! TD*
D27*
G04 #@! TO.C,Q2*
X42987000Y-186085000D03*
X41087000Y-186085000D03*
X42037000Y-187960000D03*
G04 #@! TD*
D22*
G04 #@! TO.C,J8*
X22860000Y-157480000D03*
D28*
X17860000Y-157480000D03*
G04 #@! TD*
D14*
G04 #@! TO.C,R10*
X32703000Y-168529000D03*
X34353000Y-168529000D03*
G04 #@! TD*
D24*
G04 #@! TO.C,R1*
X40067500Y-194780000D03*
X45992500Y-194780000D03*
G04 #@! TD*
D29*
G04 #@! TO.C,U1*
X76910000Y-190905000D03*
X76910000Y-189635000D03*
X76910000Y-188365000D03*
X76910000Y-187095000D03*
X76910000Y-185825000D03*
X76910000Y-184555000D03*
X76910000Y-183285000D03*
X76910000Y-182015000D03*
X76910000Y-180745000D03*
X76910000Y-179475000D03*
X76910000Y-178205000D03*
X76910000Y-176935000D03*
X76910000Y-175665000D03*
X76910000Y-174395000D03*
D30*
X73870000Y-173145000D03*
X72600000Y-173145000D03*
X71330000Y-173145000D03*
X70060000Y-173145000D03*
X68790000Y-173145000D03*
X67520000Y-173145000D03*
X66250000Y-173145000D03*
X64980000Y-173145000D03*
X63710000Y-173145000D03*
X62440000Y-173145000D03*
D29*
X59410000Y-174395000D03*
X59410000Y-175665000D03*
X59410000Y-176935000D03*
X59410000Y-178205000D03*
X59410000Y-179475000D03*
X59410000Y-180745000D03*
X59410000Y-182015000D03*
X59410000Y-183285000D03*
X59410000Y-184555000D03*
X59410000Y-185825000D03*
X59410000Y-187095000D03*
X59410000Y-188365000D03*
X59410000Y-189635000D03*
X59410000Y-190905000D03*
D31*
X68840000Y-183565000D03*
G04 #@! TD*
D32*
G04 #@! TO.C,Q1*
X28242500Y-165415000D03*
X28242500Y-163515000D03*
X26367500Y-164465000D03*
G04 #@! TD*
D33*
G04 #@! TO.C,U4*
X66090000Y-153148000D03*
X66090000Y-155448000D03*
D34*
X72390000Y-155448000D03*
D33*
X66090000Y-157748000D03*
G04 #@! TD*
D16*
G04 #@! TO.C,J1*
X76200000Y-158003000D03*
D17*
X76200000Y-155463000D03*
X76200000Y-152923000D03*
G04 #@! TD*
D22*
G04 #@! TO.C,J17*
X22693000Y-173990000D03*
D23*
X17693000Y-173990000D03*
G04 #@! TD*
D20*
G04 #@! TO.C,R8*
X38227000Y-171641000D03*
X38227000Y-173291000D03*
G04 #@! TD*
D35*
G04 #@! TO.C,J24*
X82296000Y-176784000D03*
D36*
X82296000Y-178784000D03*
X82296000Y-180784000D03*
X82296000Y-182784000D03*
X82296000Y-184784000D03*
G04 #@! TD*
D22*
G04 #@! TO.C,J5*
X22606000Y-192024000D03*
D23*
X17606000Y-192024000D03*
G04 #@! TD*
D16*
G04 #@! TO.C,J12*
X81280000Y-157988000D03*
D17*
X81280000Y-155448000D03*
X81280000Y-152908000D03*
G04 #@! TD*
D19*
G04 #@! TO.C,D11*
X57150000Y-154406500D03*
X57150000Y-155981500D03*
G04 #@! TD*
D16*
G04 #@! TO.C,J13*
X52070000Y-175895000D03*
D17*
X52070000Y-173355000D03*
X52070000Y-170815000D03*
G04 #@! TD*
D37*
G04 #@! TO.C,C8*
X50210000Y-154178000D03*
X54610000Y-154178000D03*
G04 #@! TD*
D20*
G04 #@! TO.C,R13*
X58039000Y-170815000D03*
X58039000Y-172465000D03*
G04 #@! TD*
D18*
G04 #@! TO.C,R9*
X36576000Y-180212000D03*
X36576000Y-178562000D03*
G04 #@! TD*
D14*
G04 #@! TO.C,R5*
X58992000Y-169418000D03*
X60642000Y-169418000D03*
G04 #@! TD*
D21*
G04 #@! TO.C,R32*
X68072000Y-151130000D03*
X66422000Y-151130000D03*
G04 #@! TD*
D16*
G04 #@! TO.C,J2*
X78740000Y-158003000D03*
D17*
X78740000Y-155463000D03*
X78740000Y-152923000D03*
G04 #@! TD*
D18*
G04 #@! TO.C,R33*
X57150000Y-152971000D03*
X57150000Y-151321000D03*
G04 #@! TD*
D16*
G04 #@! TO.C,J11*
X22606000Y-153162000D03*
D17*
X20066000Y-153162000D03*
X17526000Y-153162000D03*
G04 #@! TD*
D38*
G04 #@! TO.C,C3*
X60960000Y-157013000D03*
X60960000Y-152613000D03*
G04 #@! TD*
D19*
G04 #@! TO.C,D4*
X36576000Y-171678500D03*
X36576000Y-173253500D03*
G04 #@! TD*
D39*
G04 #@! TO.C,C9*
X78460000Y-189340000D03*
X78460000Y-190890000D03*
G04 #@! TD*
D40*
G04 #@! TO.C,Q9*
X36629000Y-195067000D03*
D41*
X30329000Y-192787000D03*
D40*
X36629000Y-190507000D03*
G04 #@! TD*
D39*
G04 #@! TO.C,C14*
X49657000Y-183515000D03*
X49657000Y-185065000D03*
G04 #@! TD*
D11*
G04 #@! TO.C,TDO1*
X64770000Y-168402000D03*
G04 #@! TD*
D32*
G04 #@! TO.C,Q3*
X28242500Y-168590000D03*
X28242500Y-166690000D03*
X26367500Y-167640000D03*
G04 #@! TD*
D25*
G04 #@! TO.C,D12*
X31394500Y-168529000D03*
X29819500Y-168529000D03*
G04 #@! TD*
D42*
G04 #@! TO.C,RST1*
X59436000Y-172238000D03*
X59436000Y-170688000D03*
G04 #@! TD*
D43*
G04 #@! TO.C,D8*
X69799000Y-151130000D03*
X71374000Y-151130000D03*
G04 #@! TD*
D22*
G04 #@! TO.C,J14*
X22693000Y-186055000D03*
D23*
X17693000Y-186055000D03*
G04 #@! TD*
D35*
G04 #@! TO.C,J23*
X82296000Y-189230000D03*
D36*
X82296000Y-191230000D03*
X82296000Y-193230000D03*
X82296000Y-195230000D03*
G04 #@! TD*
D44*
G04 #@! TO.C,J22*
X65199000Y-195158000D03*
X73199000Y-195158000D03*
G04 #@! TD*
M02*
