G04 #@! TF.GenerationSoftware,KiCad,Pcbnew,9.0.6*
G04 #@! TF.CreationDate,2026-01-13T15:48:08+02:00*
G04 #@! TF.ProjectId,jf-ecu32.7,6a662d65-6375-4333-922e-372e6b696361,rev?*
G04 #@! TF.SameCoordinates,Original*
G04 #@! TF.FileFunction,Legend,Bot*
G04 #@! TF.FilePolarity,Positive*
%FSLAX46Y46*%
G04 Gerber Fmt 4.6, Leading zero omitted, Abs format (unit mm)*
G04 Created by KiCad (PCBNEW 9.0.6) date 2026-01-13 15:48:08*
%MOMM*%
%LPD*%
G01*
G04 APERTURE LIST*
G04 Aperture macros list*
%AMRoundRect*
0 Rectangle with rounded corners*
0 $1 Rounding radius*
0 $2 $3 $4 $5 $6 $7 $8 $9 X,Y pos of 4 corners*
0 Add a 4 corners polygon primitive as box body*
4,1,4,$2,$3,$4,$5,$6,$7,$8,$9,$2,$3,0*
0 Add four circle primitives for the rounded corners*
1,1,$1+$1,$2,$3*
1,1,$1+$1,$4,$5*
1,1,$1+$1,$6,$7*
1,1,$1+$1,$8,$9*
0 Add four rect primitives between the rounded corners*
20,1,$1+$1,$2,$3,$4,$5,0*
20,1,$1+$1,$4,$5,$6,$7,0*
20,1,$1+$1,$6,$7,$8,$9,0*
20,1,$1+$1,$8,$9,$2,$3,0*%
G04 Aperture macros list end*
%ADD10C,0.150000*%
%ADD11C,0.120000*%
%ADD12C,0.100000*%
%ADD13R,1.350000X1.350000*%
%ADD14R,1.700000X1.700000*%
%ADD15O,1.700000X1.700000*%
%ADD16R,3.800000X3.800000*%
%ADD17C,4.000000*%
%ADD18C,3.800000*%
%ADD19RoundRect,0.250000X-0.625000X0.350000X-0.625000X-0.350000X0.625000X-0.350000X0.625000X0.350000X0*%
%ADD20O,1.750000X1.200000*%
%ADD21RoundRect,0.200000X0.275000X-0.200000X0.275000X0.200000X-0.275000X0.200000X-0.275000X-0.200000X0*%
%ADD22R,2.500000X1.800000*%
%ADD23R,1.300000X1.400000*%
%ADD24RoundRect,0.150000X0.512500X0.150000X-0.512500X0.150000X-0.512500X-0.150000X0.512500X-0.150000X0*%
%ADD25RoundRect,0.200000X-0.200000X-0.275000X0.200000X-0.275000X0.200000X0.275000X-0.200000X0.275000X0*%
%ADD26RoundRect,0.150000X-0.150000X0.587500X-0.150000X-0.587500X0.150000X-0.587500X0.150000X0.587500X0*%
%ADD27RoundRect,0.150000X-0.825000X-0.150000X0.825000X-0.150000X0.825000X0.150000X-0.825000X0.150000X0*%
%ADD28RoundRect,0.225000X0.250000X-0.225000X0.250000X0.225000X-0.250000X0.225000X-0.250000X-0.225000X0*%
%ADD29R,1.800000X2.500000*%
%ADD30RoundRect,0.225000X0.225000X0.250000X-0.225000X0.250000X-0.225000X-0.250000X0.225000X-0.250000X0*%
%ADD31RoundRect,0.200000X0.200000X0.275000X-0.200000X0.275000X-0.200000X-0.275000X0.200000X-0.275000X0*%
%ADD32RoundRect,0.150000X-0.587500X-0.150000X0.587500X-0.150000X0.587500X0.150000X-0.587500X0.150000X0*%
%ADD33RoundRect,0.200000X-0.275000X0.200000X-0.275000X-0.200000X0.275000X-0.200000X0.275000X0.200000X0*%
%ADD34R,0.800000X1.300000*%
%ADD35RoundRect,0.225000X-0.250000X0.225000X-0.250000X-0.225000X0.250000X-0.225000X0.250000X0.225000X0*%
%ADD36C,0.900000*%
%ADD37R,0.700000X1.600000*%
%ADD38R,1.200000X2.200000*%
%ADD39R,1.600000X1.400000*%
%ADD40R,1.200000X1.400000*%
%ADD41R,2.000000X1.500000*%
%ADD42R,2.000000X3.800000*%
%ADD43R,0.500000X0.350000*%
%ADD44RoundRect,0.125000X-0.537500X-0.125000X0.537500X-0.125000X0.537500X0.125000X-0.537500X0.125000X0*%
%ADD45RoundRect,0.225000X-0.225000X-0.250000X0.225000X-0.250000X0.225000X0.250000X-0.225000X0.250000X0*%
G04 APERTURE END LIST*
D10*
X82639819Y-158751095D02*
X83354104Y-158751095D01*
X83354104Y-158751095D02*
X83496961Y-158703476D01*
X83496961Y-158703476D02*
X83592200Y-158608238D01*
X83592200Y-158608238D02*
X83639819Y-158465381D01*
X83639819Y-158465381D02*
X83639819Y-158370143D01*
X83116009Y-159560619D02*
X83116009Y-159227286D01*
X83639819Y-159227286D02*
X82639819Y-159227286D01*
X82639819Y-159227286D02*
X82639819Y-159703476D01*
X83258866Y-160084429D02*
X83258866Y-160846334D01*
X83116009Y-161322524D02*
X83116009Y-161655857D01*
X83639819Y-161798714D02*
X83639819Y-161322524D01*
X83639819Y-161322524D02*
X82639819Y-161322524D01*
X82639819Y-161322524D02*
X82639819Y-161798714D01*
X83544580Y-162798714D02*
X83592200Y-162751095D01*
X83592200Y-162751095D02*
X83639819Y-162608238D01*
X83639819Y-162608238D02*
X83639819Y-162513000D01*
X83639819Y-162513000D02*
X83592200Y-162370143D01*
X83592200Y-162370143D02*
X83496961Y-162274905D01*
X83496961Y-162274905D02*
X83401723Y-162227286D01*
X83401723Y-162227286D02*
X83211247Y-162179667D01*
X83211247Y-162179667D02*
X83068390Y-162179667D01*
X83068390Y-162179667D02*
X82877914Y-162227286D01*
X82877914Y-162227286D02*
X82782676Y-162274905D01*
X82782676Y-162274905D02*
X82687438Y-162370143D01*
X82687438Y-162370143D02*
X82639819Y-162513000D01*
X82639819Y-162513000D02*
X82639819Y-162608238D01*
X82639819Y-162608238D02*
X82687438Y-162751095D01*
X82687438Y-162751095D02*
X82735057Y-162798714D01*
X82639819Y-163227286D02*
X83449342Y-163227286D01*
X83449342Y-163227286D02*
X83544580Y-163274905D01*
X83544580Y-163274905D02*
X83592200Y-163322524D01*
X83592200Y-163322524D02*
X83639819Y-163417762D01*
X83639819Y-163417762D02*
X83639819Y-163608238D01*
X83639819Y-163608238D02*
X83592200Y-163703476D01*
X83592200Y-163703476D02*
X83544580Y-163751095D01*
X83544580Y-163751095D02*
X83449342Y-163798714D01*
X83449342Y-163798714D02*
X82639819Y-163798714D01*
X82639819Y-164179667D02*
X82639819Y-164798714D01*
X82639819Y-164798714D02*
X83020771Y-164465381D01*
X83020771Y-164465381D02*
X83020771Y-164608238D01*
X83020771Y-164608238D02*
X83068390Y-164703476D01*
X83068390Y-164703476D02*
X83116009Y-164751095D01*
X83116009Y-164751095D02*
X83211247Y-164798714D01*
X83211247Y-164798714D02*
X83449342Y-164798714D01*
X83449342Y-164798714D02*
X83544580Y-164751095D01*
X83544580Y-164751095D02*
X83592200Y-164703476D01*
X83592200Y-164703476D02*
X83639819Y-164608238D01*
X83639819Y-164608238D02*
X83639819Y-164322524D01*
X83639819Y-164322524D02*
X83592200Y-164227286D01*
X83592200Y-164227286D02*
X83544580Y-164179667D01*
X82735057Y-165179667D02*
X82687438Y-165227286D01*
X82687438Y-165227286D02*
X82639819Y-165322524D01*
X82639819Y-165322524D02*
X82639819Y-165560619D01*
X82639819Y-165560619D02*
X82687438Y-165655857D01*
X82687438Y-165655857D02*
X82735057Y-165703476D01*
X82735057Y-165703476D02*
X82830295Y-165751095D01*
X82830295Y-165751095D02*
X82925533Y-165751095D01*
X82925533Y-165751095D02*
X83068390Y-165703476D01*
X83068390Y-165703476D02*
X83639819Y-165132048D01*
X83639819Y-165132048D02*
X83639819Y-165751095D01*
X82973152Y-167370143D02*
X83639819Y-167370143D01*
X82592200Y-167132048D02*
X83306485Y-166893953D01*
X83306485Y-166893953D02*
X83306485Y-167513000D01*
X83544580Y-167893953D02*
X83592200Y-167941572D01*
X83592200Y-167941572D02*
X83639819Y-167893953D01*
X83639819Y-167893953D02*
X83592200Y-167846334D01*
X83592200Y-167846334D02*
X83544580Y-167893953D01*
X83544580Y-167893953D02*
X83639819Y-167893953D01*
X82639819Y-168560619D02*
X82639819Y-168655857D01*
X82639819Y-168655857D02*
X82687438Y-168751095D01*
X82687438Y-168751095D02*
X82735057Y-168798714D01*
X82735057Y-168798714D02*
X82830295Y-168846333D01*
X82830295Y-168846333D02*
X83020771Y-168893952D01*
X83020771Y-168893952D02*
X83258866Y-168893952D01*
X83258866Y-168893952D02*
X83449342Y-168846333D01*
X83449342Y-168846333D02*
X83544580Y-168798714D01*
X83544580Y-168798714D02*
X83592200Y-168751095D01*
X83592200Y-168751095D02*
X83639819Y-168655857D01*
X83639819Y-168655857D02*
X83639819Y-168560619D01*
X83639819Y-168560619D02*
X83592200Y-168465381D01*
X83592200Y-168465381D02*
X83544580Y-168417762D01*
X83544580Y-168417762D02*
X83449342Y-168370143D01*
X83449342Y-168370143D02*
X83258866Y-168322524D01*
X83258866Y-168322524D02*
X83020771Y-168322524D01*
X83020771Y-168322524D02*
X82830295Y-168370143D01*
X82830295Y-168370143D02*
X82735057Y-168417762D01*
X82735057Y-168417762D02*
X82687438Y-168465381D01*
X82687438Y-168465381D02*
X82639819Y-168560619D01*
X82639819Y-170274905D02*
X82639819Y-170370143D01*
X82639819Y-170370143D02*
X82687438Y-170465381D01*
X82687438Y-170465381D02*
X82735057Y-170513000D01*
X82735057Y-170513000D02*
X82830295Y-170560619D01*
X82830295Y-170560619D02*
X83020771Y-170608238D01*
X83020771Y-170608238D02*
X83258866Y-170608238D01*
X83258866Y-170608238D02*
X83449342Y-170560619D01*
X83449342Y-170560619D02*
X83544580Y-170513000D01*
X83544580Y-170513000D02*
X83592200Y-170465381D01*
X83592200Y-170465381D02*
X83639819Y-170370143D01*
X83639819Y-170370143D02*
X83639819Y-170274905D01*
X83639819Y-170274905D02*
X83592200Y-170179667D01*
X83592200Y-170179667D02*
X83544580Y-170132048D01*
X83544580Y-170132048D02*
X83449342Y-170084429D01*
X83449342Y-170084429D02*
X83258866Y-170036810D01*
X83258866Y-170036810D02*
X83020771Y-170036810D01*
X83020771Y-170036810D02*
X82830295Y-170084429D01*
X82830295Y-170084429D02*
X82735057Y-170132048D01*
X82735057Y-170132048D02*
X82687438Y-170179667D01*
X82687438Y-170179667D02*
X82639819Y-170274905D01*
X82973152Y-171465381D02*
X83639819Y-171465381D01*
X82592200Y-171227286D02*
X83306485Y-170989191D01*
X83306485Y-170989191D02*
X83306485Y-171608238D01*
X83258866Y-171989191D02*
X83258866Y-172751096D01*
X82735057Y-173179667D02*
X82687438Y-173227286D01*
X82687438Y-173227286D02*
X82639819Y-173322524D01*
X82639819Y-173322524D02*
X82639819Y-173560619D01*
X82639819Y-173560619D02*
X82687438Y-173655857D01*
X82687438Y-173655857D02*
X82735057Y-173703476D01*
X82735057Y-173703476D02*
X82830295Y-173751095D01*
X82830295Y-173751095D02*
X82925533Y-173751095D01*
X82925533Y-173751095D02*
X83068390Y-173703476D01*
X83068390Y-173703476D02*
X83639819Y-173132048D01*
X83639819Y-173132048D02*
X83639819Y-173751095D01*
X82639819Y-174370143D02*
X82639819Y-174465381D01*
X82639819Y-174465381D02*
X82687438Y-174560619D01*
X82687438Y-174560619D02*
X82735057Y-174608238D01*
X82735057Y-174608238D02*
X82830295Y-174655857D01*
X82830295Y-174655857D02*
X83020771Y-174703476D01*
X83020771Y-174703476D02*
X83258866Y-174703476D01*
X83258866Y-174703476D02*
X83449342Y-174655857D01*
X83449342Y-174655857D02*
X83544580Y-174608238D01*
X83544580Y-174608238D02*
X83592200Y-174560619D01*
X83592200Y-174560619D02*
X83639819Y-174465381D01*
X83639819Y-174465381D02*
X83639819Y-174370143D01*
X83639819Y-174370143D02*
X83592200Y-174274905D01*
X83592200Y-174274905D02*
X83544580Y-174227286D01*
X83544580Y-174227286D02*
X83449342Y-174179667D01*
X83449342Y-174179667D02*
X83258866Y-174132048D01*
X83258866Y-174132048D02*
X83020771Y-174132048D01*
X83020771Y-174132048D02*
X82830295Y-174179667D01*
X82830295Y-174179667D02*
X82735057Y-174227286D01*
X82735057Y-174227286D02*
X82687438Y-174274905D01*
X82687438Y-174274905D02*
X82639819Y-174370143D01*
X82735057Y-175084429D02*
X82687438Y-175132048D01*
X82687438Y-175132048D02*
X82639819Y-175227286D01*
X82639819Y-175227286D02*
X82639819Y-175465381D01*
X82639819Y-175465381D02*
X82687438Y-175560619D01*
X82687438Y-175560619D02*
X82735057Y-175608238D01*
X82735057Y-175608238D02*
X82830295Y-175655857D01*
X82830295Y-175655857D02*
X82925533Y-175655857D01*
X82925533Y-175655857D02*
X83068390Y-175608238D01*
X83068390Y-175608238D02*
X83639819Y-175036810D01*
X83639819Y-175036810D02*
X83639819Y-175655857D01*
X82639819Y-176560619D02*
X82639819Y-176084429D01*
X82639819Y-176084429D02*
X83116009Y-176036810D01*
X83116009Y-176036810D02*
X83068390Y-176084429D01*
X83068390Y-176084429D02*
X83020771Y-176179667D01*
X83020771Y-176179667D02*
X83020771Y-176417762D01*
X83020771Y-176417762D02*
X83068390Y-176513000D01*
X83068390Y-176513000D02*
X83116009Y-176560619D01*
X83116009Y-176560619D02*
X83211247Y-176608238D01*
X83211247Y-176608238D02*
X83449342Y-176608238D01*
X83449342Y-176608238D02*
X83544580Y-176560619D01*
X83544580Y-176560619D02*
X83592200Y-176513000D01*
X83592200Y-176513000D02*
X83639819Y-176417762D01*
X83639819Y-176417762D02*
X83639819Y-176179667D01*
X83639819Y-176179667D02*
X83592200Y-176084429D01*
X83592200Y-176084429D02*
X83544580Y-176036810D01*
X46163033Y-188144999D02*
X45829700Y-187911666D01*
X46163033Y-187744999D02*
X45463033Y-187744999D01*
X45463033Y-187744999D02*
X45463033Y-188011666D01*
X45463033Y-188011666D02*
X45496366Y-188078333D01*
X45496366Y-188078333D02*
X45529700Y-188111666D01*
X45529700Y-188111666D02*
X45596366Y-188144999D01*
X45596366Y-188144999D02*
X45696366Y-188144999D01*
X45696366Y-188144999D02*
X45763033Y-188111666D01*
X45763033Y-188111666D02*
X45796366Y-188078333D01*
X45796366Y-188078333D02*
X45829700Y-188011666D01*
X45829700Y-188011666D02*
X45829700Y-187744999D01*
X45529700Y-188411666D02*
X45496366Y-188444999D01*
X45496366Y-188444999D02*
X45463033Y-188511666D01*
X45463033Y-188511666D02*
X45463033Y-188678333D01*
X45463033Y-188678333D02*
X45496366Y-188744999D01*
X45496366Y-188744999D02*
X45529700Y-188778333D01*
X45529700Y-188778333D02*
X45596366Y-188811666D01*
X45596366Y-188811666D02*
X45663033Y-188811666D01*
X45663033Y-188811666D02*
X45763033Y-188778333D01*
X45763033Y-188778333D02*
X46163033Y-188378333D01*
X46163033Y-188378333D02*
X46163033Y-188811666D01*
X45463033Y-189045000D02*
X45463033Y-189478333D01*
X45463033Y-189478333D02*
X45729700Y-189245000D01*
X45729700Y-189245000D02*
X45729700Y-189345000D01*
X45729700Y-189345000D02*
X45763033Y-189411666D01*
X45763033Y-189411666D02*
X45796366Y-189445000D01*
X45796366Y-189445000D02*
X45863033Y-189478333D01*
X45863033Y-189478333D02*
X46029700Y-189478333D01*
X46029700Y-189478333D02*
X46096366Y-189445000D01*
X46096366Y-189445000D02*
X46129700Y-189411666D01*
X46129700Y-189411666D02*
X46163033Y-189345000D01*
X46163033Y-189345000D02*
X46163033Y-189145000D01*
X46163033Y-189145000D02*
X46129700Y-189078333D01*
X46129700Y-189078333D02*
X46096366Y-189045000D01*
X35187666Y-169607033D02*
X35187666Y-168907033D01*
X35187666Y-168907033D02*
X35020999Y-168907033D01*
X35020999Y-168907033D02*
X34920999Y-168940366D01*
X34920999Y-168940366D02*
X34854333Y-169007033D01*
X34854333Y-169007033D02*
X34820999Y-169073700D01*
X34820999Y-169073700D02*
X34787666Y-169207033D01*
X34787666Y-169207033D02*
X34787666Y-169307033D01*
X34787666Y-169307033D02*
X34820999Y-169440366D01*
X34820999Y-169440366D02*
X34854333Y-169507033D01*
X34854333Y-169507033D02*
X34920999Y-169573700D01*
X34920999Y-169573700D02*
X35020999Y-169607033D01*
X35020999Y-169607033D02*
X35187666Y-169607033D01*
X34454333Y-169607033D02*
X34320999Y-169607033D01*
X34320999Y-169607033D02*
X34254333Y-169573700D01*
X34254333Y-169573700D02*
X34220999Y-169540366D01*
X34220999Y-169540366D02*
X34154333Y-169440366D01*
X34154333Y-169440366D02*
X34120999Y-169307033D01*
X34120999Y-169307033D02*
X34120999Y-169040366D01*
X34120999Y-169040366D02*
X34154333Y-168973700D01*
X34154333Y-168973700D02*
X34187666Y-168940366D01*
X34187666Y-168940366D02*
X34254333Y-168907033D01*
X34254333Y-168907033D02*
X34387666Y-168907033D01*
X34387666Y-168907033D02*
X34454333Y-168940366D01*
X34454333Y-168940366D02*
X34487666Y-168973700D01*
X34487666Y-168973700D02*
X34520999Y-169040366D01*
X34520999Y-169040366D02*
X34520999Y-169207033D01*
X34520999Y-169207033D02*
X34487666Y-169273700D01*
X34487666Y-169273700D02*
X34454333Y-169307033D01*
X34454333Y-169307033D02*
X34387666Y-169340366D01*
X34387666Y-169340366D02*
X34254333Y-169340366D01*
X34254333Y-169340366D02*
X34187666Y-169307033D01*
X34187666Y-169307033D02*
X34154333Y-169273700D01*
X34154333Y-169273700D02*
X34120999Y-169207033D01*
X60894666Y-154335033D02*
X60894666Y-153635033D01*
X60894666Y-153635033D02*
X60727999Y-153635033D01*
X60727999Y-153635033D02*
X60627999Y-153668366D01*
X60627999Y-153668366D02*
X60561333Y-153735033D01*
X60561333Y-153735033D02*
X60527999Y-153801700D01*
X60527999Y-153801700D02*
X60494666Y-153935033D01*
X60494666Y-153935033D02*
X60494666Y-154035033D01*
X60494666Y-154035033D02*
X60527999Y-154168366D01*
X60527999Y-154168366D02*
X60561333Y-154235033D01*
X60561333Y-154235033D02*
X60627999Y-154301700D01*
X60627999Y-154301700D02*
X60727999Y-154335033D01*
X60727999Y-154335033D02*
X60894666Y-154335033D01*
X59827999Y-154335033D02*
X60227999Y-154335033D01*
X60027999Y-154335033D02*
X60027999Y-153635033D01*
X60027999Y-153635033D02*
X60094666Y-153735033D01*
X60094666Y-153735033D02*
X60161333Y-153801700D01*
X60161333Y-153801700D02*
X60227999Y-153835033D01*
X41940833Y-175270033D02*
X41940833Y-175836700D01*
X41940833Y-175836700D02*
X41907500Y-175903366D01*
X41907500Y-175903366D02*
X41874166Y-175936700D01*
X41874166Y-175936700D02*
X41807500Y-175970033D01*
X41807500Y-175970033D02*
X41674166Y-175970033D01*
X41674166Y-175970033D02*
X41607500Y-175936700D01*
X41607500Y-175936700D02*
X41574166Y-175903366D01*
X41574166Y-175903366D02*
X41540833Y-175836700D01*
X41540833Y-175836700D02*
X41540833Y-175270033D01*
X41274167Y-175270033D02*
X40807500Y-175270033D01*
X40807500Y-175270033D02*
X41107500Y-175970033D01*
X69284000Y-181799033D02*
X69517333Y-181465700D01*
X69684000Y-181799033D02*
X69684000Y-181099033D01*
X69684000Y-181099033D02*
X69417333Y-181099033D01*
X69417333Y-181099033D02*
X69350667Y-181132366D01*
X69350667Y-181132366D02*
X69317333Y-181165700D01*
X69317333Y-181165700D02*
X69284000Y-181232366D01*
X69284000Y-181232366D02*
X69284000Y-181332366D01*
X69284000Y-181332366D02*
X69317333Y-181399033D01*
X69317333Y-181399033D02*
X69350667Y-181432366D01*
X69350667Y-181432366D02*
X69417333Y-181465700D01*
X69417333Y-181465700D02*
X69684000Y-181465700D01*
X69017333Y-181165700D02*
X68984000Y-181132366D01*
X68984000Y-181132366D02*
X68917333Y-181099033D01*
X68917333Y-181099033D02*
X68750667Y-181099033D01*
X68750667Y-181099033D02*
X68684000Y-181132366D01*
X68684000Y-181132366D02*
X68650667Y-181165700D01*
X68650667Y-181165700D02*
X68617333Y-181232366D01*
X68617333Y-181232366D02*
X68617333Y-181299033D01*
X68617333Y-181299033D02*
X68650667Y-181399033D01*
X68650667Y-181399033D02*
X69050667Y-181799033D01*
X69050667Y-181799033D02*
X68617333Y-181799033D01*
X68284000Y-181799033D02*
X68150666Y-181799033D01*
X68150666Y-181799033D02*
X68084000Y-181765700D01*
X68084000Y-181765700D02*
X68050666Y-181732366D01*
X68050666Y-181732366D02*
X67984000Y-181632366D01*
X67984000Y-181632366D02*
X67950666Y-181499033D01*
X67950666Y-181499033D02*
X67950666Y-181232366D01*
X67950666Y-181232366D02*
X67984000Y-181165700D01*
X67984000Y-181165700D02*
X68017333Y-181132366D01*
X68017333Y-181132366D02*
X68084000Y-181099033D01*
X68084000Y-181099033D02*
X68217333Y-181099033D01*
X68217333Y-181099033D02*
X68284000Y-181132366D01*
X68284000Y-181132366D02*
X68317333Y-181165700D01*
X68317333Y-181165700D02*
X68350666Y-181232366D01*
X68350666Y-181232366D02*
X68350666Y-181399033D01*
X68350666Y-181399033D02*
X68317333Y-181465700D01*
X68317333Y-181465700D02*
X68284000Y-181499033D01*
X68284000Y-181499033D02*
X68217333Y-181532366D01*
X68217333Y-181532366D02*
X68084000Y-181532366D01*
X68084000Y-181532366D02*
X68017333Y-181499033D01*
X68017333Y-181499033D02*
X67984000Y-181465700D01*
X67984000Y-181465700D02*
X67950666Y-181399033D01*
X44447033Y-181203666D02*
X45013700Y-181203666D01*
X45013700Y-181203666D02*
X45080366Y-181237000D01*
X45080366Y-181237000D02*
X45113700Y-181270333D01*
X45113700Y-181270333D02*
X45147033Y-181337000D01*
X45147033Y-181337000D02*
X45147033Y-181470333D01*
X45147033Y-181470333D02*
X45113700Y-181537000D01*
X45113700Y-181537000D02*
X45080366Y-181570333D01*
X45080366Y-181570333D02*
X45013700Y-181603666D01*
X45013700Y-181603666D02*
X44447033Y-181603666D01*
X44747033Y-182036999D02*
X44713700Y-181970333D01*
X44713700Y-181970333D02*
X44680366Y-181936999D01*
X44680366Y-181936999D02*
X44613700Y-181903666D01*
X44613700Y-181903666D02*
X44580366Y-181903666D01*
X44580366Y-181903666D02*
X44513700Y-181936999D01*
X44513700Y-181936999D02*
X44480366Y-181970333D01*
X44480366Y-181970333D02*
X44447033Y-182036999D01*
X44447033Y-182036999D02*
X44447033Y-182170333D01*
X44447033Y-182170333D02*
X44480366Y-182236999D01*
X44480366Y-182236999D02*
X44513700Y-182270333D01*
X44513700Y-182270333D02*
X44580366Y-182303666D01*
X44580366Y-182303666D02*
X44613700Y-182303666D01*
X44613700Y-182303666D02*
X44680366Y-182270333D01*
X44680366Y-182270333D02*
X44713700Y-182236999D01*
X44713700Y-182236999D02*
X44747033Y-182170333D01*
X44747033Y-182170333D02*
X44747033Y-182036999D01*
X44747033Y-182036999D02*
X44780366Y-181970333D01*
X44780366Y-181970333D02*
X44813700Y-181936999D01*
X44813700Y-181936999D02*
X44880366Y-181903666D01*
X44880366Y-181903666D02*
X45013700Y-181903666D01*
X45013700Y-181903666D02*
X45080366Y-181936999D01*
X45080366Y-181936999D02*
X45113700Y-181970333D01*
X45113700Y-181970333D02*
X45147033Y-182036999D01*
X45147033Y-182036999D02*
X45147033Y-182170333D01*
X45147033Y-182170333D02*
X45113700Y-182236999D01*
X45113700Y-182236999D02*
X45080366Y-182270333D01*
X45080366Y-182270333D02*
X45013700Y-182303666D01*
X45013700Y-182303666D02*
X44880366Y-182303666D01*
X44880366Y-182303666D02*
X44813700Y-182270333D01*
X44813700Y-182270333D02*
X44780366Y-182236999D01*
X44780366Y-182236999D02*
X44747033Y-182170333D01*
X37617333Y-158210033D02*
X37617333Y-158776700D01*
X37617333Y-158776700D02*
X37584000Y-158843366D01*
X37584000Y-158843366D02*
X37550666Y-158876700D01*
X37550666Y-158876700D02*
X37484000Y-158910033D01*
X37484000Y-158910033D02*
X37350666Y-158910033D01*
X37350666Y-158910033D02*
X37284000Y-158876700D01*
X37284000Y-158876700D02*
X37250666Y-158843366D01*
X37250666Y-158843366D02*
X37217333Y-158776700D01*
X37217333Y-158776700D02*
X37217333Y-158210033D01*
X36950667Y-158210033D02*
X36517333Y-158210033D01*
X36517333Y-158210033D02*
X36750667Y-158476700D01*
X36750667Y-158476700D02*
X36650667Y-158476700D01*
X36650667Y-158476700D02*
X36584000Y-158510033D01*
X36584000Y-158510033D02*
X36550667Y-158543366D01*
X36550667Y-158543366D02*
X36517333Y-158610033D01*
X36517333Y-158610033D02*
X36517333Y-158776700D01*
X36517333Y-158776700D02*
X36550667Y-158843366D01*
X36550667Y-158843366D02*
X36584000Y-158876700D01*
X36584000Y-158876700D02*
X36650667Y-158910033D01*
X36650667Y-158910033D02*
X36850667Y-158910033D01*
X36850667Y-158910033D02*
X36917333Y-158876700D01*
X36917333Y-158876700D02*
X36950667Y-158843366D01*
X41651366Y-188986333D02*
X41684700Y-188953000D01*
X41684700Y-188953000D02*
X41718033Y-188853000D01*
X41718033Y-188853000D02*
X41718033Y-188786333D01*
X41718033Y-188786333D02*
X41684700Y-188686333D01*
X41684700Y-188686333D02*
X41618033Y-188619667D01*
X41618033Y-188619667D02*
X41551366Y-188586333D01*
X41551366Y-188586333D02*
X41418033Y-188553000D01*
X41418033Y-188553000D02*
X41318033Y-188553000D01*
X41318033Y-188553000D02*
X41184700Y-188586333D01*
X41184700Y-188586333D02*
X41118033Y-188619667D01*
X41118033Y-188619667D02*
X41051366Y-188686333D01*
X41051366Y-188686333D02*
X41018033Y-188786333D01*
X41018033Y-188786333D02*
X41018033Y-188853000D01*
X41018033Y-188853000D02*
X41051366Y-188953000D01*
X41051366Y-188953000D02*
X41084700Y-188986333D01*
X41084700Y-189253000D02*
X41051366Y-189286333D01*
X41051366Y-189286333D02*
X41018033Y-189353000D01*
X41018033Y-189353000D02*
X41018033Y-189519667D01*
X41018033Y-189519667D02*
X41051366Y-189586333D01*
X41051366Y-189586333D02*
X41084700Y-189619667D01*
X41084700Y-189619667D02*
X41151366Y-189653000D01*
X41151366Y-189653000D02*
X41218033Y-189653000D01*
X41218033Y-189653000D02*
X41318033Y-189619667D01*
X41318033Y-189619667D02*
X41718033Y-189219667D01*
X41718033Y-189219667D02*
X41718033Y-189653000D01*
X63442000Y-183196033D02*
X63675333Y-182862700D01*
X63842000Y-183196033D02*
X63842000Y-182496033D01*
X63842000Y-182496033D02*
X63575333Y-182496033D01*
X63575333Y-182496033D02*
X63508667Y-182529366D01*
X63508667Y-182529366D02*
X63475333Y-182562700D01*
X63475333Y-182562700D02*
X63442000Y-182629366D01*
X63442000Y-182629366D02*
X63442000Y-182729366D01*
X63442000Y-182729366D02*
X63475333Y-182796033D01*
X63475333Y-182796033D02*
X63508667Y-182829366D01*
X63508667Y-182829366D02*
X63575333Y-182862700D01*
X63575333Y-182862700D02*
X63842000Y-182862700D01*
X63175333Y-182562700D02*
X63142000Y-182529366D01*
X63142000Y-182529366D02*
X63075333Y-182496033D01*
X63075333Y-182496033D02*
X62908667Y-182496033D01*
X62908667Y-182496033D02*
X62842000Y-182529366D01*
X62842000Y-182529366D02*
X62808667Y-182562700D01*
X62808667Y-182562700D02*
X62775333Y-182629366D01*
X62775333Y-182629366D02*
X62775333Y-182696033D01*
X62775333Y-182696033D02*
X62808667Y-182796033D01*
X62808667Y-182796033D02*
X63208667Y-183196033D01*
X63208667Y-183196033D02*
X62775333Y-183196033D01*
X62175333Y-182496033D02*
X62308666Y-182496033D01*
X62308666Y-182496033D02*
X62375333Y-182529366D01*
X62375333Y-182529366D02*
X62408666Y-182562700D01*
X62408666Y-182562700D02*
X62475333Y-182662700D01*
X62475333Y-182662700D02*
X62508666Y-182796033D01*
X62508666Y-182796033D02*
X62508666Y-183062700D01*
X62508666Y-183062700D02*
X62475333Y-183129366D01*
X62475333Y-183129366D02*
X62442000Y-183162700D01*
X62442000Y-183162700D02*
X62375333Y-183196033D01*
X62375333Y-183196033D02*
X62242000Y-183196033D01*
X62242000Y-183196033D02*
X62175333Y-183162700D01*
X62175333Y-183162700D02*
X62142000Y-183129366D01*
X62142000Y-183129366D02*
X62108666Y-183062700D01*
X62108666Y-183062700D02*
X62108666Y-182896033D01*
X62108666Y-182896033D02*
X62142000Y-182829366D01*
X62142000Y-182829366D02*
X62175333Y-182796033D01*
X62175333Y-182796033D02*
X62242000Y-182762700D01*
X62242000Y-182762700D02*
X62375333Y-182762700D01*
X62375333Y-182762700D02*
X62442000Y-182796033D01*
X62442000Y-182796033D02*
X62475333Y-182829366D01*
X62475333Y-182829366D02*
X62508666Y-182896033D01*
X28670000Y-197616033D02*
X28670000Y-196916033D01*
X28670000Y-196916033D02*
X28503333Y-196916033D01*
X28503333Y-196916033D02*
X28403333Y-196949366D01*
X28403333Y-196949366D02*
X28336667Y-197016033D01*
X28336667Y-197016033D02*
X28303333Y-197082700D01*
X28303333Y-197082700D02*
X28270000Y-197216033D01*
X28270000Y-197216033D02*
X28270000Y-197316033D01*
X28270000Y-197316033D02*
X28303333Y-197449366D01*
X28303333Y-197449366D02*
X28336667Y-197516033D01*
X28336667Y-197516033D02*
X28403333Y-197582700D01*
X28403333Y-197582700D02*
X28503333Y-197616033D01*
X28503333Y-197616033D02*
X28670000Y-197616033D01*
X27603333Y-197616033D02*
X28003333Y-197616033D01*
X27803333Y-197616033D02*
X27803333Y-196916033D01*
X27803333Y-196916033D02*
X27870000Y-197016033D01*
X27870000Y-197016033D02*
X27936667Y-197082700D01*
X27936667Y-197082700D02*
X28003333Y-197116033D01*
X27170000Y-196916033D02*
X27103333Y-196916033D01*
X27103333Y-196916033D02*
X27036666Y-196949366D01*
X27036666Y-196949366D02*
X27003333Y-196982700D01*
X27003333Y-196982700D02*
X26970000Y-197049366D01*
X26970000Y-197049366D02*
X26936666Y-197182700D01*
X26936666Y-197182700D02*
X26936666Y-197349366D01*
X26936666Y-197349366D02*
X26970000Y-197482700D01*
X26970000Y-197482700D02*
X27003333Y-197549366D01*
X27003333Y-197549366D02*
X27036666Y-197582700D01*
X27036666Y-197582700D02*
X27103333Y-197616033D01*
X27103333Y-197616033D02*
X27170000Y-197616033D01*
X27170000Y-197616033D02*
X27236666Y-197582700D01*
X27236666Y-197582700D02*
X27270000Y-197549366D01*
X27270000Y-197549366D02*
X27303333Y-197482700D01*
X27303333Y-197482700D02*
X27336666Y-197349366D01*
X27336666Y-197349366D02*
X27336666Y-197182700D01*
X27336666Y-197182700D02*
X27303333Y-197049366D01*
X27303333Y-197049366D02*
X27270000Y-196982700D01*
X27270000Y-196982700D02*
X27236666Y-196949366D01*
X27236666Y-196949366D02*
X27170000Y-196916033D01*
X45061666Y-160650366D02*
X45094999Y-160683700D01*
X45094999Y-160683700D02*
X45194999Y-160717033D01*
X45194999Y-160717033D02*
X45261666Y-160717033D01*
X45261666Y-160717033D02*
X45361666Y-160683700D01*
X45361666Y-160683700D02*
X45428333Y-160617033D01*
X45428333Y-160617033D02*
X45461666Y-160550366D01*
X45461666Y-160550366D02*
X45494999Y-160417033D01*
X45494999Y-160417033D02*
X45494999Y-160317033D01*
X45494999Y-160317033D02*
X45461666Y-160183700D01*
X45461666Y-160183700D02*
X45428333Y-160117033D01*
X45428333Y-160117033D02*
X45361666Y-160050366D01*
X45361666Y-160050366D02*
X45261666Y-160017033D01*
X45261666Y-160017033D02*
X45194999Y-160017033D01*
X45194999Y-160017033D02*
X45094999Y-160050366D01*
X45094999Y-160050366D02*
X45061666Y-160083700D01*
X44428333Y-160017033D02*
X44761666Y-160017033D01*
X44761666Y-160017033D02*
X44794999Y-160350366D01*
X44794999Y-160350366D02*
X44761666Y-160317033D01*
X44761666Y-160317033D02*
X44694999Y-160283700D01*
X44694999Y-160283700D02*
X44528333Y-160283700D01*
X44528333Y-160283700D02*
X44461666Y-160317033D01*
X44461666Y-160317033D02*
X44428333Y-160350366D01*
X44428333Y-160350366D02*
X44394999Y-160417033D01*
X44394999Y-160417033D02*
X44394999Y-160583700D01*
X44394999Y-160583700D02*
X44428333Y-160650366D01*
X44428333Y-160650366D02*
X44461666Y-160683700D01*
X44461666Y-160683700D02*
X44528333Y-160717033D01*
X44528333Y-160717033D02*
X44694999Y-160717033D01*
X44694999Y-160717033D02*
X44761666Y-160683700D01*
X44761666Y-160683700D02*
X44794999Y-160650366D01*
X78174000Y-171606033D02*
X78407333Y-171272700D01*
X78574000Y-171606033D02*
X78574000Y-170906033D01*
X78574000Y-170906033D02*
X78307333Y-170906033D01*
X78307333Y-170906033D02*
X78240667Y-170939366D01*
X78240667Y-170939366D02*
X78207333Y-170972700D01*
X78207333Y-170972700D02*
X78174000Y-171039366D01*
X78174000Y-171039366D02*
X78174000Y-171139366D01*
X78174000Y-171139366D02*
X78207333Y-171206033D01*
X78207333Y-171206033D02*
X78240667Y-171239366D01*
X78240667Y-171239366D02*
X78307333Y-171272700D01*
X78307333Y-171272700D02*
X78574000Y-171272700D01*
X77507333Y-171606033D02*
X77907333Y-171606033D01*
X77707333Y-171606033D02*
X77707333Y-170906033D01*
X77707333Y-170906033D02*
X77774000Y-171006033D01*
X77774000Y-171006033D02*
X77840667Y-171072700D01*
X77840667Y-171072700D02*
X77907333Y-171106033D01*
X76907333Y-170906033D02*
X77040666Y-170906033D01*
X77040666Y-170906033D02*
X77107333Y-170939366D01*
X77107333Y-170939366D02*
X77140666Y-170972700D01*
X77140666Y-170972700D02*
X77207333Y-171072700D01*
X77207333Y-171072700D02*
X77240666Y-171206033D01*
X77240666Y-171206033D02*
X77240666Y-171472700D01*
X77240666Y-171472700D02*
X77207333Y-171539366D01*
X77207333Y-171539366D02*
X77174000Y-171572700D01*
X77174000Y-171572700D02*
X77107333Y-171606033D01*
X77107333Y-171606033D02*
X76974000Y-171606033D01*
X76974000Y-171606033D02*
X76907333Y-171572700D01*
X76907333Y-171572700D02*
X76874000Y-171539366D01*
X76874000Y-171539366D02*
X76840666Y-171472700D01*
X76840666Y-171472700D02*
X76840666Y-171306033D01*
X76840666Y-171306033D02*
X76874000Y-171239366D01*
X76874000Y-171239366D02*
X76907333Y-171206033D01*
X76907333Y-171206033D02*
X76974000Y-171172700D01*
X76974000Y-171172700D02*
X77107333Y-171172700D01*
X77107333Y-171172700D02*
X77174000Y-171206033D01*
X77174000Y-171206033D02*
X77207333Y-171239366D01*
X77207333Y-171239366D02*
X77240666Y-171306033D01*
X37549166Y-189192700D02*
X37615833Y-189159366D01*
X37615833Y-189159366D02*
X37682500Y-189092700D01*
X37682500Y-189092700D02*
X37782500Y-188992700D01*
X37782500Y-188992700D02*
X37849166Y-188959366D01*
X37849166Y-188959366D02*
X37915833Y-188959366D01*
X37882500Y-189126033D02*
X37949166Y-189092700D01*
X37949166Y-189092700D02*
X38015833Y-189026033D01*
X38015833Y-189026033D02*
X38049166Y-188892700D01*
X38049166Y-188892700D02*
X38049166Y-188659366D01*
X38049166Y-188659366D02*
X38015833Y-188526033D01*
X38015833Y-188526033D02*
X37949166Y-188459366D01*
X37949166Y-188459366D02*
X37882500Y-188426033D01*
X37882500Y-188426033D02*
X37749166Y-188426033D01*
X37749166Y-188426033D02*
X37682500Y-188459366D01*
X37682500Y-188459366D02*
X37615833Y-188526033D01*
X37615833Y-188526033D02*
X37582500Y-188659366D01*
X37582500Y-188659366D02*
X37582500Y-188892700D01*
X37582500Y-188892700D02*
X37615833Y-189026033D01*
X37615833Y-189026033D02*
X37682500Y-189092700D01*
X37682500Y-189092700D02*
X37749166Y-189126033D01*
X37749166Y-189126033D02*
X37882500Y-189126033D01*
X37349167Y-188426033D02*
X36882500Y-188426033D01*
X36882500Y-188426033D02*
X37182500Y-189126033D01*
X63495366Y-161160333D02*
X63528700Y-161127000D01*
X63528700Y-161127000D02*
X63562033Y-161027000D01*
X63562033Y-161027000D02*
X63562033Y-160960333D01*
X63562033Y-160960333D02*
X63528700Y-160860333D01*
X63528700Y-160860333D02*
X63462033Y-160793667D01*
X63462033Y-160793667D02*
X63395366Y-160760333D01*
X63395366Y-160760333D02*
X63262033Y-160727000D01*
X63262033Y-160727000D02*
X63162033Y-160727000D01*
X63162033Y-160727000D02*
X63028700Y-160760333D01*
X63028700Y-160760333D02*
X62962033Y-160793667D01*
X62962033Y-160793667D02*
X62895366Y-160860333D01*
X62895366Y-160860333D02*
X62862033Y-160960333D01*
X62862033Y-160960333D02*
X62862033Y-161027000D01*
X62862033Y-161027000D02*
X62895366Y-161127000D01*
X62895366Y-161127000D02*
X62928700Y-161160333D01*
X62862033Y-161760333D02*
X62862033Y-161627000D01*
X62862033Y-161627000D02*
X62895366Y-161560333D01*
X62895366Y-161560333D02*
X62928700Y-161527000D01*
X62928700Y-161527000D02*
X63028700Y-161460333D01*
X63028700Y-161460333D02*
X63162033Y-161427000D01*
X63162033Y-161427000D02*
X63428700Y-161427000D01*
X63428700Y-161427000D02*
X63495366Y-161460333D01*
X63495366Y-161460333D02*
X63528700Y-161493667D01*
X63528700Y-161493667D02*
X63562033Y-161560333D01*
X63562033Y-161560333D02*
X63562033Y-161693667D01*
X63562033Y-161693667D02*
X63528700Y-161760333D01*
X63528700Y-161760333D02*
X63495366Y-161793667D01*
X63495366Y-161793667D02*
X63428700Y-161827000D01*
X63428700Y-161827000D02*
X63262033Y-161827000D01*
X63262033Y-161827000D02*
X63195366Y-161793667D01*
X63195366Y-161793667D02*
X63162033Y-161760333D01*
X63162033Y-161760333D02*
X63128700Y-161693667D01*
X63128700Y-161693667D02*
X63128700Y-161560333D01*
X63128700Y-161560333D02*
X63162033Y-161493667D01*
X63162033Y-161493667D02*
X63195366Y-161460333D01*
X63195366Y-161460333D02*
X63262033Y-161427000D01*
X29914000Y-155189366D02*
X29947333Y-155222700D01*
X29947333Y-155222700D02*
X30047333Y-155256033D01*
X30047333Y-155256033D02*
X30114000Y-155256033D01*
X30114000Y-155256033D02*
X30214000Y-155222700D01*
X30214000Y-155222700D02*
X30280667Y-155156033D01*
X30280667Y-155156033D02*
X30314000Y-155089366D01*
X30314000Y-155089366D02*
X30347333Y-154956033D01*
X30347333Y-154956033D02*
X30347333Y-154856033D01*
X30347333Y-154856033D02*
X30314000Y-154722700D01*
X30314000Y-154722700D02*
X30280667Y-154656033D01*
X30280667Y-154656033D02*
X30214000Y-154589366D01*
X30214000Y-154589366D02*
X30114000Y-154556033D01*
X30114000Y-154556033D02*
X30047333Y-154556033D01*
X30047333Y-154556033D02*
X29947333Y-154589366D01*
X29947333Y-154589366D02*
X29914000Y-154622700D01*
X29247333Y-155256033D02*
X29647333Y-155256033D01*
X29447333Y-155256033D02*
X29447333Y-154556033D01*
X29447333Y-154556033D02*
X29514000Y-154656033D01*
X29514000Y-154656033D02*
X29580667Y-154722700D01*
X29580667Y-154722700D02*
X29647333Y-154756033D01*
X28814000Y-154556033D02*
X28747333Y-154556033D01*
X28747333Y-154556033D02*
X28680666Y-154589366D01*
X28680666Y-154589366D02*
X28647333Y-154622700D01*
X28647333Y-154622700D02*
X28614000Y-154689366D01*
X28614000Y-154689366D02*
X28580666Y-154822700D01*
X28580666Y-154822700D02*
X28580666Y-154989366D01*
X28580666Y-154989366D02*
X28614000Y-155122700D01*
X28614000Y-155122700D02*
X28647333Y-155189366D01*
X28647333Y-155189366D02*
X28680666Y-155222700D01*
X28680666Y-155222700D02*
X28747333Y-155256033D01*
X28747333Y-155256033D02*
X28814000Y-155256033D01*
X28814000Y-155256033D02*
X28880666Y-155222700D01*
X28880666Y-155222700D02*
X28914000Y-155189366D01*
X28914000Y-155189366D02*
X28947333Y-155122700D01*
X28947333Y-155122700D02*
X28980666Y-154989366D01*
X28980666Y-154989366D02*
X28980666Y-154822700D01*
X28980666Y-154822700D02*
X28947333Y-154689366D01*
X28947333Y-154689366D02*
X28914000Y-154622700D01*
X28914000Y-154622700D02*
X28880666Y-154589366D01*
X28880666Y-154589366D02*
X28814000Y-154556033D01*
X35803666Y-175509366D02*
X35836999Y-175542700D01*
X35836999Y-175542700D02*
X35936999Y-175576033D01*
X35936999Y-175576033D02*
X36003666Y-175576033D01*
X36003666Y-175576033D02*
X36103666Y-175542700D01*
X36103666Y-175542700D02*
X36170333Y-175476033D01*
X36170333Y-175476033D02*
X36203666Y-175409366D01*
X36203666Y-175409366D02*
X36236999Y-175276033D01*
X36236999Y-175276033D02*
X36236999Y-175176033D01*
X36236999Y-175176033D02*
X36203666Y-175042700D01*
X36203666Y-175042700D02*
X36170333Y-174976033D01*
X36170333Y-174976033D02*
X36103666Y-174909366D01*
X36103666Y-174909366D02*
X36003666Y-174876033D01*
X36003666Y-174876033D02*
X35936999Y-174876033D01*
X35936999Y-174876033D02*
X35836999Y-174909366D01*
X35836999Y-174909366D02*
X35803666Y-174942700D01*
X35203666Y-175109366D02*
X35203666Y-175576033D01*
X35370333Y-174842700D02*
X35536999Y-175342700D01*
X35536999Y-175342700D02*
X35103666Y-175342700D01*
X34370000Y-177863033D02*
X34603333Y-177529700D01*
X34770000Y-177863033D02*
X34770000Y-177163033D01*
X34770000Y-177163033D02*
X34503333Y-177163033D01*
X34503333Y-177163033D02*
X34436667Y-177196366D01*
X34436667Y-177196366D02*
X34403333Y-177229700D01*
X34403333Y-177229700D02*
X34370000Y-177296366D01*
X34370000Y-177296366D02*
X34370000Y-177396366D01*
X34370000Y-177396366D02*
X34403333Y-177463033D01*
X34403333Y-177463033D02*
X34436667Y-177496366D01*
X34436667Y-177496366D02*
X34503333Y-177529700D01*
X34503333Y-177529700D02*
X34770000Y-177529700D01*
X33703333Y-177863033D02*
X34103333Y-177863033D01*
X33903333Y-177863033D02*
X33903333Y-177163033D01*
X33903333Y-177163033D02*
X33970000Y-177263033D01*
X33970000Y-177263033D02*
X34036667Y-177329700D01*
X34036667Y-177329700D02*
X34103333Y-177363033D01*
X33470000Y-177163033D02*
X33003333Y-177163033D01*
X33003333Y-177163033D02*
X33303333Y-177863033D01*
X35902000Y-173163033D02*
X35902000Y-172463033D01*
X35902000Y-172463033D02*
X35735333Y-172463033D01*
X35735333Y-172463033D02*
X35635333Y-172496366D01*
X35635333Y-172496366D02*
X35568667Y-172563033D01*
X35568667Y-172563033D02*
X35535333Y-172629700D01*
X35535333Y-172629700D02*
X35502000Y-172763033D01*
X35502000Y-172763033D02*
X35502000Y-172863033D01*
X35502000Y-172863033D02*
X35535333Y-172996366D01*
X35535333Y-172996366D02*
X35568667Y-173063033D01*
X35568667Y-173063033D02*
X35635333Y-173129700D01*
X35635333Y-173129700D02*
X35735333Y-173163033D01*
X35735333Y-173163033D02*
X35902000Y-173163033D01*
X34835333Y-173163033D02*
X35235333Y-173163033D01*
X35035333Y-173163033D02*
X35035333Y-172463033D01*
X35035333Y-172463033D02*
X35102000Y-172563033D01*
X35102000Y-172563033D02*
X35168667Y-172629700D01*
X35168667Y-172629700D02*
X35235333Y-172663033D01*
X34202000Y-172463033D02*
X34535333Y-172463033D01*
X34535333Y-172463033D02*
X34568666Y-172796366D01*
X34568666Y-172796366D02*
X34535333Y-172763033D01*
X34535333Y-172763033D02*
X34468666Y-172729700D01*
X34468666Y-172729700D02*
X34302000Y-172729700D01*
X34302000Y-172729700D02*
X34235333Y-172763033D01*
X34235333Y-172763033D02*
X34202000Y-172796366D01*
X34202000Y-172796366D02*
X34168666Y-172863033D01*
X34168666Y-172863033D02*
X34168666Y-173029700D01*
X34168666Y-173029700D02*
X34202000Y-173096366D01*
X34202000Y-173096366D02*
X34235333Y-173129700D01*
X34235333Y-173129700D02*
X34302000Y-173163033D01*
X34302000Y-173163033D02*
X34468666Y-173163033D01*
X34468666Y-173163033D02*
X34535333Y-173129700D01*
X34535333Y-173129700D02*
X34568666Y-173096366D01*
X38924033Y-174301999D02*
X38590700Y-174068666D01*
X38924033Y-173901999D02*
X38224033Y-173901999D01*
X38224033Y-173901999D02*
X38224033Y-174168666D01*
X38224033Y-174168666D02*
X38257366Y-174235333D01*
X38257366Y-174235333D02*
X38290700Y-174268666D01*
X38290700Y-174268666D02*
X38357366Y-174301999D01*
X38357366Y-174301999D02*
X38457366Y-174301999D01*
X38457366Y-174301999D02*
X38524033Y-174268666D01*
X38524033Y-174268666D02*
X38557366Y-174235333D01*
X38557366Y-174235333D02*
X38590700Y-174168666D01*
X38590700Y-174168666D02*
X38590700Y-173901999D01*
X38290700Y-174568666D02*
X38257366Y-174601999D01*
X38257366Y-174601999D02*
X38224033Y-174668666D01*
X38224033Y-174668666D02*
X38224033Y-174835333D01*
X38224033Y-174835333D02*
X38257366Y-174901999D01*
X38257366Y-174901999D02*
X38290700Y-174935333D01*
X38290700Y-174935333D02*
X38357366Y-174968666D01*
X38357366Y-174968666D02*
X38424033Y-174968666D01*
X38424033Y-174968666D02*
X38524033Y-174935333D01*
X38524033Y-174935333D02*
X38924033Y-174535333D01*
X38924033Y-174535333D02*
X38924033Y-174968666D01*
X38290700Y-175235333D02*
X38257366Y-175268666D01*
X38257366Y-175268666D02*
X38224033Y-175335333D01*
X38224033Y-175335333D02*
X38224033Y-175502000D01*
X38224033Y-175502000D02*
X38257366Y-175568666D01*
X38257366Y-175568666D02*
X38290700Y-175602000D01*
X38290700Y-175602000D02*
X38357366Y-175635333D01*
X38357366Y-175635333D02*
X38424033Y-175635333D01*
X38424033Y-175635333D02*
X38524033Y-175602000D01*
X38524033Y-175602000D02*
X38924033Y-175202000D01*
X38924033Y-175202000D02*
X38924033Y-175635333D01*
X34613000Y-181799033D02*
X34846333Y-181465700D01*
X35013000Y-181799033D02*
X35013000Y-181099033D01*
X35013000Y-181099033D02*
X34746333Y-181099033D01*
X34746333Y-181099033D02*
X34679667Y-181132366D01*
X34679667Y-181132366D02*
X34646333Y-181165700D01*
X34646333Y-181165700D02*
X34613000Y-181232366D01*
X34613000Y-181232366D02*
X34613000Y-181332366D01*
X34613000Y-181332366D02*
X34646333Y-181399033D01*
X34646333Y-181399033D02*
X34679667Y-181432366D01*
X34679667Y-181432366D02*
X34746333Y-181465700D01*
X34746333Y-181465700D02*
X35013000Y-181465700D01*
X34346333Y-181165700D02*
X34313000Y-181132366D01*
X34313000Y-181132366D02*
X34246333Y-181099033D01*
X34246333Y-181099033D02*
X34079667Y-181099033D01*
X34079667Y-181099033D02*
X34013000Y-181132366D01*
X34013000Y-181132366D02*
X33979667Y-181165700D01*
X33979667Y-181165700D02*
X33946333Y-181232366D01*
X33946333Y-181232366D02*
X33946333Y-181299033D01*
X33946333Y-181299033D02*
X33979667Y-181399033D01*
X33979667Y-181399033D02*
X34379667Y-181799033D01*
X34379667Y-181799033D02*
X33946333Y-181799033D01*
X33513000Y-181099033D02*
X33446333Y-181099033D01*
X33446333Y-181099033D02*
X33379666Y-181132366D01*
X33379666Y-181132366D02*
X33346333Y-181165700D01*
X33346333Y-181165700D02*
X33313000Y-181232366D01*
X33313000Y-181232366D02*
X33279666Y-181365700D01*
X33279666Y-181365700D02*
X33279666Y-181532366D01*
X33279666Y-181532366D02*
X33313000Y-181665700D01*
X33313000Y-181665700D02*
X33346333Y-181732366D01*
X33346333Y-181732366D02*
X33379666Y-181765700D01*
X33379666Y-181765700D02*
X33446333Y-181799033D01*
X33446333Y-181799033D02*
X33513000Y-181799033D01*
X33513000Y-181799033D02*
X33579666Y-181765700D01*
X33579666Y-181765700D02*
X33613000Y-181732366D01*
X33613000Y-181732366D02*
X33646333Y-181665700D01*
X33646333Y-181665700D02*
X33679666Y-181532366D01*
X33679666Y-181532366D02*
X33679666Y-181365700D01*
X33679666Y-181365700D02*
X33646333Y-181232366D01*
X33646333Y-181232366D02*
X33613000Y-181165700D01*
X33613000Y-181165700D02*
X33579666Y-181132366D01*
X33579666Y-181132366D02*
X33513000Y-181099033D01*
X44986033Y-173649999D02*
X44652700Y-173416666D01*
X44986033Y-173249999D02*
X44286033Y-173249999D01*
X44286033Y-173249999D02*
X44286033Y-173516666D01*
X44286033Y-173516666D02*
X44319366Y-173583333D01*
X44319366Y-173583333D02*
X44352700Y-173616666D01*
X44352700Y-173616666D02*
X44419366Y-173649999D01*
X44419366Y-173649999D02*
X44519366Y-173649999D01*
X44519366Y-173649999D02*
X44586033Y-173616666D01*
X44586033Y-173616666D02*
X44619366Y-173583333D01*
X44619366Y-173583333D02*
X44652700Y-173516666D01*
X44652700Y-173516666D02*
X44652700Y-173249999D01*
X44352700Y-173916666D02*
X44319366Y-173949999D01*
X44319366Y-173949999D02*
X44286033Y-174016666D01*
X44286033Y-174016666D02*
X44286033Y-174183333D01*
X44286033Y-174183333D02*
X44319366Y-174249999D01*
X44319366Y-174249999D02*
X44352700Y-174283333D01*
X44352700Y-174283333D02*
X44419366Y-174316666D01*
X44419366Y-174316666D02*
X44486033Y-174316666D01*
X44486033Y-174316666D02*
X44586033Y-174283333D01*
X44586033Y-174283333D02*
X44986033Y-173883333D01*
X44986033Y-173883333D02*
X44986033Y-174316666D01*
X44519366Y-174916666D02*
X44986033Y-174916666D01*
X44252700Y-174750000D02*
X44752700Y-174583333D01*
X44752700Y-174583333D02*
X44752700Y-175016666D01*
X27139000Y-186371033D02*
X27139000Y-185671033D01*
X27139000Y-185671033D02*
X26972333Y-185671033D01*
X26972333Y-185671033D02*
X26872333Y-185704366D01*
X26872333Y-185704366D02*
X26805667Y-185771033D01*
X26805667Y-185771033D02*
X26772333Y-185837700D01*
X26772333Y-185837700D02*
X26739000Y-185971033D01*
X26739000Y-185971033D02*
X26739000Y-186071033D01*
X26739000Y-186071033D02*
X26772333Y-186204366D01*
X26772333Y-186204366D02*
X26805667Y-186271033D01*
X26805667Y-186271033D02*
X26872333Y-186337700D01*
X26872333Y-186337700D02*
X26972333Y-186371033D01*
X26972333Y-186371033D02*
X27139000Y-186371033D01*
X26072333Y-186371033D02*
X26472333Y-186371033D01*
X26272333Y-186371033D02*
X26272333Y-185671033D01*
X26272333Y-185671033D02*
X26339000Y-185771033D01*
X26339000Y-185771033D02*
X26405667Y-185837700D01*
X26405667Y-185837700D02*
X26472333Y-185871033D01*
X25839000Y-185671033D02*
X25405666Y-185671033D01*
X25405666Y-185671033D02*
X25639000Y-185937700D01*
X25639000Y-185937700D02*
X25539000Y-185937700D01*
X25539000Y-185937700D02*
X25472333Y-185971033D01*
X25472333Y-185971033D02*
X25439000Y-186004366D01*
X25439000Y-186004366D02*
X25405666Y-186071033D01*
X25405666Y-186071033D02*
X25405666Y-186237700D01*
X25405666Y-186237700D02*
X25439000Y-186304366D01*
X25439000Y-186304366D02*
X25472333Y-186337700D01*
X25472333Y-186337700D02*
X25539000Y-186371033D01*
X25539000Y-186371033D02*
X25739000Y-186371033D01*
X25739000Y-186371033D02*
X25805666Y-186337700D01*
X25805666Y-186337700D02*
X25839000Y-186304366D01*
X47814033Y-188097333D02*
X47480700Y-187864000D01*
X47814033Y-187697333D02*
X47114033Y-187697333D01*
X47114033Y-187697333D02*
X47114033Y-187964000D01*
X47114033Y-187964000D02*
X47147366Y-188030667D01*
X47147366Y-188030667D02*
X47180700Y-188064000D01*
X47180700Y-188064000D02*
X47247366Y-188097333D01*
X47247366Y-188097333D02*
X47347366Y-188097333D01*
X47347366Y-188097333D02*
X47414033Y-188064000D01*
X47414033Y-188064000D02*
X47447366Y-188030667D01*
X47447366Y-188030667D02*
X47480700Y-187964000D01*
X47480700Y-187964000D02*
X47480700Y-187697333D01*
X47114033Y-188697333D02*
X47114033Y-188564000D01*
X47114033Y-188564000D02*
X47147366Y-188497333D01*
X47147366Y-188497333D02*
X47180700Y-188464000D01*
X47180700Y-188464000D02*
X47280700Y-188397333D01*
X47280700Y-188397333D02*
X47414033Y-188364000D01*
X47414033Y-188364000D02*
X47680700Y-188364000D01*
X47680700Y-188364000D02*
X47747366Y-188397333D01*
X47747366Y-188397333D02*
X47780700Y-188430667D01*
X47780700Y-188430667D02*
X47814033Y-188497333D01*
X47814033Y-188497333D02*
X47814033Y-188630667D01*
X47814033Y-188630667D02*
X47780700Y-188697333D01*
X47780700Y-188697333D02*
X47747366Y-188730667D01*
X47747366Y-188730667D02*
X47680700Y-188764000D01*
X47680700Y-188764000D02*
X47514033Y-188764000D01*
X47514033Y-188764000D02*
X47447366Y-188730667D01*
X47447366Y-188730667D02*
X47414033Y-188697333D01*
X47414033Y-188697333D02*
X47380700Y-188630667D01*
X47380700Y-188630667D02*
X47380700Y-188497333D01*
X47380700Y-188497333D02*
X47414033Y-188430667D01*
X47414033Y-188430667D02*
X47447366Y-188397333D01*
X47447366Y-188397333D02*
X47514033Y-188364000D01*
X58936033Y-175669999D02*
X58602700Y-175436666D01*
X58936033Y-175269999D02*
X58236033Y-175269999D01*
X58236033Y-175269999D02*
X58236033Y-175536666D01*
X58236033Y-175536666D02*
X58269366Y-175603333D01*
X58269366Y-175603333D02*
X58302700Y-175636666D01*
X58302700Y-175636666D02*
X58369366Y-175669999D01*
X58369366Y-175669999D02*
X58469366Y-175669999D01*
X58469366Y-175669999D02*
X58536033Y-175636666D01*
X58536033Y-175636666D02*
X58569366Y-175603333D01*
X58569366Y-175603333D02*
X58602700Y-175536666D01*
X58602700Y-175536666D02*
X58602700Y-175269999D01*
X58936033Y-176336666D02*
X58936033Y-175936666D01*
X58936033Y-176136666D02*
X58236033Y-176136666D01*
X58236033Y-176136666D02*
X58336033Y-176069999D01*
X58336033Y-176069999D02*
X58402700Y-176003333D01*
X58402700Y-176003333D02*
X58436033Y-175936666D01*
X58469366Y-176936666D02*
X58936033Y-176936666D01*
X58202700Y-176770000D02*
X58702700Y-176603333D01*
X58702700Y-176603333D02*
X58702700Y-177036666D01*
X59532233Y-166827266D02*
X60098900Y-166827266D01*
X60098900Y-166827266D02*
X60165566Y-166860600D01*
X60165566Y-166860600D02*
X60198900Y-166893933D01*
X60198900Y-166893933D02*
X60232233Y-166960600D01*
X60232233Y-166960600D02*
X60232233Y-167093933D01*
X60232233Y-167093933D02*
X60198900Y-167160600D01*
X60198900Y-167160600D02*
X60165566Y-167193933D01*
X60165566Y-167193933D02*
X60098900Y-167227266D01*
X60098900Y-167227266D02*
X59532233Y-167227266D01*
X59598900Y-167527266D02*
X59565566Y-167560599D01*
X59565566Y-167560599D02*
X59532233Y-167627266D01*
X59532233Y-167627266D02*
X59532233Y-167793933D01*
X59532233Y-167793933D02*
X59565566Y-167860599D01*
X59565566Y-167860599D02*
X59598900Y-167893933D01*
X59598900Y-167893933D02*
X59665566Y-167927266D01*
X59665566Y-167927266D02*
X59732233Y-167927266D01*
X59732233Y-167927266D02*
X59832233Y-167893933D01*
X59832233Y-167893933D02*
X60232233Y-167493933D01*
X60232233Y-167493933D02*
X60232233Y-167927266D01*
X35314666Y-166305033D02*
X35314666Y-165605033D01*
X35314666Y-165605033D02*
X35147999Y-165605033D01*
X35147999Y-165605033D02*
X35047999Y-165638366D01*
X35047999Y-165638366D02*
X34981333Y-165705033D01*
X34981333Y-165705033D02*
X34947999Y-165771700D01*
X34947999Y-165771700D02*
X34914666Y-165905033D01*
X34914666Y-165905033D02*
X34914666Y-166005033D01*
X34914666Y-166005033D02*
X34947999Y-166138366D01*
X34947999Y-166138366D02*
X34981333Y-166205033D01*
X34981333Y-166205033D02*
X35047999Y-166271700D01*
X35047999Y-166271700D02*
X35147999Y-166305033D01*
X35147999Y-166305033D02*
X35314666Y-166305033D01*
X34681333Y-165605033D02*
X34214666Y-165605033D01*
X34214666Y-165605033D02*
X34514666Y-166305033D01*
X44574033Y-162407666D02*
X45140700Y-162407666D01*
X45140700Y-162407666D02*
X45207366Y-162441000D01*
X45207366Y-162441000D02*
X45240700Y-162474333D01*
X45240700Y-162474333D02*
X45274033Y-162541000D01*
X45274033Y-162541000D02*
X45274033Y-162674333D01*
X45274033Y-162674333D02*
X45240700Y-162741000D01*
X45240700Y-162741000D02*
X45207366Y-162774333D01*
X45207366Y-162774333D02*
X45140700Y-162807666D01*
X45140700Y-162807666D02*
X44574033Y-162807666D01*
X44574033Y-163474333D02*
X44574033Y-163140999D01*
X44574033Y-163140999D02*
X44907366Y-163107666D01*
X44907366Y-163107666D02*
X44874033Y-163140999D01*
X44874033Y-163140999D02*
X44840700Y-163207666D01*
X44840700Y-163207666D02*
X44840700Y-163374333D01*
X44840700Y-163374333D02*
X44874033Y-163440999D01*
X44874033Y-163440999D02*
X44907366Y-163474333D01*
X44907366Y-163474333D02*
X44974033Y-163507666D01*
X44974033Y-163507666D02*
X45140700Y-163507666D01*
X45140700Y-163507666D02*
X45207366Y-163474333D01*
X45207366Y-163474333D02*
X45240700Y-163440999D01*
X45240700Y-163440999D02*
X45274033Y-163374333D01*
X45274033Y-163374333D02*
X45274033Y-163207666D01*
X45274033Y-163207666D02*
X45240700Y-163140999D01*
X45240700Y-163140999D02*
X45207366Y-163107666D01*
X78659166Y-189265733D02*
X78692500Y-189232400D01*
X78692500Y-189232400D02*
X78725833Y-189132400D01*
X78725833Y-189132400D02*
X78725833Y-189065733D01*
X78725833Y-189065733D02*
X78692500Y-188965733D01*
X78692500Y-188965733D02*
X78625833Y-188899067D01*
X78625833Y-188899067D02*
X78559166Y-188865733D01*
X78559166Y-188865733D02*
X78425833Y-188832400D01*
X78425833Y-188832400D02*
X78325833Y-188832400D01*
X78325833Y-188832400D02*
X78192500Y-188865733D01*
X78192500Y-188865733D02*
X78125833Y-188899067D01*
X78125833Y-188899067D02*
X78059166Y-188965733D01*
X78059166Y-188965733D02*
X78025833Y-189065733D01*
X78025833Y-189065733D02*
X78025833Y-189132400D01*
X78025833Y-189132400D02*
X78059166Y-189232400D01*
X78059166Y-189232400D02*
X78092500Y-189265733D01*
X78725833Y-189932400D02*
X78725833Y-189532400D01*
X78725833Y-189732400D02*
X78025833Y-189732400D01*
X78025833Y-189732400D02*
X78125833Y-189665733D01*
X78125833Y-189665733D02*
X78192500Y-189599067D01*
X78192500Y-189599067D02*
X78225833Y-189532400D01*
X67815033Y-190949333D02*
X68315033Y-190949333D01*
X68315033Y-190949333D02*
X68415033Y-190916000D01*
X68415033Y-190916000D02*
X68481700Y-190849333D01*
X68481700Y-190849333D02*
X68515033Y-190749333D01*
X68515033Y-190749333D02*
X68515033Y-190682667D01*
X67881700Y-191249333D02*
X67848366Y-191282666D01*
X67848366Y-191282666D02*
X67815033Y-191349333D01*
X67815033Y-191349333D02*
X67815033Y-191516000D01*
X67815033Y-191516000D02*
X67848366Y-191582666D01*
X67848366Y-191582666D02*
X67881700Y-191616000D01*
X67881700Y-191616000D02*
X67948366Y-191649333D01*
X67948366Y-191649333D02*
X68015033Y-191649333D01*
X68015033Y-191649333D02*
X68115033Y-191616000D01*
X68115033Y-191616000D02*
X68515033Y-191216000D01*
X68515033Y-191216000D02*
X68515033Y-191649333D01*
X67881700Y-191916000D02*
X67848366Y-191949333D01*
X67848366Y-191949333D02*
X67815033Y-192016000D01*
X67815033Y-192016000D02*
X67815033Y-192182667D01*
X67815033Y-192182667D02*
X67848366Y-192249333D01*
X67848366Y-192249333D02*
X67881700Y-192282667D01*
X67881700Y-192282667D02*
X67948366Y-192316000D01*
X67948366Y-192316000D02*
X68015033Y-192316000D01*
X68015033Y-192316000D02*
X68115033Y-192282667D01*
X68115033Y-192282667D02*
X68515033Y-191882667D01*
X68515033Y-191882667D02*
X68515033Y-192316000D01*
X36518000Y-183577033D02*
X36751333Y-183243700D01*
X36918000Y-183577033D02*
X36918000Y-182877033D01*
X36918000Y-182877033D02*
X36651333Y-182877033D01*
X36651333Y-182877033D02*
X36584667Y-182910366D01*
X36584667Y-182910366D02*
X36551333Y-182943700D01*
X36551333Y-182943700D02*
X36518000Y-183010366D01*
X36518000Y-183010366D02*
X36518000Y-183110366D01*
X36518000Y-183110366D02*
X36551333Y-183177033D01*
X36551333Y-183177033D02*
X36584667Y-183210366D01*
X36584667Y-183210366D02*
X36651333Y-183243700D01*
X36651333Y-183243700D02*
X36918000Y-183243700D01*
X36251333Y-182943700D02*
X36218000Y-182910366D01*
X36218000Y-182910366D02*
X36151333Y-182877033D01*
X36151333Y-182877033D02*
X35984667Y-182877033D01*
X35984667Y-182877033D02*
X35918000Y-182910366D01*
X35918000Y-182910366D02*
X35884667Y-182943700D01*
X35884667Y-182943700D02*
X35851333Y-183010366D01*
X35851333Y-183010366D02*
X35851333Y-183077033D01*
X35851333Y-183077033D02*
X35884667Y-183177033D01*
X35884667Y-183177033D02*
X36284667Y-183577033D01*
X36284667Y-183577033D02*
X35851333Y-183577033D01*
X35184666Y-183577033D02*
X35584666Y-183577033D01*
X35384666Y-183577033D02*
X35384666Y-182877033D01*
X35384666Y-182877033D02*
X35451333Y-182977033D01*
X35451333Y-182977033D02*
X35518000Y-183043700D01*
X35518000Y-183043700D02*
X35584666Y-183077033D01*
X74103033Y-178873999D02*
X73769700Y-178640666D01*
X74103033Y-178473999D02*
X73403033Y-178473999D01*
X73403033Y-178473999D02*
X73403033Y-178740666D01*
X73403033Y-178740666D02*
X73436366Y-178807333D01*
X73436366Y-178807333D02*
X73469700Y-178840666D01*
X73469700Y-178840666D02*
X73536366Y-178873999D01*
X73536366Y-178873999D02*
X73636366Y-178873999D01*
X73636366Y-178873999D02*
X73703033Y-178840666D01*
X73703033Y-178840666D02*
X73736366Y-178807333D01*
X73736366Y-178807333D02*
X73769700Y-178740666D01*
X73769700Y-178740666D02*
X73769700Y-178473999D01*
X73469700Y-179140666D02*
X73436366Y-179173999D01*
X73436366Y-179173999D02*
X73403033Y-179240666D01*
X73403033Y-179240666D02*
X73403033Y-179407333D01*
X73403033Y-179407333D02*
X73436366Y-179473999D01*
X73436366Y-179473999D02*
X73469700Y-179507333D01*
X73469700Y-179507333D02*
X73536366Y-179540666D01*
X73536366Y-179540666D02*
X73603033Y-179540666D01*
X73603033Y-179540666D02*
X73703033Y-179507333D01*
X73703033Y-179507333D02*
X74103033Y-179107333D01*
X74103033Y-179107333D02*
X74103033Y-179540666D01*
X73403033Y-179774000D02*
X73403033Y-180240666D01*
X73403033Y-180240666D02*
X74103033Y-179940666D01*
X39704000Y-183577033D02*
X39937333Y-183243700D01*
X40104000Y-183577033D02*
X40104000Y-182877033D01*
X40104000Y-182877033D02*
X39837333Y-182877033D01*
X39837333Y-182877033D02*
X39770667Y-182910366D01*
X39770667Y-182910366D02*
X39737333Y-182943700D01*
X39737333Y-182943700D02*
X39704000Y-183010366D01*
X39704000Y-183010366D02*
X39704000Y-183110366D01*
X39704000Y-183110366D02*
X39737333Y-183177033D01*
X39737333Y-183177033D02*
X39770667Y-183210366D01*
X39770667Y-183210366D02*
X39837333Y-183243700D01*
X39837333Y-183243700D02*
X40104000Y-183243700D01*
X39037333Y-183577033D02*
X39437333Y-183577033D01*
X39237333Y-183577033D02*
X39237333Y-182877033D01*
X39237333Y-182877033D02*
X39304000Y-182977033D01*
X39304000Y-182977033D02*
X39370667Y-183043700D01*
X39370667Y-183043700D02*
X39437333Y-183077033D01*
X38637333Y-183177033D02*
X38704000Y-183143700D01*
X38704000Y-183143700D02*
X38737333Y-183110366D01*
X38737333Y-183110366D02*
X38770666Y-183043700D01*
X38770666Y-183043700D02*
X38770666Y-183010366D01*
X38770666Y-183010366D02*
X38737333Y-182943700D01*
X38737333Y-182943700D02*
X38704000Y-182910366D01*
X38704000Y-182910366D02*
X38637333Y-182877033D01*
X38637333Y-182877033D02*
X38504000Y-182877033D01*
X38504000Y-182877033D02*
X38437333Y-182910366D01*
X38437333Y-182910366D02*
X38404000Y-182943700D01*
X38404000Y-182943700D02*
X38370666Y-183010366D01*
X38370666Y-183010366D02*
X38370666Y-183043700D01*
X38370666Y-183043700D02*
X38404000Y-183110366D01*
X38404000Y-183110366D02*
X38437333Y-183143700D01*
X38437333Y-183143700D02*
X38504000Y-183177033D01*
X38504000Y-183177033D02*
X38637333Y-183177033D01*
X38637333Y-183177033D02*
X38704000Y-183210366D01*
X38704000Y-183210366D02*
X38737333Y-183243700D01*
X38737333Y-183243700D02*
X38770666Y-183310366D01*
X38770666Y-183310366D02*
X38770666Y-183443700D01*
X38770666Y-183443700D02*
X38737333Y-183510366D01*
X38737333Y-183510366D02*
X38704000Y-183543700D01*
X38704000Y-183543700D02*
X38637333Y-183577033D01*
X38637333Y-183577033D02*
X38504000Y-183577033D01*
X38504000Y-183577033D02*
X38437333Y-183543700D01*
X38437333Y-183543700D02*
X38404000Y-183510366D01*
X38404000Y-183510366D02*
X38370666Y-183443700D01*
X38370666Y-183443700D02*
X38370666Y-183310366D01*
X38370666Y-183310366D02*
X38404000Y-183243700D01*
X38404000Y-183243700D02*
X38437333Y-183210366D01*
X38437333Y-183210366D02*
X38504000Y-183177033D01*
X34920366Y-178492999D02*
X34953700Y-178459666D01*
X34953700Y-178459666D02*
X34987033Y-178359666D01*
X34987033Y-178359666D02*
X34987033Y-178292999D01*
X34987033Y-178292999D02*
X34953700Y-178192999D01*
X34953700Y-178192999D02*
X34887033Y-178126333D01*
X34887033Y-178126333D02*
X34820366Y-178092999D01*
X34820366Y-178092999D02*
X34687033Y-178059666D01*
X34687033Y-178059666D02*
X34587033Y-178059666D01*
X34587033Y-178059666D02*
X34453700Y-178092999D01*
X34453700Y-178092999D02*
X34387033Y-178126333D01*
X34387033Y-178126333D02*
X34320366Y-178192999D01*
X34320366Y-178192999D02*
X34287033Y-178292999D01*
X34287033Y-178292999D02*
X34287033Y-178359666D01*
X34287033Y-178359666D02*
X34320366Y-178459666D01*
X34320366Y-178459666D02*
X34353700Y-178492999D01*
X34987033Y-179159666D02*
X34987033Y-178759666D01*
X34987033Y-178959666D02*
X34287033Y-178959666D01*
X34287033Y-178959666D02*
X34387033Y-178892999D01*
X34387033Y-178892999D02*
X34453700Y-178826333D01*
X34453700Y-178826333D02*
X34487033Y-178759666D01*
X34353700Y-179426333D02*
X34320366Y-179459666D01*
X34320366Y-179459666D02*
X34287033Y-179526333D01*
X34287033Y-179526333D02*
X34287033Y-179693000D01*
X34287033Y-179693000D02*
X34320366Y-179759666D01*
X34320366Y-179759666D02*
X34353700Y-179793000D01*
X34353700Y-179793000D02*
X34420366Y-179826333D01*
X34420366Y-179826333D02*
X34487033Y-179826333D01*
X34487033Y-179826333D02*
X34587033Y-179793000D01*
X34587033Y-179793000D02*
X34987033Y-179393000D01*
X34987033Y-179393000D02*
X34987033Y-179826333D01*
X48539333Y-153921033D02*
X48539333Y-154487700D01*
X48539333Y-154487700D02*
X48506000Y-154554366D01*
X48506000Y-154554366D02*
X48472666Y-154587700D01*
X48472666Y-154587700D02*
X48406000Y-154621033D01*
X48406000Y-154621033D02*
X48272666Y-154621033D01*
X48272666Y-154621033D02*
X48206000Y-154587700D01*
X48206000Y-154587700D02*
X48172666Y-154554366D01*
X48172666Y-154554366D02*
X48139333Y-154487700D01*
X48139333Y-154487700D02*
X48139333Y-153921033D01*
X47506000Y-153921033D02*
X47639333Y-153921033D01*
X47639333Y-153921033D02*
X47706000Y-153954366D01*
X47706000Y-153954366D02*
X47739333Y-153987700D01*
X47739333Y-153987700D02*
X47806000Y-154087700D01*
X47806000Y-154087700D02*
X47839333Y-154221033D01*
X47839333Y-154221033D02*
X47839333Y-154487700D01*
X47839333Y-154487700D02*
X47806000Y-154554366D01*
X47806000Y-154554366D02*
X47772667Y-154587700D01*
X47772667Y-154587700D02*
X47706000Y-154621033D01*
X47706000Y-154621033D02*
X47572667Y-154621033D01*
X47572667Y-154621033D02*
X47506000Y-154587700D01*
X47506000Y-154587700D02*
X47472667Y-154554366D01*
X47472667Y-154554366D02*
X47439333Y-154487700D01*
X47439333Y-154487700D02*
X47439333Y-154321033D01*
X47439333Y-154321033D02*
X47472667Y-154254366D01*
X47472667Y-154254366D02*
X47506000Y-154221033D01*
X47506000Y-154221033D02*
X47572667Y-154187700D01*
X47572667Y-154187700D02*
X47706000Y-154187700D01*
X47706000Y-154187700D02*
X47772667Y-154221033D01*
X47772667Y-154221033D02*
X47806000Y-154254366D01*
X47806000Y-154254366D02*
X47839333Y-154321033D01*
X37915000Y-151887366D02*
X37948333Y-151920700D01*
X37948333Y-151920700D02*
X38048333Y-151954033D01*
X38048333Y-151954033D02*
X38115000Y-151954033D01*
X38115000Y-151954033D02*
X38215000Y-151920700D01*
X38215000Y-151920700D02*
X38281667Y-151854033D01*
X38281667Y-151854033D02*
X38315000Y-151787366D01*
X38315000Y-151787366D02*
X38348333Y-151654033D01*
X38348333Y-151654033D02*
X38348333Y-151554033D01*
X38348333Y-151554033D02*
X38315000Y-151420700D01*
X38315000Y-151420700D02*
X38281667Y-151354033D01*
X38281667Y-151354033D02*
X38215000Y-151287366D01*
X38215000Y-151287366D02*
X38115000Y-151254033D01*
X38115000Y-151254033D02*
X38048333Y-151254033D01*
X38048333Y-151254033D02*
X37948333Y-151287366D01*
X37948333Y-151287366D02*
X37915000Y-151320700D01*
X37248333Y-151954033D02*
X37648333Y-151954033D01*
X37448333Y-151954033D02*
X37448333Y-151254033D01*
X37448333Y-151254033D02*
X37515000Y-151354033D01*
X37515000Y-151354033D02*
X37581667Y-151420700D01*
X37581667Y-151420700D02*
X37648333Y-151454033D01*
X36581666Y-151954033D02*
X36981666Y-151954033D01*
X36781666Y-151954033D02*
X36781666Y-151254033D01*
X36781666Y-151254033D02*
X36848333Y-151354033D01*
X36848333Y-151354033D02*
X36915000Y-151420700D01*
X36915000Y-151420700D02*
X36981666Y-151454033D01*
X39185000Y-179767033D02*
X39418333Y-179433700D01*
X39585000Y-179767033D02*
X39585000Y-179067033D01*
X39585000Y-179067033D02*
X39318333Y-179067033D01*
X39318333Y-179067033D02*
X39251667Y-179100366D01*
X39251667Y-179100366D02*
X39218333Y-179133700D01*
X39218333Y-179133700D02*
X39185000Y-179200366D01*
X39185000Y-179200366D02*
X39185000Y-179300366D01*
X39185000Y-179300366D02*
X39218333Y-179367033D01*
X39218333Y-179367033D02*
X39251667Y-179400366D01*
X39251667Y-179400366D02*
X39318333Y-179433700D01*
X39318333Y-179433700D02*
X39585000Y-179433700D01*
X38518333Y-179767033D02*
X38918333Y-179767033D01*
X38718333Y-179767033D02*
X38718333Y-179067033D01*
X38718333Y-179067033D02*
X38785000Y-179167033D01*
X38785000Y-179167033D02*
X38851667Y-179233700D01*
X38851667Y-179233700D02*
X38918333Y-179267033D01*
X38185000Y-179767033D02*
X38051666Y-179767033D01*
X38051666Y-179767033D02*
X37985000Y-179733700D01*
X37985000Y-179733700D02*
X37951666Y-179700366D01*
X37951666Y-179700366D02*
X37885000Y-179600366D01*
X37885000Y-179600366D02*
X37851666Y-179467033D01*
X37851666Y-179467033D02*
X37851666Y-179200366D01*
X37851666Y-179200366D02*
X37885000Y-179133700D01*
X37885000Y-179133700D02*
X37918333Y-179100366D01*
X37918333Y-179100366D02*
X37985000Y-179067033D01*
X37985000Y-179067033D02*
X38118333Y-179067033D01*
X38118333Y-179067033D02*
X38185000Y-179100366D01*
X38185000Y-179100366D02*
X38218333Y-179133700D01*
X38218333Y-179133700D02*
X38251666Y-179200366D01*
X38251666Y-179200366D02*
X38251666Y-179367033D01*
X38251666Y-179367033D02*
X38218333Y-179433700D01*
X38218333Y-179433700D02*
X38185000Y-179467033D01*
X38185000Y-179467033D02*
X38118333Y-179500366D01*
X38118333Y-179500366D02*
X37985000Y-179500366D01*
X37985000Y-179500366D02*
X37918333Y-179467033D01*
X37918333Y-179467033D02*
X37885000Y-179433700D01*
X37885000Y-179433700D02*
X37851666Y-179367033D01*
X48384033Y-184172333D02*
X48950700Y-184172333D01*
X48950700Y-184172333D02*
X49017366Y-184205667D01*
X49017366Y-184205667D02*
X49050700Y-184239000D01*
X49050700Y-184239000D02*
X49084033Y-184305667D01*
X49084033Y-184305667D02*
X49084033Y-184439000D01*
X49084033Y-184439000D02*
X49050700Y-184505667D01*
X49050700Y-184505667D02*
X49017366Y-184539000D01*
X49017366Y-184539000D02*
X48950700Y-184572333D01*
X48950700Y-184572333D02*
X48384033Y-184572333D01*
X49084033Y-185272333D02*
X49084033Y-184872333D01*
X49084033Y-185072333D02*
X48384033Y-185072333D01*
X48384033Y-185072333D02*
X48484033Y-185005666D01*
X48484033Y-185005666D02*
X48550700Y-184939000D01*
X48550700Y-184939000D02*
X48584033Y-184872333D01*
X48384033Y-185705667D02*
X48384033Y-185772333D01*
X48384033Y-185772333D02*
X48417366Y-185839000D01*
X48417366Y-185839000D02*
X48450700Y-185872333D01*
X48450700Y-185872333D02*
X48517366Y-185905667D01*
X48517366Y-185905667D02*
X48650700Y-185939000D01*
X48650700Y-185939000D02*
X48817366Y-185939000D01*
X48817366Y-185939000D02*
X48950700Y-185905667D01*
X48950700Y-185905667D02*
X49017366Y-185872333D01*
X49017366Y-185872333D02*
X49050700Y-185839000D01*
X49050700Y-185839000D02*
X49084033Y-185772333D01*
X49084033Y-185772333D02*
X49084033Y-185705667D01*
X49084033Y-185705667D02*
X49050700Y-185639000D01*
X49050700Y-185639000D02*
X49017366Y-185605667D01*
X49017366Y-185605667D02*
X48950700Y-185572333D01*
X48950700Y-185572333D02*
X48817366Y-185539000D01*
X48817366Y-185539000D02*
X48650700Y-185539000D01*
X48650700Y-185539000D02*
X48517366Y-185572333D01*
X48517366Y-185572333D02*
X48450700Y-185605667D01*
X48450700Y-185605667D02*
X48417366Y-185639000D01*
X48417366Y-185639000D02*
X48384033Y-185705667D01*
X26678666Y-179640033D02*
X26678666Y-178940033D01*
X26678666Y-178940033D02*
X26511999Y-178940033D01*
X26511999Y-178940033D02*
X26411999Y-178973366D01*
X26411999Y-178973366D02*
X26345333Y-179040033D01*
X26345333Y-179040033D02*
X26311999Y-179106700D01*
X26311999Y-179106700D02*
X26278666Y-179240033D01*
X26278666Y-179240033D02*
X26278666Y-179340033D01*
X26278666Y-179340033D02*
X26311999Y-179473366D01*
X26311999Y-179473366D02*
X26345333Y-179540033D01*
X26345333Y-179540033D02*
X26411999Y-179606700D01*
X26411999Y-179606700D02*
X26511999Y-179640033D01*
X26511999Y-179640033D02*
X26678666Y-179640033D01*
X26045333Y-178940033D02*
X25611999Y-178940033D01*
X25611999Y-178940033D02*
X25845333Y-179206700D01*
X25845333Y-179206700D02*
X25745333Y-179206700D01*
X25745333Y-179206700D02*
X25678666Y-179240033D01*
X25678666Y-179240033D02*
X25645333Y-179273366D01*
X25645333Y-179273366D02*
X25611999Y-179340033D01*
X25611999Y-179340033D02*
X25611999Y-179506700D01*
X25611999Y-179506700D02*
X25645333Y-179573366D01*
X25645333Y-179573366D02*
X25678666Y-179606700D01*
X25678666Y-179606700D02*
X25745333Y-179640033D01*
X25745333Y-179640033D02*
X25945333Y-179640033D01*
X25945333Y-179640033D02*
X26011999Y-179606700D01*
X26011999Y-179606700D02*
X26045333Y-179573366D01*
X43203333Y-194036033D02*
X43203333Y-194602700D01*
X43203333Y-194602700D02*
X43170000Y-194669366D01*
X43170000Y-194669366D02*
X43136666Y-194702700D01*
X43136666Y-194702700D02*
X43070000Y-194736033D01*
X43070000Y-194736033D02*
X42936666Y-194736033D01*
X42936666Y-194736033D02*
X42870000Y-194702700D01*
X42870000Y-194702700D02*
X42836666Y-194669366D01*
X42836666Y-194669366D02*
X42803333Y-194602700D01*
X42803333Y-194602700D02*
X42803333Y-194036033D01*
X42436667Y-194736033D02*
X42303333Y-194736033D01*
X42303333Y-194736033D02*
X42236667Y-194702700D01*
X42236667Y-194702700D02*
X42203333Y-194669366D01*
X42203333Y-194669366D02*
X42136667Y-194569366D01*
X42136667Y-194569366D02*
X42103333Y-194436033D01*
X42103333Y-194436033D02*
X42103333Y-194169366D01*
X42103333Y-194169366D02*
X42136667Y-194102700D01*
X42136667Y-194102700D02*
X42170000Y-194069366D01*
X42170000Y-194069366D02*
X42236667Y-194036033D01*
X42236667Y-194036033D02*
X42370000Y-194036033D01*
X42370000Y-194036033D02*
X42436667Y-194069366D01*
X42436667Y-194069366D02*
X42470000Y-194102700D01*
X42470000Y-194102700D02*
X42503333Y-194169366D01*
X42503333Y-194169366D02*
X42503333Y-194336033D01*
X42503333Y-194336033D02*
X42470000Y-194402700D01*
X42470000Y-194402700D02*
X42436667Y-194436033D01*
X42436667Y-194436033D02*
X42370000Y-194469366D01*
X42370000Y-194469366D02*
X42236667Y-194469366D01*
X42236667Y-194469366D02*
X42170000Y-194436033D01*
X42170000Y-194436033D02*
X42136667Y-194402700D01*
X42136667Y-194402700D02*
X42103333Y-194336033D01*
X31054666Y-183008700D02*
X31121333Y-182975366D01*
X31121333Y-182975366D02*
X31188000Y-182908700D01*
X31188000Y-182908700D02*
X31288000Y-182808700D01*
X31288000Y-182808700D02*
X31354666Y-182775366D01*
X31354666Y-182775366D02*
X31421333Y-182775366D01*
X31388000Y-182942033D02*
X31454666Y-182908700D01*
X31454666Y-182908700D02*
X31521333Y-182842033D01*
X31521333Y-182842033D02*
X31554666Y-182708700D01*
X31554666Y-182708700D02*
X31554666Y-182475366D01*
X31554666Y-182475366D02*
X31521333Y-182342033D01*
X31521333Y-182342033D02*
X31454666Y-182275366D01*
X31454666Y-182275366D02*
X31388000Y-182242033D01*
X31388000Y-182242033D02*
X31254666Y-182242033D01*
X31254666Y-182242033D02*
X31188000Y-182275366D01*
X31188000Y-182275366D02*
X31121333Y-182342033D01*
X31121333Y-182342033D02*
X31088000Y-182475366D01*
X31088000Y-182475366D02*
X31088000Y-182708700D01*
X31088000Y-182708700D02*
X31121333Y-182842033D01*
X31121333Y-182842033D02*
X31188000Y-182908700D01*
X31188000Y-182908700D02*
X31254666Y-182942033D01*
X31254666Y-182942033D02*
X31388000Y-182942033D01*
X30688000Y-182542033D02*
X30754667Y-182508700D01*
X30754667Y-182508700D02*
X30788000Y-182475366D01*
X30788000Y-182475366D02*
X30821333Y-182408700D01*
X30821333Y-182408700D02*
X30821333Y-182375366D01*
X30821333Y-182375366D02*
X30788000Y-182308700D01*
X30788000Y-182308700D02*
X30754667Y-182275366D01*
X30754667Y-182275366D02*
X30688000Y-182242033D01*
X30688000Y-182242033D02*
X30554667Y-182242033D01*
X30554667Y-182242033D02*
X30488000Y-182275366D01*
X30488000Y-182275366D02*
X30454667Y-182308700D01*
X30454667Y-182308700D02*
X30421333Y-182375366D01*
X30421333Y-182375366D02*
X30421333Y-182408700D01*
X30421333Y-182408700D02*
X30454667Y-182475366D01*
X30454667Y-182475366D02*
X30488000Y-182508700D01*
X30488000Y-182508700D02*
X30554667Y-182542033D01*
X30554667Y-182542033D02*
X30688000Y-182542033D01*
X30688000Y-182542033D02*
X30754667Y-182575366D01*
X30754667Y-182575366D02*
X30788000Y-182608700D01*
X30788000Y-182608700D02*
X30821333Y-182675366D01*
X30821333Y-182675366D02*
X30821333Y-182808700D01*
X30821333Y-182808700D02*
X30788000Y-182875366D01*
X30788000Y-182875366D02*
X30754667Y-182908700D01*
X30754667Y-182908700D02*
X30688000Y-182942033D01*
X30688000Y-182942033D02*
X30554667Y-182942033D01*
X30554667Y-182942033D02*
X30488000Y-182908700D01*
X30488000Y-182908700D02*
X30454667Y-182875366D01*
X30454667Y-182875366D02*
X30421333Y-182808700D01*
X30421333Y-182808700D02*
X30421333Y-182675366D01*
X30421333Y-182675366D02*
X30454667Y-182608700D01*
X30454667Y-182608700D02*
X30488000Y-182575366D01*
X30488000Y-182575366D02*
X30554667Y-182542033D01*
X41471000Y-187447366D02*
X41504333Y-187480700D01*
X41504333Y-187480700D02*
X41604333Y-187514033D01*
X41604333Y-187514033D02*
X41671000Y-187514033D01*
X41671000Y-187514033D02*
X41771000Y-187480700D01*
X41771000Y-187480700D02*
X41837667Y-187414033D01*
X41837667Y-187414033D02*
X41871000Y-187347366D01*
X41871000Y-187347366D02*
X41904333Y-187214033D01*
X41904333Y-187214033D02*
X41904333Y-187114033D01*
X41904333Y-187114033D02*
X41871000Y-186980700D01*
X41871000Y-186980700D02*
X41837667Y-186914033D01*
X41837667Y-186914033D02*
X41771000Y-186847366D01*
X41771000Y-186847366D02*
X41671000Y-186814033D01*
X41671000Y-186814033D02*
X41604333Y-186814033D01*
X41604333Y-186814033D02*
X41504333Y-186847366D01*
X41504333Y-186847366D02*
X41471000Y-186880700D01*
X40804333Y-187514033D02*
X41204333Y-187514033D01*
X41004333Y-187514033D02*
X41004333Y-186814033D01*
X41004333Y-186814033D02*
X41071000Y-186914033D01*
X41071000Y-186914033D02*
X41137667Y-186980700D01*
X41137667Y-186980700D02*
X41204333Y-187014033D01*
X40571000Y-186814033D02*
X40137666Y-186814033D01*
X40137666Y-186814033D02*
X40371000Y-187080700D01*
X40371000Y-187080700D02*
X40271000Y-187080700D01*
X40271000Y-187080700D02*
X40204333Y-187114033D01*
X40204333Y-187114033D02*
X40171000Y-187147366D01*
X40171000Y-187147366D02*
X40137666Y-187214033D01*
X40137666Y-187214033D02*
X40137666Y-187380700D01*
X40137666Y-187380700D02*
X40171000Y-187447366D01*
X40171000Y-187447366D02*
X40204333Y-187480700D01*
X40204333Y-187480700D02*
X40271000Y-187514033D01*
X40271000Y-187514033D02*
X40471000Y-187514033D01*
X40471000Y-187514033D02*
X40537666Y-187480700D01*
X40537666Y-187480700D02*
X40571000Y-187447366D01*
X71817033Y-178873999D02*
X71483700Y-178640666D01*
X71817033Y-178473999D02*
X71117033Y-178473999D01*
X71117033Y-178473999D02*
X71117033Y-178740666D01*
X71117033Y-178740666D02*
X71150366Y-178807333D01*
X71150366Y-178807333D02*
X71183700Y-178840666D01*
X71183700Y-178840666D02*
X71250366Y-178873999D01*
X71250366Y-178873999D02*
X71350366Y-178873999D01*
X71350366Y-178873999D02*
X71417033Y-178840666D01*
X71417033Y-178840666D02*
X71450366Y-178807333D01*
X71450366Y-178807333D02*
X71483700Y-178740666D01*
X71483700Y-178740666D02*
X71483700Y-178473999D01*
X71183700Y-179140666D02*
X71150366Y-179173999D01*
X71150366Y-179173999D02*
X71117033Y-179240666D01*
X71117033Y-179240666D02*
X71117033Y-179407333D01*
X71117033Y-179407333D02*
X71150366Y-179473999D01*
X71150366Y-179473999D02*
X71183700Y-179507333D01*
X71183700Y-179507333D02*
X71250366Y-179540666D01*
X71250366Y-179540666D02*
X71317033Y-179540666D01*
X71317033Y-179540666D02*
X71417033Y-179507333D01*
X71417033Y-179507333D02*
X71817033Y-179107333D01*
X71817033Y-179107333D02*
X71817033Y-179540666D01*
X71417033Y-179940666D02*
X71383700Y-179874000D01*
X71383700Y-179874000D02*
X71350366Y-179840666D01*
X71350366Y-179840666D02*
X71283700Y-179807333D01*
X71283700Y-179807333D02*
X71250366Y-179807333D01*
X71250366Y-179807333D02*
X71183700Y-179840666D01*
X71183700Y-179840666D02*
X71150366Y-179874000D01*
X71150366Y-179874000D02*
X71117033Y-179940666D01*
X71117033Y-179940666D02*
X71117033Y-180074000D01*
X71117033Y-180074000D02*
X71150366Y-180140666D01*
X71150366Y-180140666D02*
X71183700Y-180174000D01*
X71183700Y-180174000D02*
X71250366Y-180207333D01*
X71250366Y-180207333D02*
X71283700Y-180207333D01*
X71283700Y-180207333D02*
X71350366Y-180174000D01*
X71350366Y-180174000D02*
X71383700Y-180140666D01*
X71383700Y-180140666D02*
X71417033Y-180074000D01*
X71417033Y-180074000D02*
X71417033Y-179940666D01*
X71417033Y-179940666D02*
X71450366Y-179874000D01*
X71450366Y-179874000D02*
X71483700Y-179840666D01*
X71483700Y-179840666D02*
X71550366Y-179807333D01*
X71550366Y-179807333D02*
X71683700Y-179807333D01*
X71683700Y-179807333D02*
X71750366Y-179840666D01*
X71750366Y-179840666D02*
X71783700Y-179874000D01*
X71783700Y-179874000D02*
X71817033Y-179940666D01*
X71817033Y-179940666D02*
X71817033Y-180074000D01*
X71817033Y-180074000D02*
X71783700Y-180140666D01*
X71783700Y-180140666D02*
X71750366Y-180174000D01*
X71750366Y-180174000D02*
X71683700Y-180207333D01*
X71683700Y-180207333D02*
X71550366Y-180207333D01*
X71550366Y-180207333D02*
X71483700Y-180174000D01*
X71483700Y-180174000D02*
X71450366Y-180140666D01*
X71450366Y-180140666D02*
X71417033Y-180074000D01*
D11*
G04 #@! TO.C,R23*
X45667500Y-191062258D02*
X45667500Y-190587742D01*
X46712500Y-191062258D02*
X46712500Y-190587742D01*
G04 #@! TO.C,D9*
X33880000Y-171195000D02*
X28480000Y-171195000D01*
X33880000Y-167895000D02*
X33880000Y-171195000D01*
X33880000Y-167895000D02*
X28480000Y-167895000D01*
G04 #@! TO.C,D1*
X58098000Y-151009000D02*
X61778000Y-151009000D01*
X58098000Y-153029000D02*
X58098000Y-151009000D01*
X58098000Y-153029000D02*
X61778000Y-153029000D01*
G04 #@! TO.C,U7*
X41407500Y-179614000D02*
X42207500Y-179614000D01*
X41407500Y-179614000D02*
X40607500Y-179614000D01*
X41407500Y-176494000D02*
X43207500Y-176494000D01*
X41407500Y-176494000D02*
X40607500Y-176494000D01*
G04 #@! TO.C,R29*
X68469742Y-182230500D02*
X68944258Y-182230500D01*
X68469742Y-183275500D02*
X68944258Y-183275500D01*
G04 #@! TO.C,U8*
X44055000Y-181851500D02*
X44055000Y-181201500D01*
X44055000Y-181851500D02*
X44055000Y-182501500D01*
X40935000Y-181851500D02*
X40935000Y-180176500D01*
X40935000Y-181851500D02*
X40935000Y-182501500D01*
G04 #@! TO.C,U3*
X37084000Y-152634000D02*
X35134000Y-152634000D01*
X37084000Y-152634000D02*
X39034000Y-152634000D01*
X37084000Y-157754000D02*
X33634000Y-157754000D01*
X37084000Y-157754000D02*
X39034000Y-157754000D01*
G04 #@! TO.C,C2*
X41950000Y-189025580D02*
X41950000Y-188744420D01*
X42970000Y-189025580D02*
X42970000Y-188744420D01*
G04 #@! TO.C,R26*
X65104742Y-182357500D02*
X65579258Y-182357500D01*
X65104742Y-183402500D02*
X65579258Y-183402500D01*
G04 #@! TO.C,D10*
X26130000Y-196480000D02*
X26130000Y-191080000D01*
X29430000Y-196480000D02*
X26130000Y-196480000D01*
X29430000Y-196480000D02*
X29430000Y-191080000D01*
G04 #@! TO.C,C5*
X45085580Y-159641000D02*
X44804420Y-159641000D01*
X45085580Y-158621000D02*
X44804420Y-158621000D01*
G04 #@! TO.C,R16*
X77961258Y-173242500D02*
X77486742Y-173242500D01*
X77961258Y-172197500D02*
X77486742Y-172197500D01*
G04 #@! TO.C,Q7*
X37482500Y-184850000D02*
X36832500Y-184850000D01*
X37482500Y-184850000D02*
X38132500Y-184850000D01*
X37482500Y-187970000D02*
X35807500Y-187970000D01*
X37482500Y-187970000D02*
X38132500Y-187970000D01*
G04 #@! TO.C,C6*
X61212000Y-161938580D02*
X61212000Y-161657420D01*
X62232000Y-161938580D02*
X62232000Y-161657420D01*
G04 #@! TO.C,C10*
X32271580Y-155196000D02*
X31990420Y-155196000D01*
X32271580Y-154176000D02*
X31990420Y-154176000D01*
G04 #@! TO.C,C4*
X36600580Y-176852000D02*
X36319420Y-176852000D01*
X36600580Y-175832000D02*
X36319420Y-175832000D01*
G04 #@! TO.C,R17*
X36634258Y-178261500D02*
X36159742Y-178261500D01*
X36634258Y-177216500D02*
X36159742Y-177216500D01*
G04 #@! TO.C,D15*
X33912000Y-175513000D02*
X28512000Y-175513000D01*
X33912000Y-172213000D02*
X33912000Y-175513000D01*
X33912000Y-172213000D02*
X28512000Y-172213000D01*
G04 #@! TO.C,R22*
X39141500Y-176802742D02*
X39141500Y-177277258D01*
X38096500Y-176802742D02*
X38096500Y-177277258D01*
G04 #@! TO.C,R20*
X36634258Y-181055500D02*
X36159742Y-181055500D01*
X36634258Y-180010500D02*
X36159742Y-180010500D01*
G04 #@! TO.C,R24*
X45182500Y-176947742D02*
X45182500Y-177422258D01*
X44137500Y-176947742D02*
X44137500Y-177422258D01*
G04 #@! TO.C,D13*
X34134000Y-187705000D02*
X28734000Y-187705000D01*
X34134000Y-184405000D02*
X34134000Y-187705000D01*
X34134000Y-184405000D02*
X28734000Y-184405000D01*
G04 #@! TO.C,R6*
X46877500Y-190402258D02*
X46877500Y-189927742D01*
X47922500Y-190402258D02*
X47922500Y-189927742D01*
G04 #@! TO.C,R14*
X56500500Y-176220658D02*
X56500500Y-175746142D01*
X57545500Y-176220658D02*
X57545500Y-175746142D01*
G04 #@! TO.C,U2*
X71516200Y-164960600D02*
X71516200Y-169760600D01*
X61116200Y-164960600D02*
X61116200Y-163560600D01*
X60716200Y-164960600D02*
X61116200Y-164960600D01*
X60716200Y-164960600D02*
X60716200Y-169760600D01*
G04 #@! TO.C,D7*
X33880000Y-167385000D02*
X28480000Y-167385000D01*
X33880000Y-164085000D02*
X33880000Y-167385000D01*
X33880000Y-164085000D02*
X28480000Y-164085000D01*
G04 #@! TO.C,U5*
X56809600Y-160287000D02*
X56809600Y-165087000D01*
X46409600Y-160287000D02*
X46409600Y-158887000D01*
X46009600Y-160287000D02*
X46409600Y-160287000D01*
X46009600Y-160287000D02*
X46009600Y-165087000D01*
G04 #@! TO.C,C1*
X77726000Y-189216420D02*
X77726000Y-189497580D01*
X76706000Y-189216420D02*
X76706000Y-189497580D01*
D10*
G04 #@! TO.C,J22*
X60964032Y-193429855D02*
X60964032Y-186179855D01*
X60964032Y-196658000D02*
X60964032Y-196179855D01*
X60964032Y-199158000D02*
X60964032Y-196658000D01*
X62364032Y-196658000D02*
X60964032Y-196658000D01*
X62464032Y-184679855D02*
X65214032Y-184679855D01*
X63764032Y-199158000D02*
X60964032Y-199158000D01*
X69199000Y-197958000D02*
X69199000Y-199158000D01*
X69199000Y-199158000D02*
X63699000Y-199158000D01*
X74449000Y-196658000D02*
X75714032Y-196658000D01*
X74699000Y-199158000D02*
X69199000Y-199158000D01*
X75714032Y-193429855D02*
X75714032Y-186179855D01*
X75714032Y-196668928D02*
X75714032Y-196190783D01*
X75714032Y-199158000D02*
X74699000Y-199158000D01*
X75714032Y-199158000D02*
X75714032Y-196658000D01*
D11*
G04 #@! TO.C,R21*
X36095742Y-181534500D02*
X36570258Y-181534500D01*
X36095742Y-182579500D02*
X36570258Y-182579500D01*
G04 #@! TO.C,R27*
X73137500Y-182355258D02*
X73137500Y-181880742D01*
X74182500Y-182355258D02*
X74182500Y-181880742D01*
G04 #@! TO.C,R18*
X39491258Y-182579500D02*
X39016742Y-182579500D01*
X39491258Y-181534500D02*
X39016742Y-181534500D01*
G04 #@! TO.C,C12*
X36587580Y-179646000D02*
X36306420Y-179646000D01*
X36587580Y-178626000D02*
X36306420Y-178626000D01*
G04 #@! TO.C,U6*
X49494000Y-157588000D02*
X55504000Y-157588000D01*
X51744000Y-150768000D02*
X55504000Y-150768000D01*
X55504000Y-150768000D02*
X55504000Y-152028000D01*
X55504000Y-157588000D02*
X55504000Y-156328000D01*
G04 #@! TO.C,C11*
X34544580Y-152148000D02*
X34263420Y-152148000D01*
X34544580Y-151128000D02*
X34263420Y-151128000D01*
G04 #@! TO.C,R19*
X39079742Y-180010500D02*
X39554258Y-180010500D01*
X39079742Y-181055500D02*
X39554258Y-181055500D01*
D12*
G04 #@! TO.C,U10*
X51773000Y-183689000D02*
X51133000Y-183689000D01*
X51773000Y-183689000D02*
X51773000Y-184169000D01*
X50213000Y-183689000D02*
X49573000Y-183689000D01*
X51773000Y-185909000D02*
X51773000Y-186389000D01*
X49573000Y-185909000D02*
X49573000Y-186389000D01*
X51773000Y-186389000D02*
X51133000Y-186389000D01*
X50213000Y-186389000D02*
X49573000Y-186389000D01*
D11*
G04 #@! TO.C,D3*
X33920000Y-180847000D02*
X28520000Y-180847000D01*
X33920000Y-177547000D02*
X33920000Y-180847000D01*
X33920000Y-177547000D02*
X28520000Y-177547000D01*
G04 #@! TO.C,U9*
X43597500Y-190395000D02*
X42797500Y-190395000D01*
X43597500Y-190395000D02*
X44397500Y-190395000D01*
X43597500Y-193515000D02*
X41797500Y-193515000D01*
X43597500Y-193515000D02*
X44397500Y-193515000D01*
G04 #@! TO.C,Q8*
X28512500Y-181030000D02*
X27862500Y-181030000D01*
X28512500Y-181030000D02*
X29162500Y-181030000D01*
X28512500Y-184150000D02*
X26837500Y-184150000D01*
X28512500Y-184150000D02*
X29162500Y-184150000D01*
G04 #@! TO.C,C13*
X41054420Y-185590000D02*
X41335580Y-185590000D01*
X41054420Y-186610000D02*
X41335580Y-186610000D01*
G04 #@! TO.C,R28*
X70978500Y-182355258D02*
X70978500Y-181880742D01*
X72023500Y-182355258D02*
X72023500Y-181880742D01*
G04 #@! TD*
%LPC*%
D13*
G04 #@! TO.C,TDI1*
X47371000Y-163068000D03*
G04 #@! TD*
D14*
G04 #@! TO.C,J16*
X54610000Y-175880000D03*
D15*
X54610000Y-173340000D03*
X54610000Y-170800000D03*
G04 #@! TD*
D14*
G04 #@! TO.C,J18*
X54860000Y-189970000D03*
D15*
X54860000Y-192510000D03*
X54860000Y-195050000D03*
G04 #@! TD*
D14*
G04 #@! TO.C,J7*
X18811000Y-166624000D03*
D15*
X21351000Y-166624000D03*
X23891000Y-166624000D03*
G04 #@! TD*
D14*
G04 #@! TO.C,J4*
X49246600Y-189970000D03*
D15*
X49246600Y-192510000D03*
X49246600Y-195050000D03*
G04 #@! TD*
D14*
G04 #@! TO.C,J15*
X52066000Y-189970000D03*
D15*
X52066000Y-192510000D03*
X52066000Y-195050000D03*
G04 #@! TD*
D14*
G04 #@! TO.C,J10*
X27940000Y-153162000D03*
D15*
X30480000Y-153162000D03*
G04 #@! TD*
D14*
G04 #@! TO.C,J19*
X54830000Y-185050000D03*
D15*
X54830000Y-182510000D03*
G04 #@! TD*
D16*
G04 #@! TO.C,J9*
X22693000Y-180086000D03*
D17*
X17693000Y-180086000D03*
G04 #@! TD*
D13*
G04 #@! TO.C,GND1*
X69088000Y-168402000D03*
G04 #@! TD*
D14*
G04 #@! TO.C,J6*
X18811000Y-169418000D03*
D15*
X21351000Y-169418000D03*
X23891000Y-169418000D03*
G04 #@! TD*
D13*
G04 #@! TO.C,TMS1*
X59690000Y-164719000D03*
G04 #@! TD*
G04 #@! TO.C,TCK1*
X66929000Y-168402000D03*
G04 #@! TD*
D14*
G04 #@! TO.C,J3*
X49530000Y-175895000D03*
D15*
X49530000Y-173355000D03*
X49530000Y-170815000D03*
G04 #@! TD*
D16*
G04 #@! TO.C,J8*
X22860000Y-157480000D03*
D18*
X17860000Y-157480000D03*
G04 #@! TD*
D14*
G04 #@! TO.C,J1*
X76200000Y-158003000D03*
D15*
X76200000Y-155463000D03*
X76200000Y-152923000D03*
G04 #@! TD*
D16*
G04 #@! TO.C,J17*
X22693000Y-173990000D03*
D17*
X17693000Y-173990000D03*
G04 #@! TD*
D19*
G04 #@! TO.C,J24*
X82296000Y-176784000D03*
D20*
X82296000Y-178784000D03*
X82296000Y-180784000D03*
X82296000Y-182784000D03*
X82296000Y-184784000D03*
G04 #@! TD*
D16*
G04 #@! TO.C,J5*
X22606000Y-192024000D03*
D17*
X17606000Y-192024000D03*
G04 #@! TD*
D14*
G04 #@! TO.C,J12*
X81280000Y-157988000D03*
D15*
X81280000Y-155448000D03*
X81280000Y-152908000D03*
G04 #@! TD*
D14*
G04 #@! TO.C,J13*
X52070000Y-175895000D03*
D15*
X52070000Y-173355000D03*
X52070000Y-170815000D03*
G04 #@! TD*
D14*
G04 #@! TO.C,J2*
X78740000Y-158003000D03*
D15*
X78740000Y-155463000D03*
X78740000Y-152923000D03*
G04 #@! TD*
D14*
G04 #@! TO.C,J11*
X22606000Y-153162000D03*
D15*
X20066000Y-153162000D03*
X17526000Y-153162000D03*
G04 #@! TD*
D13*
G04 #@! TO.C,TDO1*
X64770000Y-168402000D03*
G04 #@! TD*
D16*
G04 #@! TO.C,J14*
X22693000Y-186055000D03*
D17*
X17693000Y-186055000D03*
G04 #@! TD*
D19*
G04 #@! TO.C,J23*
X82296000Y-189230000D03*
D20*
X82296000Y-191230000D03*
X82296000Y-193230000D03*
X82296000Y-195230000D03*
G04 #@! TD*
D21*
G04 #@! TO.C,R23*
X46190000Y-191650000D03*
X46190000Y-190000000D03*
G04 #@! TD*
D22*
G04 #@! TO.C,D9*
X32480000Y-169545000D03*
X28480000Y-169545000D03*
G04 #@! TD*
D23*
G04 #@! TO.C,D1*
X58928000Y-152019000D03*
X61828000Y-152019000D03*
G04 #@! TD*
D24*
G04 #@! TO.C,U7*
X42545000Y-177104000D03*
X42545000Y-178054000D03*
X42545000Y-179004000D03*
X40270000Y-179004000D03*
X40270000Y-177104000D03*
G04 #@! TD*
D25*
G04 #@! TO.C,R29*
X67882000Y-182753000D03*
X69532000Y-182753000D03*
G04 #@! TD*
D26*
G04 #@! TO.C,U8*
X41545000Y-180914000D03*
X43445000Y-180914000D03*
X42495000Y-182789000D03*
G04 #@! TD*
D27*
G04 #@! TO.C,U3*
X34609000Y-157099000D03*
X34609000Y-155829000D03*
X34609000Y-154559000D03*
X34609000Y-153289000D03*
X39559000Y-153289000D03*
X39559000Y-154559000D03*
X39559000Y-155829000D03*
X39559000Y-157099000D03*
G04 #@! TD*
D28*
G04 #@! TO.C,C2*
X42460000Y-189660000D03*
X42460000Y-188110000D03*
G04 #@! TD*
D25*
G04 #@! TO.C,R26*
X64517000Y-182880000D03*
X66167000Y-182880000D03*
G04 #@! TD*
D29*
G04 #@! TO.C,D10*
X27780000Y-195080000D03*
X27780000Y-191080000D03*
G04 #@! TD*
D30*
G04 #@! TO.C,C5*
X45720000Y-159131000D03*
X44170000Y-159131000D03*
G04 #@! TD*
D31*
G04 #@! TO.C,R16*
X78549000Y-172720000D03*
X76899000Y-172720000D03*
G04 #@! TD*
D32*
G04 #@! TO.C,Q7*
X36545000Y-187360000D03*
X36545000Y-185460000D03*
X38420000Y-186410000D03*
G04 #@! TD*
D28*
G04 #@! TO.C,C6*
X61722000Y-162573000D03*
X61722000Y-161023000D03*
G04 #@! TD*
D30*
G04 #@! TO.C,C10*
X32906000Y-154686000D03*
X31356000Y-154686000D03*
G04 #@! TD*
G04 #@! TO.C,C4*
X37235000Y-176342000D03*
X35685000Y-176342000D03*
G04 #@! TD*
D31*
G04 #@! TO.C,R17*
X37222000Y-177739000D03*
X35572000Y-177739000D03*
G04 #@! TD*
D22*
G04 #@! TO.C,D15*
X32512000Y-173863000D03*
X28512000Y-173863000D03*
G04 #@! TD*
D33*
G04 #@! TO.C,R22*
X38619000Y-176215000D03*
X38619000Y-177865000D03*
G04 #@! TD*
D31*
G04 #@! TO.C,R20*
X37222000Y-180533000D03*
X35572000Y-180533000D03*
G04 #@! TD*
D33*
G04 #@! TO.C,R24*
X44660000Y-176360000D03*
X44660000Y-178010000D03*
G04 #@! TD*
D22*
G04 #@! TO.C,D13*
X32734000Y-186055000D03*
X28734000Y-186055000D03*
G04 #@! TD*
D21*
G04 #@! TO.C,R6*
X47400000Y-190990000D03*
X47400000Y-189340000D03*
G04 #@! TD*
G04 #@! TO.C,R14*
X57023000Y-176808400D03*
X57023000Y-175158400D03*
G04 #@! TD*
D34*
G04 #@! TO.C,U2*
X61666200Y-164210600D03*
X62946200Y-164210600D03*
X64206200Y-164210600D03*
X65476200Y-164210600D03*
X66756200Y-164210600D03*
X68026200Y-164210600D03*
X69286200Y-164210600D03*
X70566200Y-164210600D03*
X70566200Y-170510600D03*
X69286200Y-170510600D03*
X68026200Y-170510600D03*
X66756200Y-170510600D03*
X65476200Y-170510600D03*
X64206200Y-170510600D03*
X62946200Y-170510600D03*
X61666200Y-170510600D03*
G04 #@! TD*
D22*
G04 #@! TO.C,D7*
X32480000Y-165735000D03*
X28480000Y-165735000D03*
G04 #@! TD*
D34*
G04 #@! TO.C,U5*
X46959600Y-159537000D03*
X48239600Y-159537000D03*
X49499600Y-159537000D03*
X50769600Y-159537000D03*
X52049600Y-159537000D03*
X53319600Y-159537000D03*
X54579600Y-159537000D03*
X55859600Y-159537000D03*
X55859600Y-165837000D03*
X54579600Y-165837000D03*
X53319600Y-165837000D03*
X52049600Y-165837000D03*
X50769600Y-165837000D03*
X49499600Y-165837000D03*
X48239600Y-165837000D03*
X46959600Y-165837000D03*
G04 #@! TD*
D35*
G04 #@! TO.C,C1*
X77216000Y-188582000D03*
X77216000Y-190132000D03*
G04 #@! TD*
D36*
G04 #@! TO.C,J22*
X65199000Y-195158000D03*
X73199000Y-195158000D03*
D37*
X65999000Y-184658000D03*
X67099000Y-184658000D03*
X68199000Y-184658000D03*
X69299000Y-184658000D03*
X70399000Y-184658000D03*
X71499000Y-184658000D03*
X72599000Y-184658000D03*
X73699000Y-184658000D03*
X74799000Y-184658000D03*
D38*
X60499000Y-194758000D03*
D39*
X61399000Y-185158000D03*
D40*
X75999000Y-185158000D03*
D38*
X75999000Y-194758000D03*
G04 #@! TD*
D25*
G04 #@! TO.C,R21*
X35508000Y-182057000D03*
X37158000Y-182057000D03*
G04 #@! TD*
D21*
G04 #@! TO.C,R27*
X73660000Y-182943000D03*
X73660000Y-181293000D03*
G04 #@! TD*
D31*
G04 #@! TO.C,R18*
X40079000Y-182057000D03*
X38429000Y-182057000D03*
G04 #@! TD*
D30*
G04 #@! TO.C,C12*
X37222000Y-179136000D03*
X35672000Y-179136000D03*
G04 #@! TD*
D41*
G04 #@! TO.C,U6*
X50444000Y-156478000D03*
X50444000Y-154178000D03*
D42*
X56744000Y-154178000D03*
D41*
X50444000Y-151878000D03*
G04 #@! TD*
D30*
G04 #@! TO.C,C11*
X35179000Y-151638000D03*
X33629000Y-151638000D03*
G04 #@! TD*
D25*
G04 #@! TO.C,R19*
X38492000Y-180533000D03*
X40142000Y-180533000D03*
G04 #@! TD*
D43*
G04 #@! TO.C,U10*
X49873000Y-184064000D03*
X49873000Y-184714000D03*
X49873000Y-185364000D03*
X49873000Y-186014000D03*
X51473000Y-186014000D03*
X51473000Y-185364000D03*
X51473000Y-184714000D03*
X51473000Y-184064000D03*
G04 #@! TD*
D22*
G04 #@! TO.C,D3*
X32520000Y-179197000D03*
X28520000Y-179197000D03*
G04 #@! TD*
D44*
G04 #@! TO.C,U9*
X42460000Y-192930000D03*
X42460000Y-192280000D03*
X42460000Y-191630000D03*
X42460000Y-190980000D03*
X44735000Y-190980000D03*
X44735000Y-191630000D03*
X44735000Y-192280000D03*
X44735000Y-192930000D03*
G04 #@! TD*
D32*
G04 #@! TO.C,Q8*
X27575000Y-183540000D03*
X27575000Y-181640000D03*
X29450000Y-182590000D03*
G04 #@! TD*
D45*
G04 #@! TO.C,C13*
X40420000Y-186100000D03*
X41970000Y-186100000D03*
G04 #@! TD*
D21*
G04 #@! TO.C,R28*
X71501000Y-182943000D03*
X71501000Y-181293000D03*
G04 #@! TD*
%LPD*%
M02*
