%TF.GenerationSoftware,KiCad,Pcbnew,9.0.6*%
%TF.CreationDate,2026-01-13T15:48:08+02:00*%
%TF.ProjectId,jf-ecu32.7,6a662d65-6375-4333-922e-372e6b696361,rev?*%
%TF.SameCoordinates,Original*%
%TF.FileFunction,Drillmap*%
%TF.FilePolarity,Positive*%
%FSLAX45Y45*%
G04 Gerber Fmt 4.5, Leading zero omitted, Abs format (unit mm)*
G04 Created by KiCad (PCBNEW 9.0.6) date 2026-01-13 15:48:08*
%MOMM*%
%LPD*%
G01*
G04 APERTURE LIST*
%ADD10C,0.200000*%
%ADD11C,0.100000*%
%ADD12C,0.270000*%
G04 APERTURE END LIST*
D10*
X1278000Y-15011400D02*
X8407400Y-15011400D01*
X8407400Y-19807000D01*
X1278000Y-19807000D01*
X1278000Y-15011400D01*
D11*
X1345000Y-19619000D02*
X1375000Y-19649000D01*
X1375000Y-19619000D02*
X1345000Y-19649000D01*
X1356600Y-15910800D02*
X1386600Y-15940800D01*
X1386600Y-15910800D02*
X1356600Y-15940800D01*
X1356600Y-15970800D02*
X1386600Y-16000800D01*
X1386600Y-15970800D02*
X1356600Y-16000800D01*
X1356600Y-16037800D02*
X1386600Y-16067800D01*
X1386600Y-16037800D02*
X1356600Y-16067800D01*
X1356600Y-16736300D02*
X1386600Y-16766300D01*
X1386600Y-16736300D02*
X1356600Y-16766300D01*
X1394700Y-15123400D02*
X1424700Y-15153400D01*
X1424700Y-15123400D02*
X1394700Y-15153400D01*
X1394700Y-17257000D02*
X1424700Y-17287000D01*
X1424700Y-17257000D02*
X1394700Y-17287000D01*
X1394700Y-17828500D02*
X1424700Y-17858500D01*
X1424700Y-17828500D02*
X1394700Y-17858500D01*
X1394700Y-18984200D02*
X1424700Y-19014200D01*
X1424700Y-18984200D02*
X1394700Y-19014200D01*
X1407400Y-18438100D02*
X1437400Y-18468100D01*
X1437400Y-18438100D02*
X1407400Y-18468100D01*
X1432800Y-15631400D02*
X1462800Y-15661400D01*
X1462800Y-15631400D02*
X1432800Y-15661400D01*
X1432800Y-15691400D02*
X1462800Y-15721400D01*
X1462800Y-15691400D02*
X1432800Y-15721400D01*
X1432800Y-15751401D02*
X1462800Y-15781401D01*
X1462800Y-15751401D02*
X1432800Y-15781401D01*
X1432800Y-15910800D02*
X1462800Y-15940800D01*
X1462800Y-15910800D02*
X1432800Y-15940800D01*
X1432800Y-15970800D02*
X1462800Y-16000800D01*
X1462800Y-15970800D02*
X1432800Y-16000800D01*
X1432800Y-16037800D02*
X1462800Y-16067800D01*
X1462800Y-16037800D02*
X1432800Y-16067800D01*
X1509000Y-15631400D02*
X1539000Y-15661400D01*
X1539000Y-15631400D02*
X1509000Y-15661400D01*
X1509000Y-15691400D02*
X1539000Y-15721400D01*
X1539000Y-15691400D02*
X1509000Y-15721400D01*
X1509000Y-15751401D02*
X1539000Y-15781401D01*
X1539000Y-15751401D02*
X1509000Y-15781401D01*
X1509000Y-16139400D02*
X1539000Y-16169400D01*
X1539000Y-16139400D02*
X1509000Y-16169400D01*
X1509000Y-16199400D02*
X1539000Y-16229400D01*
X1539000Y-16199400D02*
X1509000Y-16229400D01*
X1509000Y-16266400D02*
X1539000Y-16296400D01*
X1539000Y-16266400D02*
X1509000Y-16296400D01*
X1585200Y-16139400D02*
X1615200Y-16169400D01*
X1615200Y-16139400D02*
X1585200Y-16169400D01*
X1585200Y-16199400D02*
X1615200Y-16229400D01*
X1615200Y-16199400D02*
X1585200Y-16229400D01*
X1585200Y-16266400D02*
X1615200Y-16296400D01*
X1615200Y-16266400D02*
X1585200Y-16296400D01*
X1596000Y-19519000D02*
X1626000Y-19549000D01*
X1626000Y-19519000D02*
X1596000Y-19549000D01*
X1616000Y-19697000D02*
X1646000Y-19727000D01*
X1646000Y-19697000D02*
X1616000Y-19727000D01*
X1662000Y-15437000D02*
X1692000Y-15467000D01*
X1692000Y-15437000D02*
X1662000Y-15467000D01*
X1724900Y-16787100D02*
X1754900Y-16817100D01*
X1754900Y-16787100D02*
X1724900Y-16817100D01*
X1764000Y-15441000D02*
X1794000Y-15471000D01*
X1794000Y-15441000D02*
X1764000Y-15471000D01*
X1824000Y-15181000D02*
X1854000Y-15211000D01*
X1854000Y-15181000D02*
X1824000Y-15211000D01*
X1840000Y-19623000D02*
X1870000Y-19653000D01*
X1870000Y-19623000D02*
X1840000Y-19653000D01*
X1843000Y-15443000D02*
X1873000Y-15473000D01*
X1873000Y-15443000D02*
X1843000Y-15473000D01*
X1915400Y-15453600D02*
X1945400Y-15483600D01*
X1945400Y-15453600D02*
X1915400Y-15483600D01*
X1966200Y-15479000D02*
X1996200Y-15509000D01*
X1996200Y-15479000D02*
X1966200Y-15509000D01*
X1991600Y-17688800D02*
X2021600Y-17718800D01*
X2021600Y-17688800D02*
X1991600Y-17718800D01*
X1991600Y-18831800D02*
X2021600Y-18861800D01*
X2021600Y-18831800D02*
X1991600Y-18861800D01*
X2015000Y-15907000D02*
X2045000Y-15937000D01*
X2045000Y-15907000D02*
X2015000Y-15937000D01*
X2042400Y-15479000D02*
X2072400Y-15509000D01*
X2072400Y-15479000D02*
X2042400Y-15509000D01*
X2131300Y-15453600D02*
X2161300Y-15483600D01*
X2161300Y-15453600D02*
X2131300Y-15483600D01*
X2177000Y-19709000D02*
X2207000Y-19739000D01*
X2207000Y-19709000D02*
X2177000Y-19739000D01*
X2194800Y-15453600D02*
X2224800Y-15483600D01*
X2224800Y-15453600D02*
X2194800Y-15483600D01*
X2271000Y-15453600D02*
X2301000Y-15483600D01*
X2301000Y-15453600D02*
X2271000Y-15483600D01*
X2326618Y-15441777D02*
X2356618Y-15471777D01*
X2356618Y-15441777D02*
X2326618Y-15471777D01*
X2359900Y-15491700D02*
X2389900Y-15521700D01*
X2389900Y-15491700D02*
X2359900Y-15521700D01*
X2398000Y-15440900D02*
X2428000Y-15470900D01*
X2428000Y-15440900D02*
X2398000Y-15470900D01*
X2412000Y-19709000D02*
X2442000Y-19739000D01*
X2442000Y-19709000D02*
X2412000Y-19739000D01*
X2419000Y-15497000D02*
X2449000Y-15527000D01*
X2449000Y-15497000D02*
X2419000Y-15527000D01*
X2448800Y-16787100D02*
X2478800Y-16817100D01*
X2478800Y-16787100D02*
X2448800Y-16817100D01*
X2463000Y-15255000D02*
X2493000Y-15285000D01*
X2493000Y-15255000D02*
X2463000Y-15285000D01*
X2474200Y-16317200D02*
X2504200Y-16347200D01*
X2504200Y-16317200D02*
X2474200Y-16347200D01*
X2512000Y-15583000D02*
X2542000Y-15613000D01*
X2542000Y-15583000D02*
X2512000Y-15613000D01*
X2546000Y-15770000D02*
X2576000Y-15800000D01*
X2576000Y-15770000D02*
X2546000Y-15800000D01*
X2550400Y-18831800D02*
X2580400Y-18861800D01*
X2580400Y-18831800D02*
X2550400Y-18861800D01*
X2553000Y-15312000D02*
X2583000Y-15342000D01*
X2583000Y-15312000D02*
X2553000Y-15342000D01*
X2564000Y-15643000D02*
X2594000Y-15673000D01*
X2594000Y-15643000D02*
X2564000Y-15673000D01*
X2568000Y-18379000D02*
X2598000Y-18409000D01*
X2598000Y-18379000D02*
X2568000Y-18409000D01*
X2571000Y-18140000D02*
X2601000Y-18170000D01*
X2601000Y-18140000D02*
X2571000Y-18170000D01*
X2589000Y-19705000D02*
X2619000Y-19735000D01*
X2619000Y-19705000D02*
X2589000Y-19735000D01*
X2591600Y-15832200D02*
X2621600Y-15862200D01*
X2621600Y-15832200D02*
X2591600Y-15862200D01*
X2601200Y-16329900D02*
X2631200Y-16359900D01*
X2631200Y-16329900D02*
X2601200Y-16359900D01*
X2605000Y-15249000D02*
X2635000Y-15279000D01*
X2635000Y-15249000D02*
X2605000Y-15279000D01*
X2626600Y-16253700D02*
X2656600Y-16283700D01*
X2656600Y-16253700D02*
X2626600Y-16283700D01*
X2642400Y-15883000D02*
X2672400Y-15913000D01*
X2672400Y-15883000D02*
X2642400Y-15913000D01*
X2643000Y-15713000D02*
X2673000Y-15743000D01*
X2673000Y-15713000D02*
X2643000Y-15743000D01*
X2693200Y-15832200D02*
X2723200Y-15862200D01*
X2723200Y-15832200D02*
X2693200Y-15862200D01*
X2744000Y-15883000D02*
X2774000Y-15913000D01*
X2774000Y-15883000D02*
X2744000Y-15913000D01*
X2855200Y-15682200D02*
X2885200Y-15712200D01*
X2885200Y-15682200D02*
X2855200Y-15712200D01*
X2906000Y-15758400D02*
X2936000Y-15788400D01*
X2936000Y-15758400D02*
X2906000Y-15788400D01*
X2906000Y-16736300D02*
X2936000Y-16766300D01*
X2936000Y-16736300D02*
X2906000Y-16766300D01*
X2938000Y-15875000D02*
X2968000Y-15905000D01*
X2968000Y-15875000D02*
X2938000Y-15905000D01*
X2982200Y-15783800D02*
X3012200Y-15813800D01*
X3012200Y-15783800D02*
X2982200Y-15813800D01*
X3015000Y-16028000D02*
X3045000Y-16058000D01*
X3045000Y-16028000D02*
X3015000Y-16058000D01*
X3020300Y-16647400D02*
X3050300Y-16677400D01*
X3050300Y-16647400D02*
X3020300Y-16677400D01*
X3033000Y-16736300D02*
X3063000Y-16766300D01*
X3063000Y-16736300D02*
X3033000Y-16766300D01*
X3037000Y-19683000D02*
X3067000Y-19713000D01*
X3067000Y-19683000D02*
X3037000Y-19713000D01*
X3058400Y-16088600D02*
X3088400Y-16118600D01*
X3088400Y-16088600D02*
X3058400Y-16118600D01*
X3083800Y-15879000D02*
X3113800Y-15909000D01*
X3113800Y-15879000D02*
X3083800Y-15909000D01*
X3091000Y-16025000D02*
X3121000Y-16055000D01*
X3121000Y-16025000D02*
X3091000Y-16055000D01*
X3125000Y-16095000D02*
X3155000Y-16125000D01*
X3155000Y-16095000D02*
X3125000Y-16125000D01*
X3177000Y-16025000D02*
X3207000Y-16055000D01*
X3207000Y-16025000D02*
X3177000Y-16055000D01*
X3190000Y-16098000D02*
X3220000Y-16128000D01*
X3220000Y-16098000D02*
X3190000Y-16128000D01*
X3195000Y-19687000D02*
X3225000Y-19717000D01*
X3225000Y-19687000D02*
X3195000Y-19717000D01*
X3210800Y-15656800D02*
X3240800Y-15686800D01*
X3240800Y-15656800D02*
X3210800Y-15686800D01*
X3210800Y-15758400D02*
X3240800Y-15788400D01*
X3240800Y-15758400D02*
X3210800Y-15788400D01*
X3256000Y-16027000D02*
X3286000Y-16057000D01*
X3286000Y-16027000D02*
X3256000Y-16057000D01*
X3261600Y-15707600D02*
X3291600Y-15737600D01*
X3291600Y-15707600D02*
X3261600Y-15737600D01*
X3312400Y-15656800D02*
X3342400Y-15686800D01*
X3342400Y-15656800D02*
X3312400Y-15686800D01*
X3312400Y-15758400D02*
X3342400Y-15788400D01*
X3342400Y-15758400D02*
X3312400Y-15788400D01*
X3312400Y-16096000D02*
X3342400Y-16126000D01*
X3342400Y-16096000D02*
X3312400Y-16126000D01*
X3363200Y-15860000D02*
X3393200Y-15890000D01*
X3393200Y-15860000D02*
X3363200Y-15890000D01*
X3388600Y-18247600D02*
X3418600Y-18277600D01*
X3418600Y-18247600D02*
X3388600Y-18277600D01*
X3393000Y-19681000D02*
X3423000Y-19711000D01*
X3423000Y-19681000D02*
X3393000Y-19711000D01*
X3422000Y-18082500D02*
X3452000Y-18112500D01*
X3452000Y-18082500D02*
X3422000Y-18112500D01*
X3446738Y-18032436D02*
X3476738Y-18062436D01*
X3476738Y-18032436D02*
X3446738Y-18062436D01*
X3451000Y-17678000D02*
X3481000Y-17708000D01*
X3481000Y-17678000D02*
X3451000Y-17708000D01*
X3453523Y-18157277D02*
X3483523Y-18187277D01*
X3483523Y-18157277D02*
X3453523Y-18187277D01*
X3460000Y-17940000D02*
X3490000Y-17970000D01*
X3490000Y-17940000D02*
X3460000Y-17970000D01*
X3463000Y-17522000D02*
X3493000Y-17552000D01*
X3493000Y-17522000D02*
X3463000Y-17552000D01*
X3475000Y-16247000D02*
X3505000Y-16277000D01*
X3505000Y-16247000D02*
X3475000Y-16277000D01*
X3490200Y-16946000D02*
X3520200Y-16976000D01*
X3520200Y-16946000D02*
X3490200Y-16976000D01*
X3490200Y-17333200D02*
X3520200Y-17363200D01*
X3520200Y-17333200D02*
X3490200Y-17363200D01*
X3497000Y-16502000D02*
X3527000Y-16532000D01*
X3527000Y-16502000D02*
X3497000Y-16532000D01*
X3515600Y-16037800D02*
X3545600Y-16067800D01*
X3545600Y-16037800D02*
X3515600Y-16067800D01*
X3542200Y-17810800D02*
X3572200Y-17840800D01*
X3572200Y-17810800D02*
X3542200Y-17840800D01*
X3563000Y-16566000D02*
X3593000Y-16596000D01*
X3593000Y-16566000D02*
X3563000Y-16596000D01*
X3563000Y-16685000D02*
X3593000Y-16715000D01*
X3593000Y-16685000D02*
X3563000Y-16715000D01*
X3591800Y-19009600D02*
X3621800Y-19039600D01*
X3621800Y-19009600D02*
X3591800Y-19039600D01*
X3591800Y-19060400D02*
X3621800Y-19090400D01*
X3621800Y-19060400D02*
X3591800Y-19090400D01*
X3604500Y-16520400D02*
X3634500Y-16550400D01*
X3634500Y-16520400D02*
X3604500Y-16550400D01*
X3615000Y-19683000D02*
X3645000Y-19713000D01*
X3645000Y-19683000D02*
X3615000Y-19713000D01*
X3617200Y-15783800D02*
X3647200Y-15813800D01*
X3647200Y-15783800D02*
X3617200Y-15813800D01*
X3625000Y-15352000D02*
X3655000Y-15382000D01*
X3655000Y-15352000D02*
X3625000Y-15382000D01*
X3647900Y-18413200D02*
X3677900Y-18443200D01*
X3677900Y-18413200D02*
X3647900Y-18443200D01*
X3647900Y-19035700D02*
X3677900Y-19065700D01*
X3677900Y-19035700D02*
X3647900Y-19065700D01*
X3668000Y-15682200D02*
X3698000Y-15712200D01*
X3698000Y-15682200D02*
X3668000Y-15712200D01*
X3668000Y-16012400D02*
X3698000Y-16042400D01*
X3698000Y-16012400D02*
X3668000Y-16042400D01*
X3668000Y-16088600D02*
X3698000Y-16118600D01*
X3698000Y-16088600D02*
X3668000Y-16118600D01*
X3673000Y-15468000D02*
X3703000Y-15498000D01*
X3703000Y-15468000D02*
X3673000Y-15498000D01*
X3674000Y-15585000D02*
X3704000Y-15615000D01*
X3704000Y-15585000D02*
X3674000Y-15615000D01*
X3698000Y-16254000D02*
X3728000Y-16284000D01*
X3728000Y-16254000D02*
X3698000Y-16284000D01*
X3718800Y-16698200D02*
X3748800Y-16728200D01*
X3748800Y-16698200D02*
X3718800Y-16728200D01*
X3718800Y-19009600D02*
X3748800Y-19039600D01*
X3748800Y-19009600D02*
X3718800Y-19039600D01*
X3718800Y-19060400D02*
X3748800Y-19090400D01*
X3748800Y-19060400D02*
X3718800Y-19090400D01*
X3737000Y-15343000D02*
X3767000Y-15373000D01*
X3767000Y-15343000D02*
X3737000Y-15373000D01*
X3763000Y-15750000D02*
X3793000Y-15780000D01*
X3793000Y-15750000D02*
X3763000Y-15780000D01*
X3771000Y-19680000D02*
X3801000Y-19710000D01*
X3801000Y-19680000D02*
X3771000Y-19710000D01*
X3783000Y-16067000D02*
X3813000Y-16097000D01*
X3813000Y-16067000D02*
X3783000Y-16097000D01*
X3790000Y-17295100D02*
X3820000Y-17325100D01*
X3820000Y-17295100D02*
X3790000Y-17325100D01*
X3818000Y-17865000D02*
X3848000Y-17895000D01*
X3848000Y-17865000D02*
X3818000Y-17895000D01*
X3818000Y-19280000D02*
X3848000Y-19310000D01*
X3848000Y-19280000D02*
X3818000Y-19310000D01*
X3823000Y-18805000D02*
X3853000Y-18835000D01*
X3853000Y-18805000D02*
X3823000Y-18835000D01*
X3832000Y-18038000D02*
X3862000Y-18068000D01*
X3862000Y-18038000D02*
X3832000Y-18068000D01*
X3864000Y-18988000D02*
X3894000Y-19018000D01*
X3894000Y-18988000D02*
X3864000Y-19018000D01*
X3896600Y-16571200D02*
X3926600Y-16601200D01*
X3926600Y-16571200D02*
X3896600Y-16601200D01*
X3902377Y-17891377D02*
X3932377Y-17921377D01*
X3932377Y-17891377D02*
X3902377Y-17921377D01*
X3903000Y-16054000D02*
X3933000Y-16084000D01*
X3933000Y-16054000D02*
X3903000Y-16084000D01*
X3908000Y-19696000D02*
X3938000Y-19726000D01*
X3938000Y-19696000D02*
X3908000Y-19726000D01*
X3919000Y-17970000D02*
X3949000Y-18000000D01*
X3949000Y-17970000D02*
X3919000Y-18000000D01*
X3925000Y-15839000D02*
X3955000Y-15869000D01*
X3955000Y-15839000D02*
X3925000Y-15869000D01*
X3947400Y-16774400D02*
X3977400Y-16804400D01*
X3977400Y-16774400D02*
X3947400Y-16804400D01*
X3947400Y-17079200D02*
X3977400Y-17109200D01*
X3977400Y-17079200D02*
X3947400Y-17109200D01*
X3947400Y-17511000D02*
X3977400Y-17541000D01*
X3977400Y-17511000D02*
X3947400Y-17541000D01*
X3975000Y-16319000D02*
X4005000Y-16349000D01*
X4005000Y-16319000D02*
X3975000Y-16349000D01*
X3979000Y-18860000D02*
X4009000Y-18890000D01*
X4009000Y-18860000D02*
X3979000Y-18890000D01*
X3985500Y-18971500D02*
X4015500Y-19001500D01*
X4015500Y-18971500D02*
X3985500Y-19001500D01*
X3991750Y-19084000D02*
X4021750Y-19114000D01*
X4021750Y-19084000D02*
X3991750Y-19114000D01*
X3991750Y-19139250D02*
X4021750Y-19169250D01*
X4021750Y-19139250D02*
X3991750Y-19169250D01*
X3991750Y-19198250D02*
X4021750Y-19228250D01*
X4021750Y-19198250D02*
X3991750Y-19228250D01*
X3991750Y-19264250D02*
X4021750Y-19294250D01*
X4021750Y-19264250D02*
X3991750Y-19294250D01*
X3991750Y-19324250D02*
X4021750Y-19354250D01*
X4021750Y-19324250D02*
X3991750Y-19354250D01*
X3991750Y-19374250D02*
X4021750Y-19404250D01*
X4021750Y-19374250D02*
X3991750Y-19404250D01*
X3991750Y-19463000D02*
X4021750Y-19493000D01*
X4021750Y-19463000D02*
X3991750Y-19493000D01*
X3998200Y-19022300D02*
X4028200Y-19052300D01*
X4028200Y-19022300D02*
X3998200Y-19052300D01*
X3998200Y-19568400D02*
X4028200Y-19598400D01*
X4028200Y-19568400D02*
X3998200Y-19598400D01*
X4010900Y-16101300D02*
X4040900Y-16131300D01*
X4040900Y-16101300D02*
X4010900Y-16131300D01*
X4014000Y-15806000D02*
X4044000Y-15836000D01*
X4044000Y-15806000D02*
X4014000Y-15836000D01*
X4015000Y-15916000D02*
X4045000Y-15946000D01*
X4045000Y-15916000D02*
X4015000Y-15946000D01*
X4036300Y-18476200D02*
X4066300Y-18506200D01*
X4066300Y-18476200D02*
X4036300Y-18506200D01*
X4074400Y-17968200D02*
X4104400Y-17998200D01*
X4104400Y-17968200D02*
X4074400Y-17998200D01*
X4087100Y-18184100D02*
X4117100Y-18214100D01*
X4117100Y-18184100D02*
X4087100Y-18214100D01*
X4106000Y-17511000D02*
X4136000Y-17541000D01*
X4136000Y-17511000D02*
X4106000Y-17541000D01*
X4110000Y-19696000D02*
X4140000Y-19726000D01*
X4140000Y-19696000D02*
X4110000Y-19726000D01*
X4112500Y-15402800D02*
X4142500Y-15432800D01*
X4142500Y-15402800D02*
X4112500Y-15432800D01*
X4125200Y-17307800D02*
X4155200Y-17337800D01*
X4155200Y-17307800D02*
X4125200Y-17337800D01*
X4125200Y-19174700D02*
X4155200Y-19204700D01*
X4155200Y-19174700D02*
X4125200Y-19204700D01*
X4135000Y-19604000D02*
X4165000Y-19634000D01*
X4165000Y-19604000D02*
X4135000Y-19634000D01*
X4143925Y-18317125D02*
X4173925Y-18347125D01*
X4173925Y-18317125D02*
X4143925Y-18347125D01*
X4173000Y-19385000D02*
X4203000Y-19415000D01*
X4203000Y-19385000D02*
X4173000Y-19415000D01*
X4180000Y-18454000D02*
X4210000Y-18484000D01*
X4210000Y-18454000D02*
X4180000Y-18484000D01*
X4192000Y-19521000D02*
X4222000Y-19551000D01*
X4222000Y-19521000D02*
X4192000Y-19551000D01*
X4201400Y-16698200D02*
X4231400Y-16728200D01*
X4231400Y-16698200D02*
X4201400Y-16728200D01*
X4214100Y-17968200D02*
X4244100Y-17998200D01*
X4244100Y-17968200D02*
X4214100Y-17998200D01*
X4226800Y-17079200D02*
X4256800Y-17109200D01*
X4256800Y-17079200D02*
X4226800Y-17109200D01*
X4228300Y-15083800D02*
X4258300Y-15113800D01*
X4258300Y-15083800D02*
X4228300Y-15113800D01*
X4264900Y-17790400D02*
X4294900Y-17820400D01*
X4294900Y-17790400D02*
X4264900Y-17820400D01*
X4277600Y-15263100D02*
X4307600Y-15293100D01*
X4307600Y-15263100D02*
X4277600Y-15293100D01*
X4287000Y-19696000D02*
X4317000Y-19726000D01*
X4317000Y-19696000D02*
X4287000Y-19726000D01*
X4295000Y-19565000D02*
X4325000Y-19595000D01*
X4325000Y-19565000D02*
X4295000Y-19595000D01*
X4303000Y-16101300D02*
X4333000Y-16131300D01*
X4333000Y-16101300D02*
X4303000Y-16131300D01*
X4303000Y-18730200D02*
X4333000Y-18760200D01*
X4333000Y-18730200D02*
X4303000Y-18760200D01*
X4303000Y-18857200D02*
X4333000Y-18887200D01*
X4333000Y-18857200D02*
X4303000Y-18887200D01*
X4305000Y-15943000D02*
X4335000Y-15973000D01*
X4335000Y-15943000D02*
X4305000Y-15973000D01*
X4315000Y-15668000D02*
X4345000Y-15698000D01*
X4345000Y-15668000D02*
X4315000Y-15698000D01*
X4328400Y-18044400D02*
X4358400Y-18074400D01*
X4358400Y-18044400D02*
X4328400Y-18074400D01*
X4328400Y-18323800D02*
X4358400Y-18353800D01*
X4358400Y-18323800D02*
X4328400Y-18353800D01*
X4364000Y-16351000D02*
X4394000Y-16381000D01*
X4394000Y-16351000D02*
X4364000Y-16381000D01*
X4365000Y-19497000D02*
X4395000Y-19527000D01*
X4395000Y-19497000D02*
X4365000Y-19527000D01*
X4404600Y-18019000D02*
X4434600Y-18049000D01*
X4434600Y-18019000D02*
X4404600Y-18049000D01*
X4404600Y-18261350D02*
X4434600Y-18291350D01*
X4434600Y-18261350D02*
X4404600Y-18291350D01*
X4415000Y-16879000D02*
X4445000Y-16909000D01*
X4445000Y-16879000D02*
X4415000Y-16909000D01*
X4416000Y-19602000D02*
X4446000Y-19632000D01*
X4446000Y-19602000D02*
X4416000Y-19632000D01*
X4442000Y-16247000D02*
X4472000Y-16277000D01*
X4472000Y-16247000D02*
X4442000Y-16277000D01*
X4447000Y-16423000D02*
X4477000Y-16453000D01*
X4477000Y-16423000D02*
X4447000Y-16453000D01*
X4451000Y-17786000D02*
X4481000Y-17816000D01*
X4481000Y-17786000D02*
X4451000Y-17816000D01*
X4462000Y-17470000D02*
X4492000Y-17500000D01*
X4492000Y-17470000D02*
X4462000Y-17500000D01*
X4464000Y-17271000D02*
X4494000Y-17301000D01*
X4494000Y-17271000D02*
X4464000Y-17301000D01*
X4473000Y-15783000D02*
X4503000Y-15813000D01*
X4503000Y-15783000D02*
X4473000Y-15813000D01*
X4478000Y-19337000D02*
X4508000Y-19367000D01*
X4508000Y-19337000D02*
X4478000Y-19367000D01*
X4480000Y-19694000D02*
X4510000Y-19724000D01*
X4510000Y-19694000D02*
X4480000Y-19724000D01*
X4531600Y-18565100D02*
X4561600Y-18595100D01*
X4561600Y-18565100D02*
X4531600Y-18595100D01*
X4543963Y-18063259D02*
X4573963Y-18093259D01*
X4573963Y-18063259D02*
X4543963Y-18093259D01*
X4551000Y-16247000D02*
X4581000Y-16277000D01*
X4581000Y-16247000D02*
X4551000Y-16277000D01*
X4593123Y-17893123D02*
X4623123Y-17923123D01*
X4623123Y-17893123D02*
X4593123Y-17923123D01*
X4607800Y-18844500D02*
X4637800Y-18874500D01*
X4637800Y-18844500D02*
X4607800Y-18874500D01*
X4641000Y-19712000D02*
X4671000Y-19742000D01*
X4671000Y-19712000D02*
X4641000Y-19742000D01*
X4678000Y-19295000D02*
X4708000Y-19325000D01*
X4708000Y-19295000D02*
X4678000Y-19325000D01*
X4684000Y-15936200D02*
X4714000Y-15966200D01*
X4714000Y-15936200D02*
X4684000Y-15966200D01*
X4684000Y-17841200D02*
X4714000Y-17871200D01*
X4714000Y-17841200D02*
X4684000Y-17871200D01*
X4694000Y-19509000D02*
X4724000Y-19539000D01*
X4724000Y-19509000D02*
X4694000Y-19539000D01*
X4708000Y-19408000D02*
X4738000Y-19438000D01*
X4738000Y-19408000D02*
X4708000Y-19438000D01*
X4722100Y-15402800D02*
X4752100Y-15432800D01*
X4752100Y-15402800D02*
X4722100Y-15432800D01*
X4722100Y-18920700D02*
X4752100Y-18950700D01*
X4752100Y-18920700D02*
X4722100Y-18950700D01*
X4728000Y-15718000D02*
X4758000Y-15748000D01*
X4758000Y-15718000D02*
X4728000Y-15748000D01*
X4734800Y-17485600D02*
X4764800Y-17515600D01*
X4764800Y-17485600D02*
X4734800Y-17515600D01*
X4734800Y-19187400D02*
X4764800Y-19217400D01*
X4764800Y-19187400D02*
X4734800Y-19217400D01*
X4760200Y-17028400D02*
X4790200Y-17058400D01*
X4790200Y-17028400D02*
X4760200Y-17058400D01*
X4765420Y-16908880D02*
X4795420Y-16938880D01*
X4795420Y-16908880D02*
X4765420Y-16938880D01*
X4785600Y-15174200D02*
X4815600Y-15204200D01*
X4815600Y-15174200D02*
X4785600Y-15204200D01*
X4823700Y-18806400D02*
X4853700Y-18836400D01*
X4853700Y-18806400D02*
X4823700Y-18836400D01*
X4836400Y-16850600D02*
X4866400Y-16880600D01*
X4866400Y-16850600D02*
X4836400Y-16880600D01*
X4849100Y-16228300D02*
X4879100Y-16258300D01*
X4879100Y-16228300D02*
X4849100Y-16258300D01*
X4849100Y-18527000D02*
X4879100Y-18557000D01*
X4879100Y-18527000D02*
X4849100Y-18557000D01*
X4854000Y-16104000D02*
X4884000Y-16134000D01*
X4884000Y-16104000D02*
X4854000Y-16134000D01*
X4861800Y-15250400D02*
X4891800Y-15280400D01*
X4891800Y-15250400D02*
X4861800Y-15280400D01*
X4963400Y-18234900D02*
X4993400Y-18264900D01*
X4993400Y-18234900D02*
X4963400Y-18264900D01*
X5001500Y-16228300D02*
X5031500Y-16258300D01*
X5031500Y-16228300D02*
X5001500Y-16258300D01*
X5029400Y-15402800D02*
X5059400Y-15432800D01*
X5059400Y-15402800D02*
X5029400Y-15432800D01*
X5039600Y-18311100D02*
X5069600Y-18341100D01*
X5069600Y-18311100D02*
X5039600Y-18341100D01*
X5050000Y-19702000D02*
X5080000Y-19732000D01*
X5080000Y-19702000D02*
X5050000Y-19732000D01*
X5052300Y-18044400D02*
X5082300Y-18074400D01*
X5082300Y-18044400D02*
X5052300Y-18074400D01*
X5065000Y-17815800D02*
X5095000Y-17845800D01*
X5095000Y-17815800D02*
X5065000Y-17845800D01*
X5077700Y-16380700D02*
X5107700Y-16410700D01*
X5107700Y-16380700D02*
X5077700Y-16410700D01*
X5090400Y-16723600D02*
X5120400Y-16753600D01*
X5120400Y-16723600D02*
X5090400Y-16753600D01*
X5179300Y-18450800D02*
X5209300Y-18480800D01*
X5209300Y-18450800D02*
X5179300Y-18480800D01*
X5268200Y-18044400D02*
X5298200Y-18074400D01*
X5298200Y-18044400D02*
X5268200Y-18074400D01*
X5306300Y-15225000D02*
X5336300Y-15255000D01*
X5336300Y-15225000D02*
X5306300Y-15255000D01*
X5319000Y-18806400D02*
X5349000Y-18836400D01*
X5349000Y-18806400D02*
X5319000Y-18836400D01*
X5328000Y-18401000D02*
X5358000Y-18431000D01*
X5358000Y-18401000D02*
X5328000Y-18431000D01*
X5334000Y-15703000D02*
X5364000Y-15733000D01*
X5364000Y-15703000D02*
X5334000Y-15733000D01*
X5334000Y-19706000D02*
X5364000Y-19736000D01*
X5364000Y-19706000D02*
X5334000Y-19736000D01*
X5369800Y-15364700D02*
X5399800Y-15394700D01*
X5399800Y-15364700D02*
X5369800Y-15394700D01*
X5369800Y-15440900D02*
X5399800Y-15470900D01*
X5399800Y-15440900D02*
X5369800Y-15470900D01*
X5446000Y-15225000D02*
X5476000Y-15255000D01*
X5476000Y-15225000D02*
X5446000Y-15255000D01*
X5484100Y-15364700D02*
X5514100Y-15394700D01*
X5514100Y-15364700D02*
X5484100Y-15394700D01*
X5484100Y-15440900D02*
X5514100Y-15470900D01*
X5514100Y-15440900D02*
X5484100Y-15470900D01*
X5484100Y-16406100D02*
X5514100Y-16436100D01*
X5514100Y-16406100D02*
X5484100Y-16436100D01*
X5484100Y-18044400D02*
X5514100Y-18074400D01*
X5514100Y-18044400D02*
X5484100Y-18074400D01*
X5496800Y-17866600D02*
X5526800Y-17896600D01*
X5526800Y-17866600D02*
X5496800Y-17896600D01*
X5522200Y-18781000D02*
X5552200Y-18811000D01*
X5552200Y-18781000D02*
X5522200Y-18811000D01*
X5541000Y-16065000D02*
X5571000Y-16095000D01*
X5571000Y-16065000D02*
X5541000Y-16095000D01*
X5619000Y-16025000D02*
X5649000Y-16055000D01*
X5649000Y-16025000D02*
X5619000Y-16055000D01*
X5626000Y-16149000D02*
X5656000Y-16179000D01*
X5656000Y-16149000D02*
X5626000Y-16179000D01*
X5627000Y-19685000D02*
X5657000Y-19715000D01*
X5657000Y-19685000D02*
X5627000Y-19715000D01*
X5636500Y-19200100D02*
X5666500Y-19230100D01*
X5666500Y-19200100D02*
X5636500Y-19230100D01*
X5645000Y-15938000D02*
X5675000Y-15968000D01*
X5675000Y-15938000D02*
X5645000Y-15968000D01*
X5674600Y-16634700D02*
X5704600Y-16664700D01*
X5704600Y-16634700D02*
X5674600Y-16664700D01*
X5685000Y-16086000D02*
X5715000Y-16116000D01*
X5715000Y-16086000D02*
X5685000Y-16116000D01*
X5700000Y-15580600D02*
X5730000Y-15610600D01*
X5730000Y-15580600D02*
X5700000Y-15610600D01*
X5729000Y-19431000D02*
X5759000Y-19461000D01*
X5759000Y-19431000D02*
X5729000Y-19461000D01*
X5740000Y-16155000D02*
X5770000Y-16185000D01*
X5770000Y-16155000D02*
X5740000Y-16185000D01*
X5750800Y-16037800D02*
X5780800Y-16067800D01*
X5780800Y-16037800D02*
X5750800Y-16067800D01*
X5750800Y-17333200D02*
X5780800Y-17363200D01*
X5780800Y-17333200D02*
X5750800Y-17363200D01*
X5750800Y-18222200D02*
X5780800Y-18252200D01*
X5780800Y-18222200D02*
X5750800Y-18252200D01*
X5763500Y-17574500D02*
X5793500Y-17604500D01*
X5793500Y-17574500D02*
X5763500Y-17604500D01*
X5765000Y-15705000D02*
X5795000Y-15735000D01*
X5795000Y-15705000D02*
X5765000Y-15735000D01*
X5779900Y-17675540D02*
X5809900Y-17705540D01*
X5809900Y-17675540D02*
X5779900Y-17705540D01*
X5788900Y-17066500D02*
X5818900Y-17096500D01*
X5818900Y-17066500D02*
X5788900Y-17096500D01*
X5801600Y-16418800D02*
X5831600Y-16448800D01*
X5831600Y-16418800D02*
X5801600Y-16448800D01*
X5827000Y-19085800D02*
X5857000Y-19115800D01*
X5857000Y-19085800D02*
X5827000Y-19115800D01*
X5851000Y-15533000D02*
X5881000Y-15563000D01*
X5881000Y-15533000D02*
X5851000Y-15563000D01*
X5860000Y-16156000D02*
X5890000Y-16186000D01*
X5890000Y-16156000D02*
X5860000Y-16186000D01*
X5865100Y-19327100D02*
X5895100Y-19357100D01*
X5895100Y-19327100D02*
X5865100Y-19357100D01*
X5903200Y-19428700D02*
X5933200Y-19458700D01*
X5933200Y-19428700D02*
X5903200Y-19458700D01*
X5926000Y-18948500D02*
X5956000Y-18978500D01*
X5956000Y-18948500D02*
X5926000Y-18978500D01*
X5927860Y-18052560D02*
X5957860Y-18082560D01*
X5957860Y-18052560D02*
X5927860Y-18082560D01*
X5928600Y-17066500D02*
X5958600Y-17096500D01*
X5958600Y-17066500D02*
X5928600Y-17096500D01*
X5928600Y-17320500D02*
X5958600Y-17350500D01*
X5958600Y-17320500D02*
X5928600Y-17350500D01*
X5928600Y-17676100D02*
X5958600Y-17706100D01*
X5958600Y-17676100D02*
X5928600Y-17706100D01*
X6054000Y-16025000D02*
X6084000Y-16055000D01*
X6084000Y-16025000D02*
X6054000Y-16055000D01*
X6055600Y-16812500D02*
X6085600Y-16842500D01*
X6085600Y-16812500D02*
X6055600Y-16842500D01*
X6055600Y-18247600D02*
X6085600Y-18277600D01*
X6085600Y-18247600D02*
X6055600Y-18277600D01*
X6106400Y-16761700D02*
X6136400Y-16791700D01*
X6136400Y-16761700D02*
X6106400Y-16791700D01*
X6106400Y-17561800D02*
X6136400Y-17591800D01*
X6136400Y-17561800D02*
X6106400Y-17591800D01*
X6119100Y-17851060D02*
X6149100Y-17881060D01*
X6149100Y-17851060D02*
X6119100Y-17881060D01*
X6119100Y-18120600D02*
X6149100Y-18150600D01*
X6149100Y-18120600D02*
X6119100Y-18150600D01*
X6131800Y-17295100D02*
X6161800Y-17325100D01*
X6161800Y-17295100D02*
X6131800Y-17325100D01*
X6131800Y-18806400D02*
X6161800Y-18836400D01*
X6161800Y-18806400D02*
X6131800Y-18836400D01*
X6157200Y-16698200D02*
X6187200Y-16728200D01*
X6187200Y-16698200D02*
X6157200Y-16728200D01*
X6157200Y-19352500D02*
X6187200Y-19382500D01*
X6187200Y-19352500D02*
X6157200Y-19382500D01*
X6169900Y-18628600D02*
X6199900Y-18658600D01*
X6199900Y-18628600D02*
X6169900Y-18658600D01*
X6182600Y-19022300D02*
X6212600Y-19052300D01*
X6212600Y-19022300D02*
X6182600Y-19052300D01*
X6195300Y-17853900D02*
X6225300Y-17883900D01*
X6225300Y-17853900D02*
X6195300Y-17883900D01*
X6195300Y-18120600D02*
X6225300Y-18150600D01*
X6225300Y-18120600D02*
X6195300Y-18150600D01*
X6220700Y-19403300D02*
X6250700Y-19433300D01*
X6250700Y-19403300D02*
X6220700Y-19433300D01*
X6258800Y-18311100D02*
X6288800Y-18341100D01*
X6288800Y-18311100D02*
X6258800Y-18341100D01*
X6265668Y-16844768D02*
X6295668Y-16874768D01*
X6295668Y-16844768D02*
X6265668Y-16874768D01*
X6284200Y-15656800D02*
X6314200Y-15686800D01*
X6314200Y-15656800D02*
X6284200Y-15686800D01*
X6284200Y-16012400D02*
X6314200Y-16042400D01*
X6314200Y-16012400D02*
X6284200Y-16042400D01*
X6284200Y-19149300D02*
X6314200Y-19179300D01*
X6314200Y-19149300D02*
X6284200Y-19179300D01*
X6302450Y-17762310D02*
X6332450Y-17792310D01*
X6332450Y-17762310D02*
X6302450Y-17792310D01*
X6310000Y-15077000D02*
X6340000Y-15107000D01*
X6340000Y-15077000D02*
X6310000Y-15107000D01*
X6322300Y-17523700D02*
X6352300Y-17553700D01*
X6352300Y-17523700D02*
X6322300Y-17553700D01*
X6354950Y-17653180D02*
X6384950Y-17683180D01*
X6384950Y-17653180D02*
X6354950Y-17683180D01*
X6389000Y-15758000D02*
X6419000Y-15788000D01*
X6419000Y-15758000D02*
X6389000Y-15788000D01*
X6397000Y-15333000D02*
X6427000Y-15363000D01*
X6427000Y-15333000D02*
X6397000Y-15363000D01*
X6398500Y-17434800D02*
X6428500Y-17464800D01*
X6428500Y-17434800D02*
X6398500Y-17464800D01*
X6436600Y-16139400D02*
X6466600Y-16169400D01*
X6466600Y-16139400D02*
X6436600Y-16169400D01*
X6436600Y-16698200D02*
X6466600Y-16728200D01*
X6466600Y-16698200D02*
X6436600Y-16728200D01*
X6449300Y-17155400D02*
X6479300Y-17185400D01*
X6479300Y-17155400D02*
X6449300Y-17185400D01*
X6512800Y-17561800D02*
X6542800Y-17591800D01*
X6542800Y-17561800D02*
X6512800Y-17591800D01*
X6512800Y-18133300D02*
X6542800Y-18163300D01*
X6542800Y-18133300D02*
X6512800Y-18163300D01*
X6525500Y-17434800D02*
X6555500Y-17464800D01*
X6555500Y-17434800D02*
X6525500Y-17464800D01*
X6538200Y-15783800D02*
X6568200Y-15813800D01*
X6568200Y-15783800D02*
X6538200Y-15813800D01*
X6538200Y-17155400D02*
X6568200Y-17185400D01*
X6568200Y-17155400D02*
X6538200Y-17185400D01*
X6541700Y-15720300D02*
X6571700Y-15750300D01*
X6571700Y-15720300D02*
X6541700Y-15750300D01*
X6563600Y-16012400D02*
X6593600Y-16042400D01*
X6593600Y-16012400D02*
X6563600Y-16042400D01*
X6601700Y-19401971D02*
X6631700Y-19431971D01*
X6631700Y-19401971D02*
X6601700Y-19431971D01*
X6614400Y-17485600D02*
X6644400Y-17515600D01*
X6644400Y-17485600D02*
X6614400Y-17515600D01*
X6652500Y-15720300D02*
X6682500Y-15750300D01*
X6682500Y-15720300D02*
X6652500Y-15750300D01*
X6652500Y-15783800D02*
X6682500Y-15813800D01*
X6682500Y-15783800D02*
X6652500Y-15813800D01*
X6690600Y-17155400D02*
X6720600Y-17185400D01*
X6720600Y-17155400D02*
X6690600Y-17185400D01*
X6690600Y-17434800D02*
X6720600Y-17464800D01*
X6720600Y-17434800D02*
X6690600Y-17464800D01*
X6703300Y-18755600D02*
X6733300Y-18785600D01*
X6733300Y-18755600D02*
X6703300Y-18785600D01*
X6741400Y-16114000D02*
X6771400Y-16144000D01*
X6771400Y-16114000D02*
X6741400Y-16144000D01*
X6792200Y-17561800D02*
X6822200Y-17591800D01*
X6822200Y-17561800D02*
X6792200Y-17591800D01*
X6792200Y-17638000D02*
X6822200Y-17668000D01*
X6822200Y-17638000D02*
X6792200Y-17668000D01*
X6796000Y-15644000D02*
X6826000Y-15674000D01*
X6826000Y-15644000D02*
X6796000Y-15674000D01*
X6817600Y-17155400D02*
X6847600Y-17185400D01*
X6847600Y-17155400D02*
X6817600Y-17185400D01*
X6817600Y-18641300D02*
X6847600Y-18671300D01*
X6847600Y-18641300D02*
X6817600Y-18671300D01*
X6893800Y-17434800D02*
X6923800Y-17464800D01*
X6923800Y-17434800D02*
X6893800Y-17464800D01*
X6914900Y-18628600D02*
X6944900Y-18658600D01*
X6944900Y-18628600D02*
X6914900Y-18658600D01*
X6923000Y-15578000D02*
X6953000Y-15608000D01*
X6953000Y-15578000D02*
X6923000Y-15608000D01*
X6944600Y-17155400D02*
X6974600Y-17185400D01*
X6974600Y-17155400D02*
X6944600Y-17185400D01*
X6944600Y-17511000D02*
X6974600Y-17541000D01*
X6974600Y-17511000D02*
X6944600Y-17541000D01*
X6947000Y-19109000D02*
X6977000Y-19139000D01*
X6977000Y-19109000D02*
X6947000Y-19139000D01*
X6970000Y-15885400D02*
X7000000Y-15915400D01*
X7000000Y-15885400D02*
X6970000Y-15915400D01*
X6982700Y-18742900D02*
X7012700Y-18772900D01*
X7012700Y-18742900D02*
X6982700Y-18772900D01*
X6995400Y-16114000D02*
X7025400Y-16144000D01*
X7025400Y-16114000D02*
X6995400Y-16144000D01*
X7007000Y-16038000D02*
X7037000Y-16068000D01*
X7037000Y-16038000D02*
X7007000Y-16068000D01*
X7020800Y-16901400D02*
X7050800Y-16931400D01*
X7050800Y-16901400D02*
X7020800Y-16931400D01*
X7020800Y-17612600D02*
X7050800Y-17642600D01*
X7050800Y-17612600D02*
X7020800Y-17642600D01*
X7023000Y-15535000D02*
X7053000Y-15565000D01*
X7053000Y-15535000D02*
X7023000Y-15565000D01*
X7046200Y-17511000D02*
X7076200Y-17541000D01*
X7076200Y-17511000D02*
X7046200Y-17541000D01*
X7063000Y-15444000D02*
X7093000Y-15474000D01*
X7093000Y-15444000D02*
X7063000Y-15474000D01*
X7067000Y-15627000D02*
X7097000Y-15657000D01*
X7097000Y-15627000D02*
X7067000Y-15657000D01*
X7122400Y-17561800D02*
X7152400Y-17591800D01*
X7152400Y-17561800D02*
X7122400Y-17591800D01*
X7135100Y-18120600D02*
X7165100Y-18150600D01*
X7165100Y-18120600D02*
X7135100Y-18150600D01*
X7147800Y-16418800D02*
X7177800Y-16448800D01*
X7177800Y-16418800D02*
X7147800Y-16448800D01*
X7147800Y-17460200D02*
X7177800Y-17490200D01*
X7177800Y-17460200D02*
X7147800Y-17490200D01*
X7148000Y-19102000D02*
X7178000Y-19132000D01*
X7178000Y-19102000D02*
X7148000Y-19132000D01*
X7173200Y-17638000D02*
X7203200Y-17668000D01*
X7203200Y-17638000D02*
X7173200Y-17668000D01*
X7191000Y-16033000D02*
X7221000Y-16063000D01*
X7221000Y-16033000D02*
X7191000Y-16063000D01*
X7198600Y-16139400D02*
X7228600Y-16169400D01*
X7228600Y-16139400D02*
X7198600Y-16169400D01*
X7211300Y-19416000D02*
X7241300Y-19446000D01*
X7241300Y-19416000D02*
X7211300Y-19446000D01*
X7224000Y-15148800D02*
X7254000Y-15178800D01*
X7254000Y-15148800D02*
X7224000Y-15178800D01*
X7224000Y-15479000D02*
X7254000Y-15509000D01*
X7254000Y-15479000D02*
X7224000Y-15509000D01*
X7224000Y-15682200D02*
X7254000Y-15712200D01*
X7254000Y-15682200D02*
X7224000Y-15712200D01*
X7224000Y-17511000D02*
X7254000Y-17541000D01*
X7254000Y-17511000D02*
X7224000Y-17541000D01*
X7275000Y-15881000D02*
X7305000Y-15911000D01*
X7305000Y-15881000D02*
X7275000Y-15911000D01*
X7299000Y-16546000D02*
X7329000Y-16576000D01*
X7329000Y-16546000D02*
X7299000Y-16576000D01*
X7300200Y-17434800D02*
X7330200Y-17464800D01*
X7330200Y-17434800D02*
X7300200Y-17464800D01*
X7300200Y-17612600D02*
X7330200Y-17642600D01*
X7330200Y-17612600D02*
X7300200Y-17642600D01*
X7325600Y-16012400D02*
X7355600Y-16042400D01*
X7355600Y-16012400D02*
X7325600Y-16042400D01*
X7351000Y-15199600D02*
X7381000Y-15229600D01*
X7381000Y-15199600D02*
X7351000Y-15229600D01*
X7351000Y-18133300D02*
X7381000Y-18163300D01*
X7381000Y-18133300D02*
X7351000Y-18163300D01*
X7359000Y-19101000D02*
X7389000Y-19131000D01*
X7389000Y-19101000D02*
X7359000Y-19131000D01*
X7366000Y-16406000D02*
X7396000Y-16436000D01*
X7396000Y-16406000D02*
X7366000Y-16436000D01*
X7376400Y-17307800D02*
X7406400Y-17337800D01*
X7406400Y-17307800D02*
X7376400Y-17337800D01*
X7376400Y-17587200D02*
X7406400Y-17617200D01*
X7406400Y-17587200D02*
X7376400Y-17617200D01*
X7401800Y-15580600D02*
X7431800Y-15610600D01*
X7431800Y-15580600D02*
X7401800Y-15610600D01*
X7401800Y-16672800D02*
X7431800Y-16702800D01*
X7431800Y-16672800D02*
X7401800Y-16702800D01*
X7424000Y-16550000D02*
X7454000Y-16580000D01*
X7454000Y-16550000D02*
X7424000Y-16580000D01*
X7427200Y-15326600D02*
X7457200Y-15356600D01*
X7457200Y-15326600D02*
X7427200Y-15356600D01*
X7427200Y-17536400D02*
X7457200Y-17566400D01*
X7457200Y-17536400D02*
X7427200Y-17566400D01*
X7452600Y-17333200D02*
X7482600Y-17363200D01*
X7482600Y-17333200D02*
X7452600Y-17363200D01*
X7503400Y-17409400D02*
X7533400Y-17439400D01*
X7533400Y-17409400D02*
X7503400Y-17439400D01*
X7528800Y-18755600D02*
X7558800Y-18785600D01*
X7558800Y-18755600D02*
X7528800Y-18785600D01*
X7539000Y-16209000D02*
X7569000Y-16239000D01*
X7569000Y-16209000D02*
X7539000Y-16239000D01*
X7539000Y-16363000D02*
X7569000Y-16393000D01*
X7569000Y-16363000D02*
X7539000Y-16393000D01*
X7541500Y-18628600D02*
X7571500Y-18658600D01*
X7571500Y-18628600D02*
X7541500Y-18658600D01*
X7555000Y-16512000D02*
X7585000Y-16542000D01*
X7585000Y-16512000D02*
X7555000Y-16542000D01*
X7592300Y-16799800D02*
X7622300Y-16829800D01*
X7622300Y-16799800D02*
X7592300Y-16829800D01*
X7674000Y-16076000D02*
X7704000Y-16106000D01*
X7704000Y-16076000D02*
X7674000Y-16106000D01*
X7681200Y-17409400D02*
X7711200Y-17439400D01*
X7711200Y-17409400D02*
X7681200Y-17439400D01*
X7681200Y-18704800D02*
X7711200Y-18734800D01*
X7711200Y-18704800D02*
X7681200Y-18734800D01*
X7681200Y-19073100D02*
X7711200Y-19103100D01*
X7711200Y-19073100D02*
X7681200Y-19103100D01*
X7707000Y-16215000D02*
X7737000Y-16245000D01*
X7737000Y-16215000D02*
X7707000Y-16245000D01*
X7715000Y-16358000D02*
X7745000Y-16388000D01*
X7745000Y-16358000D02*
X7715000Y-16388000D01*
X7826000Y-17041000D02*
X7856000Y-17071000D01*
X7856000Y-17041000D02*
X7826000Y-17071000D01*
X7830000Y-16542000D02*
X7860000Y-16572000D01*
X7860000Y-16542000D02*
X7830000Y-16572000D01*
X7831000Y-18919000D02*
X7861000Y-18949000D01*
X7861000Y-18919000D02*
X7831000Y-18949000D01*
X7833600Y-17790400D02*
X7863600Y-17820400D01*
X7863600Y-17790400D02*
X7833600Y-17820400D01*
X7840000Y-16082000D02*
X7870000Y-16112000D01*
X7870000Y-16082000D02*
X7840000Y-16112000D01*
X7871000Y-16221000D02*
X7901000Y-16251000D01*
X7901000Y-16221000D02*
X7871000Y-16251000D01*
X7884400Y-16342600D02*
X7914400Y-16372600D01*
X7914400Y-16342600D02*
X7884400Y-16372600D01*
X7884400Y-17663400D02*
X7914400Y-17693400D01*
X7914400Y-17663400D02*
X7884400Y-17693400D01*
X7884400Y-17866600D02*
X7914400Y-17896600D01*
X7914400Y-17866600D02*
X7884400Y-17896600D01*
X7900000Y-16795000D02*
X7930000Y-16825000D01*
X7930000Y-16795000D02*
X7900000Y-16825000D01*
X7935200Y-18615900D02*
X7965200Y-18645900D01*
X7965200Y-18615900D02*
X7935200Y-18645900D01*
X7947900Y-18349200D02*
X7977900Y-18379200D01*
X7977900Y-18349200D02*
X7947900Y-18379200D01*
X7960600Y-16952200D02*
X7990600Y-16982200D01*
X7990600Y-16952200D02*
X7960600Y-16982200D01*
X7986000Y-16444200D02*
X8016000Y-16474200D01*
X8016000Y-16444200D02*
X7986000Y-16474200D01*
X7991000Y-19679000D02*
X8021000Y-19709000D01*
X8021000Y-19679000D02*
X7991000Y-19709000D01*
X8000000Y-16074000D02*
X8030000Y-16104000D01*
X8030000Y-16074000D02*
X8000000Y-16104000D01*
X8011400Y-17206200D02*
X8041400Y-17236200D01*
X8041400Y-17206200D02*
X8011400Y-17236200D01*
X8021000Y-19373000D02*
X8051000Y-19403000D01*
X8051000Y-19373000D02*
X8021000Y-19403000D01*
X8062200Y-18996900D02*
X8092200Y-19026900D01*
X8092200Y-18996900D02*
X8062200Y-19026900D01*
X8271000Y-15959000D02*
X8301000Y-15989000D01*
X8301000Y-15959000D02*
X8271000Y-15989000D01*
X8286000Y-15094000D02*
X8316000Y-15124000D01*
X8316000Y-15094000D02*
X8286000Y-15124000D01*
X8295000Y-15577000D02*
X8325000Y-15607000D01*
X8325000Y-15577000D02*
X8295000Y-15607000D01*
X8315000Y-16365000D02*
X8345000Y-16395000D01*
X8345000Y-16365000D02*
X8315000Y-16395000D01*
X8335000Y-16945000D02*
X8365000Y-16975000D01*
X8365000Y-16945000D02*
X8335000Y-16975000D01*
X8345000Y-18080000D02*
X8375000Y-18110000D01*
X8375000Y-18080000D02*
X8345000Y-18110000D01*
X2626000Y-17605000D02*
G75*
G02*
X2586000Y-17605000I-20000J0D01*
G01*
X2586000Y-17605000D02*
G75*
G02*
X2626000Y-17605000I20000J0D01*
G01*
X3675000Y-17461800D02*
G75*
G02*
X3635000Y-17461800I-20000J0D01*
G01*
X3635000Y-17461800D02*
G75*
G02*
X3675000Y-17461800I20000J0D01*
G01*
X4154459Y-18416705D02*
G75*
G02*
X4114459Y-18416705I-20000J0D01*
G01*
X4114459Y-18416705D02*
G75*
G02*
X4154459Y-18416705I20000J0D01*
G01*
X4334260Y-16262530D02*
G75*
G02*
X4294260Y-16262530I-20000J0D01*
G01*
X4294260Y-16262530D02*
G75*
G02*
X4334260Y-16262530I20000J0D01*
G01*
X4520000Y-17942000D02*
G75*
G02*
X4480000Y-17942000I-20000J0D01*
G01*
X4480000Y-17942000D02*
G75*
G02*
X4520000Y-17942000I20000J0D01*
G01*
X4605975Y-17006025D02*
G75*
G02*
X4565975Y-17006025I-20000J0D01*
G01*
X4565975Y-17006025D02*
G75*
G02*
X4605975Y-17006025I20000J0D01*
G01*
X4621000Y-16465270D02*
G75*
G02*
X4581000Y-16465270I-20000J0D01*
G01*
X4581000Y-16465270D02*
G75*
G02*
X4621000Y-16465270I20000J0D01*
G01*
X4748860Y-18403000D02*
G75*
G02*
X4708860Y-18403000I-20000J0D01*
G01*
X4708860Y-18403000D02*
G75*
G02*
X4748860Y-18403000I20000J0D01*
G01*
X4749000Y-16743000D02*
G75*
G02*
X4709000Y-16743000I-20000J0D01*
G01*
X4709000Y-16743000D02*
G75*
G02*
X4749000Y-16743000I20000J0D01*
G01*
X4760850Y-17758350D02*
G75*
G02*
X4720850Y-17758350I-20000J0D01*
G01*
X4720850Y-17758350D02*
G75*
G02*
X4760850Y-17758350I20000J0D01*
G01*
X4877000Y-18292000D02*
G75*
G02*
X4837000Y-18292000I-20000J0D01*
G01*
X4837000Y-18292000D02*
G75*
G02*
X4877000Y-18292000I20000J0D01*
G01*
X4924000Y-18047000D02*
G75*
G02*
X4884000Y-18047000I-20000J0D01*
G01*
X4884000Y-18047000D02*
G75*
G02*
X4924000Y-18047000I20000J0D01*
G01*
X4981910Y-16436520D02*
G75*
G02*
X4941910Y-16436520I-20000J0D01*
G01*
X4941910Y-16436520D02*
G75*
G02*
X4981910Y-16436520I20000J0D01*
G01*
X5015000Y-17855000D02*
G75*
G02*
X4975000Y-17855000I-20000J0D01*
G01*
X4975000Y-17855000D02*
G75*
G02*
X5015000Y-17855000I20000J0D01*
G01*
X5105500Y-16305370D02*
G75*
G02*
X5065500Y-16305370I-20000J0D01*
G01*
X5065500Y-16305370D02*
G75*
G02*
X5105500Y-16305370I20000J0D01*
G01*
X5246670Y-16348180D02*
G75*
G02*
X5206670Y-16348180I-20000J0D01*
G01*
X5206670Y-16348180D02*
G75*
G02*
X5246670Y-16348180I20000J0D01*
G01*
X5291050Y-17821848D02*
G75*
G02*
X5251050Y-17821848I-20000J0D01*
G01*
X5251050Y-17821848D02*
G75*
G02*
X5291050Y-17821848I20000J0D01*
G01*
X5291050Y-17943000D02*
G75*
G02*
X5251050Y-17943000I-20000J0D01*
G01*
X5251050Y-17943000D02*
G75*
G02*
X5291050Y-17943000I20000J0D01*
G01*
X5381030Y-16184150D02*
G75*
G02*
X5341030Y-16184150I-20000J0D01*
G01*
X5341030Y-16184150D02*
G75*
G02*
X5381030Y-16184150I20000J0D01*
G01*
X5450000Y-17947000D02*
G75*
G02*
X5410000Y-17947000I-20000J0D01*
G01*
X5410000Y-17947000D02*
G75*
G02*
X5450000Y-17947000I20000J0D01*
G01*
X5450270Y-16287900D02*
G75*
G02*
X5410270Y-16287900I-20000J0D01*
G01*
X5410270Y-16287900D02*
G75*
G02*
X5450270Y-16287900I20000J0D01*
G01*
X5684200Y-18135600D02*
G75*
G02*
X5644200Y-18135600I-20000J0D01*
G01*
X5644200Y-18135600D02*
G75*
G02*
X5684200Y-18135600I20000J0D01*
G01*
X5722760Y-17947530D02*
G75*
G02*
X5682760Y-17947530I-20000J0D01*
G01*
X5682760Y-17947530D02*
G75*
G02*
X5722760Y-17947530I20000J0D01*
G01*
X5810550Y-16535680D02*
G75*
G02*
X5770550Y-16535680I-20000J0D01*
G01*
X5770550Y-16535680D02*
G75*
G02*
X5810550Y-16535680I20000J0D01*
G01*
X5855350Y-17432560D02*
G75*
G02*
X5815350Y-17432560I-20000J0D01*
G01*
X5815350Y-17432560D02*
G75*
G02*
X5855350Y-17432560I20000J0D01*
G01*
X5961000Y-18836500D02*
G75*
G02*
X5921000Y-18836500I-20000J0D01*
G01*
X5921000Y-18836500D02*
G75*
G02*
X5961000Y-18836500I20000J0D01*
G01*
X6021960Y-16644500D02*
G75*
G02*
X5981960Y-16644500I-20000J0D01*
G01*
X5981960Y-16644500D02*
G75*
G02*
X6021960Y-16644500I20000J0D01*
G01*
X6395400Y-18048200D02*
G75*
G02*
X6355400Y-18048200I-20000J0D01*
G01*
X6355400Y-18048200D02*
G75*
G02*
X6395400Y-18048200I20000J0D01*
G01*
X7568348Y-18135740D02*
G75*
G02*
X7528348Y-18135740I-20000J0D01*
G01*
X7528348Y-18135740D02*
G75*
G02*
X7568348Y-18135740I20000J0D01*
G01*
X7711000Y-17811917D02*
G75*
G02*
X7671000Y-17811917I-20000J0D01*
G01*
X7671000Y-17811917D02*
G75*
G02*
X7711000Y-17811917I20000J0D01*
G01*
X7711000Y-17956917D02*
G75*
G02*
X7671000Y-17956917I-20000J0D01*
G01*
X7671000Y-17956917D02*
G75*
G02*
X7711000Y-17956917I20000J0D01*
G01*
X7711000Y-18328500D02*
G75*
G02*
X7671000Y-18328500I-20000J0D01*
G01*
X7671000Y-18328500D02*
G75*
G02*
X7711000Y-18328500I20000J0D01*
G01*
X8229600Y-17640900D02*
X8229600Y-17715900D01*
X8192100Y-17678400D02*
X8267100Y-17678400D01*
X8229600Y-17840900D02*
X8229600Y-17915900D01*
X8192100Y-17878400D02*
X8267100Y-17878400D01*
X8229600Y-18040900D02*
X8229600Y-18115900D01*
X8192100Y-18078400D02*
X8267100Y-18078400D01*
X8229600Y-18240900D02*
X8229600Y-18315900D01*
X8192100Y-18278400D02*
X8267100Y-18278400D01*
X8229600Y-18440900D02*
X8229600Y-18515900D01*
X8192100Y-18478400D02*
X8267100Y-18478400D01*
X8229600Y-18885500D02*
X8229600Y-18960500D01*
X8192100Y-18923000D02*
X8267100Y-18923000D01*
X8229600Y-19085500D02*
X8229600Y-19160500D01*
X8192100Y-19123000D02*
X8267100Y-19123000D01*
X8229600Y-19285500D02*
X8229600Y-19360500D01*
X8192100Y-19323000D02*
X8267100Y-19323000D01*
X8229600Y-19485500D02*
X8229600Y-19560500D01*
X8192100Y-19523000D02*
X8267100Y-19523000D01*
X4765385Y-16335084D02*
X4765385Y-16278515D01*
X4708816Y-16278515D01*
X4708816Y-16335084D01*
X4765385Y-16335084D01*
X5997284Y-16500184D02*
X5997284Y-16443615D01*
X5940715Y-16443615D01*
X5940715Y-16500184D01*
X5997284Y-16500184D01*
X6505284Y-16868485D02*
X6505284Y-16811916D01*
X6448715Y-16811916D01*
X6448715Y-16868485D01*
X6505284Y-16868485D01*
X6721184Y-16868485D02*
X6721184Y-16811916D01*
X6664615Y-16811916D01*
X6664615Y-16868485D01*
X6721184Y-16868485D01*
X6937084Y-16868485D02*
X6937084Y-16811916D01*
X6880515Y-16811916D01*
X6880515Y-16868485D01*
X6937084Y-16868485D01*
X1752600Y-15366200D02*
X1802600Y-15316200D01*
X1752600Y-15266200D01*
X1702600Y-15316200D01*
X1752600Y-15366200D01*
X1881100Y-16712400D02*
X1931100Y-16662400D01*
X1881100Y-16612400D01*
X1831100Y-16662400D01*
X1881100Y-16712400D01*
X1881100Y-16991800D02*
X1931100Y-16941800D01*
X1881100Y-16891800D01*
X1831100Y-16941800D01*
X1881100Y-16991800D01*
X2006600Y-15366200D02*
X2056600Y-15316200D01*
X2006600Y-15266200D01*
X1956600Y-15316200D01*
X2006600Y-15366200D01*
X2135100Y-16712400D02*
X2185100Y-16662400D01*
X2135100Y-16612400D01*
X2085100Y-16662400D01*
X2135100Y-16712400D01*
X2135100Y-16991800D02*
X2185100Y-16941800D01*
X2135100Y-16891800D01*
X2085100Y-16941800D01*
X2135100Y-16991800D01*
X2260600Y-15366200D02*
X2310600Y-15316200D01*
X2260600Y-15266200D01*
X2210600Y-15316200D01*
X2260600Y-15366200D01*
X2389100Y-16712400D02*
X2439100Y-16662400D01*
X2389100Y-16612400D01*
X2339100Y-16662400D01*
X2389100Y-16712400D01*
X2389100Y-16991800D02*
X2439100Y-16941800D01*
X2389100Y-16891800D01*
X2339100Y-16941800D01*
X2389100Y-16991800D01*
X2794000Y-15366200D02*
X2844000Y-15316200D01*
X2794000Y-15266200D01*
X2744000Y-15316200D01*
X2794000Y-15366200D01*
X3048000Y-15366200D02*
X3098000Y-15316200D01*
X3048000Y-15266200D01*
X2998000Y-15316200D01*
X3048000Y-15366200D01*
X4924660Y-19047000D02*
X4974660Y-18997000D01*
X4924660Y-18947000D01*
X4874660Y-18997000D01*
X4924660Y-19047000D01*
X4924660Y-19301000D02*
X4974660Y-19251000D01*
X4924660Y-19201000D01*
X4874660Y-19251000D01*
X4924660Y-19301000D01*
X4924660Y-19555000D02*
X4974660Y-19505000D01*
X4924660Y-19455000D01*
X4874660Y-19505000D01*
X4924660Y-19555000D01*
X4953000Y-17131500D02*
X5003000Y-17081500D01*
X4953000Y-17031500D01*
X4903000Y-17081500D01*
X4953000Y-17131500D01*
X4953000Y-17385500D02*
X5003000Y-17335500D01*
X4953000Y-17285500D01*
X4903000Y-17335500D01*
X4953000Y-17385500D01*
X4953000Y-17639500D02*
X5003000Y-17589500D01*
X4953000Y-17539500D01*
X4903000Y-17589500D01*
X4953000Y-17639500D01*
X5206600Y-19047000D02*
X5256600Y-18997000D01*
X5206600Y-18947000D01*
X5156600Y-18997000D01*
X5206600Y-19047000D01*
X5206600Y-19301000D02*
X5256600Y-19251000D01*
X5206600Y-19201000D01*
X5156600Y-19251000D01*
X5206600Y-19301000D01*
X5206600Y-19555000D02*
X5256600Y-19505000D01*
X5206600Y-19455000D01*
X5156600Y-19505000D01*
X5206600Y-19555000D01*
X5207000Y-17131500D02*
X5257000Y-17081500D01*
X5207000Y-17031500D01*
X5157000Y-17081500D01*
X5207000Y-17131500D01*
X5207000Y-17385500D02*
X5257000Y-17335500D01*
X5207000Y-17285500D01*
X5157000Y-17335500D01*
X5207000Y-17385500D01*
X5207000Y-17639500D02*
X5257000Y-17589500D01*
X5207000Y-17539500D01*
X5157000Y-17589500D01*
X5207000Y-17639500D01*
X5461000Y-17130000D02*
X5511000Y-17080000D01*
X5461000Y-17030000D01*
X5411000Y-17080000D01*
X5461000Y-17130000D01*
X5461000Y-17384000D02*
X5511000Y-17334000D01*
X5461000Y-17284000D01*
X5411000Y-17334000D01*
X5461000Y-17384000D01*
X5461000Y-17638000D02*
X5511000Y-17588000D01*
X5461000Y-17538000D01*
X5411000Y-17588000D01*
X5461000Y-17638000D01*
X5483000Y-18301000D02*
X5533000Y-18251000D01*
X5483000Y-18201000D01*
X5433000Y-18251000D01*
X5483000Y-18301000D01*
X5483000Y-18555000D02*
X5533000Y-18505000D01*
X5483000Y-18455000D01*
X5433000Y-18505000D01*
X5483000Y-18555000D01*
X5486000Y-19047000D02*
X5536000Y-18997000D01*
X5486000Y-18947000D01*
X5436000Y-18997000D01*
X5486000Y-19047000D01*
X5486000Y-19301000D02*
X5536000Y-19251000D01*
X5486000Y-19201000D01*
X5436000Y-19251000D01*
X5486000Y-19301000D01*
X5486000Y-19555000D02*
X5536000Y-19505000D01*
X5486000Y-19455000D01*
X5436000Y-19505000D01*
X5486000Y-19555000D01*
X7620000Y-15342300D02*
X7670000Y-15292300D01*
X7620000Y-15242300D01*
X7570000Y-15292300D01*
X7620000Y-15342300D01*
X7620000Y-15596300D02*
X7670000Y-15546300D01*
X7620000Y-15496300D01*
X7570000Y-15546300D01*
X7620000Y-15596300D01*
X7620000Y-15850300D02*
X7670000Y-15800300D01*
X7620000Y-15750300D01*
X7570000Y-15800300D01*
X7620000Y-15850300D01*
X7874000Y-15342300D02*
X7924000Y-15292300D01*
X7874000Y-15242300D01*
X7824000Y-15292300D01*
X7874000Y-15342300D01*
X7874000Y-15596300D02*
X7924000Y-15546300D01*
X7874000Y-15496300D01*
X7824000Y-15546300D01*
X7874000Y-15596300D01*
X7874000Y-15850300D02*
X7924000Y-15800300D01*
X7874000Y-15750300D01*
X7824000Y-15800300D01*
X7874000Y-15850300D01*
X8128000Y-15340800D02*
X8178000Y-15290800D01*
X8128000Y-15240800D01*
X8078000Y-15290800D01*
X8128000Y-15340800D01*
X8128000Y-15594800D02*
X8178000Y-15544800D01*
X8128000Y-15494800D01*
X8078000Y-15544800D01*
X8128000Y-15594800D01*
X8128000Y-15848800D02*
X8178000Y-15798800D01*
X8128000Y-15748800D01*
X8078000Y-15798800D01*
X8128000Y-15848800D01*
D12*
X1625600Y-19067400D02*
X1895600Y-19337400D01*
X1895600Y-19067400D02*
X1625600Y-19337400D01*
X1895600Y-19202400D02*
G75*
G02*
X1625600Y-19202400I-135000J0D01*
G01*
X1625600Y-19202400D02*
G75*
G02*
X1895600Y-19202400I135000J0D01*
G01*
X1634300Y-17264000D02*
X1904300Y-17534000D01*
X1904300Y-17264000D02*
X1634300Y-17534000D01*
X1904300Y-17399000D02*
G75*
G02*
X1634300Y-17399000I-135000J0D01*
G01*
X1634300Y-17399000D02*
G75*
G02*
X1904300Y-17399000I135000J0D01*
G01*
X1634300Y-17873600D02*
X1904300Y-18143600D01*
X1904300Y-17873600D02*
X1634300Y-18143600D01*
X1904300Y-18008600D02*
G75*
G02*
X1634300Y-18008600I-135000J0D01*
G01*
X1634300Y-18008600D02*
G75*
G02*
X1904300Y-18008600I135000J0D01*
G01*
X1634300Y-18470500D02*
X1904300Y-18740500D01*
X1904300Y-18470500D02*
X1634300Y-18740500D01*
X1904300Y-18605500D02*
G75*
G02*
X1634300Y-18605500I-135000J0D01*
G01*
X1634300Y-18605500D02*
G75*
G02*
X1904300Y-18605500I135000J0D01*
G01*
X1651000Y-15613000D02*
X1921000Y-15883000D01*
X1921000Y-15613000D02*
X1651000Y-15883000D01*
X1921000Y-15748000D02*
G75*
G02*
X1651000Y-15748000I-135000J0D01*
G01*
X1651000Y-15748000D02*
G75*
G02*
X1921000Y-15748000I135000J0D01*
G01*
X2125600Y-19067400D02*
X2395600Y-19337400D01*
X2395600Y-19067400D02*
X2125600Y-19337400D01*
X2395600Y-19202400D02*
G75*
G02*
X2125600Y-19202400I-135000J0D01*
G01*
X2125600Y-19202400D02*
G75*
G02*
X2395600Y-19202400I135000J0D01*
G01*
X2134300Y-17264000D02*
X2404300Y-17534000D01*
X2404300Y-17264000D02*
X2134300Y-17534000D01*
X2404300Y-17399000D02*
G75*
G02*
X2134300Y-17399000I-135000J0D01*
G01*
X2134300Y-17399000D02*
G75*
G02*
X2404300Y-17399000I135000J0D01*
G01*
X2134300Y-17873600D02*
X2404300Y-18143600D01*
X2404300Y-17873600D02*
X2134300Y-18143600D01*
X2404300Y-18008600D02*
G75*
G02*
X2134300Y-18008600I-135000J0D01*
G01*
X2134300Y-18008600D02*
G75*
G02*
X2404300Y-18008600I135000J0D01*
G01*
X2134300Y-18470500D02*
X2404300Y-18740500D01*
X2404300Y-18470500D02*
X2134300Y-18740500D01*
X2404300Y-18605500D02*
G75*
G02*
X2134300Y-18605500I-135000J0D01*
G01*
X2134300Y-18605500D02*
G75*
G02*
X2404300Y-18605500I135000J0D01*
G01*
X2151000Y-15613000D02*
X2421000Y-15883000D01*
X2421000Y-15613000D02*
X2151000Y-15883000D01*
X2421000Y-15748000D02*
G75*
G02*
X2151000Y-15748000I-135000J0D01*
G01*
X2151000Y-15748000D02*
G75*
G02*
X2421000Y-15748000I135000J0D01*
G01*
D10*
X1528777Y-20128484D02*
X1528777Y-19928484D01*
X1528777Y-19928484D02*
X1576396Y-19928484D01*
X1576396Y-19928484D02*
X1604967Y-19938008D01*
X1604967Y-19938008D02*
X1624015Y-19957055D01*
X1624015Y-19957055D02*
X1633539Y-19976103D01*
X1633539Y-19976103D02*
X1643062Y-20014198D01*
X1643062Y-20014198D02*
X1643062Y-20042770D01*
X1643062Y-20042770D02*
X1633539Y-20080865D01*
X1633539Y-20080865D02*
X1624015Y-20099912D01*
X1624015Y-20099912D02*
X1604967Y-20118960D01*
X1604967Y-20118960D02*
X1576396Y-20128484D01*
X1576396Y-20128484D02*
X1528777Y-20128484D01*
X1728777Y-20128484D02*
X1728777Y-19995150D01*
X1728777Y-20033246D02*
X1738301Y-20014198D01*
X1738301Y-20014198D02*
X1747824Y-20004674D01*
X1747824Y-20004674D02*
X1766872Y-19995150D01*
X1766872Y-19995150D02*
X1785920Y-19995150D01*
X1852586Y-20128484D02*
X1852586Y-19995150D01*
X1852586Y-19928484D02*
X1843062Y-19938008D01*
X1843062Y-19938008D02*
X1852586Y-19947531D01*
X1852586Y-19947531D02*
X1862110Y-19938008D01*
X1862110Y-19938008D02*
X1852586Y-19928484D01*
X1852586Y-19928484D02*
X1852586Y-19947531D01*
X1976396Y-20128484D02*
X1957348Y-20118960D01*
X1957348Y-20118960D02*
X1947824Y-20099912D01*
X1947824Y-20099912D02*
X1947824Y-19928484D01*
X2081158Y-20128484D02*
X2062110Y-20118960D01*
X2062110Y-20118960D02*
X2052586Y-20099912D01*
X2052586Y-20099912D02*
X2052586Y-19928484D01*
X2309729Y-20128484D02*
X2309729Y-19928484D01*
X2309729Y-19928484D02*
X2376396Y-20071341D01*
X2376396Y-20071341D02*
X2443063Y-19928484D01*
X2443063Y-19928484D02*
X2443063Y-20128484D01*
X2624015Y-20128484D02*
X2624015Y-20023722D01*
X2624015Y-20023722D02*
X2614491Y-20004674D01*
X2614491Y-20004674D02*
X2595444Y-19995150D01*
X2595444Y-19995150D02*
X2557348Y-19995150D01*
X2557348Y-19995150D02*
X2538301Y-20004674D01*
X2624015Y-20118960D02*
X2604967Y-20128484D01*
X2604967Y-20128484D02*
X2557348Y-20128484D01*
X2557348Y-20128484D02*
X2538301Y-20118960D01*
X2538301Y-20118960D02*
X2528777Y-20099912D01*
X2528777Y-20099912D02*
X2528777Y-20080865D01*
X2528777Y-20080865D02*
X2538301Y-20061817D01*
X2538301Y-20061817D02*
X2557348Y-20052293D01*
X2557348Y-20052293D02*
X2604967Y-20052293D01*
X2604967Y-20052293D02*
X2624015Y-20042770D01*
X2719253Y-19995150D02*
X2719253Y-20195150D01*
X2719253Y-20004674D02*
X2738301Y-19995150D01*
X2738301Y-19995150D02*
X2776396Y-19995150D01*
X2776396Y-19995150D02*
X2795444Y-20004674D01*
X2795444Y-20004674D02*
X2804967Y-20014198D01*
X2804967Y-20014198D02*
X2814491Y-20033246D01*
X2814491Y-20033246D02*
X2814491Y-20090389D01*
X2814491Y-20090389D02*
X2804967Y-20109436D01*
X2804967Y-20109436D02*
X2795444Y-20118960D01*
X2795444Y-20118960D02*
X2776396Y-20128484D01*
X2776396Y-20128484D02*
X2738301Y-20128484D01*
X2738301Y-20128484D02*
X2719253Y-20118960D01*
X2900205Y-20109436D02*
X2909729Y-20118960D01*
X2909729Y-20118960D02*
X2900205Y-20128484D01*
X2900205Y-20128484D02*
X2890682Y-20118960D01*
X2890682Y-20118960D02*
X2900205Y-20109436D01*
X2900205Y-20109436D02*
X2900205Y-20128484D01*
X2900205Y-20004674D02*
X2909729Y-20014198D01*
X2909729Y-20014198D02*
X2900205Y-20023722D01*
X2900205Y-20023722D02*
X2890682Y-20014198D01*
X2890682Y-20014198D02*
X2900205Y-20004674D01*
X2900205Y-20004674D02*
X2900205Y-20023722D01*
D11*
X1238000Y-20442000D02*
X1268000Y-20472000D01*
X1268000Y-20442000D02*
X1238000Y-20472000D01*
D10*
X1566872Y-20348484D02*
X1585920Y-20348484D01*
X1585920Y-20348484D02*
X1604967Y-20358008D01*
X1604967Y-20358008D02*
X1614491Y-20367531D01*
X1614491Y-20367531D02*
X1624015Y-20386579D01*
X1624015Y-20386579D02*
X1633539Y-20424674D01*
X1633539Y-20424674D02*
X1633539Y-20472293D01*
X1633539Y-20472293D02*
X1624015Y-20510389D01*
X1624015Y-20510389D02*
X1614491Y-20529436D01*
X1614491Y-20529436D02*
X1604967Y-20538960D01*
X1604967Y-20538960D02*
X1585920Y-20548484D01*
X1585920Y-20548484D02*
X1566872Y-20548484D01*
X1566872Y-20548484D02*
X1547824Y-20538960D01*
X1547824Y-20538960D02*
X1538301Y-20529436D01*
X1538301Y-20529436D02*
X1528777Y-20510389D01*
X1528777Y-20510389D02*
X1519253Y-20472293D01*
X1519253Y-20472293D02*
X1519253Y-20424674D01*
X1519253Y-20424674D02*
X1528777Y-20386579D01*
X1528777Y-20386579D02*
X1538301Y-20367531D01*
X1538301Y-20367531D02*
X1547824Y-20358008D01*
X1547824Y-20358008D02*
X1566872Y-20348484D01*
X1719253Y-20529436D02*
X1728777Y-20538960D01*
X1728777Y-20538960D02*
X1719253Y-20548484D01*
X1719253Y-20548484D02*
X1709729Y-20538960D01*
X1709729Y-20538960D02*
X1719253Y-20529436D01*
X1719253Y-20529436D02*
X1719253Y-20548484D01*
X1795443Y-20348484D02*
X1919253Y-20348484D01*
X1919253Y-20348484D02*
X1852586Y-20424674D01*
X1852586Y-20424674D02*
X1881158Y-20424674D01*
X1881158Y-20424674D02*
X1900205Y-20434198D01*
X1900205Y-20434198D02*
X1909729Y-20443722D01*
X1909729Y-20443722D02*
X1919253Y-20462770D01*
X1919253Y-20462770D02*
X1919253Y-20510389D01*
X1919253Y-20510389D02*
X1909729Y-20529436D01*
X1909729Y-20529436D02*
X1900205Y-20538960D01*
X1900205Y-20538960D02*
X1881158Y-20548484D01*
X1881158Y-20548484D02*
X1824015Y-20548484D01*
X1824015Y-20548484D02*
X1804967Y-20538960D01*
X1804967Y-20538960D02*
X1795443Y-20529436D01*
X2043062Y-20348484D02*
X2062110Y-20348484D01*
X2062110Y-20348484D02*
X2081158Y-20358008D01*
X2081158Y-20358008D02*
X2090682Y-20367531D01*
X2090682Y-20367531D02*
X2100205Y-20386579D01*
X2100205Y-20386579D02*
X2109729Y-20424674D01*
X2109729Y-20424674D02*
X2109729Y-20472293D01*
X2109729Y-20472293D02*
X2100205Y-20510389D01*
X2100205Y-20510389D02*
X2090682Y-20529436D01*
X2090682Y-20529436D02*
X2081158Y-20538960D01*
X2081158Y-20538960D02*
X2062110Y-20548484D01*
X2062110Y-20548484D02*
X2043062Y-20548484D01*
X2043062Y-20548484D02*
X2024015Y-20538960D01*
X2024015Y-20538960D02*
X2014491Y-20529436D01*
X2014491Y-20529436D02*
X2004967Y-20510389D01*
X2004967Y-20510389D02*
X1995443Y-20472293D01*
X1995443Y-20472293D02*
X1995443Y-20424674D01*
X1995443Y-20424674D02*
X2004967Y-20386579D01*
X2004967Y-20386579D02*
X2014491Y-20367531D01*
X2014491Y-20367531D02*
X2024015Y-20358008D01*
X2024015Y-20358008D02*
X2043062Y-20348484D01*
X2233539Y-20348484D02*
X2252586Y-20348484D01*
X2252586Y-20348484D02*
X2271634Y-20358008D01*
X2271634Y-20358008D02*
X2281158Y-20367531D01*
X2281158Y-20367531D02*
X2290682Y-20386579D01*
X2290682Y-20386579D02*
X2300205Y-20424674D01*
X2300205Y-20424674D02*
X2300205Y-20472293D01*
X2300205Y-20472293D02*
X2290682Y-20510389D01*
X2290682Y-20510389D02*
X2281158Y-20529436D01*
X2281158Y-20529436D02*
X2271634Y-20538960D01*
X2271634Y-20538960D02*
X2252586Y-20548484D01*
X2252586Y-20548484D02*
X2233539Y-20548484D01*
X2233539Y-20548484D02*
X2214491Y-20538960D01*
X2214491Y-20538960D02*
X2204967Y-20529436D01*
X2204967Y-20529436D02*
X2195444Y-20510389D01*
X2195444Y-20510389D02*
X2185920Y-20472293D01*
X2185920Y-20472293D02*
X2185920Y-20424674D01*
X2185920Y-20424674D02*
X2195444Y-20386579D01*
X2195444Y-20386579D02*
X2204967Y-20367531D01*
X2204967Y-20367531D02*
X2214491Y-20358008D01*
X2214491Y-20358008D02*
X2233539Y-20348484D01*
X2385920Y-20548484D02*
X2385920Y-20415150D01*
X2385920Y-20434198D02*
X2395444Y-20424674D01*
X2395444Y-20424674D02*
X2414491Y-20415150D01*
X2414491Y-20415150D02*
X2443063Y-20415150D01*
X2443063Y-20415150D02*
X2462110Y-20424674D01*
X2462110Y-20424674D02*
X2471634Y-20443722D01*
X2471634Y-20443722D02*
X2471634Y-20548484D01*
X2471634Y-20443722D02*
X2481158Y-20424674D01*
X2481158Y-20424674D02*
X2500205Y-20415150D01*
X2500205Y-20415150D02*
X2528777Y-20415150D01*
X2528777Y-20415150D02*
X2547825Y-20424674D01*
X2547825Y-20424674D02*
X2557348Y-20443722D01*
X2557348Y-20443722D02*
X2557348Y-20548484D01*
X2652586Y-20548484D02*
X2652586Y-20415150D01*
X2652586Y-20434198D02*
X2662110Y-20424674D01*
X2662110Y-20424674D02*
X2681158Y-20415150D01*
X2681158Y-20415150D02*
X2709729Y-20415150D01*
X2709729Y-20415150D02*
X2728777Y-20424674D01*
X2728777Y-20424674D02*
X2738301Y-20443722D01*
X2738301Y-20443722D02*
X2738301Y-20548484D01*
X2738301Y-20443722D02*
X2747825Y-20424674D01*
X2747825Y-20424674D02*
X2766872Y-20415150D01*
X2766872Y-20415150D02*
X2795444Y-20415150D01*
X2795444Y-20415150D02*
X2814491Y-20424674D01*
X2814491Y-20424674D02*
X2824015Y-20443722D01*
X2824015Y-20443722D02*
X2824015Y-20548484D01*
X3214491Y-20338960D02*
X3043063Y-20596103D01*
X3471634Y-20348484D02*
X3490682Y-20348484D01*
X3490682Y-20348484D02*
X3509729Y-20358008D01*
X3509729Y-20358008D02*
X3519253Y-20367531D01*
X3519253Y-20367531D02*
X3528777Y-20386579D01*
X3528777Y-20386579D02*
X3538301Y-20424674D01*
X3538301Y-20424674D02*
X3538301Y-20472293D01*
X3538301Y-20472293D02*
X3528777Y-20510389D01*
X3528777Y-20510389D02*
X3519253Y-20529436D01*
X3519253Y-20529436D02*
X3509729Y-20538960D01*
X3509729Y-20538960D02*
X3490682Y-20548484D01*
X3490682Y-20548484D02*
X3471634Y-20548484D01*
X3471634Y-20548484D02*
X3452586Y-20538960D01*
X3452586Y-20538960D02*
X3443063Y-20529436D01*
X3443063Y-20529436D02*
X3433539Y-20510389D01*
X3433539Y-20510389D02*
X3424015Y-20472293D01*
X3424015Y-20472293D02*
X3424015Y-20424674D01*
X3424015Y-20424674D02*
X3433539Y-20386579D01*
X3433539Y-20386579D02*
X3443063Y-20367531D01*
X3443063Y-20367531D02*
X3452586Y-20358008D01*
X3452586Y-20358008D02*
X3471634Y-20348484D01*
X3624015Y-20529436D02*
X3633539Y-20538960D01*
X3633539Y-20538960D02*
X3624015Y-20548484D01*
X3624015Y-20548484D02*
X3614491Y-20538960D01*
X3614491Y-20538960D02*
X3624015Y-20529436D01*
X3624015Y-20529436D02*
X3624015Y-20548484D01*
X3757348Y-20348484D02*
X3776396Y-20348484D01*
X3776396Y-20348484D02*
X3795444Y-20358008D01*
X3795444Y-20358008D02*
X3804967Y-20367531D01*
X3804967Y-20367531D02*
X3814491Y-20386579D01*
X3814491Y-20386579D02*
X3824015Y-20424674D01*
X3824015Y-20424674D02*
X3824015Y-20472293D01*
X3824015Y-20472293D02*
X3814491Y-20510389D01*
X3814491Y-20510389D02*
X3804967Y-20529436D01*
X3804967Y-20529436D02*
X3795444Y-20538960D01*
X3795444Y-20538960D02*
X3776396Y-20548484D01*
X3776396Y-20548484D02*
X3757348Y-20548484D01*
X3757348Y-20548484D02*
X3738301Y-20538960D01*
X3738301Y-20538960D02*
X3728777Y-20529436D01*
X3728777Y-20529436D02*
X3719253Y-20510389D01*
X3719253Y-20510389D02*
X3709729Y-20472293D01*
X3709729Y-20472293D02*
X3709729Y-20424674D01*
X3709729Y-20424674D02*
X3719253Y-20386579D01*
X3719253Y-20386579D02*
X3728777Y-20367531D01*
X3728777Y-20367531D02*
X3738301Y-20358008D01*
X3738301Y-20358008D02*
X3757348Y-20348484D01*
X4014491Y-20548484D02*
X3900206Y-20548484D01*
X3957348Y-20548484D02*
X3957348Y-20348484D01*
X3957348Y-20348484D02*
X3938301Y-20377055D01*
X3938301Y-20377055D02*
X3919253Y-20396103D01*
X3919253Y-20396103D02*
X3900206Y-20405627D01*
X4204968Y-20548484D02*
X4090682Y-20548484D01*
X4147825Y-20548484D02*
X4147825Y-20348484D01*
X4147825Y-20348484D02*
X4128777Y-20377055D01*
X4128777Y-20377055D02*
X4109729Y-20396103D01*
X4109729Y-20396103D02*
X4090682Y-20405627D01*
X4319253Y-20434198D02*
X4300206Y-20424674D01*
X4300206Y-20424674D02*
X4290682Y-20415150D01*
X4290682Y-20415150D02*
X4281158Y-20396103D01*
X4281158Y-20396103D02*
X4281158Y-20386579D01*
X4281158Y-20386579D02*
X4290682Y-20367531D01*
X4290682Y-20367531D02*
X4300206Y-20358008D01*
X4300206Y-20358008D02*
X4319253Y-20348484D01*
X4319253Y-20348484D02*
X4357349Y-20348484D01*
X4357349Y-20348484D02*
X4376396Y-20358008D01*
X4376396Y-20358008D02*
X4385920Y-20367531D01*
X4385920Y-20367531D02*
X4395444Y-20386579D01*
X4395444Y-20386579D02*
X4395444Y-20396103D01*
X4395444Y-20396103D02*
X4385920Y-20415150D01*
X4385920Y-20415150D02*
X4376396Y-20424674D01*
X4376396Y-20424674D02*
X4357349Y-20434198D01*
X4357349Y-20434198D02*
X4319253Y-20434198D01*
X4319253Y-20434198D02*
X4300206Y-20443722D01*
X4300206Y-20443722D02*
X4290682Y-20453246D01*
X4290682Y-20453246D02*
X4281158Y-20472293D01*
X4281158Y-20472293D02*
X4281158Y-20510389D01*
X4281158Y-20510389D02*
X4290682Y-20529436D01*
X4290682Y-20529436D02*
X4300206Y-20538960D01*
X4300206Y-20538960D02*
X4319253Y-20548484D01*
X4319253Y-20548484D02*
X4357349Y-20548484D01*
X4357349Y-20548484D02*
X4376396Y-20538960D01*
X4376396Y-20538960D02*
X4385920Y-20529436D01*
X4385920Y-20529436D02*
X4395444Y-20510389D01*
X4395444Y-20510389D02*
X4395444Y-20472293D01*
X4395444Y-20472293D02*
X4385920Y-20453246D01*
X4385920Y-20453246D02*
X4376396Y-20443722D01*
X4376396Y-20443722D02*
X4357349Y-20434198D01*
X4471634Y-20348484D02*
X4471634Y-20386579D01*
X4547825Y-20348484D02*
X4547825Y-20386579D01*
X4843063Y-20624674D02*
X4833539Y-20615150D01*
X4833539Y-20615150D02*
X4814491Y-20586579D01*
X4814491Y-20586579D02*
X4804968Y-20567531D01*
X4804968Y-20567531D02*
X4795444Y-20538960D01*
X4795444Y-20538960D02*
X4785920Y-20491341D01*
X4785920Y-20491341D02*
X4785920Y-20453246D01*
X4785920Y-20453246D02*
X4795444Y-20405627D01*
X4795444Y-20405627D02*
X4804968Y-20377055D01*
X4804968Y-20377055D02*
X4814491Y-20358008D01*
X4814491Y-20358008D02*
X4833539Y-20329436D01*
X4833539Y-20329436D02*
X4843063Y-20319912D01*
X5004968Y-20415150D02*
X5004968Y-20548484D01*
X4957349Y-20338960D02*
X4909730Y-20481817D01*
X4909730Y-20481817D02*
X5033539Y-20481817D01*
X5214491Y-20548484D02*
X5100206Y-20548484D01*
X5157349Y-20548484D02*
X5157349Y-20348484D01*
X5157349Y-20348484D02*
X5138301Y-20377055D01*
X5138301Y-20377055D02*
X5119253Y-20396103D01*
X5119253Y-20396103D02*
X5100206Y-20405627D01*
X5385920Y-20415150D02*
X5385920Y-20548484D01*
X5338301Y-20338960D02*
X5290682Y-20481817D01*
X5290682Y-20481817D02*
X5414491Y-20481817D01*
X5643063Y-20548484D02*
X5643063Y-20348484D01*
X5728777Y-20548484D02*
X5728777Y-20443722D01*
X5728777Y-20443722D02*
X5719253Y-20424674D01*
X5719253Y-20424674D02*
X5700206Y-20415150D01*
X5700206Y-20415150D02*
X5671634Y-20415150D01*
X5671634Y-20415150D02*
X5652587Y-20424674D01*
X5652587Y-20424674D02*
X5643063Y-20434198D01*
X5852587Y-20548484D02*
X5833539Y-20538960D01*
X5833539Y-20538960D02*
X5824015Y-20529436D01*
X5824015Y-20529436D02*
X5814491Y-20510389D01*
X5814491Y-20510389D02*
X5814491Y-20453246D01*
X5814491Y-20453246D02*
X5824015Y-20434198D01*
X5824015Y-20434198D02*
X5833539Y-20424674D01*
X5833539Y-20424674D02*
X5852587Y-20415150D01*
X5852587Y-20415150D02*
X5881158Y-20415150D01*
X5881158Y-20415150D02*
X5900206Y-20424674D01*
X5900206Y-20424674D02*
X5909730Y-20434198D01*
X5909730Y-20434198D02*
X5919253Y-20453246D01*
X5919253Y-20453246D02*
X5919253Y-20510389D01*
X5919253Y-20510389D02*
X5909730Y-20529436D01*
X5909730Y-20529436D02*
X5900206Y-20538960D01*
X5900206Y-20538960D02*
X5881158Y-20548484D01*
X5881158Y-20548484D02*
X5852587Y-20548484D01*
X6033539Y-20548484D02*
X6014491Y-20538960D01*
X6014491Y-20538960D02*
X6004968Y-20519912D01*
X6004968Y-20519912D02*
X6004968Y-20348484D01*
X6185920Y-20538960D02*
X6166872Y-20548484D01*
X6166872Y-20548484D02*
X6128777Y-20548484D01*
X6128777Y-20548484D02*
X6109730Y-20538960D01*
X6109730Y-20538960D02*
X6100206Y-20519912D01*
X6100206Y-20519912D02*
X6100206Y-20443722D01*
X6100206Y-20443722D02*
X6109730Y-20424674D01*
X6109730Y-20424674D02*
X6128777Y-20415150D01*
X6128777Y-20415150D02*
X6166872Y-20415150D01*
X6166872Y-20415150D02*
X6185920Y-20424674D01*
X6185920Y-20424674D02*
X6195444Y-20443722D01*
X6195444Y-20443722D02*
X6195444Y-20462770D01*
X6195444Y-20462770D02*
X6100206Y-20481817D01*
X6271634Y-20538960D02*
X6290682Y-20548484D01*
X6290682Y-20548484D02*
X6328777Y-20548484D01*
X6328777Y-20548484D02*
X6347825Y-20538960D01*
X6347825Y-20538960D02*
X6357349Y-20519912D01*
X6357349Y-20519912D02*
X6357349Y-20510389D01*
X6357349Y-20510389D02*
X6347825Y-20491341D01*
X6347825Y-20491341D02*
X6328777Y-20481817D01*
X6328777Y-20481817D02*
X6300206Y-20481817D01*
X6300206Y-20481817D02*
X6281158Y-20472293D01*
X6281158Y-20472293D02*
X6271634Y-20453246D01*
X6271634Y-20453246D02*
X6271634Y-20443722D01*
X6271634Y-20443722D02*
X6281158Y-20424674D01*
X6281158Y-20424674D02*
X6300206Y-20415150D01*
X6300206Y-20415150D02*
X6328777Y-20415150D01*
X6328777Y-20415150D02*
X6347825Y-20424674D01*
X6424015Y-20624674D02*
X6433539Y-20615150D01*
X6433539Y-20615150D02*
X6452587Y-20586579D01*
X6452587Y-20586579D02*
X6462111Y-20567531D01*
X6462111Y-20567531D02*
X6471634Y-20538960D01*
X6471634Y-20538960D02*
X6481158Y-20491341D01*
X6481158Y-20491341D02*
X6481158Y-20453246D01*
X6481158Y-20453246D02*
X6471634Y-20405627D01*
X6471634Y-20405627D02*
X6462111Y-20377055D01*
X6462111Y-20377055D02*
X6452587Y-20358008D01*
X6452587Y-20358008D02*
X6433539Y-20329436D01*
X6433539Y-20329436D02*
X6424015Y-20319912D01*
D11*
X1268000Y-20721000D02*
G75*
G02*
X1228000Y-20721000I-20000J0D01*
G01*
X1228000Y-20721000D02*
G75*
G02*
X1268000Y-20721000I20000J0D01*
G01*
D10*
X1566872Y-20612484D02*
X1585920Y-20612484D01*
X1585920Y-20612484D02*
X1604967Y-20622008D01*
X1604967Y-20622008D02*
X1614491Y-20631531D01*
X1614491Y-20631531D02*
X1624015Y-20650579D01*
X1624015Y-20650579D02*
X1633539Y-20688674D01*
X1633539Y-20688674D02*
X1633539Y-20736293D01*
X1633539Y-20736293D02*
X1624015Y-20774389D01*
X1624015Y-20774389D02*
X1614491Y-20793436D01*
X1614491Y-20793436D02*
X1604967Y-20802960D01*
X1604967Y-20802960D02*
X1585920Y-20812484D01*
X1585920Y-20812484D02*
X1566872Y-20812484D01*
X1566872Y-20812484D02*
X1547824Y-20802960D01*
X1547824Y-20802960D02*
X1538301Y-20793436D01*
X1538301Y-20793436D02*
X1528777Y-20774389D01*
X1528777Y-20774389D02*
X1519253Y-20736293D01*
X1519253Y-20736293D02*
X1519253Y-20688674D01*
X1519253Y-20688674D02*
X1528777Y-20650579D01*
X1528777Y-20650579D02*
X1538301Y-20631531D01*
X1538301Y-20631531D02*
X1547824Y-20622008D01*
X1547824Y-20622008D02*
X1566872Y-20612484D01*
X1719253Y-20793436D02*
X1728777Y-20802960D01*
X1728777Y-20802960D02*
X1719253Y-20812484D01*
X1719253Y-20812484D02*
X1709729Y-20802960D01*
X1709729Y-20802960D02*
X1719253Y-20793436D01*
X1719253Y-20793436D02*
X1719253Y-20812484D01*
X1900205Y-20679150D02*
X1900205Y-20812484D01*
X1852586Y-20602960D02*
X1804967Y-20745817D01*
X1804967Y-20745817D02*
X1928777Y-20745817D01*
X2043062Y-20612484D02*
X2062110Y-20612484D01*
X2062110Y-20612484D02*
X2081158Y-20622008D01*
X2081158Y-20622008D02*
X2090682Y-20631531D01*
X2090682Y-20631531D02*
X2100205Y-20650579D01*
X2100205Y-20650579D02*
X2109729Y-20688674D01*
X2109729Y-20688674D02*
X2109729Y-20736293D01*
X2109729Y-20736293D02*
X2100205Y-20774389D01*
X2100205Y-20774389D02*
X2090682Y-20793436D01*
X2090682Y-20793436D02*
X2081158Y-20802960D01*
X2081158Y-20802960D02*
X2062110Y-20812484D01*
X2062110Y-20812484D02*
X2043062Y-20812484D01*
X2043062Y-20812484D02*
X2024015Y-20802960D01*
X2024015Y-20802960D02*
X2014491Y-20793436D01*
X2014491Y-20793436D02*
X2004967Y-20774389D01*
X2004967Y-20774389D02*
X1995443Y-20736293D01*
X1995443Y-20736293D02*
X1995443Y-20688674D01*
X1995443Y-20688674D02*
X2004967Y-20650579D01*
X2004967Y-20650579D02*
X2014491Y-20631531D01*
X2014491Y-20631531D02*
X2024015Y-20622008D01*
X2024015Y-20622008D02*
X2043062Y-20612484D01*
X2233539Y-20612484D02*
X2252586Y-20612484D01*
X2252586Y-20612484D02*
X2271634Y-20622008D01*
X2271634Y-20622008D02*
X2281158Y-20631531D01*
X2281158Y-20631531D02*
X2290682Y-20650579D01*
X2290682Y-20650579D02*
X2300205Y-20688674D01*
X2300205Y-20688674D02*
X2300205Y-20736293D01*
X2300205Y-20736293D02*
X2290682Y-20774389D01*
X2290682Y-20774389D02*
X2281158Y-20793436D01*
X2281158Y-20793436D02*
X2271634Y-20802960D01*
X2271634Y-20802960D02*
X2252586Y-20812484D01*
X2252586Y-20812484D02*
X2233539Y-20812484D01*
X2233539Y-20812484D02*
X2214491Y-20802960D01*
X2214491Y-20802960D02*
X2204967Y-20793436D01*
X2204967Y-20793436D02*
X2195444Y-20774389D01*
X2195444Y-20774389D02*
X2185920Y-20736293D01*
X2185920Y-20736293D02*
X2185920Y-20688674D01*
X2185920Y-20688674D02*
X2195444Y-20650579D01*
X2195444Y-20650579D02*
X2204967Y-20631531D01*
X2204967Y-20631531D02*
X2214491Y-20622008D01*
X2214491Y-20622008D02*
X2233539Y-20612484D01*
X2385920Y-20812484D02*
X2385920Y-20679150D01*
X2385920Y-20698198D02*
X2395444Y-20688674D01*
X2395444Y-20688674D02*
X2414491Y-20679150D01*
X2414491Y-20679150D02*
X2443063Y-20679150D01*
X2443063Y-20679150D02*
X2462110Y-20688674D01*
X2462110Y-20688674D02*
X2471634Y-20707722D01*
X2471634Y-20707722D02*
X2471634Y-20812484D01*
X2471634Y-20707722D02*
X2481158Y-20688674D01*
X2481158Y-20688674D02*
X2500205Y-20679150D01*
X2500205Y-20679150D02*
X2528777Y-20679150D01*
X2528777Y-20679150D02*
X2547825Y-20688674D01*
X2547825Y-20688674D02*
X2557348Y-20707722D01*
X2557348Y-20707722D02*
X2557348Y-20812484D01*
X2652586Y-20812484D02*
X2652586Y-20679150D01*
X2652586Y-20698198D02*
X2662110Y-20688674D01*
X2662110Y-20688674D02*
X2681158Y-20679150D01*
X2681158Y-20679150D02*
X2709729Y-20679150D01*
X2709729Y-20679150D02*
X2728777Y-20688674D01*
X2728777Y-20688674D02*
X2738301Y-20707722D01*
X2738301Y-20707722D02*
X2738301Y-20812484D01*
X2738301Y-20707722D02*
X2747825Y-20688674D01*
X2747825Y-20688674D02*
X2766872Y-20679150D01*
X2766872Y-20679150D02*
X2795444Y-20679150D01*
X2795444Y-20679150D02*
X2814491Y-20688674D01*
X2814491Y-20688674D02*
X2824015Y-20707722D01*
X2824015Y-20707722D02*
X2824015Y-20812484D01*
X3214491Y-20602960D02*
X3043063Y-20860103D01*
X3471634Y-20612484D02*
X3490682Y-20612484D01*
X3490682Y-20612484D02*
X3509729Y-20622008D01*
X3509729Y-20622008D02*
X3519253Y-20631531D01*
X3519253Y-20631531D02*
X3528777Y-20650579D01*
X3528777Y-20650579D02*
X3538301Y-20688674D01*
X3538301Y-20688674D02*
X3538301Y-20736293D01*
X3538301Y-20736293D02*
X3528777Y-20774389D01*
X3528777Y-20774389D02*
X3519253Y-20793436D01*
X3519253Y-20793436D02*
X3509729Y-20802960D01*
X3509729Y-20802960D02*
X3490682Y-20812484D01*
X3490682Y-20812484D02*
X3471634Y-20812484D01*
X3471634Y-20812484D02*
X3452586Y-20802960D01*
X3452586Y-20802960D02*
X3443063Y-20793436D01*
X3443063Y-20793436D02*
X3433539Y-20774389D01*
X3433539Y-20774389D02*
X3424015Y-20736293D01*
X3424015Y-20736293D02*
X3424015Y-20688674D01*
X3424015Y-20688674D02*
X3433539Y-20650579D01*
X3433539Y-20650579D02*
X3443063Y-20631531D01*
X3443063Y-20631531D02*
X3452586Y-20622008D01*
X3452586Y-20622008D02*
X3471634Y-20612484D01*
X3624015Y-20793436D02*
X3633539Y-20802960D01*
X3633539Y-20802960D02*
X3624015Y-20812484D01*
X3624015Y-20812484D02*
X3614491Y-20802960D01*
X3614491Y-20802960D02*
X3624015Y-20793436D01*
X3624015Y-20793436D02*
X3624015Y-20812484D01*
X3757348Y-20612484D02*
X3776396Y-20612484D01*
X3776396Y-20612484D02*
X3795444Y-20622008D01*
X3795444Y-20622008D02*
X3804967Y-20631531D01*
X3804967Y-20631531D02*
X3814491Y-20650579D01*
X3814491Y-20650579D02*
X3824015Y-20688674D01*
X3824015Y-20688674D02*
X3824015Y-20736293D01*
X3824015Y-20736293D02*
X3814491Y-20774389D01*
X3814491Y-20774389D02*
X3804967Y-20793436D01*
X3804967Y-20793436D02*
X3795444Y-20802960D01*
X3795444Y-20802960D02*
X3776396Y-20812484D01*
X3776396Y-20812484D02*
X3757348Y-20812484D01*
X3757348Y-20812484D02*
X3738301Y-20802960D01*
X3738301Y-20802960D02*
X3728777Y-20793436D01*
X3728777Y-20793436D02*
X3719253Y-20774389D01*
X3719253Y-20774389D02*
X3709729Y-20736293D01*
X3709729Y-20736293D02*
X3709729Y-20688674D01*
X3709729Y-20688674D02*
X3719253Y-20650579D01*
X3719253Y-20650579D02*
X3728777Y-20631531D01*
X3728777Y-20631531D02*
X3738301Y-20622008D01*
X3738301Y-20622008D02*
X3757348Y-20612484D01*
X4014491Y-20812484D02*
X3900206Y-20812484D01*
X3957348Y-20812484D02*
X3957348Y-20612484D01*
X3957348Y-20612484D02*
X3938301Y-20641055D01*
X3938301Y-20641055D02*
X3919253Y-20660103D01*
X3919253Y-20660103D02*
X3900206Y-20669627D01*
X4195444Y-20612484D02*
X4100206Y-20612484D01*
X4100206Y-20612484D02*
X4090682Y-20707722D01*
X4090682Y-20707722D02*
X4100206Y-20698198D01*
X4100206Y-20698198D02*
X4119253Y-20688674D01*
X4119253Y-20688674D02*
X4166872Y-20688674D01*
X4166872Y-20688674D02*
X4185920Y-20698198D01*
X4185920Y-20698198D02*
X4195444Y-20707722D01*
X4195444Y-20707722D02*
X4204968Y-20726770D01*
X4204968Y-20726770D02*
X4204968Y-20774389D01*
X4204968Y-20774389D02*
X4195444Y-20793436D01*
X4195444Y-20793436D02*
X4185920Y-20802960D01*
X4185920Y-20802960D02*
X4166872Y-20812484D01*
X4166872Y-20812484D02*
X4119253Y-20812484D01*
X4119253Y-20812484D02*
X4100206Y-20802960D01*
X4100206Y-20802960D02*
X4090682Y-20793436D01*
X4271634Y-20612484D02*
X4404968Y-20612484D01*
X4404968Y-20612484D02*
X4319253Y-20812484D01*
X4471634Y-20612484D02*
X4471634Y-20650579D01*
X4547825Y-20612484D02*
X4547825Y-20650579D01*
X4843063Y-20888674D02*
X4833539Y-20879150D01*
X4833539Y-20879150D02*
X4814491Y-20850579D01*
X4814491Y-20850579D02*
X4804968Y-20831531D01*
X4804968Y-20831531D02*
X4795444Y-20802960D01*
X4795444Y-20802960D02*
X4785920Y-20755341D01*
X4785920Y-20755341D02*
X4785920Y-20717246D01*
X4785920Y-20717246D02*
X4795444Y-20669627D01*
X4795444Y-20669627D02*
X4804968Y-20641055D01*
X4804968Y-20641055D02*
X4814491Y-20622008D01*
X4814491Y-20622008D02*
X4833539Y-20593436D01*
X4833539Y-20593436D02*
X4843063Y-20583912D01*
X4900206Y-20612484D02*
X5024015Y-20612484D01*
X5024015Y-20612484D02*
X4957349Y-20688674D01*
X4957349Y-20688674D02*
X4985920Y-20688674D01*
X4985920Y-20688674D02*
X5004968Y-20698198D01*
X5004968Y-20698198D02*
X5014491Y-20707722D01*
X5014491Y-20707722D02*
X5024015Y-20726770D01*
X5024015Y-20726770D02*
X5024015Y-20774389D01*
X5024015Y-20774389D02*
X5014491Y-20793436D01*
X5014491Y-20793436D02*
X5004968Y-20802960D01*
X5004968Y-20802960D02*
X4985920Y-20812484D01*
X4985920Y-20812484D02*
X4928777Y-20812484D01*
X4928777Y-20812484D02*
X4909730Y-20802960D01*
X4909730Y-20802960D02*
X4900206Y-20793436D01*
X5100206Y-20631531D02*
X5109730Y-20622008D01*
X5109730Y-20622008D02*
X5128777Y-20612484D01*
X5128777Y-20612484D02*
X5176396Y-20612484D01*
X5176396Y-20612484D02*
X5195444Y-20622008D01*
X5195444Y-20622008D02*
X5204968Y-20631531D01*
X5204968Y-20631531D02*
X5214491Y-20650579D01*
X5214491Y-20650579D02*
X5214491Y-20669627D01*
X5214491Y-20669627D02*
X5204968Y-20698198D01*
X5204968Y-20698198D02*
X5090682Y-20812484D01*
X5090682Y-20812484D02*
X5214491Y-20812484D01*
X5452587Y-20812484D02*
X5452587Y-20612484D01*
X5538301Y-20812484D02*
X5538301Y-20707722D01*
X5538301Y-20707722D02*
X5528777Y-20688674D01*
X5528777Y-20688674D02*
X5509730Y-20679150D01*
X5509730Y-20679150D02*
X5481158Y-20679150D01*
X5481158Y-20679150D02*
X5462111Y-20688674D01*
X5462111Y-20688674D02*
X5452587Y-20698198D01*
X5662110Y-20812484D02*
X5643063Y-20802960D01*
X5643063Y-20802960D02*
X5633539Y-20793436D01*
X5633539Y-20793436D02*
X5624015Y-20774389D01*
X5624015Y-20774389D02*
X5624015Y-20717246D01*
X5624015Y-20717246D02*
X5633539Y-20698198D01*
X5633539Y-20698198D02*
X5643063Y-20688674D01*
X5643063Y-20688674D02*
X5662110Y-20679150D01*
X5662110Y-20679150D02*
X5690682Y-20679150D01*
X5690682Y-20679150D02*
X5709730Y-20688674D01*
X5709730Y-20688674D02*
X5719253Y-20698198D01*
X5719253Y-20698198D02*
X5728777Y-20717246D01*
X5728777Y-20717246D02*
X5728777Y-20774389D01*
X5728777Y-20774389D02*
X5719253Y-20793436D01*
X5719253Y-20793436D02*
X5709730Y-20802960D01*
X5709730Y-20802960D02*
X5690682Y-20812484D01*
X5690682Y-20812484D02*
X5662110Y-20812484D01*
X5843063Y-20812484D02*
X5824015Y-20802960D01*
X5824015Y-20802960D02*
X5814491Y-20783912D01*
X5814491Y-20783912D02*
X5814491Y-20612484D01*
X5995444Y-20802960D02*
X5976396Y-20812484D01*
X5976396Y-20812484D02*
X5938301Y-20812484D01*
X5938301Y-20812484D02*
X5919253Y-20802960D01*
X5919253Y-20802960D02*
X5909730Y-20783912D01*
X5909730Y-20783912D02*
X5909730Y-20707722D01*
X5909730Y-20707722D02*
X5919253Y-20688674D01*
X5919253Y-20688674D02*
X5938301Y-20679150D01*
X5938301Y-20679150D02*
X5976396Y-20679150D01*
X5976396Y-20679150D02*
X5995444Y-20688674D01*
X5995444Y-20688674D02*
X6004968Y-20707722D01*
X6004968Y-20707722D02*
X6004968Y-20726770D01*
X6004968Y-20726770D02*
X5909730Y-20745817D01*
X6081158Y-20802960D02*
X6100206Y-20812484D01*
X6100206Y-20812484D02*
X6138301Y-20812484D01*
X6138301Y-20812484D02*
X6157349Y-20802960D01*
X6157349Y-20802960D02*
X6166872Y-20783912D01*
X6166872Y-20783912D02*
X6166872Y-20774389D01*
X6166872Y-20774389D02*
X6157349Y-20755341D01*
X6157349Y-20755341D02*
X6138301Y-20745817D01*
X6138301Y-20745817D02*
X6109730Y-20745817D01*
X6109730Y-20745817D02*
X6090682Y-20736293D01*
X6090682Y-20736293D02*
X6081158Y-20717246D01*
X6081158Y-20717246D02*
X6081158Y-20707722D01*
X6081158Y-20707722D02*
X6090682Y-20688674D01*
X6090682Y-20688674D02*
X6109730Y-20679150D01*
X6109730Y-20679150D02*
X6138301Y-20679150D01*
X6138301Y-20679150D02*
X6157349Y-20688674D01*
X6233539Y-20888674D02*
X6243063Y-20879150D01*
X6243063Y-20879150D02*
X6262111Y-20850579D01*
X6262111Y-20850579D02*
X6271634Y-20831531D01*
X6271634Y-20831531D02*
X6281158Y-20802960D01*
X6281158Y-20802960D02*
X6290682Y-20755341D01*
X6290682Y-20755341D02*
X6290682Y-20717246D01*
X6290682Y-20717246D02*
X6281158Y-20669627D01*
X6281158Y-20669627D02*
X6271634Y-20641055D01*
X6271634Y-20641055D02*
X6262111Y-20622008D01*
X6262111Y-20622008D02*
X6243063Y-20593436D01*
X6243063Y-20593436D02*
X6233539Y-20583912D01*
D11*
X1230500Y-20947500D02*
X1230500Y-21022500D01*
X1193000Y-20985000D02*
X1268000Y-20985000D01*
D10*
X1566872Y-20876484D02*
X1585920Y-20876484D01*
X1585920Y-20876484D02*
X1604967Y-20886008D01*
X1604967Y-20886008D02*
X1614491Y-20895531D01*
X1614491Y-20895531D02*
X1624015Y-20914579D01*
X1624015Y-20914579D02*
X1633539Y-20952674D01*
X1633539Y-20952674D02*
X1633539Y-21000293D01*
X1633539Y-21000293D02*
X1624015Y-21038389D01*
X1624015Y-21038389D02*
X1614491Y-21057436D01*
X1614491Y-21057436D02*
X1604967Y-21066960D01*
X1604967Y-21066960D02*
X1585920Y-21076484D01*
X1585920Y-21076484D02*
X1566872Y-21076484D01*
X1566872Y-21076484D02*
X1547824Y-21066960D01*
X1547824Y-21066960D02*
X1538301Y-21057436D01*
X1538301Y-21057436D02*
X1528777Y-21038389D01*
X1528777Y-21038389D02*
X1519253Y-21000293D01*
X1519253Y-21000293D02*
X1519253Y-20952674D01*
X1519253Y-20952674D02*
X1528777Y-20914579D01*
X1528777Y-20914579D02*
X1538301Y-20895531D01*
X1538301Y-20895531D02*
X1547824Y-20886008D01*
X1547824Y-20886008D02*
X1566872Y-20876484D01*
X1719253Y-21057436D02*
X1728777Y-21066960D01*
X1728777Y-21066960D02*
X1719253Y-21076484D01*
X1719253Y-21076484D02*
X1709729Y-21066960D01*
X1709729Y-21066960D02*
X1719253Y-21057436D01*
X1719253Y-21057436D02*
X1719253Y-21076484D01*
X1795443Y-20876484D02*
X1928777Y-20876484D01*
X1928777Y-20876484D02*
X1843062Y-21076484D01*
X2100205Y-20876484D02*
X2004967Y-20876484D01*
X2004967Y-20876484D02*
X1995443Y-20971722D01*
X1995443Y-20971722D02*
X2004967Y-20962198D01*
X2004967Y-20962198D02*
X2024015Y-20952674D01*
X2024015Y-20952674D02*
X2071634Y-20952674D01*
X2071634Y-20952674D02*
X2090682Y-20962198D01*
X2090682Y-20962198D02*
X2100205Y-20971722D01*
X2100205Y-20971722D02*
X2109729Y-20990770D01*
X2109729Y-20990770D02*
X2109729Y-21038389D01*
X2109729Y-21038389D02*
X2100205Y-21057436D01*
X2100205Y-21057436D02*
X2090682Y-21066960D01*
X2090682Y-21066960D02*
X2071634Y-21076484D01*
X2071634Y-21076484D02*
X2024015Y-21076484D01*
X2024015Y-21076484D02*
X2004967Y-21066960D01*
X2004967Y-21066960D02*
X1995443Y-21057436D01*
X2233539Y-20876484D02*
X2252586Y-20876484D01*
X2252586Y-20876484D02*
X2271634Y-20886008D01*
X2271634Y-20886008D02*
X2281158Y-20895531D01*
X2281158Y-20895531D02*
X2290682Y-20914579D01*
X2290682Y-20914579D02*
X2300205Y-20952674D01*
X2300205Y-20952674D02*
X2300205Y-21000293D01*
X2300205Y-21000293D02*
X2290682Y-21038389D01*
X2290682Y-21038389D02*
X2281158Y-21057436D01*
X2281158Y-21057436D02*
X2271634Y-21066960D01*
X2271634Y-21066960D02*
X2252586Y-21076484D01*
X2252586Y-21076484D02*
X2233539Y-21076484D01*
X2233539Y-21076484D02*
X2214491Y-21066960D01*
X2214491Y-21066960D02*
X2204967Y-21057436D01*
X2204967Y-21057436D02*
X2195444Y-21038389D01*
X2195444Y-21038389D02*
X2185920Y-21000293D01*
X2185920Y-21000293D02*
X2185920Y-20952674D01*
X2185920Y-20952674D02*
X2195444Y-20914579D01*
X2195444Y-20914579D02*
X2204967Y-20895531D01*
X2204967Y-20895531D02*
X2214491Y-20886008D01*
X2214491Y-20886008D02*
X2233539Y-20876484D01*
X2385920Y-21076484D02*
X2385920Y-20943150D01*
X2385920Y-20962198D02*
X2395444Y-20952674D01*
X2395444Y-20952674D02*
X2414491Y-20943150D01*
X2414491Y-20943150D02*
X2443063Y-20943150D01*
X2443063Y-20943150D02*
X2462110Y-20952674D01*
X2462110Y-20952674D02*
X2471634Y-20971722D01*
X2471634Y-20971722D02*
X2471634Y-21076484D01*
X2471634Y-20971722D02*
X2481158Y-20952674D01*
X2481158Y-20952674D02*
X2500205Y-20943150D01*
X2500205Y-20943150D02*
X2528777Y-20943150D01*
X2528777Y-20943150D02*
X2547825Y-20952674D01*
X2547825Y-20952674D02*
X2557348Y-20971722D01*
X2557348Y-20971722D02*
X2557348Y-21076484D01*
X2652586Y-21076484D02*
X2652586Y-20943150D01*
X2652586Y-20962198D02*
X2662110Y-20952674D01*
X2662110Y-20952674D02*
X2681158Y-20943150D01*
X2681158Y-20943150D02*
X2709729Y-20943150D01*
X2709729Y-20943150D02*
X2728777Y-20952674D01*
X2728777Y-20952674D02*
X2738301Y-20971722D01*
X2738301Y-20971722D02*
X2738301Y-21076484D01*
X2738301Y-20971722D02*
X2747825Y-20952674D01*
X2747825Y-20952674D02*
X2766872Y-20943150D01*
X2766872Y-20943150D02*
X2795444Y-20943150D01*
X2795444Y-20943150D02*
X2814491Y-20952674D01*
X2814491Y-20952674D02*
X2824015Y-20971722D01*
X2824015Y-20971722D02*
X2824015Y-21076484D01*
X3214491Y-20866960D02*
X3043063Y-21124103D01*
X3471634Y-20876484D02*
X3490682Y-20876484D01*
X3490682Y-20876484D02*
X3509729Y-20886008D01*
X3509729Y-20886008D02*
X3519253Y-20895531D01*
X3519253Y-20895531D02*
X3528777Y-20914579D01*
X3528777Y-20914579D02*
X3538301Y-20952674D01*
X3538301Y-20952674D02*
X3538301Y-21000293D01*
X3538301Y-21000293D02*
X3528777Y-21038389D01*
X3528777Y-21038389D02*
X3519253Y-21057436D01*
X3519253Y-21057436D02*
X3509729Y-21066960D01*
X3509729Y-21066960D02*
X3490682Y-21076484D01*
X3490682Y-21076484D02*
X3471634Y-21076484D01*
X3471634Y-21076484D02*
X3452586Y-21066960D01*
X3452586Y-21066960D02*
X3443063Y-21057436D01*
X3443063Y-21057436D02*
X3433539Y-21038389D01*
X3433539Y-21038389D02*
X3424015Y-21000293D01*
X3424015Y-21000293D02*
X3424015Y-20952674D01*
X3424015Y-20952674D02*
X3433539Y-20914579D01*
X3433539Y-20914579D02*
X3443063Y-20895531D01*
X3443063Y-20895531D02*
X3452586Y-20886008D01*
X3452586Y-20886008D02*
X3471634Y-20876484D01*
X3624015Y-21057436D02*
X3633539Y-21066960D01*
X3633539Y-21066960D02*
X3624015Y-21076484D01*
X3624015Y-21076484D02*
X3614491Y-21066960D01*
X3614491Y-21066960D02*
X3624015Y-21057436D01*
X3624015Y-21057436D02*
X3624015Y-21076484D01*
X3757348Y-20876484D02*
X3776396Y-20876484D01*
X3776396Y-20876484D02*
X3795444Y-20886008D01*
X3795444Y-20886008D02*
X3804967Y-20895531D01*
X3804967Y-20895531D02*
X3814491Y-20914579D01*
X3814491Y-20914579D02*
X3824015Y-20952674D01*
X3824015Y-20952674D02*
X3824015Y-21000293D01*
X3824015Y-21000293D02*
X3814491Y-21038389D01*
X3814491Y-21038389D02*
X3804967Y-21057436D01*
X3804967Y-21057436D02*
X3795444Y-21066960D01*
X3795444Y-21066960D02*
X3776396Y-21076484D01*
X3776396Y-21076484D02*
X3757348Y-21076484D01*
X3757348Y-21076484D02*
X3738301Y-21066960D01*
X3738301Y-21066960D02*
X3728777Y-21057436D01*
X3728777Y-21057436D02*
X3719253Y-21038389D01*
X3719253Y-21038389D02*
X3709729Y-21000293D01*
X3709729Y-21000293D02*
X3709729Y-20952674D01*
X3709729Y-20952674D02*
X3719253Y-20914579D01*
X3719253Y-20914579D02*
X3728777Y-20895531D01*
X3728777Y-20895531D02*
X3738301Y-20886008D01*
X3738301Y-20886008D02*
X3757348Y-20876484D01*
X3900206Y-20895531D02*
X3909729Y-20886008D01*
X3909729Y-20886008D02*
X3928777Y-20876484D01*
X3928777Y-20876484D02*
X3976396Y-20876484D01*
X3976396Y-20876484D02*
X3995444Y-20886008D01*
X3995444Y-20886008D02*
X4004967Y-20895531D01*
X4004967Y-20895531D02*
X4014491Y-20914579D01*
X4014491Y-20914579D02*
X4014491Y-20933627D01*
X4014491Y-20933627D02*
X4004967Y-20962198D01*
X4004967Y-20962198D02*
X3890682Y-21076484D01*
X3890682Y-21076484D02*
X4014491Y-21076484D01*
X4109729Y-21076484D02*
X4147825Y-21076484D01*
X4147825Y-21076484D02*
X4166872Y-21066960D01*
X4166872Y-21066960D02*
X4176396Y-21057436D01*
X4176396Y-21057436D02*
X4195444Y-21028865D01*
X4195444Y-21028865D02*
X4204968Y-20990770D01*
X4204968Y-20990770D02*
X4204968Y-20914579D01*
X4204968Y-20914579D02*
X4195444Y-20895531D01*
X4195444Y-20895531D02*
X4185920Y-20886008D01*
X4185920Y-20886008D02*
X4166872Y-20876484D01*
X4166872Y-20876484D02*
X4128777Y-20876484D01*
X4128777Y-20876484D02*
X4109729Y-20886008D01*
X4109729Y-20886008D02*
X4100206Y-20895531D01*
X4100206Y-20895531D02*
X4090682Y-20914579D01*
X4090682Y-20914579D02*
X4090682Y-20962198D01*
X4090682Y-20962198D02*
X4100206Y-20981246D01*
X4100206Y-20981246D02*
X4109729Y-20990770D01*
X4109729Y-20990770D02*
X4128777Y-21000293D01*
X4128777Y-21000293D02*
X4166872Y-21000293D01*
X4166872Y-21000293D02*
X4185920Y-20990770D01*
X4185920Y-20990770D02*
X4195444Y-20981246D01*
X4195444Y-20981246D02*
X4204968Y-20962198D01*
X4385920Y-20876484D02*
X4290682Y-20876484D01*
X4290682Y-20876484D02*
X4281158Y-20971722D01*
X4281158Y-20971722D02*
X4290682Y-20962198D01*
X4290682Y-20962198D02*
X4309729Y-20952674D01*
X4309729Y-20952674D02*
X4357349Y-20952674D01*
X4357349Y-20952674D02*
X4376396Y-20962198D01*
X4376396Y-20962198D02*
X4385920Y-20971722D01*
X4385920Y-20971722D02*
X4395444Y-20990770D01*
X4395444Y-20990770D02*
X4395444Y-21038389D01*
X4395444Y-21038389D02*
X4385920Y-21057436D01*
X4385920Y-21057436D02*
X4376396Y-21066960D01*
X4376396Y-21066960D02*
X4357349Y-21076484D01*
X4357349Y-21076484D02*
X4309729Y-21076484D01*
X4309729Y-21076484D02*
X4290682Y-21066960D01*
X4290682Y-21066960D02*
X4281158Y-21057436D01*
X4471634Y-20876484D02*
X4471634Y-20914579D01*
X4547825Y-20876484D02*
X4547825Y-20914579D01*
X4843063Y-21152674D02*
X4833539Y-21143150D01*
X4833539Y-21143150D02*
X4814491Y-21114579D01*
X4814491Y-21114579D02*
X4804968Y-21095531D01*
X4804968Y-21095531D02*
X4795444Y-21066960D01*
X4795444Y-21066960D02*
X4785920Y-21019341D01*
X4785920Y-21019341D02*
X4785920Y-20981246D01*
X4785920Y-20981246D02*
X4795444Y-20933627D01*
X4795444Y-20933627D02*
X4804968Y-20905055D01*
X4804968Y-20905055D02*
X4814491Y-20886008D01*
X4814491Y-20886008D02*
X4833539Y-20857436D01*
X4833539Y-20857436D02*
X4843063Y-20847912D01*
X4928777Y-21076484D02*
X4966872Y-21076484D01*
X4966872Y-21076484D02*
X4985920Y-21066960D01*
X4985920Y-21066960D02*
X4995444Y-21057436D01*
X4995444Y-21057436D02*
X5014491Y-21028865D01*
X5014491Y-21028865D02*
X5024015Y-20990770D01*
X5024015Y-20990770D02*
X5024015Y-20914579D01*
X5024015Y-20914579D02*
X5014491Y-20895531D01*
X5014491Y-20895531D02*
X5004968Y-20886008D01*
X5004968Y-20886008D02*
X4985920Y-20876484D01*
X4985920Y-20876484D02*
X4947825Y-20876484D01*
X4947825Y-20876484D02*
X4928777Y-20886008D01*
X4928777Y-20886008D02*
X4919253Y-20895531D01*
X4919253Y-20895531D02*
X4909730Y-20914579D01*
X4909730Y-20914579D02*
X4909730Y-20962198D01*
X4909730Y-20962198D02*
X4919253Y-20981246D01*
X4919253Y-20981246D02*
X4928777Y-20990770D01*
X4928777Y-20990770D02*
X4947825Y-21000293D01*
X4947825Y-21000293D02*
X4985920Y-21000293D01*
X4985920Y-21000293D02*
X5004968Y-20990770D01*
X5004968Y-20990770D02*
X5014491Y-20981246D01*
X5014491Y-20981246D02*
X5024015Y-20962198D01*
X5262111Y-21076484D02*
X5262111Y-20876484D01*
X5347825Y-21076484D02*
X5347825Y-20971722D01*
X5347825Y-20971722D02*
X5338301Y-20952674D01*
X5338301Y-20952674D02*
X5319253Y-20943150D01*
X5319253Y-20943150D02*
X5290682Y-20943150D01*
X5290682Y-20943150D02*
X5271634Y-20952674D01*
X5271634Y-20952674D02*
X5262111Y-20962198D01*
X5471634Y-21076484D02*
X5452587Y-21066960D01*
X5452587Y-21066960D02*
X5443063Y-21057436D01*
X5443063Y-21057436D02*
X5433539Y-21038389D01*
X5433539Y-21038389D02*
X5433539Y-20981246D01*
X5433539Y-20981246D02*
X5443063Y-20962198D01*
X5443063Y-20962198D02*
X5452587Y-20952674D01*
X5452587Y-20952674D02*
X5471634Y-20943150D01*
X5471634Y-20943150D02*
X5500206Y-20943150D01*
X5500206Y-20943150D02*
X5519253Y-20952674D01*
X5519253Y-20952674D02*
X5528777Y-20962198D01*
X5528777Y-20962198D02*
X5538301Y-20981246D01*
X5538301Y-20981246D02*
X5538301Y-21038389D01*
X5538301Y-21038389D02*
X5528777Y-21057436D01*
X5528777Y-21057436D02*
X5519253Y-21066960D01*
X5519253Y-21066960D02*
X5500206Y-21076484D01*
X5500206Y-21076484D02*
X5471634Y-21076484D01*
X5652587Y-21076484D02*
X5633539Y-21066960D01*
X5633539Y-21066960D02*
X5624015Y-21047912D01*
X5624015Y-21047912D02*
X5624015Y-20876484D01*
X5804968Y-21066960D02*
X5785920Y-21076484D01*
X5785920Y-21076484D02*
X5747825Y-21076484D01*
X5747825Y-21076484D02*
X5728777Y-21066960D01*
X5728777Y-21066960D02*
X5719253Y-21047912D01*
X5719253Y-21047912D02*
X5719253Y-20971722D01*
X5719253Y-20971722D02*
X5728777Y-20952674D01*
X5728777Y-20952674D02*
X5747825Y-20943150D01*
X5747825Y-20943150D02*
X5785920Y-20943150D01*
X5785920Y-20943150D02*
X5804968Y-20952674D01*
X5804968Y-20952674D02*
X5814491Y-20971722D01*
X5814491Y-20971722D02*
X5814491Y-20990770D01*
X5814491Y-20990770D02*
X5719253Y-21009817D01*
X5890682Y-21066960D02*
X5909730Y-21076484D01*
X5909730Y-21076484D02*
X5947825Y-21076484D01*
X5947825Y-21076484D02*
X5966872Y-21066960D01*
X5966872Y-21066960D02*
X5976396Y-21047912D01*
X5976396Y-21047912D02*
X5976396Y-21038389D01*
X5976396Y-21038389D02*
X5966872Y-21019341D01*
X5966872Y-21019341D02*
X5947825Y-21009817D01*
X5947825Y-21009817D02*
X5919253Y-21009817D01*
X5919253Y-21009817D02*
X5900206Y-21000293D01*
X5900206Y-21000293D02*
X5890682Y-20981246D01*
X5890682Y-20981246D02*
X5890682Y-20971722D01*
X5890682Y-20971722D02*
X5900206Y-20952674D01*
X5900206Y-20952674D02*
X5919253Y-20943150D01*
X5919253Y-20943150D02*
X5947825Y-20943150D01*
X5947825Y-20943150D02*
X5966872Y-20952674D01*
X6043063Y-21152674D02*
X6052587Y-21143150D01*
X6052587Y-21143150D02*
X6071634Y-21114579D01*
X6071634Y-21114579D02*
X6081158Y-21095531D01*
X6081158Y-21095531D02*
X6090682Y-21066960D01*
X6090682Y-21066960D02*
X6100206Y-21019341D01*
X6100206Y-21019341D02*
X6100206Y-20981246D01*
X6100206Y-20981246D02*
X6090682Y-20933627D01*
X6090682Y-20933627D02*
X6081158Y-20905055D01*
X6081158Y-20905055D02*
X6071634Y-20886008D01*
X6071634Y-20886008D02*
X6052587Y-20857436D01*
X6052587Y-20857436D02*
X6043063Y-20847912D01*
D11*
X1256285Y-21277285D02*
X1256285Y-21220716D01*
X1199716Y-21220716D01*
X1199716Y-21277285D01*
X1256285Y-21277285D01*
D10*
X1566872Y-21140484D02*
X1585920Y-21140484D01*
X1585920Y-21140484D02*
X1604967Y-21150008D01*
X1604967Y-21150008D02*
X1614491Y-21159531D01*
X1614491Y-21159531D02*
X1624015Y-21178579D01*
X1624015Y-21178579D02*
X1633539Y-21216674D01*
X1633539Y-21216674D02*
X1633539Y-21264293D01*
X1633539Y-21264293D02*
X1624015Y-21302389D01*
X1624015Y-21302389D02*
X1614491Y-21321436D01*
X1614491Y-21321436D02*
X1604967Y-21330960D01*
X1604967Y-21330960D02*
X1585920Y-21340484D01*
X1585920Y-21340484D02*
X1566872Y-21340484D01*
X1566872Y-21340484D02*
X1547824Y-21330960D01*
X1547824Y-21330960D02*
X1538301Y-21321436D01*
X1538301Y-21321436D02*
X1528777Y-21302389D01*
X1528777Y-21302389D02*
X1519253Y-21264293D01*
X1519253Y-21264293D02*
X1519253Y-21216674D01*
X1519253Y-21216674D02*
X1528777Y-21178579D01*
X1528777Y-21178579D02*
X1538301Y-21159531D01*
X1538301Y-21159531D02*
X1547824Y-21150008D01*
X1547824Y-21150008D02*
X1566872Y-21140484D01*
X1719253Y-21321436D02*
X1728777Y-21330960D01*
X1728777Y-21330960D02*
X1719253Y-21340484D01*
X1719253Y-21340484D02*
X1709729Y-21330960D01*
X1709729Y-21330960D02*
X1719253Y-21321436D01*
X1719253Y-21321436D02*
X1719253Y-21340484D01*
X1843062Y-21226198D02*
X1824015Y-21216674D01*
X1824015Y-21216674D02*
X1814491Y-21207150D01*
X1814491Y-21207150D02*
X1804967Y-21188103D01*
X1804967Y-21188103D02*
X1804967Y-21178579D01*
X1804967Y-21178579D02*
X1814491Y-21159531D01*
X1814491Y-21159531D02*
X1824015Y-21150008D01*
X1824015Y-21150008D02*
X1843062Y-21140484D01*
X1843062Y-21140484D02*
X1881158Y-21140484D01*
X1881158Y-21140484D02*
X1900205Y-21150008D01*
X1900205Y-21150008D02*
X1909729Y-21159531D01*
X1909729Y-21159531D02*
X1919253Y-21178579D01*
X1919253Y-21178579D02*
X1919253Y-21188103D01*
X1919253Y-21188103D02*
X1909729Y-21207150D01*
X1909729Y-21207150D02*
X1900205Y-21216674D01*
X1900205Y-21216674D02*
X1881158Y-21226198D01*
X1881158Y-21226198D02*
X1843062Y-21226198D01*
X1843062Y-21226198D02*
X1824015Y-21235722D01*
X1824015Y-21235722D02*
X1814491Y-21245246D01*
X1814491Y-21245246D02*
X1804967Y-21264293D01*
X1804967Y-21264293D02*
X1804967Y-21302389D01*
X1804967Y-21302389D02*
X1814491Y-21321436D01*
X1814491Y-21321436D02*
X1824015Y-21330960D01*
X1824015Y-21330960D02*
X1843062Y-21340484D01*
X1843062Y-21340484D02*
X1881158Y-21340484D01*
X1881158Y-21340484D02*
X1900205Y-21330960D01*
X1900205Y-21330960D02*
X1909729Y-21321436D01*
X1909729Y-21321436D02*
X1919253Y-21302389D01*
X1919253Y-21302389D02*
X1919253Y-21264293D01*
X1919253Y-21264293D02*
X1909729Y-21245246D01*
X1909729Y-21245246D02*
X1900205Y-21235722D01*
X1900205Y-21235722D02*
X1881158Y-21226198D01*
X2043062Y-21140484D02*
X2062110Y-21140484D01*
X2062110Y-21140484D02*
X2081158Y-21150008D01*
X2081158Y-21150008D02*
X2090682Y-21159531D01*
X2090682Y-21159531D02*
X2100205Y-21178579D01*
X2100205Y-21178579D02*
X2109729Y-21216674D01*
X2109729Y-21216674D02*
X2109729Y-21264293D01*
X2109729Y-21264293D02*
X2100205Y-21302389D01*
X2100205Y-21302389D02*
X2090682Y-21321436D01*
X2090682Y-21321436D02*
X2081158Y-21330960D01*
X2081158Y-21330960D02*
X2062110Y-21340484D01*
X2062110Y-21340484D02*
X2043062Y-21340484D01*
X2043062Y-21340484D02*
X2024015Y-21330960D01*
X2024015Y-21330960D02*
X2014491Y-21321436D01*
X2014491Y-21321436D02*
X2004967Y-21302389D01*
X2004967Y-21302389D02*
X1995443Y-21264293D01*
X1995443Y-21264293D02*
X1995443Y-21216674D01*
X1995443Y-21216674D02*
X2004967Y-21178579D01*
X2004967Y-21178579D02*
X2014491Y-21159531D01*
X2014491Y-21159531D02*
X2024015Y-21150008D01*
X2024015Y-21150008D02*
X2043062Y-21140484D01*
X2233539Y-21140484D02*
X2252586Y-21140484D01*
X2252586Y-21140484D02*
X2271634Y-21150008D01*
X2271634Y-21150008D02*
X2281158Y-21159531D01*
X2281158Y-21159531D02*
X2290682Y-21178579D01*
X2290682Y-21178579D02*
X2300205Y-21216674D01*
X2300205Y-21216674D02*
X2300205Y-21264293D01*
X2300205Y-21264293D02*
X2290682Y-21302389D01*
X2290682Y-21302389D02*
X2281158Y-21321436D01*
X2281158Y-21321436D02*
X2271634Y-21330960D01*
X2271634Y-21330960D02*
X2252586Y-21340484D01*
X2252586Y-21340484D02*
X2233539Y-21340484D01*
X2233539Y-21340484D02*
X2214491Y-21330960D01*
X2214491Y-21330960D02*
X2204967Y-21321436D01*
X2204967Y-21321436D02*
X2195444Y-21302389D01*
X2195444Y-21302389D02*
X2185920Y-21264293D01*
X2185920Y-21264293D02*
X2185920Y-21216674D01*
X2185920Y-21216674D02*
X2195444Y-21178579D01*
X2195444Y-21178579D02*
X2204967Y-21159531D01*
X2204967Y-21159531D02*
X2214491Y-21150008D01*
X2214491Y-21150008D02*
X2233539Y-21140484D01*
X2385920Y-21340484D02*
X2385920Y-21207150D01*
X2385920Y-21226198D02*
X2395444Y-21216674D01*
X2395444Y-21216674D02*
X2414491Y-21207150D01*
X2414491Y-21207150D02*
X2443063Y-21207150D01*
X2443063Y-21207150D02*
X2462110Y-21216674D01*
X2462110Y-21216674D02*
X2471634Y-21235722D01*
X2471634Y-21235722D02*
X2471634Y-21340484D01*
X2471634Y-21235722D02*
X2481158Y-21216674D01*
X2481158Y-21216674D02*
X2500205Y-21207150D01*
X2500205Y-21207150D02*
X2528777Y-21207150D01*
X2528777Y-21207150D02*
X2547825Y-21216674D01*
X2547825Y-21216674D02*
X2557348Y-21235722D01*
X2557348Y-21235722D02*
X2557348Y-21340484D01*
X2652586Y-21340484D02*
X2652586Y-21207150D01*
X2652586Y-21226198D02*
X2662110Y-21216674D01*
X2662110Y-21216674D02*
X2681158Y-21207150D01*
X2681158Y-21207150D02*
X2709729Y-21207150D01*
X2709729Y-21207150D02*
X2728777Y-21216674D01*
X2728777Y-21216674D02*
X2738301Y-21235722D01*
X2738301Y-21235722D02*
X2738301Y-21340484D01*
X2738301Y-21235722D02*
X2747825Y-21216674D01*
X2747825Y-21216674D02*
X2766872Y-21207150D01*
X2766872Y-21207150D02*
X2795444Y-21207150D01*
X2795444Y-21207150D02*
X2814491Y-21216674D01*
X2814491Y-21216674D02*
X2824015Y-21235722D01*
X2824015Y-21235722D02*
X2824015Y-21340484D01*
X3214491Y-21130960D02*
X3043063Y-21388103D01*
X3471634Y-21140484D02*
X3490682Y-21140484D01*
X3490682Y-21140484D02*
X3509729Y-21150008D01*
X3509729Y-21150008D02*
X3519253Y-21159531D01*
X3519253Y-21159531D02*
X3528777Y-21178579D01*
X3528777Y-21178579D02*
X3538301Y-21216674D01*
X3538301Y-21216674D02*
X3538301Y-21264293D01*
X3538301Y-21264293D02*
X3528777Y-21302389D01*
X3528777Y-21302389D02*
X3519253Y-21321436D01*
X3519253Y-21321436D02*
X3509729Y-21330960D01*
X3509729Y-21330960D02*
X3490682Y-21340484D01*
X3490682Y-21340484D02*
X3471634Y-21340484D01*
X3471634Y-21340484D02*
X3452586Y-21330960D01*
X3452586Y-21330960D02*
X3443063Y-21321436D01*
X3443063Y-21321436D02*
X3433539Y-21302389D01*
X3433539Y-21302389D02*
X3424015Y-21264293D01*
X3424015Y-21264293D02*
X3424015Y-21216674D01*
X3424015Y-21216674D02*
X3433539Y-21178579D01*
X3433539Y-21178579D02*
X3443063Y-21159531D01*
X3443063Y-21159531D02*
X3452586Y-21150008D01*
X3452586Y-21150008D02*
X3471634Y-21140484D01*
X3624015Y-21321436D02*
X3633539Y-21330960D01*
X3633539Y-21330960D02*
X3624015Y-21340484D01*
X3624015Y-21340484D02*
X3614491Y-21330960D01*
X3614491Y-21330960D02*
X3624015Y-21321436D01*
X3624015Y-21321436D02*
X3624015Y-21340484D01*
X3757348Y-21140484D02*
X3776396Y-21140484D01*
X3776396Y-21140484D02*
X3795444Y-21150008D01*
X3795444Y-21150008D02*
X3804967Y-21159531D01*
X3804967Y-21159531D02*
X3814491Y-21178579D01*
X3814491Y-21178579D02*
X3824015Y-21216674D01*
X3824015Y-21216674D02*
X3824015Y-21264293D01*
X3824015Y-21264293D02*
X3814491Y-21302389D01*
X3814491Y-21302389D02*
X3804967Y-21321436D01*
X3804967Y-21321436D02*
X3795444Y-21330960D01*
X3795444Y-21330960D02*
X3776396Y-21340484D01*
X3776396Y-21340484D02*
X3757348Y-21340484D01*
X3757348Y-21340484D02*
X3738301Y-21330960D01*
X3738301Y-21330960D02*
X3728777Y-21321436D01*
X3728777Y-21321436D02*
X3719253Y-21302389D01*
X3719253Y-21302389D02*
X3709729Y-21264293D01*
X3709729Y-21264293D02*
X3709729Y-21216674D01*
X3709729Y-21216674D02*
X3719253Y-21178579D01*
X3719253Y-21178579D02*
X3728777Y-21159531D01*
X3728777Y-21159531D02*
X3738301Y-21150008D01*
X3738301Y-21150008D02*
X3757348Y-21140484D01*
X3890682Y-21140484D02*
X4014491Y-21140484D01*
X4014491Y-21140484D02*
X3947825Y-21216674D01*
X3947825Y-21216674D02*
X3976396Y-21216674D01*
X3976396Y-21216674D02*
X3995444Y-21226198D01*
X3995444Y-21226198D02*
X4004967Y-21235722D01*
X4004967Y-21235722D02*
X4014491Y-21254770D01*
X4014491Y-21254770D02*
X4014491Y-21302389D01*
X4014491Y-21302389D02*
X4004967Y-21321436D01*
X4004967Y-21321436D02*
X3995444Y-21330960D01*
X3995444Y-21330960D02*
X3976396Y-21340484D01*
X3976396Y-21340484D02*
X3919253Y-21340484D01*
X3919253Y-21340484D02*
X3900206Y-21330960D01*
X3900206Y-21330960D02*
X3890682Y-21321436D01*
X4204968Y-21340484D02*
X4090682Y-21340484D01*
X4147825Y-21340484D02*
X4147825Y-21140484D01*
X4147825Y-21140484D02*
X4128777Y-21169055D01*
X4128777Y-21169055D02*
X4109729Y-21188103D01*
X4109729Y-21188103D02*
X4090682Y-21197627D01*
X4385920Y-21140484D02*
X4290682Y-21140484D01*
X4290682Y-21140484D02*
X4281158Y-21235722D01*
X4281158Y-21235722D02*
X4290682Y-21226198D01*
X4290682Y-21226198D02*
X4309729Y-21216674D01*
X4309729Y-21216674D02*
X4357349Y-21216674D01*
X4357349Y-21216674D02*
X4376396Y-21226198D01*
X4376396Y-21226198D02*
X4385920Y-21235722D01*
X4385920Y-21235722D02*
X4395444Y-21254770D01*
X4395444Y-21254770D02*
X4395444Y-21302389D01*
X4395444Y-21302389D02*
X4385920Y-21321436D01*
X4385920Y-21321436D02*
X4376396Y-21330960D01*
X4376396Y-21330960D02*
X4357349Y-21340484D01*
X4357349Y-21340484D02*
X4309729Y-21340484D01*
X4309729Y-21340484D02*
X4290682Y-21330960D01*
X4290682Y-21330960D02*
X4281158Y-21321436D01*
X4471634Y-21140484D02*
X4471634Y-21178579D01*
X4547825Y-21140484D02*
X4547825Y-21178579D01*
X4843063Y-21416674D02*
X4833539Y-21407150D01*
X4833539Y-21407150D02*
X4814491Y-21378579D01*
X4814491Y-21378579D02*
X4804968Y-21359531D01*
X4804968Y-21359531D02*
X4795444Y-21330960D01*
X4795444Y-21330960D02*
X4785920Y-21283341D01*
X4785920Y-21283341D02*
X4785920Y-21245246D01*
X4785920Y-21245246D02*
X4795444Y-21197627D01*
X4795444Y-21197627D02*
X4804968Y-21169055D01*
X4804968Y-21169055D02*
X4814491Y-21150008D01*
X4814491Y-21150008D02*
X4833539Y-21121436D01*
X4833539Y-21121436D02*
X4843063Y-21111912D01*
X5014491Y-21140484D02*
X4919253Y-21140484D01*
X4919253Y-21140484D02*
X4909730Y-21235722D01*
X4909730Y-21235722D02*
X4919253Y-21226198D01*
X4919253Y-21226198D02*
X4938301Y-21216674D01*
X4938301Y-21216674D02*
X4985920Y-21216674D01*
X4985920Y-21216674D02*
X5004968Y-21226198D01*
X5004968Y-21226198D02*
X5014491Y-21235722D01*
X5014491Y-21235722D02*
X5024015Y-21254770D01*
X5024015Y-21254770D02*
X5024015Y-21302389D01*
X5024015Y-21302389D02*
X5014491Y-21321436D01*
X5014491Y-21321436D02*
X5004968Y-21330960D01*
X5004968Y-21330960D02*
X4985920Y-21340484D01*
X4985920Y-21340484D02*
X4938301Y-21340484D01*
X4938301Y-21340484D02*
X4919253Y-21330960D01*
X4919253Y-21330960D02*
X4909730Y-21321436D01*
X5262111Y-21340484D02*
X5262111Y-21140484D01*
X5347825Y-21340484D02*
X5347825Y-21235722D01*
X5347825Y-21235722D02*
X5338301Y-21216674D01*
X5338301Y-21216674D02*
X5319253Y-21207150D01*
X5319253Y-21207150D02*
X5290682Y-21207150D01*
X5290682Y-21207150D02*
X5271634Y-21216674D01*
X5271634Y-21216674D02*
X5262111Y-21226198D01*
X5471634Y-21340484D02*
X5452587Y-21330960D01*
X5452587Y-21330960D02*
X5443063Y-21321436D01*
X5443063Y-21321436D02*
X5433539Y-21302389D01*
X5433539Y-21302389D02*
X5433539Y-21245246D01*
X5433539Y-21245246D02*
X5443063Y-21226198D01*
X5443063Y-21226198D02*
X5452587Y-21216674D01*
X5452587Y-21216674D02*
X5471634Y-21207150D01*
X5471634Y-21207150D02*
X5500206Y-21207150D01*
X5500206Y-21207150D02*
X5519253Y-21216674D01*
X5519253Y-21216674D02*
X5528777Y-21226198D01*
X5528777Y-21226198D02*
X5538301Y-21245246D01*
X5538301Y-21245246D02*
X5538301Y-21302389D01*
X5538301Y-21302389D02*
X5528777Y-21321436D01*
X5528777Y-21321436D02*
X5519253Y-21330960D01*
X5519253Y-21330960D02*
X5500206Y-21340484D01*
X5500206Y-21340484D02*
X5471634Y-21340484D01*
X5652587Y-21340484D02*
X5633539Y-21330960D01*
X5633539Y-21330960D02*
X5624015Y-21311912D01*
X5624015Y-21311912D02*
X5624015Y-21140484D01*
X5804968Y-21330960D02*
X5785920Y-21340484D01*
X5785920Y-21340484D02*
X5747825Y-21340484D01*
X5747825Y-21340484D02*
X5728777Y-21330960D01*
X5728777Y-21330960D02*
X5719253Y-21311912D01*
X5719253Y-21311912D02*
X5719253Y-21235722D01*
X5719253Y-21235722D02*
X5728777Y-21216674D01*
X5728777Y-21216674D02*
X5747825Y-21207150D01*
X5747825Y-21207150D02*
X5785920Y-21207150D01*
X5785920Y-21207150D02*
X5804968Y-21216674D01*
X5804968Y-21216674D02*
X5814491Y-21235722D01*
X5814491Y-21235722D02*
X5814491Y-21254770D01*
X5814491Y-21254770D02*
X5719253Y-21273817D01*
X5890682Y-21330960D02*
X5909730Y-21340484D01*
X5909730Y-21340484D02*
X5947825Y-21340484D01*
X5947825Y-21340484D02*
X5966872Y-21330960D01*
X5966872Y-21330960D02*
X5976396Y-21311912D01*
X5976396Y-21311912D02*
X5976396Y-21302389D01*
X5976396Y-21302389D02*
X5966872Y-21283341D01*
X5966872Y-21283341D02*
X5947825Y-21273817D01*
X5947825Y-21273817D02*
X5919253Y-21273817D01*
X5919253Y-21273817D02*
X5900206Y-21264293D01*
X5900206Y-21264293D02*
X5890682Y-21245246D01*
X5890682Y-21245246D02*
X5890682Y-21235722D01*
X5890682Y-21235722D02*
X5900206Y-21216674D01*
X5900206Y-21216674D02*
X5919253Y-21207150D01*
X5919253Y-21207150D02*
X5947825Y-21207150D01*
X5947825Y-21207150D02*
X5966872Y-21216674D01*
X6043063Y-21416674D02*
X6052587Y-21407150D01*
X6052587Y-21407150D02*
X6071634Y-21378579D01*
X6071634Y-21378579D02*
X6081158Y-21359531D01*
X6081158Y-21359531D02*
X6090682Y-21330960D01*
X6090682Y-21330960D02*
X6100206Y-21283341D01*
X6100206Y-21283341D02*
X6100206Y-21245246D01*
X6100206Y-21245246D02*
X6090682Y-21197627D01*
X6090682Y-21197627D02*
X6081158Y-21169055D01*
X6081158Y-21169055D02*
X6071634Y-21150008D01*
X6071634Y-21150008D02*
X6052587Y-21121436D01*
X6052587Y-21121436D02*
X6043063Y-21111912D01*
D11*
X1218000Y-21563000D02*
X1268000Y-21513000D01*
X1218000Y-21463000D01*
X1168000Y-21513000D01*
X1218000Y-21563000D01*
D10*
X1633539Y-21604484D02*
X1519253Y-21604484D01*
X1576396Y-21604484D02*
X1576396Y-21404484D01*
X1576396Y-21404484D02*
X1557348Y-21433055D01*
X1557348Y-21433055D02*
X1538301Y-21452103D01*
X1538301Y-21452103D02*
X1519253Y-21461627D01*
X1719253Y-21585436D02*
X1728777Y-21594960D01*
X1728777Y-21594960D02*
X1719253Y-21604484D01*
X1719253Y-21604484D02*
X1709729Y-21594960D01*
X1709729Y-21594960D02*
X1719253Y-21585436D01*
X1719253Y-21585436D02*
X1719253Y-21604484D01*
X1852586Y-21404484D02*
X1871634Y-21404484D01*
X1871634Y-21404484D02*
X1890682Y-21414008D01*
X1890682Y-21414008D02*
X1900205Y-21423531D01*
X1900205Y-21423531D02*
X1909729Y-21442579D01*
X1909729Y-21442579D02*
X1919253Y-21480674D01*
X1919253Y-21480674D02*
X1919253Y-21528293D01*
X1919253Y-21528293D02*
X1909729Y-21566389D01*
X1909729Y-21566389D02*
X1900205Y-21585436D01*
X1900205Y-21585436D02*
X1890682Y-21594960D01*
X1890682Y-21594960D02*
X1871634Y-21604484D01*
X1871634Y-21604484D02*
X1852586Y-21604484D01*
X1852586Y-21604484D02*
X1833539Y-21594960D01*
X1833539Y-21594960D02*
X1824015Y-21585436D01*
X1824015Y-21585436D02*
X1814491Y-21566389D01*
X1814491Y-21566389D02*
X1804967Y-21528293D01*
X1804967Y-21528293D02*
X1804967Y-21480674D01*
X1804967Y-21480674D02*
X1814491Y-21442579D01*
X1814491Y-21442579D02*
X1824015Y-21423531D01*
X1824015Y-21423531D02*
X1833539Y-21414008D01*
X1833539Y-21414008D02*
X1852586Y-21404484D01*
X2043062Y-21404484D02*
X2062110Y-21404484D01*
X2062110Y-21404484D02*
X2081158Y-21414008D01*
X2081158Y-21414008D02*
X2090682Y-21423531D01*
X2090682Y-21423531D02*
X2100205Y-21442579D01*
X2100205Y-21442579D02*
X2109729Y-21480674D01*
X2109729Y-21480674D02*
X2109729Y-21528293D01*
X2109729Y-21528293D02*
X2100205Y-21566389D01*
X2100205Y-21566389D02*
X2090682Y-21585436D01*
X2090682Y-21585436D02*
X2081158Y-21594960D01*
X2081158Y-21594960D02*
X2062110Y-21604484D01*
X2062110Y-21604484D02*
X2043062Y-21604484D01*
X2043062Y-21604484D02*
X2024015Y-21594960D01*
X2024015Y-21594960D02*
X2014491Y-21585436D01*
X2014491Y-21585436D02*
X2004967Y-21566389D01*
X2004967Y-21566389D02*
X1995443Y-21528293D01*
X1995443Y-21528293D02*
X1995443Y-21480674D01*
X1995443Y-21480674D02*
X2004967Y-21442579D01*
X2004967Y-21442579D02*
X2014491Y-21423531D01*
X2014491Y-21423531D02*
X2024015Y-21414008D01*
X2024015Y-21414008D02*
X2043062Y-21404484D01*
X2233539Y-21404484D02*
X2252586Y-21404484D01*
X2252586Y-21404484D02*
X2271634Y-21414008D01*
X2271634Y-21414008D02*
X2281158Y-21423531D01*
X2281158Y-21423531D02*
X2290682Y-21442579D01*
X2290682Y-21442579D02*
X2300205Y-21480674D01*
X2300205Y-21480674D02*
X2300205Y-21528293D01*
X2300205Y-21528293D02*
X2290682Y-21566389D01*
X2290682Y-21566389D02*
X2281158Y-21585436D01*
X2281158Y-21585436D02*
X2271634Y-21594960D01*
X2271634Y-21594960D02*
X2252586Y-21604484D01*
X2252586Y-21604484D02*
X2233539Y-21604484D01*
X2233539Y-21604484D02*
X2214491Y-21594960D01*
X2214491Y-21594960D02*
X2204967Y-21585436D01*
X2204967Y-21585436D02*
X2195444Y-21566389D01*
X2195444Y-21566389D02*
X2185920Y-21528293D01*
X2185920Y-21528293D02*
X2185920Y-21480674D01*
X2185920Y-21480674D02*
X2195444Y-21442579D01*
X2195444Y-21442579D02*
X2204967Y-21423531D01*
X2204967Y-21423531D02*
X2214491Y-21414008D01*
X2214491Y-21414008D02*
X2233539Y-21404484D01*
X2385920Y-21604484D02*
X2385920Y-21471150D01*
X2385920Y-21490198D02*
X2395444Y-21480674D01*
X2395444Y-21480674D02*
X2414491Y-21471150D01*
X2414491Y-21471150D02*
X2443063Y-21471150D01*
X2443063Y-21471150D02*
X2462110Y-21480674D01*
X2462110Y-21480674D02*
X2471634Y-21499722D01*
X2471634Y-21499722D02*
X2471634Y-21604484D01*
X2471634Y-21499722D02*
X2481158Y-21480674D01*
X2481158Y-21480674D02*
X2500205Y-21471150D01*
X2500205Y-21471150D02*
X2528777Y-21471150D01*
X2528777Y-21471150D02*
X2547825Y-21480674D01*
X2547825Y-21480674D02*
X2557348Y-21499722D01*
X2557348Y-21499722D02*
X2557348Y-21604484D01*
X2652586Y-21604484D02*
X2652586Y-21471150D01*
X2652586Y-21490198D02*
X2662110Y-21480674D01*
X2662110Y-21480674D02*
X2681158Y-21471150D01*
X2681158Y-21471150D02*
X2709729Y-21471150D01*
X2709729Y-21471150D02*
X2728777Y-21480674D01*
X2728777Y-21480674D02*
X2738301Y-21499722D01*
X2738301Y-21499722D02*
X2738301Y-21604484D01*
X2738301Y-21499722D02*
X2747825Y-21480674D01*
X2747825Y-21480674D02*
X2766872Y-21471150D01*
X2766872Y-21471150D02*
X2795444Y-21471150D01*
X2795444Y-21471150D02*
X2814491Y-21480674D01*
X2814491Y-21480674D02*
X2824015Y-21499722D01*
X2824015Y-21499722D02*
X2824015Y-21604484D01*
X3214491Y-21394960D02*
X3043063Y-21652103D01*
X3471634Y-21404484D02*
X3490682Y-21404484D01*
X3490682Y-21404484D02*
X3509729Y-21414008D01*
X3509729Y-21414008D02*
X3519253Y-21423531D01*
X3519253Y-21423531D02*
X3528777Y-21442579D01*
X3528777Y-21442579D02*
X3538301Y-21480674D01*
X3538301Y-21480674D02*
X3538301Y-21528293D01*
X3538301Y-21528293D02*
X3528777Y-21566389D01*
X3528777Y-21566389D02*
X3519253Y-21585436D01*
X3519253Y-21585436D02*
X3509729Y-21594960D01*
X3509729Y-21594960D02*
X3490682Y-21604484D01*
X3490682Y-21604484D02*
X3471634Y-21604484D01*
X3471634Y-21604484D02*
X3452586Y-21594960D01*
X3452586Y-21594960D02*
X3443063Y-21585436D01*
X3443063Y-21585436D02*
X3433539Y-21566389D01*
X3433539Y-21566389D02*
X3424015Y-21528293D01*
X3424015Y-21528293D02*
X3424015Y-21480674D01*
X3424015Y-21480674D02*
X3433539Y-21442579D01*
X3433539Y-21442579D02*
X3443063Y-21423531D01*
X3443063Y-21423531D02*
X3452586Y-21414008D01*
X3452586Y-21414008D02*
X3471634Y-21404484D01*
X3624015Y-21585436D02*
X3633539Y-21594960D01*
X3633539Y-21594960D02*
X3624015Y-21604484D01*
X3624015Y-21604484D02*
X3614491Y-21594960D01*
X3614491Y-21594960D02*
X3624015Y-21585436D01*
X3624015Y-21585436D02*
X3624015Y-21604484D01*
X3757348Y-21404484D02*
X3776396Y-21404484D01*
X3776396Y-21404484D02*
X3795444Y-21414008D01*
X3795444Y-21414008D02*
X3804967Y-21423531D01*
X3804967Y-21423531D02*
X3814491Y-21442579D01*
X3814491Y-21442579D02*
X3824015Y-21480674D01*
X3824015Y-21480674D02*
X3824015Y-21528293D01*
X3824015Y-21528293D02*
X3814491Y-21566389D01*
X3814491Y-21566389D02*
X3804967Y-21585436D01*
X3804967Y-21585436D02*
X3795444Y-21594960D01*
X3795444Y-21594960D02*
X3776396Y-21604484D01*
X3776396Y-21604484D02*
X3757348Y-21604484D01*
X3757348Y-21604484D02*
X3738301Y-21594960D01*
X3738301Y-21594960D02*
X3728777Y-21585436D01*
X3728777Y-21585436D02*
X3719253Y-21566389D01*
X3719253Y-21566389D02*
X3709729Y-21528293D01*
X3709729Y-21528293D02*
X3709729Y-21480674D01*
X3709729Y-21480674D02*
X3719253Y-21442579D01*
X3719253Y-21442579D02*
X3728777Y-21423531D01*
X3728777Y-21423531D02*
X3738301Y-21414008D01*
X3738301Y-21414008D02*
X3757348Y-21404484D01*
X3890682Y-21404484D02*
X4014491Y-21404484D01*
X4014491Y-21404484D02*
X3947825Y-21480674D01*
X3947825Y-21480674D02*
X3976396Y-21480674D01*
X3976396Y-21480674D02*
X3995444Y-21490198D01*
X3995444Y-21490198D02*
X4004967Y-21499722D01*
X4004967Y-21499722D02*
X4014491Y-21518770D01*
X4014491Y-21518770D02*
X4014491Y-21566389D01*
X4014491Y-21566389D02*
X4004967Y-21585436D01*
X4004967Y-21585436D02*
X3995444Y-21594960D01*
X3995444Y-21594960D02*
X3976396Y-21604484D01*
X3976396Y-21604484D02*
X3919253Y-21604484D01*
X3919253Y-21604484D02*
X3900206Y-21594960D01*
X3900206Y-21594960D02*
X3890682Y-21585436D01*
X4109729Y-21604484D02*
X4147825Y-21604484D01*
X4147825Y-21604484D02*
X4166872Y-21594960D01*
X4166872Y-21594960D02*
X4176396Y-21585436D01*
X4176396Y-21585436D02*
X4195444Y-21556865D01*
X4195444Y-21556865D02*
X4204968Y-21518770D01*
X4204968Y-21518770D02*
X4204968Y-21442579D01*
X4204968Y-21442579D02*
X4195444Y-21423531D01*
X4195444Y-21423531D02*
X4185920Y-21414008D01*
X4185920Y-21414008D02*
X4166872Y-21404484D01*
X4166872Y-21404484D02*
X4128777Y-21404484D01*
X4128777Y-21404484D02*
X4109729Y-21414008D01*
X4109729Y-21414008D02*
X4100206Y-21423531D01*
X4100206Y-21423531D02*
X4090682Y-21442579D01*
X4090682Y-21442579D02*
X4090682Y-21490198D01*
X4090682Y-21490198D02*
X4100206Y-21509246D01*
X4100206Y-21509246D02*
X4109729Y-21518770D01*
X4109729Y-21518770D02*
X4128777Y-21528293D01*
X4128777Y-21528293D02*
X4166872Y-21528293D01*
X4166872Y-21528293D02*
X4185920Y-21518770D01*
X4185920Y-21518770D02*
X4195444Y-21509246D01*
X4195444Y-21509246D02*
X4204968Y-21490198D01*
X4376396Y-21471150D02*
X4376396Y-21604484D01*
X4328777Y-21394960D02*
X4281158Y-21537817D01*
X4281158Y-21537817D02*
X4404968Y-21537817D01*
X4471634Y-21404484D02*
X4471634Y-21442579D01*
X4547825Y-21404484D02*
X4547825Y-21442579D01*
X4843063Y-21680674D02*
X4833539Y-21671150D01*
X4833539Y-21671150D02*
X4814491Y-21642579D01*
X4814491Y-21642579D02*
X4804968Y-21623531D01*
X4804968Y-21623531D02*
X4795444Y-21594960D01*
X4795444Y-21594960D02*
X4785920Y-21547341D01*
X4785920Y-21547341D02*
X4785920Y-21509246D01*
X4785920Y-21509246D02*
X4795444Y-21461627D01*
X4795444Y-21461627D02*
X4804968Y-21433055D01*
X4804968Y-21433055D02*
X4814491Y-21414008D01*
X4814491Y-21414008D02*
X4833539Y-21385436D01*
X4833539Y-21385436D02*
X4843063Y-21375912D01*
X5004968Y-21471150D02*
X5004968Y-21604484D01*
X4957349Y-21394960D02*
X4909730Y-21537817D01*
X4909730Y-21537817D02*
X5033539Y-21537817D01*
X5147825Y-21404484D02*
X5166872Y-21404484D01*
X5166872Y-21404484D02*
X5185920Y-21414008D01*
X5185920Y-21414008D02*
X5195444Y-21423531D01*
X5195444Y-21423531D02*
X5204968Y-21442579D01*
X5204968Y-21442579D02*
X5214491Y-21480674D01*
X5214491Y-21480674D02*
X5214491Y-21528293D01*
X5214491Y-21528293D02*
X5204968Y-21566389D01*
X5204968Y-21566389D02*
X5195444Y-21585436D01*
X5195444Y-21585436D02*
X5185920Y-21594960D01*
X5185920Y-21594960D02*
X5166872Y-21604484D01*
X5166872Y-21604484D02*
X5147825Y-21604484D01*
X5147825Y-21604484D02*
X5128777Y-21594960D01*
X5128777Y-21594960D02*
X5119253Y-21585436D01*
X5119253Y-21585436D02*
X5109730Y-21566389D01*
X5109730Y-21566389D02*
X5100206Y-21528293D01*
X5100206Y-21528293D02*
X5100206Y-21480674D01*
X5100206Y-21480674D02*
X5109730Y-21442579D01*
X5109730Y-21442579D02*
X5119253Y-21423531D01*
X5119253Y-21423531D02*
X5128777Y-21414008D01*
X5128777Y-21414008D02*
X5147825Y-21404484D01*
X5452587Y-21604484D02*
X5452587Y-21404484D01*
X5538301Y-21604484D02*
X5538301Y-21499722D01*
X5538301Y-21499722D02*
X5528777Y-21480674D01*
X5528777Y-21480674D02*
X5509730Y-21471150D01*
X5509730Y-21471150D02*
X5481158Y-21471150D01*
X5481158Y-21471150D02*
X5462111Y-21480674D01*
X5462111Y-21480674D02*
X5452587Y-21490198D01*
X5662110Y-21604484D02*
X5643063Y-21594960D01*
X5643063Y-21594960D02*
X5633539Y-21585436D01*
X5633539Y-21585436D02*
X5624015Y-21566389D01*
X5624015Y-21566389D02*
X5624015Y-21509246D01*
X5624015Y-21509246D02*
X5633539Y-21490198D01*
X5633539Y-21490198D02*
X5643063Y-21480674D01*
X5643063Y-21480674D02*
X5662110Y-21471150D01*
X5662110Y-21471150D02*
X5690682Y-21471150D01*
X5690682Y-21471150D02*
X5709730Y-21480674D01*
X5709730Y-21480674D02*
X5719253Y-21490198D01*
X5719253Y-21490198D02*
X5728777Y-21509246D01*
X5728777Y-21509246D02*
X5728777Y-21566389D01*
X5728777Y-21566389D02*
X5719253Y-21585436D01*
X5719253Y-21585436D02*
X5709730Y-21594960D01*
X5709730Y-21594960D02*
X5690682Y-21604484D01*
X5690682Y-21604484D02*
X5662110Y-21604484D01*
X5843063Y-21604484D02*
X5824015Y-21594960D01*
X5824015Y-21594960D02*
X5814491Y-21575912D01*
X5814491Y-21575912D02*
X5814491Y-21404484D01*
X5995444Y-21594960D02*
X5976396Y-21604484D01*
X5976396Y-21604484D02*
X5938301Y-21604484D01*
X5938301Y-21604484D02*
X5919253Y-21594960D01*
X5919253Y-21594960D02*
X5909730Y-21575912D01*
X5909730Y-21575912D02*
X5909730Y-21499722D01*
X5909730Y-21499722D02*
X5919253Y-21480674D01*
X5919253Y-21480674D02*
X5938301Y-21471150D01*
X5938301Y-21471150D02*
X5976396Y-21471150D01*
X5976396Y-21471150D02*
X5995444Y-21480674D01*
X5995444Y-21480674D02*
X6004968Y-21499722D01*
X6004968Y-21499722D02*
X6004968Y-21518770D01*
X6004968Y-21518770D02*
X5909730Y-21537817D01*
X6081158Y-21594960D02*
X6100206Y-21604484D01*
X6100206Y-21604484D02*
X6138301Y-21604484D01*
X6138301Y-21604484D02*
X6157349Y-21594960D01*
X6157349Y-21594960D02*
X6166872Y-21575912D01*
X6166872Y-21575912D02*
X6166872Y-21566389D01*
X6166872Y-21566389D02*
X6157349Y-21547341D01*
X6157349Y-21547341D02*
X6138301Y-21537817D01*
X6138301Y-21537817D02*
X6109730Y-21537817D01*
X6109730Y-21537817D02*
X6090682Y-21528293D01*
X6090682Y-21528293D02*
X6081158Y-21509246D01*
X6081158Y-21509246D02*
X6081158Y-21499722D01*
X6081158Y-21499722D02*
X6090682Y-21480674D01*
X6090682Y-21480674D02*
X6109730Y-21471150D01*
X6109730Y-21471150D02*
X6138301Y-21471150D01*
X6138301Y-21471150D02*
X6157349Y-21480674D01*
X6233539Y-21680674D02*
X6243063Y-21671150D01*
X6243063Y-21671150D02*
X6262111Y-21642579D01*
X6262111Y-21642579D02*
X6271634Y-21623531D01*
X6271634Y-21623531D02*
X6281158Y-21594960D01*
X6281158Y-21594960D02*
X6290682Y-21547341D01*
X6290682Y-21547341D02*
X6290682Y-21509246D01*
X6290682Y-21509246D02*
X6281158Y-21461627D01*
X6281158Y-21461627D02*
X6271634Y-21433055D01*
X6271634Y-21433055D02*
X6262111Y-21414008D01*
X6262111Y-21414008D02*
X6243063Y-21385436D01*
X6243063Y-21385436D02*
X6233539Y-21375912D01*
X1068000Y-21677000D02*
X1268000Y-21877000D01*
X1268000Y-21677000D02*
X1068000Y-21877000D01*
X1268000Y-21777000D02*
G75*
G02*
X1068000Y-21777000I-100000J0D01*
G01*
X1068000Y-21777000D02*
G75*
G02*
X1268000Y-21777000I100000J0D01*
G01*
X1519253Y-21687531D02*
X1528777Y-21678008D01*
X1528777Y-21678008D02*
X1547824Y-21668484D01*
X1547824Y-21668484D02*
X1595443Y-21668484D01*
X1595443Y-21668484D02*
X1614491Y-21678008D01*
X1614491Y-21678008D02*
X1624015Y-21687531D01*
X1624015Y-21687531D02*
X1633539Y-21706579D01*
X1633539Y-21706579D02*
X1633539Y-21725627D01*
X1633539Y-21725627D02*
X1624015Y-21754198D01*
X1624015Y-21754198D02*
X1509729Y-21868484D01*
X1509729Y-21868484D02*
X1633539Y-21868484D01*
X1719253Y-21849436D02*
X1728777Y-21858960D01*
X1728777Y-21858960D02*
X1719253Y-21868484D01*
X1719253Y-21868484D02*
X1709729Y-21858960D01*
X1709729Y-21858960D02*
X1719253Y-21849436D01*
X1719253Y-21849436D02*
X1719253Y-21868484D01*
X1795443Y-21668484D02*
X1928777Y-21668484D01*
X1928777Y-21668484D02*
X1843062Y-21868484D01*
X2043062Y-21668484D02*
X2062110Y-21668484D01*
X2062110Y-21668484D02*
X2081158Y-21678008D01*
X2081158Y-21678008D02*
X2090682Y-21687531D01*
X2090682Y-21687531D02*
X2100205Y-21706579D01*
X2100205Y-21706579D02*
X2109729Y-21744674D01*
X2109729Y-21744674D02*
X2109729Y-21792293D01*
X2109729Y-21792293D02*
X2100205Y-21830389D01*
X2100205Y-21830389D02*
X2090682Y-21849436D01*
X2090682Y-21849436D02*
X2081158Y-21858960D01*
X2081158Y-21858960D02*
X2062110Y-21868484D01*
X2062110Y-21868484D02*
X2043062Y-21868484D01*
X2043062Y-21868484D02*
X2024015Y-21858960D01*
X2024015Y-21858960D02*
X2014491Y-21849436D01*
X2014491Y-21849436D02*
X2004967Y-21830389D01*
X2004967Y-21830389D02*
X1995443Y-21792293D01*
X1995443Y-21792293D02*
X1995443Y-21744674D01*
X1995443Y-21744674D02*
X2004967Y-21706579D01*
X2004967Y-21706579D02*
X2014491Y-21687531D01*
X2014491Y-21687531D02*
X2024015Y-21678008D01*
X2024015Y-21678008D02*
X2043062Y-21668484D01*
X2233539Y-21668484D02*
X2252586Y-21668484D01*
X2252586Y-21668484D02*
X2271634Y-21678008D01*
X2271634Y-21678008D02*
X2281158Y-21687531D01*
X2281158Y-21687531D02*
X2290682Y-21706579D01*
X2290682Y-21706579D02*
X2300205Y-21744674D01*
X2300205Y-21744674D02*
X2300205Y-21792293D01*
X2300205Y-21792293D02*
X2290682Y-21830389D01*
X2290682Y-21830389D02*
X2281158Y-21849436D01*
X2281158Y-21849436D02*
X2271634Y-21858960D01*
X2271634Y-21858960D02*
X2252586Y-21868484D01*
X2252586Y-21868484D02*
X2233539Y-21868484D01*
X2233539Y-21868484D02*
X2214491Y-21858960D01*
X2214491Y-21858960D02*
X2204967Y-21849436D01*
X2204967Y-21849436D02*
X2195444Y-21830389D01*
X2195444Y-21830389D02*
X2185920Y-21792293D01*
X2185920Y-21792293D02*
X2185920Y-21744674D01*
X2185920Y-21744674D02*
X2195444Y-21706579D01*
X2195444Y-21706579D02*
X2204967Y-21687531D01*
X2204967Y-21687531D02*
X2214491Y-21678008D01*
X2214491Y-21678008D02*
X2233539Y-21668484D01*
X2385920Y-21868484D02*
X2385920Y-21735150D01*
X2385920Y-21754198D02*
X2395444Y-21744674D01*
X2395444Y-21744674D02*
X2414491Y-21735150D01*
X2414491Y-21735150D02*
X2443063Y-21735150D01*
X2443063Y-21735150D02*
X2462110Y-21744674D01*
X2462110Y-21744674D02*
X2471634Y-21763722D01*
X2471634Y-21763722D02*
X2471634Y-21868484D01*
X2471634Y-21763722D02*
X2481158Y-21744674D01*
X2481158Y-21744674D02*
X2500205Y-21735150D01*
X2500205Y-21735150D02*
X2528777Y-21735150D01*
X2528777Y-21735150D02*
X2547825Y-21744674D01*
X2547825Y-21744674D02*
X2557348Y-21763722D01*
X2557348Y-21763722D02*
X2557348Y-21868484D01*
X2652586Y-21868484D02*
X2652586Y-21735150D01*
X2652586Y-21754198D02*
X2662110Y-21744674D01*
X2662110Y-21744674D02*
X2681158Y-21735150D01*
X2681158Y-21735150D02*
X2709729Y-21735150D01*
X2709729Y-21735150D02*
X2728777Y-21744674D01*
X2728777Y-21744674D02*
X2738301Y-21763722D01*
X2738301Y-21763722D02*
X2738301Y-21868484D01*
X2738301Y-21763722D02*
X2747825Y-21744674D01*
X2747825Y-21744674D02*
X2766872Y-21735150D01*
X2766872Y-21735150D02*
X2795444Y-21735150D01*
X2795444Y-21735150D02*
X2814491Y-21744674D01*
X2814491Y-21744674D02*
X2824015Y-21763722D01*
X2824015Y-21763722D02*
X2824015Y-21868484D01*
X3214491Y-21658960D02*
X3043063Y-21916103D01*
X3471634Y-21668484D02*
X3490682Y-21668484D01*
X3490682Y-21668484D02*
X3509729Y-21678008D01*
X3509729Y-21678008D02*
X3519253Y-21687531D01*
X3519253Y-21687531D02*
X3528777Y-21706579D01*
X3528777Y-21706579D02*
X3538301Y-21744674D01*
X3538301Y-21744674D02*
X3538301Y-21792293D01*
X3538301Y-21792293D02*
X3528777Y-21830389D01*
X3528777Y-21830389D02*
X3519253Y-21849436D01*
X3519253Y-21849436D02*
X3509729Y-21858960D01*
X3509729Y-21858960D02*
X3490682Y-21868484D01*
X3490682Y-21868484D02*
X3471634Y-21868484D01*
X3471634Y-21868484D02*
X3452586Y-21858960D01*
X3452586Y-21858960D02*
X3443063Y-21849436D01*
X3443063Y-21849436D02*
X3433539Y-21830389D01*
X3433539Y-21830389D02*
X3424015Y-21792293D01*
X3424015Y-21792293D02*
X3424015Y-21744674D01*
X3424015Y-21744674D02*
X3433539Y-21706579D01*
X3433539Y-21706579D02*
X3443063Y-21687531D01*
X3443063Y-21687531D02*
X3452586Y-21678008D01*
X3452586Y-21678008D02*
X3471634Y-21668484D01*
X3624015Y-21849436D02*
X3633539Y-21858960D01*
X3633539Y-21858960D02*
X3624015Y-21868484D01*
X3624015Y-21868484D02*
X3614491Y-21858960D01*
X3614491Y-21858960D02*
X3624015Y-21849436D01*
X3624015Y-21849436D02*
X3624015Y-21868484D01*
X3824015Y-21868484D02*
X3709729Y-21868484D01*
X3766872Y-21868484D02*
X3766872Y-21668484D01*
X3766872Y-21668484D02*
X3747825Y-21697055D01*
X3747825Y-21697055D02*
X3728777Y-21716103D01*
X3728777Y-21716103D02*
X3709729Y-21725627D01*
X3947825Y-21668484D02*
X3966872Y-21668484D01*
X3966872Y-21668484D02*
X3985920Y-21678008D01*
X3985920Y-21678008D02*
X3995444Y-21687531D01*
X3995444Y-21687531D02*
X4004967Y-21706579D01*
X4004967Y-21706579D02*
X4014491Y-21744674D01*
X4014491Y-21744674D02*
X4014491Y-21792293D01*
X4014491Y-21792293D02*
X4004967Y-21830389D01*
X4004967Y-21830389D02*
X3995444Y-21849436D01*
X3995444Y-21849436D02*
X3985920Y-21858960D01*
X3985920Y-21858960D02*
X3966872Y-21868484D01*
X3966872Y-21868484D02*
X3947825Y-21868484D01*
X3947825Y-21868484D02*
X3928777Y-21858960D01*
X3928777Y-21858960D02*
X3919253Y-21849436D01*
X3919253Y-21849436D02*
X3909729Y-21830389D01*
X3909729Y-21830389D02*
X3900206Y-21792293D01*
X3900206Y-21792293D02*
X3900206Y-21744674D01*
X3900206Y-21744674D02*
X3909729Y-21706579D01*
X3909729Y-21706579D02*
X3919253Y-21687531D01*
X3919253Y-21687531D02*
X3928777Y-21678008D01*
X3928777Y-21678008D02*
X3947825Y-21668484D01*
X4185920Y-21668484D02*
X4147825Y-21668484D01*
X4147825Y-21668484D02*
X4128777Y-21678008D01*
X4128777Y-21678008D02*
X4119253Y-21687531D01*
X4119253Y-21687531D02*
X4100206Y-21716103D01*
X4100206Y-21716103D02*
X4090682Y-21754198D01*
X4090682Y-21754198D02*
X4090682Y-21830389D01*
X4090682Y-21830389D02*
X4100206Y-21849436D01*
X4100206Y-21849436D02*
X4109729Y-21858960D01*
X4109729Y-21858960D02*
X4128777Y-21868484D01*
X4128777Y-21868484D02*
X4166872Y-21868484D01*
X4166872Y-21868484D02*
X4185920Y-21858960D01*
X4185920Y-21858960D02*
X4195444Y-21849436D01*
X4195444Y-21849436D02*
X4204968Y-21830389D01*
X4204968Y-21830389D02*
X4204968Y-21782770D01*
X4204968Y-21782770D02*
X4195444Y-21763722D01*
X4195444Y-21763722D02*
X4185920Y-21754198D01*
X4185920Y-21754198D02*
X4166872Y-21744674D01*
X4166872Y-21744674D02*
X4128777Y-21744674D01*
X4128777Y-21744674D02*
X4109729Y-21754198D01*
X4109729Y-21754198D02*
X4100206Y-21763722D01*
X4100206Y-21763722D02*
X4090682Y-21782770D01*
X4271634Y-21668484D02*
X4395444Y-21668484D01*
X4395444Y-21668484D02*
X4328777Y-21744674D01*
X4328777Y-21744674D02*
X4357349Y-21744674D01*
X4357349Y-21744674D02*
X4376396Y-21754198D01*
X4376396Y-21754198D02*
X4385920Y-21763722D01*
X4385920Y-21763722D02*
X4395444Y-21782770D01*
X4395444Y-21782770D02*
X4395444Y-21830389D01*
X4395444Y-21830389D02*
X4385920Y-21849436D01*
X4385920Y-21849436D02*
X4376396Y-21858960D01*
X4376396Y-21858960D02*
X4357349Y-21868484D01*
X4357349Y-21868484D02*
X4300206Y-21868484D01*
X4300206Y-21868484D02*
X4281158Y-21858960D01*
X4281158Y-21858960D02*
X4271634Y-21849436D01*
X4471634Y-21668484D02*
X4471634Y-21706579D01*
X4547825Y-21668484D02*
X4547825Y-21706579D01*
X4843063Y-21944674D02*
X4833539Y-21935150D01*
X4833539Y-21935150D02*
X4814491Y-21906579D01*
X4814491Y-21906579D02*
X4804968Y-21887531D01*
X4804968Y-21887531D02*
X4795444Y-21858960D01*
X4795444Y-21858960D02*
X4785920Y-21811341D01*
X4785920Y-21811341D02*
X4785920Y-21773246D01*
X4785920Y-21773246D02*
X4795444Y-21725627D01*
X4795444Y-21725627D02*
X4804968Y-21697055D01*
X4804968Y-21697055D02*
X4814491Y-21678008D01*
X4814491Y-21678008D02*
X4833539Y-21649436D01*
X4833539Y-21649436D02*
X4843063Y-21639912D01*
X5024015Y-21868484D02*
X4909730Y-21868484D01*
X4966872Y-21868484D02*
X4966872Y-21668484D01*
X4966872Y-21668484D02*
X4947825Y-21697055D01*
X4947825Y-21697055D02*
X4928777Y-21716103D01*
X4928777Y-21716103D02*
X4909730Y-21725627D01*
X5147825Y-21668484D02*
X5166872Y-21668484D01*
X5166872Y-21668484D02*
X5185920Y-21678008D01*
X5185920Y-21678008D02*
X5195444Y-21687531D01*
X5195444Y-21687531D02*
X5204968Y-21706579D01*
X5204968Y-21706579D02*
X5214491Y-21744674D01*
X5214491Y-21744674D02*
X5214491Y-21792293D01*
X5214491Y-21792293D02*
X5204968Y-21830389D01*
X5204968Y-21830389D02*
X5195444Y-21849436D01*
X5195444Y-21849436D02*
X5185920Y-21858960D01*
X5185920Y-21858960D02*
X5166872Y-21868484D01*
X5166872Y-21868484D02*
X5147825Y-21868484D01*
X5147825Y-21868484D02*
X5128777Y-21858960D01*
X5128777Y-21858960D02*
X5119253Y-21849436D01*
X5119253Y-21849436D02*
X5109730Y-21830389D01*
X5109730Y-21830389D02*
X5100206Y-21792293D01*
X5100206Y-21792293D02*
X5100206Y-21744674D01*
X5100206Y-21744674D02*
X5109730Y-21706579D01*
X5109730Y-21706579D02*
X5119253Y-21687531D01*
X5119253Y-21687531D02*
X5128777Y-21678008D01*
X5128777Y-21678008D02*
X5147825Y-21668484D01*
X5452587Y-21868484D02*
X5452587Y-21668484D01*
X5538301Y-21868484D02*
X5538301Y-21763722D01*
X5538301Y-21763722D02*
X5528777Y-21744674D01*
X5528777Y-21744674D02*
X5509730Y-21735150D01*
X5509730Y-21735150D02*
X5481158Y-21735150D01*
X5481158Y-21735150D02*
X5462111Y-21744674D01*
X5462111Y-21744674D02*
X5452587Y-21754198D01*
X5662110Y-21868484D02*
X5643063Y-21858960D01*
X5643063Y-21858960D02*
X5633539Y-21849436D01*
X5633539Y-21849436D02*
X5624015Y-21830389D01*
X5624015Y-21830389D02*
X5624015Y-21773246D01*
X5624015Y-21773246D02*
X5633539Y-21754198D01*
X5633539Y-21754198D02*
X5643063Y-21744674D01*
X5643063Y-21744674D02*
X5662110Y-21735150D01*
X5662110Y-21735150D02*
X5690682Y-21735150D01*
X5690682Y-21735150D02*
X5709730Y-21744674D01*
X5709730Y-21744674D02*
X5719253Y-21754198D01*
X5719253Y-21754198D02*
X5728777Y-21773246D01*
X5728777Y-21773246D02*
X5728777Y-21830389D01*
X5728777Y-21830389D02*
X5719253Y-21849436D01*
X5719253Y-21849436D02*
X5709730Y-21858960D01*
X5709730Y-21858960D02*
X5690682Y-21868484D01*
X5690682Y-21868484D02*
X5662110Y-21868484D01*
X5843063Y-21868484D02*
X5824015Y-21858960D01*
X5824015Y-21858960D02*
X5814491Y-21839912D01*
X5814491Y-21839912D02*
X5814491Y-21668484D01*
X5995444Y-21858960D02*
X5976396Y-21868484D01*
X5976396Y-21868484D02*
X5938301Y-21868484D01*
X5938301Y-21868484D02*
X5919253Y-21858960D01*
X5919253Y-21858960D02*
X5909730Y-21839912D01*
X5909730Y-21839912D02*
X5909730Y-21763722D01*
X5909730Y-21763722D02*
X5919253Y-21744674D01*
X5919253Y-21744674D02*
X5938301Y-21735150D01*
X5938301Y-21735150D02*
X5976396Y-21735150D01*
X5976396Y-21735150D02*
X5995444Y-21744674D01*
X5995444Y-21744674D02*
X6004968Y-21763722D01*
X6004968Y-21763722D02*
X6004968Y-21782770D01*
X6004968Y-21782770D02*
X5909730Y-21801817D01*
X6081158Y-21858960D02*
X6100206Y-21868484D01*
X6100206Y-21868484D02*
X6138301Y-21868484D01*
X6138301Y-21868484D02*
X6157349Y-21858960D01*
X6157349Y-21858960D02*
X6166872Y-21839912D01*
X6166872Y-21839912D02*
X6166872Y-21830389D01*
X6166872Y-21830389D02*
X6157349Y-21811341D01*
X6157349Y-21811341D02*
X6138301Y-21801817D01*
X6138301Y-21801817D02*
X6109730Y-21801817D01*
X6109730Y-21801817D02*
X6090682Y-21792293D01*
X6090682Y-21792293D02*
X6081158Y-21773246D01*
X6081158Y-21773246D02*
X6081158Y-21763722D01*
X6081158Y-21763722D02*
X6090682Y-21744674D01*
X6090682Y-21744674D02*
X6109730Y-21735150D01*
X6109730Y-21735150D02*
X6138301Y-21735150D01*
X6138301Y-21735150D02*
X6157349Y-21744674D01*
X6233539Y-21944674D02*
X6243063Y-21935150D01*
X6243063Y-21935150D02*
X6262111Y-21906579D01*
X6262111Y-21906579D02*
X6271634Y-21887531D01*
X6271634Y-21887531D02*
X6281158Y-21858960D01*
X6281158Y-21858960D02*
X6290682Y-21811341D01*
X6290682Y-21811341D02*
X6290682Y-21773246D01*
X6290682Y-21773246D02*
X6281158Y-21725627D01*
X6281158Y-21725627D02*
X6271634Y-21697055D01*
X6271634Y-21697055D02*
X6262111Y-21678008D01*
X6262111Y-21678008D02*
X6243063Y-21649436D01*
X6243063Y-21649436D02*
X6233539Y-21639912D01*
M02*
