G04 #@! TF.GenerationSoftware,KiCad,Pcbnew,9.0.6*
G04 #@! TF.CreationDate,2026-01-13T15:48:08+02:00*
G04 #@! TF.ProjectId,jf-ecu32.7,6a662d65-6375-4333-922e-372e6b696361,rev?*
G04 #@! TF.SameCoordinates,Original*
G04 #@! TF.FileFunction,Soldermask,Bot*
G04 #@! TF.FilePolarity,Negative*
%FSLAX46Y46*%
G04 Gerber Fmt 4.6, Leading zero omitted, Abs format (unit mm)*
G04 Created by KiCad (PCBNEW 9.0.6) date 2026-01-13 15:48:08*
%MOMM*%
%LPD*%
G01*
G04 APERTURE LIST*
G04 Aperture macros list*
%AMRoundRect*
0 Rectangle with rounded corners*
0 $1 Rounding radius*
0 $2 $3 $4 $5 $6 $7 $8 $9 X,Y pos of 4 corners*
0 Add a 4 corners polygon primitive as box body*
4,1,4,$2,$3,$4,$5,$6,$7,$8,$9,$2,$3,0*
0 Add four circle primitives for the rounded corners*
1,1,$1+$1,$2,$3*
1,1,$1+$1,$4,$5*
1,1,$1+$1,$6,$7*
1,1,$1+$1,$8,$9*
0 Add four rect primitives between the rounded corners*
20,1,$1+$1,$2,$3,$4,$5,0*
20,1,$1+$1,$4,$5,$6,$7,0*
20,1,$1+$1,$6,$7,$8,$9,0*
20,1,$1+$1,$8,$9,$2,$3,0*%
G04 Aperture macros list end*
%ADD10R,1.350000X1.350000*%
%ADD11R,1.700000X1.700000*%
%ADD12O,1.700000X1.700000*%
%ADD13R,3.800000X3.800000*%
%ADD14C,4.000000*%
%ADD15C,3.800000*%
%ADD16RoundRect,0.250000X-0.625000X0.350000X-0.625000X-0.350000X0.625000X-0.350000X0.625000X0.350000X0*%
%ADD17O,1.750000X1.200000*%
%ADD18RoundRect,0.200000X0.275000X-0.200000X0.275000X0.200000X-0.275000X0.200000X-0.275000X-0.200000X0*%
%ADD19R,2.500000X1.800000*%
%ADD20R,1.300000X1.400000*%
%ADD21RoundRect,0.150000X0.512500X0.150000X-0.512500X0.150000X-0.512500X-0.150000X0.512500X-0.150000X0*%
%ADD22RoundRect,0.200000X-0.200000X-0.275000X0.200000X-0.275000X0.200000X0.275000X-0.200000X0.275000X0*%
%ADD23RoundRect,0.150000X-0.150000X0.587500X-0.150000X-0.587500X0.150000X-0.587500X0.150000X0.587500X0*%
%ADD24RoundRect,0.150000X-0.825000X-0.150000X0.825000X-0.150000X0.825000X0.150000X-0.825000X0.150000X0*%
%ADD25RoundRect,0.225000X0.250000X-0.225000X0.250000X0.225000X-0.250000X0.225000X-0.250000X-0.225000X0*%
%ADD26R,1.800000X2.500000*%
%ADD27RoundRect,0.225000X0.225000X0.250000X-0.225000X0.250000X-0.225000X-0.250000X0.225000X-0.250000X0*%
%ADD28RoundRect,0.200000X0.200000X0.275000X-0.200000X0.275000X-0.200000X-0.275000X0.200000X-0.275000X0*%
%ADD29RoundRect,0.150000X-0.587500X-0.150000X0.587500X-0.150000X0.587500X0.150000X-0.587500X0.150000X0*%
%ADD30RoundRect,0.200000X-0.275000X0.200000X-0.275000X-0.200000X0.275000X-0.200000X0.275000X0.200000X0*%
%ADD31R,0.800000X1.300000*%
%ADD32RoundRect,0.225000X-0.250000X0.225000X-0.250000X-0.225000X0.250000X-0.225000X0.250000X0.225000X0*%
%ADD33C,0.900000*%
%ADD34R,0.700000X1.600000*%
%ADD35R,1.200000X2.200000*%
%ADD36R,1.600000X1.400000*%
%ADD37R,1.200000X1.400000*%
%ADD38R,2.000000X1.500000*%
%ADD39R,2.000000X3.800000*%
%ADD40R,0.500000X0.350000*%
%ADD41RoundRect,0.125000X-0.537500X-0.125000X0.537500X-0.125000X0.537500X0.125000X-0.537500X0.125000X0*%
%ADD42RoundRect,0.225000X-0.225000X-0.250000X0.225000X-0.250000X0.225000X0.250000X-0.225000X0.250000X0*%
G04 APERTURE END LIST*
D10*
G04 #@! TO.C,TDI1*
X47371000Y-163068000D03*
G04 #@! TD*
D11*
G04 #@! TO.C,J16*
X54610000Y-175880000D03*
D12*
X54610000Y-173340000D03*
X54610000Y-170800000D03*
G04 #@! TD*
D11*
G04 #@! TO.C,J18*
X54860000Y-189970000D03*
D12*
X54860000Y-192510000D03*
X54860000Y-195050000D03*
G04 #@! TD*
D11*
G04 #@! TO.C,J7*
X18811000Y-166624000D03*
D12*
X21351000Y-166624000D03*
X23891000Y-166624000D03*
G04 #@! TD*
D11*
G04 #@! TO.C,J4*
X49246600Y-189970000D03*
D12*
X49246600Y-192510000D03*
X49246600Y-195050000D03*
G04 #@! TD*
D11*
G04 #@! TO.C,J15*
X52066000Y-189970000D03*
D12*
X52066000Y-192510000D03*
X52066000Y-195050000D03*
G04 #@! TD*
D11*
G04 #@! TO.C,J10*
X27940000Y-153162000D03*
D12*
X30480000Y-153162000D03*
G04 #@! TD*
D11*
G04 #@! TO.C,J19*
X54830000Y-185050000D03*
D12*
X54830000Y-182510000D03*
G04 #@! TD*
D13*
G04 #@! TO.C,J9*
X22693000Y-180086000D03*
D14*
X17693000Y-180086000D03*
G04 #@! TD*
D10*
G04 #@! TO.C,GND1*
X69088000Y-168402000D03*
G04 #@! TD*
D11*
G04 #@! TO.C,J6*
X18811000Y-169418000D03*
D12*
X21351000Y-169418000D03*
X23891000Y-169418000D03*
G04 #@! TD*
D10*
G04 #@! TO.C,TMS1*
X59690000Y-164719000D03*
G04 #@! TD*
G04 #@! TO.C,TCK1*
X66929000Y-168402000D03*
G04 #@! TD*
D11*
G04 #@! TO.C,J3*
X49530000Y-175895000D03*
D12*
X49530000Y-173355000D03*
X49530000Y-170815000D03*
G04 #@! TD*
D13*
G04 #@! TO.C,J8*
X22860000Y-157480000D03*
D15*
X17860000Y-157480000D03*
G04 #@! TD*
D11*
G04 #@! TO.C,J1*
X76200000Y-158003000D03*
D12*
X76200000Y-155463000D03*
X76200000Y-152923000D03*
G04 #@! TD*
D13*
G04 #@! TO.C,J17*
X22693000Y-173990000D03*
D14*
X17693000Y-173990000D03*
G04 #@! TD*
D16*
G04 #@! TO.C,J24*
X82296000Y-176784000D03*
D17*
X82296000Y-178784000D03*
X82296000Y-180784000D03*
X82296000Y-182784000D03*
X82296000Y-184784000D03*
G04 #@! TD*
D13*
G04 #@! TO.C,J5*
X22606000Y-192024000D03*
D14*
X17606000Y-192024000D03*
G04 #@! TD*
D11*
G04 #@! TO.C,J12*
X81280000Y-157988000D03*
D12*
X81280000Y-155448000D03*
X81280000Y-152908000D03*
G04 #@! TD*
D11*
G04 #@! TO.C,J13*
X52070000Y-175895000D03*
D12*
X52070000Y-173355000D03*
X52070000Y-170815000D03*
G04 #@! TD*
D11*
G04 #@! TO.C,J2*
X78740000Y-158003000D03*
D12*
X78740000Y-155463000D03*
X78740000Y-152923000D03*
G04 #@! TD*
D11*
G04 #@! TO.C,J11*
X22606000Y-153162000D03*
D12*
X20066000Y-153162000D03*
X17526000Y-153162000D03*
G04 #@! TD*
D10*
G04 #@! TO.C,TDO1*
X64770000Y-168402000D03*
G04 #@! TD*
D13*
G04 #@! TO.C,J14*
X22693000Y-186055000D03*
D14*
X17693000Y-186055000D03*
G04 #@! TD*
D16*
G04 #@! TO.C,J23*
X82296000Y-189230000D03*
D17*
X82296000Y-191230000D03*
X82296000Y-193230000D03*
X82296000Y-195230000D03*
G04 #@! TD*
D18*
G04 #@! TO.C,R23*
X46190000Y-191650000D03*
X46190000Y-190000000D03*
G04 #@! TD*
D19*
G04 #@! TO.C,D9*
X32480000Y-169545000D03*
X28480000Y-169545000D03*
G04 #@! TD*
D20*
G04 #@! TO.C,D1*
X58928000Y-152019000D03*
X61828000Y-152019000D03*
G04 #@! TD*
D21*
G04 #@! TO.C,U7*
X42545000Y-177104000D03*
X42545000Y-178054000D03*
X42545000Y-179004000D03*
X40270000Y-179004000D03*
X40270000Y-177104000D03*
G04 #@! TD*
D22*
G04 #@! TO.C,R29*
X67882000Y-182753000D03*
X69532000Y-182753000D03*
G04 #@! TD*
D23*
G04 #@! TO.C,U8*
X41545000Y-180914000D03*
X43445000Y-180914000D03*
X42495000Y-182789000D03*
G04 #@! TD*
D24*
G04 #@! TO.C,U3*
X34609000Y-157099000D03*
X34609000Y-155829000D03*
X34609000Y-154559000D03*
X34609000Y-153289000D03*
X39559000Y-153289000D03*
X39559000Y-154559000D03*
X39559000Y-155829000D03*
X39559000Y-157099000D03*
G04 #@! TD*
D25*
G04 #@! TO.C,C2*
X42460000Y-189660000D03*
X42460000Y-188110000D03*
G04 #@! TD*
D22*
G04 #@! TO.C,R26*
X64517000Y-182880000D03*
X66167000Y-182880000D03*
G04 #@! TD*
D26*
G04 #@! TO.C,D10*
X27780000Y-195080000D03*
X27780000Y-191080000D03*
G04 #@! TD*
D27*
G04 #@! TO.C,C5*
X45720000Y-159131000D03*
X44170000Y-159131000D03*
G04 #@! TD*
D28*
G04 #@! TO.C,R16*
X78549000Y-172720000D03*
X76899000Y-172720000D03*
G04 #@! TD*
D29*
G04 #@! TO.C,Q7*
X36545000Y-187360000D03*
X36545000Y-185460000D03*
X38420000Y-186410000D03*
G04 #@! TD*
D25*
G04 #@! TO.C,C6*
X61722000Y-162573000D03*
X61722000Y-161023000D03*
G04 #@! TD*
D27*
G04 #@! TO.C,C10*
X32906000Y-154686000D03*
X31356000Y-154686000D03*
G04 #@! TD*
G04 #@! TO.C,C4*
X37235000Y-176342000D03*
X35685000Y-176342000D03*
G04 #@! TD*
D28*
G04 #@! TO.C,R17*
X37222000Y-177739000D03*
X35572000Y-177739000D03*
G04 #@! TD*
D19*
G04 #@! TO.C,D15*
X32512000Y-173863000D03*
X28512000Y-173863000D03*
G04 #@! TD*
D30*
G04 #@! TO.C,R22*
X38619000Y-176215000D03*
X38619000Y-177865000D03*
G04 #@! TD*
D28*
G04 #@! TO.C,R20*
X37222000Y-180533000D03*
X35572000Y-180533000D03*
G04 #@! TD*
D30*
G04 #@! TO.C,R24*
X44660000Y-176360000D03*
X44660000Y-178010000D03*
G04 #@! TD*
D19*
G04 #@! TO.C,D13*
X32734000Y-186055000D03*
X28734000Y-186055000D03*
G04 #@! TD*
D18*
G04 #@! TO.C,R6*
X47400000Y-190990000D03*
X47400000Y-189340000D03*
G04 #@! TD*
G04 #@! TO.C,R14*
X57023000Y-176808400D03*
X57023000Y-175158400D03*
G04 #@! TD*
D31*
G04 #@! TO.C,U2*
X61666200Y-164210600D03*
X62946200Y-164210600D03*
X64206200Y-164210600D03*
X65476200Y-164210600D03*
X66756200Y-164210600D03*
X68026200Y-164210600D03*
X69286200Y-164210600D03*
X70566200Y-164210600D03*
X70566200Y-170510600D03*
X69286200Y-170510600D03*
X68026200Y-170510600D03*
X66756200Y-170510600D03*
X65476200Y-170510600D03*
X64206200Y-170510600D03*
X62946200Y-170510600D03*
X61666200Y-170510600D03*
G04 #@! TD*
D19*
G04 #@! TO.C,D7*
X32480000Y-165735000D03*
X28480000Y-165735000D03*
G04 #@! TD*
D31*
G04 #@! TO.C,U5*
X46959600Y-159537000D03*
X48239600Y-159537000D03*
X49499600Y-159537000D03*
X50769600Y-159537000D03*
X52049600Y-159537000D03*
X53319600Y-159537000D03*
X54579600Y-159537000D03*
X55859600Y-159537000D03*
X55859600Y-165837000D03*
X54579600Y-165837000D03*
X53319600Y-165837000D03*
X52049600Y-165837000D03*
X50769600Y-165837000D03*
X49499600Y-165837000D03*
X48239600Y-165837000D03*
X46959600Y-165837000D03*
G04 #@! TD*
D32*
G04 #@! TO.C,C1*
X77216000Y-188582000D03*
X77216000Y-190132000D03*
G04 #@! TD*
D33*
G04 #@! TO.C,J22*
X65199000Y-195158000D03*
X73199000Y-195158000D03*
D34*
X65999000Y-184658000D03*
X67099000Y-184658000D03*
X68199000Y-184658000D03*
X69299000Y-184658000D03*
X70399000Y-184658000D03*
X71499000Y-184658000D03*
X72599000Y-184658000D03*
X73699000Y-184658000D03*
X74799000Y-184658000D03*
D35*
X60499000Y-194758000D03*
D36*
X61399000Y-185158000D03*
D37*
X75999000Y-185158000D03*
D35*
X75999000Y-194758000D03*
G04 #@! TD*
D22*
G04 #@! TO.C,R21*
X35508000Y-182057000D03*
X37158000Y-182057000D03*
G04 #@! TD*
D18*
G04 #@! TO.C,R27*
X73660000Y-182943000D03*
X73660000Y-181293000D03*
G04 #@! TD*
D28*
G04 #@! TO.C,R18*
X40079000Y-182057000D03*
X38429000Y-182057000D03*
G04 #@! TD*
D27*
G04 #@! TO.C,C12*
X37222000Y-179136000D03*
X35672000Y-179136000D03*
G04 #@! TD*
D38*
G04 #@! TO.C,U6*
X50444000Y-156478000D03*
X50444000Y-154178000D03*
D39*
X56744000Y-154178000D03*
D38*
X50444000Y-151878000D03*
G04 #@! TD*
D27*
G04 #@! TO.C,C11*
X35179000Y-151638000D03*
X33629000Y-151638000D03*
G04 #@! TD*
D22*
G04 #@! TO.C,R19*
X38492000Y-180533000D03*
X40142000Y-180533000D03*
G04 #@! TD*
D40*
G04 #@! TO.C,U10*
X49873000Y-184064000D03*
X49873000Y-184714000D03*
X49873000Y-185364000D03*
X49873000Y-186014000D03*
X51473000Y-186014000D03*
X51473000Y-185364000D03*
X51473000Y-184714000D03*
X51473000Y-184064000D03*
G04 #@! TD*
D19*
G04 #@! TO.C,D3*
X32520000Y-179197000D03*
X28520000Y-179197000D03*
G04 #@! TD*
D41*
G04 #@! TO.C,U9*
X42460000Y-192930000D03*
X42460000Y-192280000D03*
X42460000Y-191630000D03*
X42460000Y-190980000D03*
X44735000Y-190980000D03*
X44735000Y-191630000D03*
X44735000Y-192280000D03*
X44735000Y-192930000D03*
G04 #@! TD*
D29*
G04 #@! TO.C,Q8*
X27575000Y-183540000D03*
X27575000Y-181640000D03*
X29450000Y-182590000D03*
G04 #@! TD*
D42*
G04 #@! TO.C,C13*
X40420000Y-186100000D03*
X41970000Y-186100000D03*
G04 #@! TD*
D18*
G04 #@! TO.C,R28*
X71501000Y-182943000D03*
X71501000Y-181293000D03*
G04 #@! TD*
M02*
