M48
; DRILL file {KiCad 9.0.6} date 2026-01-13T15:48:08+0200
; FORMAT={-:-/ absolute / metric / decimal}
; #@! TF.CreationDate,2026-01-13T15:48:08+02:00
; #@! TF.GenerationSoftware,Kicad,Pcbnew,9.0.6
; #@! TF.FileFunction,Plated,1,2,PTH
FMAT,2
METRIC
; #@! TA.AperFunction,Plated,PTH,ViaDrill
T1C0.300
; #@! TA.AperFunction,Plated,PTH,ViaDrill
T2C0.400
; #@! TA.AperFunction,Plated,PTH,ComponentDrill
T3C0.750
; #@! TA.AperFunction,Plated,PTH,ComponentDrill
T4C0.800
; #@! TA.AperFunction,Plated,PTH,ComponentDrill
T5C1.000
; #@! TA.AperFunction,Plated,PTH,ComponentDrill
T6C2.700
%
G90
G05
T1
X13.6Y-196.34
X13.716Y-159.258
X13.716Y-159.858
X13.716Y-160.528
X13.716Y-167.513
X14.097Y-151.384
X14.097Y-172.72
X14.097Y-178.435
X14.097Y-189.992
X14.224Y-184.531
X14.478Y-156.464
X14.478Y-157.064
X14.478Y-157.664
X14.478Y-159.258
X14.478Y-159.858
X14.478Y-160.528
X15.24Y-156.464
X15.24Y-157.064
X15.24Y-157.664
X15.24Y-161.544
X15.24Y-162.144
X15.24Y-162.814
X16.002Y-161.544
X16.002Y-162.144
X16.002Y-162.814
X16.11Y-195.34
X16.31Y-197.12
X16.77Y-154.52
X17.399Y-168.021
X17.79Y-154.56
X18.39Y-151.96
X18.55Y-196.38
X18.58Y-154.58
X19.304Y-154.686
X19.812Y-154.94
X20.066Y-177.038
X20.066Y-188.468
X20.3Y-159.22
X20.574Y-154.94
X21.463Y-154.686
X21.92Y-197.24
X22.098Y-154.686
X22.86Y-154.686
X23.416Y-154.568
X23.749Y-155.067
X24.13Y-154.559
X24.27Y-197.24
X24.34Y-155.12
X24.638Y-168.021
X24.78Y-152.7
X24.892Y-163.322
X25.27Y-155.98
X25.61Y-157.85
X25.654Y-188.468
X25.68Y-153.27
X25.79Y-156.58
X25.83Y-183.94
X25.86Y-181.55
X26.04Y-197.2
X26.066Y-158.472
X26.162Y-163.449
X26.2Y-152.64
X26.416Y-162.687
X26.574Y-158.98
X26.58Y-157.28
X27.082Y-158.472
X27.59Y-158.98
X28.702Y-156.972
X29.21Y-157.734
X29.21Y-167.513
X29.53Y-158.9
X29.972Y-157.988
X30.3Y-160.43
X30.353Y-166.624
X30.48Y-167.513
X30.52Y-196.98
X30.734Y-161.036
X30.988Y-158.94
X31.06Y-160.4
X31.4Y-161.1
X31.92Y-160.4
X32.05Y-161.13
X32.1Y-197.02
X32.258Y-156.718
X32.258Y-157.734
X32.71Y-160.42
X32.766Y-157.226
X33.274Y-156.718
X33.274Y-157.734
X33.274Y-161.11
X33.782Y-158.75
X34.036Y-182.626
X34.08Y-196.96
X34.37Y-180.975
X34.617Y-180.474
X34.66Y-176.93
X34.685Y-181.723
X34.75Y-179.55
X34.78Y-175.37
X34.9Y-162.62
X35.052Y-169.61
X35.052Y-173.482
X35.12Y-165.17
X35.306Y-160.528
X35.572Y-178.258
X35.78Y-165.81
X35.78Y-167.0
X36.068Y-190.246
X36.068Y-190.754
X36.195Y-165.354
X36.3Y-196.98
X36.322Y-157.988
X36.4Y-153.67
X36.629Y-184.282
X36.629Y-190.507
X36.83Y-156.972
X36.83Y-160.274
X36.83Y-161.036
X36.88Y-154.83
X36.89Y-156.0
X37.13Y-162.69
X37.338Y-167.132
X37.338Y-190.246
X37.338Y-190.754
X37.52Y-153.58
X37.78Y-157.65
X37.86Y-196.95
X37.98Y-160.82
X38.05Y-173.101
X38.33Y-178.8
X38.33Y-192.95
X38.38Y-188.2
X38.47Y-180.53
X38.79Y-190.03
X39.116Y-165.862
X39.174Y-179.064
X39.18Y-160.69
X39.23Y-197.11
X39.34Y-179.85
X39.4Y-158.54
X39.624Y-167.894
X39.624Y-170.942
X39.624Y-175.26
X39.9Y-163.34
X39.94Y-188.75
X40.005Y-189.865
X40.067Y-190.99
X40.067Y-191.542
X40.067Y-192.132
X40.067Y-192.792
X40.067Y-193.392
X40.067Y-193.892
X40.067Y-194.78
X40.132Y-190.373
X40.132Y-195.834
X40.259Y-161.163
X40.29Y-158.21
X40.3Y-159.31
X40.513Y-184.912
X40.894Y-179.832
X41.021Y-181.991
X41.21Y-175.26
X41.25Y-197.11
X41.275Y-154.178
X41.402Y-173.228
X41.402Y-191.897
X41.5Y-196.19
X41.589Y-183.321
X41.88Y-194.0
X41.95Y-184.69
X42.07Y-195.36
X42.164Y-167.132
X42.291Y-179.832
X42.418Y-170.942
X42.433Y-150.988
X42.799Y-178.054
X42.926Y-152.781
X43.02Y-197.11
X43.1Y-195.8
X43.18Y-161.163
X43.18Y-187.452
X43.18Y-188.722
X43.2Y-159.58
X43.3Y-156.83
X43.434Y-180.594
X43.434Y-183.388
X43.79Y-163.66
X43.8Y-195.12
X44.196Y-180.34
X44.196Y-182.763
X44.3Y-168.94
X44.31Y-196.17
X44.57Y-162.62
X44.62Y-164.38
X44.66Y-178.01
X44.77Y-174.85
X44.79Y-172.86
X44.88Y-157.98
X44.93Y-193.52
X44.95Y-197.09
X45.466Y-185.801
X45.59Y-180.783
X45.66Y-162.62
X46.081Y-179.081
X46.228Y-188.595
X46.56Y-197.27
X46.93Y-193.1
X46.99Y-159.512
X46.99Y-178.562
X47.09Y-195.24
X47.23Y-194.23
X47.371Y-154.178
X47.371Y-189.357
X47.43Y-157.33
X47.498Y-175.006
X47.498Y-192.024
X47.752Y-170.434
X47.804Y-169.239
X48.006Y-151.892
X48.387Y-188.214
X48.514Y-168.656
X48.641Y-162.433
X48.641Y-185.42
X48.69Y-161.19
X48.768Y-152.654
X49.784Y-182.499
X50.165Y-162.433
X50.444Y-154.178
X50.546Y-183.261
X50.65Y-197.17
X50.673Y-180.594
X50.8Y-178.308
X50.927Y-163.957
X51.054Y-167.386
X51.943Y-184.658
X52.832Y-180.594
X53.213Y-152.4
X53.34Y-188.214
X53.43Y-184.16
X53.49Y-157.18
X53.49Y-197.21
X53.848Y-153.797
X53.848Y-154.559
X54.61Y-152.4
X54.991Y-153.797
X54.991Y-154.559
X54.991Y-164.211
X54.991Y-180.594
X55.118Y-178.816
X55.372Y-187.96
X55.56Y-160.8
X56.34Y-160.4
X56.41Y-161.64
X56.42Y-197.0
X56.515Y-192.151
X56.6Y-159.53
X56.896Y-166.497
X57.0Y-161.01
X57.15Y-155.956
X57.44Y-194.46
X57.55Y-161.7
X57.658Y-160.528
X57.658Y-173.482
X57.658Y-182.372
X57.785Y-175.895
X57.8Y-157.2
X57.949Y-176.905
X58.039Y-170.815
X58.166Y-164.338
X58.42Y-191.008
X58.66Y-155.48
X58.75Y-161.71
X58.801Y-193.421
X59.182Y-194.437
X59.41Y-189.635
X59.429Y-180.676
X59.436Y-170.815
X59.436Y-173.355
X59.436Y-176.911
X60.69Y-160.4
X60.706Y-168.275
X60.706Y-182.626
X61.214Y-167.767
X61.214Y-175.768
X61.341Y-178.661
X61.341Y-181.356
X61.468Y-173.101
X61.468Y-188.214
X61.722Y-167.132
X61.722Y-193.675
X61.849Y-186.436
X61.976Y-190.373
X62.103Y-178.689
X62.103Y-181.356
X62.357Y-194.183
X62.738Y-183.261
X62.807Y-168.598
X62.992Y-156.718
X62.992Y-160.274
X62.992Y-191.643
X63.174Y-177.773
X63.25Y-150.92
X63.373Y-175.387
X63.7Y-176.682
X64.04Y-157.73
X64.12Y-153.48
X64.135Y-174.498
X64.516Y-161.544
X64.516Y-167.132
X64.643Y-171.704
X65.278Y-175.768
X65.278Y-181.483
X65.405Y-174.498
X65.532Y-157.988
X65.532Y-171.704
X65.567Y-157.353
X65.786Y-160.274
X66.167Y-194.17
X66.294Y-175.006
X66.675Y-157.353
X66.675Y-157.988
X67.056Y-171.704
X67.056Y-174.498
X67.183Y-187.706
X67.564Y-161.29
X68.072Y-175.768
X68.072Y-176.53
X68.11Y-156.59
X68.326Y-171.704
X68.326Y-186.563
X69.088Y-174.498
X69.299Y-186.436
X69.38Y-155.93
X69.596Y-171.704
X69.596Y-175.26
X69.62Y-191.24
X69.85Y-159.004
X69.977Y-187.579
X70.104Y-161.29
X70.22Y-160.53
X70.358Y-169.164
X70.358Y-176.276
X70.38Y-155.5
X70.612Y-175.26
X70.78Y-154.59
X70.82Y-156.42
X71.374Y-175.768
X71.501Y-181.356
X71.628Y-164.338
X71.628Y-174.752
X71.63Y-191.17
X71.882Y-176.53
X72.06Y-160.48
X72.136Y-161.544
X72.263Y-194.31
X72.39Y-151.638
X72.39Y-154.94
X72.39Y-156.972
X72.39Y-175.26
X72.9Y-158.96
X73.14Y-165.61
X73.152Y-174.498
X73.152Y-176.276
X73.406Y-160.274
X73.66Y-152.146
X73.66Y-181.483
X73.74Y-191.16
X73.81Y-164.21
X73.914Y-173.228
X73.914Y-176.022
X74.168Y-155.956
X74.168Y-166.878
X74.39Y-165.65
X74.422Y-153.416
X74.422Y-175.514
X74.676Y-173.482
X75.184Y-174.244
X75.438Y-187.706
X75.54Y-162.24
X75.54Y-163.78
X75.565Y-186.436
X75.7Y-165.27
X76.073Y-168.148
X76.89Y-160.91
X76.962Y-174.244
X76.962Y-187.198
X76.962Y-190.881
X77.22Y-162.3
X77.3Y-163.73
X78.41Y-170.56
X78.45Y-165.57
X78.46Y-189.34
X78.486Y-178.054
X78.55Y-160.97
X78.86Y-162.36
X78.994Y-163.576
X78.994Y-176.784
X78.994Y-178.816
X79.15Y-168.1
X79.502Y-186.309
X79.629Y-183.642
X79.756Y-169.672
X80.01Y-164.592
X80.06Y-196.94
X80.15Y-160.89
X80.264Y-172.212
X80.36Y-193.88
X80.772Y-190.119
X82.86Y-159.74
X83.01Y-151.09
X83.1Y-155.92
X83.3Y-163.8
X83.5Y-169.6
X83.6Y-180.95
T2
X26.06Y-176.05
X36.55Y-174.618
X41.345Y-184.167
X43.143Y-162.625
X45.0Y-179.42
X45.86Y-170.06
X46.01Y-164.653
X47.289Y-184.03
X47.29Y-167.43
X47.408Y-177.583
X48.57Y-182.92
X49.04Y-180.47
X49.619Y-164.365
X49.95Y-178.55
X50.855Y-163.054
X52.267Y-163.482
X52.71Y-178.218
X52.71Y-179.43
X53.61Y-161.841
X54.3Y-179.47
X54.303Y-162.879
X56.642Y-181.356
X57.028Y-179.475
X57.905Y-165.357
X58.353Y-174.326
X59.41Y-188.365
X60.02Y-166.445
X63.754Y-180.482
X75.483Y-181.357
X76.91Y-178.119
X76.91Y-179.569
X76.91Y-183.285
T3
X82.296Y-176.784
X82.296Y-178.784
X82.296Y-180.784
X82.296Y-182.784
X82.296Y-184.784
X82.296Y-189.23
X82.296Y-191.23
X82.296Y-193.23
X82.296Y-195.23
T4
X47.371Y-163.068
X59.69Y-164.719
X64.77Y-168.402
X66.929Y-168.402
X69.088Y-168.402
T5
X17.526Y-153.162
X18.811Y-166.624
X18.811Y-169.418
X20.066Y-153.162
X21.351Y-166.624
X21.351Y-169.418
X22.606Y-153.162
X23.891Y-166.624
X23.891Y-169.418
X27.94Y-153.162
X30.48Y-153.162
X49.247Y-189.97
X49.247Y-192.51
X49.247Y-195.05
X49.53Y-170.815
X49.53Y-173.355
X49.53Y-175.895
X52.066Y-189.97
X52.066Y-192.51
X52.066Y-195.05
X52.07Y-170.815
X52.07Y-173.355
X52.07Y-175.895
X54.61Y-170.8
X54.61Y-173.34
X54.61Y-175.88
X54.83Y-182.51
X54.83Y-185.05
X54.86Y-189.97
X54.86Y-192.51
X54.86Y-195.05
X76.2Y-152.923
X76.2Y-155.463
X76.2Y-158.003
X78.74Y-152.923
X78.74Y-155.463
X78.74Y-158.003
X81.28Y-152.908
X81.28Y-155.448
X81.28Y-157.988
T6
X17.606Y-192.024
X17.693Y-173.99
X17.693Y-180.086
X17.693Y-186.055
X17.86Y-157.48
X22.606Y-192.024
X22.693Y-173.99
X22.693Y-180.086
X22.693Y-186.055
X22.86Y-157.48
M30
