G04 #@! TF.GenerationSoftware,KiCad,Pcbnew,9.0.6*
G04 #@! TF.CreationDate,2026-01-13T15:48:08+02:00*
G04 #@! TF.ProjectId,jf-ecu32.7,6a662d65-6375-4333-922e-372e6b696361,rev?*
G04 #@! TF.SameCoordinates,Original*
G04 #@! TF.FileFunction,Paste,Top*
G04 #@! TF.FilePolarity,Positive*
%FSLAX46Y46*%
G04 Gerber Fmt 4.6, Leading zero omitted, Abs format (unit mm)*
G04 Created by KiCad (PCBNEW 9.0.6) date 2026-01-13 15:48:08*
%MOMM*%
%LPD*%
G01*
G04 APERTURE LIST*
G04 Aperture macros list*
%AMRoundRect*
0 Rectangle with rounded corners*
0 $1 Rounding radius*
0 $2 $3 $4 $5 $6 $7 $8 $9 X,Y pos of 4 corners*
0 Add a 4 corners polygon primitive as box body*
4,1,4,$2,$3,$4,$5,$6,$7,$8,$9,$2,$3,0*
0 Add four circle primitives for the rounded corners*
1,1,$1+$1,$2,$3*
1,1,$1+$1,$4,$5*
1,1,$1+$1,$6,$7*
1,1,$1+$1,$8,$9*
0 Add four rect primitives between the rounded corners*
20,1,$1+$1,$2,$3,$4,$5,0*
20,1,$1+$1,$4,$5,$6,$7,0*
20,1,$1+$1,$6,$7,$8,$9,0*
20,1,$1+$1,$8,$9,$2,$3,0*%
G04 Aperture macros list end*
%ADD10RoundRect,0.218750X0.256250X-0.218750X0.256250X0.218750X-0.256250X0.218750X-0.256250X-0.218750X0*%
%ADD11R,3.050000X2.750000*%
%ADD12R,2.200000X1.200000*%
%ADD13RoundRect,0.200000X-0.200000X-0.275000X0.200000X-0.275000X0.200000X0.275000X-0.200000X0.275000X0*%
%ADD14RoundRect,0.225000X0.225000X0.250000X-0.225000X0.250000X-0.225000X-0.250000X0.225000X-0.250000X0*%
%ADD15RoundRect,0.200000X0.275000X-0.200000X0.275000X0.200000X-0.275000X0.200000X-0.275000X-0.200000X0*%
%ADD16RoundRect,0.218750X-0.256250X0.218750X-0.256250X-0.218750X0.256250X-0.218750X0.256250X0.218750X0*%
%ADD17RoundRect,0.200000X-0.275000X0.200000X-0.275000X-0.200000X0.275000X-0.200000X0.275000X0.200000X0*%
%ADD18RoundRect,0.200000X0.200000X0.275000X-0.200000X0.275000X-0.200000X-0.275000X0.200000X-0.275000X0*%
%ADD19RoundRect,0.250000X-0.362500X-1.425000X0.362500X-1.425000X0.362500X1.425000X-0.362500X1.425000X0*%
%ADD20RoundRect,0.218750X0.218750X0.256250X-0.218750X0.256250X-0.218750X-0.256250X0.218750X-0.256250X0*%
%ADD21R,1.300000X1.700000*%
%ADD22RoundRect,0.150000X-0.150000X0.587500X-0.150000X-0.587500X0.150000X-0.587500X0.150000X0.587500X0*%
%ADD23R,1.500000X0.900000*%
%ADD24R,0.900000X1.500000*%
%ADD25R,1.050000X1.050000*%
%ADD26RoundRect,0.150000X0.587500X0.150000X-0.587500X0.150000X-0.587500X-0.150000X0.587500X-0.150000X0*%
%ADD27R,2.000000X1.500000*%
%ADD28R,2.000000X3.800000*%
%ADD29RoundRect,0.250000X-1.250000X-0.550000X1.250000X-0.550000X1.250000X0.550000X-1.250000X0.550000X0*%
%ADD30RoundRect,0.250000X0.550000X-1.250000X0.550000X1.250000X-0.550000X1.250000X-0.550000X-1.250000X0*%
%ADD31RoundRect,0.225000X-0.250000X0.225000X-0.250000X-0.225000X0.250000X-0.225000X0.250000X0.225000X0*%
%ADD32RoundRect,0.250000X0.850000X0.350000X-0.850000X0.350000X-0.850000X-0.350000X0.850000X-0.350000X0*%
%ADD33RoundRect,0.250000X1.275000X1.125000X-1.275000X1.125000X-1.275000X-1.125000X1.275000X-1.125000X0*%
%ADD34RoundRect,0.225000X0.250000X-0.225000X0.250000X0.225000X-0.250000X0.225000X-0.250000X-0.225000X0*%
%ADD35RoundRect,0.218750X-0.218750X-0.256250X0.218750X-0.256250X0.218750X0.256250X-0.218750X0.256250X0*%
G04 APERTURE END LIST*
D10*
G04 #@! TO.C,D6*
X44450000Y-187477500D03*
X44450000Y-185902500D03*
G04 #@! TD*
D11*
G04 #@! TO.C,Q5*
X32004000Y-187835000D03*
X32004000Y-184785000D03*
X28654000Y-187835000D03*
X28654000Y-184785000D03*
D12*
X36629000Y-188590000D03*
X36629000Y-184030000D03*
G04 #@! TD*
D11*
G04 #@! TO.C,Q6*
X31925000Y-173863000D03*
X31925000Y-170813000D03*
X28575000Y-173863000D03*
X28575000Y-170813000D03*
D12*
X36550000Y-174618000D03*
X36550000Y-170058000D03*
G04 #@! TD*
D13*
G04 #@! TO.C,R4*
X23013000Y-160909000D03*
X24663000Y-160909000D03*
G04 #@! TD*
D14*
G04 #@! TO.C,C7*
X58941000Y-168021000D03*
X57391000Y-168021000D03*
G04 #@! TD*
D15*
G04 #@! TO.C,R25*
X46228000Y-187515000D03*
X46228000Y-185865000D03*
G04 #@! TD*
D13*
G04 #@! TO.C,R3*
X20003000Y-160909000D03*
X21653000Y-160909000D03*
G04 #@! TD*
D15*
G04 #@! TO.C,R11*
X36576000Y-193548000D03*
X36576000Y-191898000D03*
G04 #@! TD*
D16*
G04 #@! TO.C,D2*
X36576000Y-185521500D03*
X36576000Y-187096500D03*
G04 #@! TD*
D17*
G04 #@! TO.C,R7*
X38608000Y-185484000D03*
X38608000Y-187134000D03*
G04 #@! TD*
D18*
G04 #@! TO.C,R12*
X34416000Y-165481000D03*
X32766000Y-165481000D03*
G04 #@! TD*
D11*
G04 #@! TO.C,Q4*
X31960000Y-180850000D03*
X31960000Y-177800000D03*
X28610000Y-180850000D03*
X28610000Y-177800000D03*
D12*
X36585000Y-181605000D03*
X36585000Y-177045000D03*
G04 #@! TD*
D19*
G04 #@! TO.C,R2*
X40067500Y-190990000D03*
X45992500Y-190990000D03*
G04 #@! TD*
D15*
G04 #@! TO.C,R15*
X62357000Y-171259000D03*
X62357000Y-169609000D03*
G04 #@! TD*
D20*
G04 #@! TO.C,D5*
X31521500Y-165481000D03*
X29946500Y-165481000D03*
G04 #@! TD*
D21*
G04 #@! TO.C,D18*
X38001000Y-159232600D03*
X41501000Y-159232600D03*
G04 #@! TD*
D22*
G04 #@! TO.C,Q2*
X42987000Y-186085000D03*
X41087000Y-186085000D03*
X42037000Y-187960000D03*
G04 #@! TD*
D13*
G04 #@! TO.C,R10*
X32703000Y-168529000D03*
X34353000Y-168529000D03*
G04 #@! TD*
D19*
G04 #@! TO.C,R1*
X40067500Y-194780000D03*
X45992500Y-194780000D03*
G04 #@! TD*
D23*
G04 #@! TO.C,U1*
X76910000Y-190905000D03*
X76910000Y-189635000D03*
X76910000Y-188365000D03*
X76910000Y-187095000D03*
X76910000Y-185825000D03*
X76910000Y-184555000D03*
X76910000Y-183285000D03*
X76910000Y-182015000D03*
X76910000Y-180745000D03*
X76910000Y-179475000D03*
X76910000Y-178205000D03*
X76910000Y-176935000D03*
X76910000Y-175665000D03*
X76910000Y-174395000D03*
D24*
X73870000Y-173145000D03*
X72600000Y-173145000D03*
X71330000Y-173145000D03*
X70060000Y-173145000D03*
X68790000Y-173145000D03*
X67520000Y-173145000D03*
X66250000Y-173145000D03*
X64980000Y-173145000D03*
X63710000Y-173145000D03*
X62440000Y-173145000D03*
D23*
X59410000Y-174395000D03*
X59410000Y-175665000D03*
X59410000Y-176935000D03*
X59410000Y-178205000D03*
X59410000Y-179475000D03*
X59410000Y-180745000D03*
X59410000Y-182015000D03*
X59410000Y-183285000D03*
X59410000Y-184555000D03*
X59410000Y-185825000D03*
X59410000Y-187095000D03*
X59410000Y-188365000D03*
X59410000Y-189635000D03*
X59410000Y-190905000D03*
D25*
X70365000Y-185090000D03*
X70365000Y-183565000D03*
X70365000Y-182040000D03*
X68840000Y-185090000D03*
X68840000Y-183565000D03*
X68840000Y-182040000D03*
X67315000Y-185090000D03*
X67315000Y-183565000D03*
X67315000Y-182040000D03*
G04 #@! TD*
D26*
G04 #@! TO.C,Q1*
X28242500Y-165415000D03*
X28242500Y-163515000D03*
X26367500Y-164465000D03*
G04 #@! TD*
D27*
G04 #@! TO.C,U4*
X66090000Y-153148000D03*
X66090000Y-155448000D03*
D28*
X72390000Y-155448000D03*
D27*
X66090000Y-157748000D03*
G04 #@! TD*
D17*
G04 #@! TO.C,R8*
X38227000Y-171641000D03*
X38227000Y-173291000D03*
G04 #@! TD*
D16*
G04 #@! TO.C,D11*
X57150000Y-154406500D03*
X57150000Y-155981500D03*
G04 #@! TD*
D29*
G04 #@! TO.C,C8*
X50210000Y-154178000D03*
X54610000Y-154178000D03*
G04 #@! TD*
D17*
G04 #@! TO.C,R13*
X58039000Y-170815000D03*
X58039000Y-172465000D03*
G04 #@! TD*
D15*
G04 #@! TO.C,R9*
X36576000Y-180212000D03*
X36576000Y-178562000D03*
G04 #@! TD*
D13*
G04 #@! TO.C,R5*
X58992000Y-169418000D03*
X60642000Y-169418000D03*
G04 #@! TD*
D18*
G04 #@! TO.C,R32*
X68072000Y-151130000D03*
X66422000Y-151130000D03*
G04 #@! TD*
D15*
G04 #@! TO.C,R33*
X57150000Y-152971000D03*
X57150000Y-151321000D03*
G04 #@! TD*
D30*
G04 #@! TO.C,C3*
X60960000Y-157013000D03*
X60960000Y-152613000D03*
G04 #@! TD*
D16*
G04 #@! TO.C,D4*
X36576000Y-171678500D03*
X36576000Y-173253500D03*
G04 #@! TD*
D31*
G04 #@! TO.C,C9*
X78460000Y-189340000D03*
X78460000Y-190890000D03*
G04 #@! TD*
D32*
G04 #@! TO.C,Q9*
X36629000Y-195067000D03*
D33*
X32004000Y-194312000D03*
X32004000Y-191262000D03*
X28654000Y-194312000D03*
X28654000Y-191262000D03*
D32*
X36629000Y-190507000D03*
G04 #@! TD*
D31*
G04 #@! TO.C,C14*
X49657000Y-183515000D03*
X49657000Y-185065000D03*
G04 #@! TD*
D26*
G04 #@! TO.C,Q3*
X28242500Y-168590000D03*
X28242500Y-166690000D03*
X26367500Y-167640000D03*
G04 #@! TD*
D20*
G04 #@! TO.C,D12*
X31394500Y-168529000D03*
X29819500Y-168529000D03*
G04 #@! TD*
D34*
G04 #@! TO.C,RST1*
X59436000Y-172238000D03*
X59436000Y-170688000D03*
G04 #@! TD*
D35*
G04 #@! TO.C,D8*
X69799000Y-151130000D03*
X71374000Y-151130000D03*
G04 #@! TD*
M02*
