G04 #@! TF.GenerationSoftware,KiCad,Pcbnew,9.0.6*
G04 #@! TF.CreationDate,2026-01-13T15:48:08+02:00*
G04 #@! TF.ProjectId,jf-ecu32.7,6a662d65-6375-4333-922e-372e6b696361,rev?*
G04 #@! TF.SameCoordinates,Original*
G04 #@! TF.FileFunction,Legend,Top*
G04 #@! TF.FilePolarity,Positive*
%FSLAX46Y46*%
G04 Gerber Fmt 4.6, Leading zero omitted, Abs format (unit mm)*
G04 Created by KiCad (PCBNEW 9.0.6) date 2026-01-13 15:48:08*
%MOMM*%
%LPD*%
G01*
G04 APERTURE LIST*
G04 Aperture macros list*
%AMRoundRect*
0 Rectangle with rounded corners*
0 $1 Rounding radius*
0 $2 $3 $4 $5 $6 $7 $8 $9 X,Y pos of 4 corners*
0 Add a 4 corners polygon primitive as box body*
4,1,4,$2,$3,$4,$5,$6,$7,$8,$9,$2,$3,0*
0 Add four circle primitives for the rounded corners*
1,1,$1+$1,$2,$3*
1,1,$1+$1,$4,$5*
1,1,$1+$1,$6,$7*
1,1,$1+$1,$8,$9*
0 Add four rect primitives between the rounded corners*
20,1,$1+$1,$2,$3,$4,$5,0*
20,1,$1+$1,$4,$5,$6,$7,0*
20,1,$1+$1,$6,$7,$8,$9,0*
20,1,$1+$1,$8,$9,$2,$3,0*%
G04 Aperture macros list end*
%ADD10C,0.150000*%
%ADD11C,0.125000*%
%ADD12C,0.120000*%
%ADD13RoundRect,0.218750X0.256250X-0.218750X0.256250X0.218750X-0.256250X0.218750X-0.256250X-0.218750X0*%
%ADD14R,1.350000X1.350000*%
%ADD15R,2.200000X1.200000*%
%ADD16R,6.400000X5.800000*%
%ADD17RoundRect,0.200000X-0.200000X-0.275000X0.200000X-0.275000X0.200000X0.275000X-0.200000X0.275000X0*%
%ADD18RoundRect,0.225000X0.225000X0.250000X-0.225000X0.250000X-0.225000X-0.250000X0.225000X-0.250000X0*%
%ADD19R,1.700000X1.700000*%
%ADD20O,1.700000X1.700000*%
%ADD21RoundRect,0.200000X0.275000X-0.200000X0.275000X0.200000X-0.275000X0.200000X-0.275000X-0.200000X0*%
%ADD22RoundRect,0.218750X-0.256250X0.218750X-0.256250X-0.218750X0.256250X-0.218750X0.256250X0.218750X0*%
%ADD23RoundRect,0.200000X-0.275000X0.200000X-0.275000X-0.200000X0.275000X-0.200000X0.275000X0.200000X0*%
%ADD24RoundRect,0.200000X0.200000X0.275000X-0.200000X0.275000X-0.200000X-0.275000X0.200000X-0.275000X0*%
%ADD25R,3.800000X3.800000*%
%ADD26C,4.000000*%
%ADD27RoundRect,0.250000X-0.362500X-1.425000X0.362500X-1.425000X0.362500X1.425000X-0.362500X1.425000X0*%
%ADD28RoundRect,0.218750X0.218750X0.256250X-0.218750X0.256250X-0.218750X-0.256250X0.218750X-0.256250X0*%
%ADD29R,1.300000X1.700000*%
%ADD30RoundRect,0.150000X-0.150000X0.587500X-0.150000X-0.587500X0.150000X-0.587500X0.150000X0.587500X0*%
%ADD31C,3.800000*%
%ADD32R,1.500000X0.900000*%
%ADD33R,0.900000X1.500000*%
%ADD34R,4.200000X4.200000*%
%ADD35RoundRect,0.150000X0.587500X0.150000X-0.587500X0.150000X-0.587500X-0.150000X0.587500X-0.150000X0*%
%ADD36R,2.000000X1.500000*%
%ADD37R,2.000000X3.800000*%
%ADD38RoundRect,0.250000X-0.625000X0.350000X-0.625000X-0.350000X0.625000X-0.350000X0.625000X0.350000X0*%
%ADD39O,1.750000X1.200000*%
%ADD40RoundRect,0.250000X-1.250000X-0.550000X1.250000X-0.550000X1.250000X0.550000X-1.250000X0.550000X0*%
%ADD41RoundRect,0.250000X0.550000X-1.250000X0.550000X1.250000X-0.550000X1.250000X-0.550000X-1.250000X0*%
%ADD42RoundRect,0.225000X-0.250000X0.225000X-0.250000X-0.225000X0.250000X-0.225000X0.250000X0.225000X0*%
%ADD43RoundRect,0.250000X0.850000X0.350000X-0.850000X0.350000X-0.850000X-0.350000X0.850000X-0.350000X0*%
%ADD44RoundRect,0.249997X2.950003X2.650003X-2.950003X2.650003X-2.950003X-2.650003X2.950003X-2.650003X0*%
%ADD45RoundRect,0.225000X0.250000X-0.225000X0.250000X0.225000X-0.250000X0.225000X-0.250000X-0.225000X0*%
%ADD46RoundRect,0.218750X-0.218750X-0.256250X0.218750X-0.256250X0.218750X0.256250X-0.218750X0.256250X0*%
%ADD47C,0.900000*%
G04 APERTURE END LIST*
D10*
X48006000Y-166878000D02*
X56261000Y-166878000D01*
X49432981Y-168021000D02*
G75*
G02*
X48865019Y-168021000I-283981J0D01*
G01*
X48865019Y-168021000D02*
G75*
G02*
X49432981Y-168021000I283981J0D01*
G01*
X50442000Y-179520000D02*
X57540000Y-179520000D01*
X57540000Y-186060000D01*
X50442000Y-186060000D01*
X50442000Y-179520000D01*
X80070000Y-159512000D02*
X84007000Y-159512000D01*
X84007000Y-167872000D01*
X80070000Y-167872000D01*
X80070000Y-159512000D01*
X49432981Y-165735000D02*
G75*
G02*
X48865019Y-165735000I-283981J0D01*
G01*
X48865019Y-165735000D02*
G75*
G02*
X49432981Y-165735000I283981J0D01*
G01*
X47420000Y-186062000D02*
X57580000Y-186062000D01*
X57580000Y-198000000D01*
X47420000Y-198000000D01*
X47420000Y-186062000D01*
X50292000Y-165227000D02*
X50292000Y-168783000D01*
X49432981Y-166878000D02*
G75*
G02*
X48865019Y-166878000I-283981J0D01*
G01*
X48865019Y-166878000D02*
G75*
G02*
X49432981Y-166878000I283981J0D01*
G01*
X48006000Y-165163500D02*
X56261000Y-165163500D01*
X56261000Y-168846500D01*
X48006000Y-168846500D01*
X48006000Y-165163500D01*
X80070000Y-167872000D02*
X84007000Y-167872000D01*
X84007000Y-174327000D01*
X80070000Y-174327000D01*
X80070000Y-167872000D01*
X56429048Y-192553866D02*
X57190953Y-192553866D01*
X56810000Y-192934819D02*
X56810000Y-192172914D01*
X50880000Y-183114819D02*
X50880000Y-182114819D01*
X51546666Y-182114819D02*
X51737142Y-182114819D01*
X51737142Y-182114819D02*
X51832380Y-182162438D01*
X51832380Y-182162438D02*
X51927618Y-182257676D01*
X51927618Y-182257676D02*
X51975237Y-182448152D01*
X51975237Y-182448152D02*
X51975237Y-182781485D01*
X51975237Y-182781485D02*
X51927618Y-182971961D01*
X51927618Y-182971961D02*
X51832380Y-183067200D01*
X51832380Y-183067200D02*
X51737142Y-183114819D01*
X51737142Y-183114819D02*
X51546666Y-183114819D01*
X51546666Y-183114819D02*
X51451428Y-183067200D01*
X51451428Y-183067200D02*
X51356190Y-182971961D01*
X51356190Y-182971961D02*
X51308571Y-182781485D01*
X51308571Y-182781485D02*
X51308571Y-182448152D01*
X51308571Y-182448152D02*
X51356190Y-182257676D01*
X51356190Y-182257676D02*
X51451428Y-182162438D01*
X51451428Y-182162438D02*
X51546666Y-182114819D01*
X52594285Y-182114819D02*
X52689523Y-182114819D01*
X52689523Y-182114819D02*
X52784761Y-182162438D01*
X52784761Y-182162438D02*
X52832380Y-182210057D01*
X52832380Y-182210057D02*
X52879999Y-182305295D01*
X52879999Y-182305295D02*
X52927618Y-182495771D01*
X52927618Y-182495771D02*
X52927618Y-182733866D01*
X52927618Y-182733866D02*
X52879999Y-182924342D01*
X52879999Y-182924342D02*
X52832380Y-183019580D01*
X52832380Y-183019580D02*
X52784761Y-183067200D01*
X52784761Y-183067200D02*
X52689523Y-183114819D01*
X52689523Y-183114819D02*
X52594285Y-183114819D01*
X52594285Y-183114819D02*
X52499047Y-183067200D01*
X52499047Y-183067200D02*
X52451428Y-183019580D01*
X52451428Y-183019580D02*
X52403809Y-182924342D01*
X52403809Y-182924342D02*
X52356190Y-182733866D01*
X52356190Y-182733866D02*
X52356190Y-182495771D01*
X52356190Y-182495771D02*
X52403809Y-182305295D01*
X52403809Y-182305295D02*
X52451428Y-182210057D01*
X52451428Y-182210057D02*
X52499047Y-182162438D01*
X52499047Y-182162438D02*
X52594285Y-182114819D01*
X77099333Y-160407553D02*
X76866000Y-160074220D01*
X76699333Y-160407553D02*
X76699333Y-159707553D01*
X76699333Y-159707553D02*
X76966000Y-159707553D01*
X76966000Y-159707553D02*
X77032667Y-159740886D01*
X77032667Y-159740886D02*
X77066000Y-159774220D01*
X77066000Y-159774220D02*
X77099333Y-159840886D01*
X77099333Y-159840886D02*
X77099333Y-159940886D01*
X77099333Y-159940886D02*
X77066000Y-160007553D01*
X77066000Y-160007553D02*
X77032667Y-160040886D01*
X77032667Y-160040886D02*
X76966000Y-160074220D01*
X76966000Y-160074220D02*
X76699333Y-160074220D01*
X77332667Y-159707553D02*
X77799333Y-160407553D01*
X77799333Y-159707553D02*
X77332667Y-160407553D01*
X75532667Y-161534514D02*
X75532667Y-160834514D01*
X75866000Y-161534514D02*
X75866000Y-160834514D01*
X75866000Y-160834514D02*
X76266000Y-161534514D01*
X76266000Y-161534514D02*
X76266000Y-160834514D01*
X76599333Y-161534514D02*
X76599333Y-160834514D01*
X76599333Y-160834514D02*
X76866000Y-160834514D01*
X76866000Y-160834514D02*
X76932667Y-160867847D01*
X76932667Y-160867847D02*
X76966000Y-160901181D01*
X76966000Y-160901181D02*
X76999333Y-160967847D01*
X76999333Y-160967847D02*
X76999333Y-161067847D01*
X76999333Y-161067847D02*
X76966000Y-161134514D01*
X76966000Y-161134514D02*
X76932667Y-161167847D01*
X76932667Y-161167847D02*
X76866000Y-161201181D01*
X76866000Y-161201181D02*
X76599333Y-161201181D01*
X77299333Y-160834514D02*
X77299333Y-161401181D01*
X77299333Y-161401181D02*
X77332667Y-161467847D01*
X77332667Y-161467847D02*
X77366000Y-161501181D01*
X77366000Y-161501181D02*
X77432667Y-161534514D01*
X77432667Y-161534514D02*
X77566000Y-161534514D01*
X77566000Y-161534514D02*
X77632667Y-161501181D01*
X77632667Y-161501181D02*
X77666000Y-161467847D01*
X77666000Y-161467847D02*
X77699333Y-161401181D01*
X77699333Y-161401181D02*
X77699333Y-160834514D01*
X77932666Y-160834514D02*
X78332666Y-160834514D01*
X78132666Y-161534514D02*
X78132666Y-160834514D01*
X78532666Y-161501181D02*
X78632666Y-161534514D01*
X78632666Y-161534514D02*
X78799333Y-161534514D01*
X78799333Y-161534514D02*
X78865999Y-161501181D01*
X78865999Y-161501181D02*
X78899333Y-161467847D01*
X78899333Y-161467847D02*
X78932666Y-161401181D01*
X78932666Y-161401181D02*
X78932666Y-161334514D01*
X78932666Y-161334514D02*
X78899333Y-161267847D01*
X78899333Y-161267847D02*
X78865999Y-161234514D01*
X78865999Y-161234514D02*
X78799333Y-161201181D01*
X78799333Y-161201181D02*
X78665999Y-161167847D01*
X78665999Y-161167847D02*
X78599333Y-161134514D01*
X78599333Y-161134514D02*
X78565999Y-161101181D01*
X78565999Y-161101181D02*
X78532666Y-161034514D01*
X78532666Y-161034514D02*
X78532666Y-160967847D01*
X78532666Y-160967847D02*
X78565999Y-160901181D01*
X78565999Y-160901181D02*
X78599333Y-160867847D01*
X78599333Y-160867847D02*
X78665999Y-160834514D01*
X78665999Y-160834514D02*
X78832666Y-160834514D01*
X78832666Y-160834514D02*
X78932666Y-160867847D01*
X74294951Y-152834133D02*
X73533047Y-152834133D01*
X29726048Y-151584819D02*
X29726048Y-150584819D01*
X30297476Y-151584819D02*
X29868905Y-151013390D01*
X30297476Y-150584819D02*
X29726048Y-151156247D01*
X30726048Y-151203866D02*
X31487953Y-151203866D01*
X31107000Y-151584819D02*
X31107000Y-150822914D01*
X13843095Y-153616819D02*
X13509762Y-153140628D01*
X13271667Y-153616819D02*
X13271667Y-152616819D01*
X13271667Y-152616819D02*
X13652619Y-152616819D01*
X13652619Y-152616819D02*
X13747857Y-152664438D01*
X13747857Y-152664438D02*
X13795476Y-152712057D01*
X13795476Y-152712057D02*
X13843095Y-152807295D01*
X13843095Y-152807295D02*
X13843095Y-152950152D01*
X13843095Y-152950152D02*
X13795476Y-153045390D01*
X13795476Y-153045390D02*
X13747857Y-153093009D01*
X13747857Y-153093009D02*
X13652619Y-153140628D01*
X13652619Y-153140628D02*
X13271667Y-153140628D01*
X14271667Y-153616819D02*
X14271667Y-152616819D01*
X14271667Y-152616819D02*
X14652619Y-152616819D01*
X14652619Y-152616819D02*
X14747857Y-152664438D01*
X14747857Y-152664438D02*
X14795476Y-152712057D01*
X14795476Y-152712057D02*
X14843095Y-152807295D01*
X14843095Y-152807295D02*
X14843095Y-152950152D01*
X14843095Y-152950152D02*
X14795476Y-153045390D01*
X14795476Y-153045390D02*
X14747857Y-153093009D01*
X14747857Y-153093009D02*
X14652619Y-153140628D01*
X14652619Y-153140628D02*
X14271667Y-153140628D01*
X15271667Y-153616819D02*
X15271667Y-152616819D01*
X15271667Y-152616819D02*
X15605000Y-153331104D01*
X15605000Y-153331104D02*
X15938333Y-152616819D01*
X15938333Y-152616819D02*
X15938333Y-153616819D01*
X13866952Y-161094009D02*
X14009809Y-161141628D01*
X14009809Y-161141628D02*
X14057428Y-161189247D01*
X14057428Y-161189247D02*
X14105047Y-161284485D01*
X14105047Y-161284485D02*
X14105047Y-161427342D01*
X14105047Y-161427342D02*
X14057428Y-161522580D01*
X14057428Y-161522580D02*
X14009809Y-161570200D01*
X14009809Y-161570200D02*
X13914571Y-161617819D01*
X13914571Y-161617819D02*
X13533619Y-161617819D01*
X13533619Y-161617819D02*
X13533619Y-160617819D01*
X13533619Y-160617819D02*
X13866952Y-160617819D01*
X13866952Y-160617819D02*
X13962190Y-160665438D01*
X13962190Y-160665438D02*
X14009809Y-160713057D01*
X14009809Y-160713057D02*
X14057428Y-160808295D01*
X14057428Y-160808295D02*
X14057428Y-160903533D01*
X14057428Y-160903533D02*
X14009809Y-160998771D01*
X14009809Y-160998771D02*
X13962190Y-161046390D01*
X13962190Y-161046390D02*
X13866952Y-161094009D01*
X13866952Y-161094009D02*
X13533619Y-161094009D01*
X14486000Y-161332104D02*
X14962190Y-161332104D01*
X14390762Y-161617819D02*
X14724095Y-160617819D01*
X14724095Y-160617819D02*
X15057428Y-161617819D01*
X15247905Y-160617819D02*
X15819333Y-160617819D01*
X15533619Y-161617819D02*
X15533619Y-160617819D01*
X16009810Y-160617819D02*
X16581238Y-160617819D01*
X16295524Y-161617819D02*
X16295524Y-160617819D01*
X13176333Y-182271200D02*
X13319190Y-182318819D01*
X13319190Y-182318819D02*
X13557285Y-182318819D01*
X13557285Y-182318819D02*
X13652523Y-182271200D01*
X13652523Y-182271200D02*
X13700142Y-182223580D01*
X13700142Y-182223580D02*
X13747761Y-182128342D01*
X13747761Y-182128342D02*
X13747761Y-182033104D01*
X13747761Y-182033104D02*
X13700142Y-181937866D01*
X13700142Y-181937866D02*
X13652523Y-181890247D01*
X13652523Y-181890247D02*
X13557285Y-181842628D01*
X13557285Y-181842628D02*
X13366809Y-181795009D01*
X13366809Y-181795009D02*
X13271571Y-181747390D01*
X13271571Y-181747390D02*
X13223952Y-181699771D01*
X13223952Y-181699771D02*
X13176333Y-181604533D01*
X13176333Y-181604533D02*
X13176333Y-181509295D01*
X13176333Y-181509295D02*
X13223952Y-181414057D01*
X13223952Y-181414057D02*
X13271571Y-181366438D01*
X13271571Y-181366438D02*
X13366809Y-181318819D01*
X13366809Y-181318819D02*
X13604904Y-181318819D01*
X13604904Y-181318819D02*
X13747761Y-181366438D01*
X14033476Y-181318819D02*
X14604904Y-181318819D01*
X14319190Y-182318819D02*
X14319190Y-181318819D01*
X74199713Y-157453800D02*
X74056856Y-157406180D01*
X74056856Y-157406180D02*
X73818761Y-157406180D01*
X73818761Y-157406180D02*
X73723523Y-157453800D01*
X73723523Y-157453800D02*
X73675904Y-157501419D01*
X73675904Y-157501419D02*
X73628285Y-157596657D01*
X73628285Y-157596657D02*
X73628285Y-157691895D01*
X73628285Y-157691895D02*
X73675904Y-157787133D01*
X73675904Y-157787133D02*
X73723523Y-157834752D01*
X73723523Y-157834752D02*
X73818761Y-157882371D01*
X73818761Y-157882371D02*
X74009237Y-157929990D01*
X74009237Y-157929990D02*
X74104475Y-157977609D01*
X74104475Y-157977609D02*
X74152094Y-158025228D01*
X74152094Y-158025228D02*
X74199713Y-158120466D01*
X74199713Y-158120466D02*
X74199713Y-158215704D01*
X74199713Y-158215704D02*
X74152094Y-158310942D01*
X74152094Y-158310942D02*
X74104475Y-158358561D01*
X74104475Y-158358561D02*
X74009237Y-158406180D01*
X74009237Y-158406180D02*
X73771142Y-158406180D01*
X73771142Y-158406180D02*
X73628285Y-158358561D01*
X48613333Y-197607200D02*
X48756190Y-197654819D01*
X48756190Y-197654819D02*
X48994285Y-197654819D01*
X48994285Y-197654819D02*
X49089523Y-197607200D01*
X49089523Y-197607200D02*
X49137142Y-197559580D01*
X49137142Y-197559580D02*
X49184761Y-197464342D01*
X49184761Y-197464342D02*
X49184761Y-197369104D01*
X49184761Y-197369104D02*
X49137142Y-197273866D01*
X49137142Y-197273866D02*
X49089523Y-197226247D01*
X49089523Y-197226247D02*
X48994285Y-197178628D01*
X48994285Y-197178628D02*
X48803809Y-197131009D01*
X48803809Y-197131009D02*
X48708571Y-197083390D01*
X48708571Y-197083390D02*
X48660952Y-197035771D01*
X48660952Y-197035771D02*
X48613333Y-196940533D01*
X48613333Y-196940533D02*
X48613333Y-196845295D01*
X48613333Y-196845295D02*
X48660952Y-196750057D01*
X48660952Y-196750057D02*
X48708571Y-196702438D01*
X48708571Y-196702438D02*
X48803809Y-196654819D01*
X48803809Y-196654819D02*
X49041904Y-196654819D01*
X49041904Y-196654819D02*
X49184761Y-196702438D01*
X49470476Y-196654819D02*
X50041904Y-196654819D01*
X49756190Y-197654819D02*
X49756190Y-196654819D01*
X71421810Y-159093819D02*
X72040857Y-159093819D01*
X72040857Y-159093819D02*
X71707524Y-159474771D01*
X71707524Y-159474771D02*
X71850381Y-159474771D01*
X71850381Y-159474771D02*
X71945619Y-159522390D01*
X71945619Y-159522390D02*
X71993238Y-159570009D01*
X71993238Y-159570009D02*
X72040857Y-159665247D01*
X72040857Y-159665247D02*
X72040857Y-159903342D01*
X72040857Y-159903342D02*
X71993238Y-159998580D01*
X71993238Y-159998580D02*
X71945619Y-160046200D01*
X71945619Y-160046200D02*
X71850381Y-160093819D01*
X71850381Y-160093819D02*
X71564667Y-160093819D01*
X71564667Y-160093819D02*
X71469429Y-160046200D01*
X71469429Y-160046200D02*
X71421810Y-159998580D01*
X72469429Y-159998580D02*
X72517048Y-160046200D01*
X72517048Y-160046200D02*
X72469429Y-160093819D01*
X72469429Y-160093819D02*
X72421810Y-160046200D01*
X72421810Y-160046200D02*
X72469429Y-159998580D01*
X72469429Y-159998580D02*
X72469429Y-160093819D01*
X72850381Y-159093819D02*
X73469428Y-159093819D01*
X73469428Y-159093819D02*
X73136095Y-159474771D01*
X73136095Y-159474771D02*
X73278952Y-159474771D01*
X73278952Y-159474771D02*
X73374190Y-159522390D01*
X73374190Y-159522390D02*
X73421809Y-159570009D01*
X73421809Y-159570009D02*
X73469428Y-159665247D01*
X73469428Y-159665247D02*
X73469428Y-159903342D01*
X73469428Y-159903342D02*
X73421809Y-159998580D01*
X73421809Y-159998580D02*
X73374190Y-160046200D01*
X73374190Y-160046200D02*
X73278952Y-160093819D01*
X73278952Y-160093819D02*
X72993238Y-160093819D01*
X72993238Y-160093819D02*
X72898000Y-160046200D01*
X72898000Y-160046200D02*
X72850381Y-159998580D01*
X73755143Y-159093819D02*
X74088476Y-160093819D01*
X74088476Y-160093819D02*
X74421809Y-159093819D01*
X16296142Y-150632438D02*
X16200904Y-150584819D01*
X16200904Y-150584819D02*
X16058047Y-150584819D01*
X16058047Y-150584819D02*
X15915190Y-150632438D01*
X15915190Y-150632438D02*
X15819952Y-150727676D01*
X15819952Y-150727676D02*
X15772333Y-150822914D01*
X15772333Y-150822914D02*
X15724714Y-151013390D01*
X15724714Y-151013390D02*
X15724714Y-151156247D01*
X15724714Y-151156247D02*
X15772333Y-151346723D01*
X15772333Y-151346723D02*
X15819952Y-151441961D01*
X15819952Y-151441961D02*
X15915190Y-151537200D01*
X15915190Y-151537200D02*
X16058047Y-151584819D01*
X16058047Y-151584819D02*
X16153285Y-151584819D01*
X16153285Y-151584819D02*
X16296142Y-151537200D01*
X16296142Y-151537200D02*
X16343761Y-151489580D01*
X16343761Y-151489580D02*
X16343761Y-151156247D01*
X16343761Y-151156247D02*
X16153285Y-151156247D01*
X16772333Y-151584819D02*
X16772333Y-150584819D01*
X16772333Y-150584819D02*
X17343761Y-151584819D01*
X17343761Y-151584819D02*
X17343761Y-150584819D01*
X17819952Y-151584819D02*
X17819952Y-150584819D01*
X17819952Y-150584819D02*
X18058047Y-150584819D01*
X18058047Y-150584819D02*
X18200904Y-150632438D01*
X18200904Y-150632438D02*
X18296142Y-150727676D01*
X18296142Y-150727676D02*
X18343761Y-150822914D01*
X18343761Y-150822914D02*
X18391380Y-151013390D01*
X18391380Y-151013390D02*
X18391380Y-151156247D01*
X18391380Y-151156247D02*
X18343761Y-151346723D01*
X18343761Y-151346723D02*
X18296142Y-151441961D01*
X18296142Y-151441961D02*
X18200904Y-151537200D01*
X18200904Y-151537200D02*
X18058047Y-151584819D01*
X18058047Y-151584819D02*
X17819952Y-151584819D01*
X20058047Y-150584819D02*
X19581857Y-150584819D01*
X19581857Y-150584819D02*
X19534238Y-151061009D01*
X19534238Y-151061009D02*
X19581857Y-151013390D01*
X19581857Y-151013390D02*
X19677095Y-150965771D01*
X19677095Y-150965771D02*
X19915190Y-150965771D01*
X19915190Y-150965771D02*
X20010428Y-151013390D01*
X20010428Y-151013390D02*
X20058047Y-151061009D01*
X20058047Y-151061009D02*
X20105666Y-151156247D01*
X20105666Y-151156247D02*
X20105666Y-151394342D01*
X20105666Y-151394342D02*
X20058047Y-151489580D01*
X20058047Y-151489580D02*
X20010428Y-151537200D01*
X20010428Y-151537200D02*
X19915190Y-151584819D01*
X19915190Y-151584819D02*
X19677095Y-151584819D01*
X19677095Y-151584819D02*
X19581857Y-151537200D01*
X19581857Y-151537200D02*
X19534238Y-151489580D01*
X20391381Y-150584819D02*
X20724714Y-151584819D01*
X20724714Y-151584819D02*
X21058047Y-150584819D01*
X22105667Y-151537200D02*
X22248524Y-151584819D01*
X22248524Y-151584819D02*
X22486619Y-151584819D01*
X22486619Y-151584819D02*
X22581857Y-151537200D01*
X22581857Y-151537200D02*
X22629476Y-151489580D01*
X22629476Y-151489580D02*
X22677095Y-151394342D01*
X22677095Y-151394342D02*
X22677095Y-151299104D01*
X22677095Y-151299104D02*
X22629476Y-151203866D01*
X22629476Y-151203866D02*
X22581857Y-151156247D01*
X22581857Y-151156247D02*
X22486619Y-151108628D01*
X22486619Y-151108628D02*
X22296143Y-151061009D01*
X22296143Y-151061009D02*
X22200905Y-151013390D01*
X22200905Y-151013390D02*
X22153286Y-150965771D01*
X22153286Y-150965771D02*
X22105667Y-150870533D01*
X22105667Y-150870533D02*
X22105667Y-150775295D01*
X22105667Y-150775295D02*
X22153286Y-150680057D01*
X22153286Y-150680057D02*
X22200905Y-150632438D01*
X22200905Y-150632438D02*
X22296143Y-150584819D01*
X22296143Y-150584819D02*
X22534238Y-150584819D01*
X22534238Y-150584819D02*
X22677095Y-150632438D01*
X23105667Y-151584819D02*
X23105667Y-150584819D01*
X24105666Y-150632438D02*
X24010428Y-150584819D01*
X24010428Y-150584819D02*
X23867571Y-150584819D01*
X23867571Y-150584819D02*
X23724714Y-150632438D01*
X23724714Y-150632438D02*
X23629476Y-150727676D01*
X23629476Y-150727676D02*
X23581857Y-150822914D01*
X23581857Y-150822914D02*
X23534238Y-151013390D01*
X23534238Y-151013390D02*
X23534238Y-151156247D01*
X23534238Y-151156247D02*
X23581857Y-151346723D01*
X23581857Y-151346723D02*
X23629476Y-151441961D01*
X23629476Y-151441961D02*
X23724714Y-151537200D01*
X23724714Y-151537200D02*
X23867571Y-151584819D01*
X23867571Y-151584819D02*
X23962809Y-151584819D01*
X23962809Y-151584819D02*
X24105666Y-151537200D01*
X24105666Y-151537200D02*
X24153285Y-151489580D01*
X24153285Y-151489580D02*
X24153285Y-151156247D01*
X24153285Y-151156247D02*
X23962809Y-151156247D01*
X74755476Y-150457819D02*
X75326904Y-150457819D01*
X75041190Y-151457819D02*
X75041190Y-150457819D01*
X75660238Y-151457819D02*
X75660238Y-150457819D01*
X75660238Y-150934009D02*
X76231666Y-150934009D01*
X76231666Y-151457819D02*
X76231666Y-150457819D01*
X13231905Y-175968819D02*
X13231905Y-174968819D01*
X13231905Y-174968819D02*
X13612857Y-174968819D01*
X13612857Y-174968819D02*
X13708095Y-175016438D01*
X13708095Y-175016438D02*
X13755714Y-175064057D01*
X13755714Y-175064057D02*
X13803333Y-175159295D01*
X13803333Y-175159295D02*
X13803333Y-175302152D01*
X13803333Y-175302152D02*
X13755714Y-175397390D01*
X13755714Y-175397390D02*
X13708095Y-175445009D01*
X13708095Y-175445009D02*
X13612857Y-175492628D01*
X13612857Y-175492628D02*
X13231905Y-175492628D01*
X14184286Y-175064057D02*
X14231905Y-175016438D01*
X14231905Y-175016438D02*
X14327143Y-174968819D01*
X14327143Y-174968819D02*
X14565238Y-174968819D01*
X14565238Y-174968819D02*
X14660476Y-175016438D01*
X14660476Y-175016438D02*
X14708095Y-175064057D01*
X14708095Y-175064057D02*
X14755714Y-175159295D01*
X14755714Y-175159295D02*
X14755714Y-175254533D01*
X14755714Y-175254533D02*
X14708095Y-175397390D01*
X14708095Y-175397390D02*
X14136667Y-175968819D01*
X14136667Y-175968819D02*
X14755714Y-175968819D01*
X13962095Y-166824819D02*
X13962095Y-165824819D01*
X14533523Y-166824819D02*
X14104952Y-166253390D01*
X14533523Y-165824819D02*
X13962095Y-166396247D01*
X13485905Y-169745819D02*
X13485905Y-168745819D01*
X14057333Y-169745819D02*
X13628762Y-169174390D01*
X14057333Y-168745819D02*
X13485905Y-169317247D01*
X14438286Y-169698200D02*
X14581143Y-169745819D01*
X14581143Y-169745819D02*
X14819238Y-169745819D01*
X14819238Y-169745819D02*
X14914476Y-169698200D01*
X14914476Y-169698200D02*
X14962095Y-169650580D01*
X14962095Y-169650580D02*
X15009714Y-169555342D01*
X15009714Y-169555342D02*
X15009714Y-169460104D01*
X15009714Y-169460104D02*
X14962095Y-169364866D01*
X14962095Y-169364866D02*
X14914476Y-169317247D01*
X14914476Y-169317247D02*
X14819238Y-169269628D01*
X14819238Y-169269628D02*
X14628762Y-169222009D01*
X14628762Y-169222009D02*
X14533524Y-169174390D01*
X14533524Y-169174390D02*
X14485905Y-169126771D01*
X14485905Y-169126771D02*
X14438286Y-169031533D01*
X14438286Y-169031533D02*
X14438286Y-168936295D01*
X14438286Y-168936295D02*
X14485905Y-168841057D01*
X14485905Y-168841057D02*
X14533524Y-168793438D01*
X14533524Y-168793438D02*
X14628762Y-168745819D01*
X14628762Y-168745819D02*
X14866857Y-168745819D01*
X14866857Y-168745819D02*
X15009714Y-168793438D01*
X51458905Y-178635819D02*
X51458905Y-177635819D01*
X51458905Y-177635819D02*
X51839857Y-177635819D01*
X51839857Y-177635819D02*
X51935095Y-177683438D01*
X51935095Y-177683438D02*
X51982714Y-177731057D01*
X51982714Y-177731057D02*
X52030333Y-177826295D01*
X52030333Y-177826295D02*
X52030333Y-177969152D01*
X52030333Y-177969152D02*
X51982714Y-178064390D01*
X51982714Y-178064390D02*
X51935095Y-178112009D01*
X51935095Y-178112009D02*
X51839857Y-178159628D01*
X51839857Y-178159628D02*
X51458905Y-178159628D01*
X52982714Y-178635819D02*
X52411286Y-178635819D01*
X52697000Y-178635819D02*
X52697000Y-177635819D01*
X52697000Y-177635819D02*
X52601762Y-177778676D01*
X52601762Y-177778676D02*
X52506524Y-177873914D01*
X52506524Y-177873914D02*
X52411286Y-177921533D01*
X50809524Y-187271009D02*
X51142857Y-187271009D01*
X51285714Y-187794819D02*
X50809524Y-187794819D01*
X50809524Y-187794819D02*
X50809524Y-186794819D01*
X50809524Y-186794819D02*
X51285714Y-186794819D01*
X51666667Y-187747200D02*
X51809524Y-187794819D01*
X51809524Y-187794819D02*
X52047619Y-187794819D01*
X52047619Y-187794819D02*
X52142857Y-187747200D01*
X52142857Y-187747200D02*
X52190476Y-187699580D01*
X52190476Y-187699580D02*
X52238095Y-187604342D01*
X52238095Y-187604342D02*
X52238095Y-187509104D01*
X52238095Y-187509104D02*
X52190476Y-187413866D01*
X52190476Y-187413866D02*
X52142857Y-187366247D01*
X52142857Y-187366247D02*
X52047619Y-187318628D01*
X52047619Y-187318628D02*
X51857143Y-187271009D01*
X51857143Y-187271009D02*
X51761905Y-187223390D01*
X51761905Y-187223390D02*
X51714286Y-187175771D01*
X51714286Y-187175771D02*
X51666667Y-187080533D01*
X51666667Y-187080533D02*
X51666667Y-186985295D01*
X51666667Y-186985295D02*
X51714286Y-186890057D01*
X51714286Y-186890057D02*
X51761905Y-186842438D01*
X51761905Y-186842438D02*
X51857143Y-186794819D01*
X51857143Y-186794819D02*
X52095238Y-186794819D01*
X52095238Y-186794819D02*
X52238095Y-186842438D01*
X53238095Y-187699580D02*
X53190476Y-187747200D01*
X53190476Y-187747200D02*
X53047619Y-187794819D01*
X53047619Y-187794819D02*
X52952381Y-187794819D01*
X52952381Y-187794819D02*
X52809524Y-187747200D01*
X52809524Y-187747200D02*
X52714286Y-187651961D01*
X52714286Y-187651961D02*
X52666667Y-187556723D01*
X52666667Y-187556723D02*
X52619048Y-187366247D01*
X52619048Y-187366247D02*
X52619048Y-187223390D01*
X52619048Y-187223390D02*
X52666667Y-187032914D01*
X52666667Y-187032914D02*
X52714286Y-186937676D01*
X52714286Y-186937676D02*
X52809524Y-186842438D01*
X52809524Y-186842438D02*
X52952381Y-186794819D01*
X52952381Y-186794819D02*
X53047619Y-186794819D01*
X53047619Y-186794819D02*
X53190476Y-186842438D01*
X53190476Y-186842438D02*
X53238095Y-186890057D01*
X80692810Y-168235903D02*
X81311857Y-168235903D01*
X81311857Y-168235903D02*
X80978524Y-168616855D01*
X80978524Y-168616855D02*
X81121381Y-168616855D01*
X81121381Y-168616855D02*
X81216619Y-168664474D01*
X81216619Y-168664474D02*
X81264238Y-168712093D01*
X81264238Y-168712093D02*
X81311857Y-168807331D01*
X81311857Y-168807331D02*
X81311857Y-169045426D01*
X81311857Y-169045426D02*
X81264238Y-169140664D01*
X81264238Y-169140664D02*
X81216619Y-169188284D01*
X81216619Y-169188284D02*
X81121381Y-169235903D01*
X81121381Y-169235903D02*
X80835667Y-169235903D01*
X80835667Y-169235903D02*
X80740429Y-169188284D01*
X80740429Y-169188284D02*
X80692810Y-169140664D01*
X81740429Y-169140664D02*
X81788048Y-169188284D01*
X81788048Y-169188284D02*
X81740429Y-169235903D01*
X81740429Y-169235903D02*
X81692810Y-169188284D01*
X81692810Y-169188284D02*
X81740429Y-169140664D01*
X81740429Y-169140664D02*
X81740429Y-169235903D01*
X82121381Y-168235903D02*
X82740428Y-168235903D01*
X82740428Y-168235903D02*
X82407095Y-168616855D01*
X82407095Y-168616855D02*
X82549952Y-168616855D01*
X82549952Y-168616855D02*
X82645190Y-168664474D01*
X82645190Y-168664474D02*
X82692809Y-168712093D01*
X82692809Y-168712093D02*
X82740428Y-168807331D01*
X82740428Y-168807331D02*
X82740428Y-169045426D01*
X82740428Y-169045426D02*
X82692809Y-169140664D01*
X82692809Y-169140664D02*
X82645190Y-169188284D01*
X82645190Y-169188284D02*
X82549952Y-169235903D01*
X82549952Y-169235903D02*
X82264238Y-169235903D01*
X82264238Y-169235903D02*
X82169000Y-169188284D01*
X82169000Y-169188284D02*
X82121381Y-169140664D01*
X83026143Y-168235903D02*
X83359476Y-169235903D01*
X83359476Y-169235903D02*
X83692809Y-168235903D01*
X81407095Y-169845847D02*
X81978523Y-169845847D01*
X81692809Y-170845847D02*
X81692809Y-169845847D01*
X82216619Y-169845847D02*
X82883285Y-170845847D01*
X82883285Y-169845847D02*
X82216619Y-170845847D01*
X82002333Y-172455791D02*
X81669000Y-171979600D01*
X81430905Y-172455791D02*
X81430905Y-171455791D01*
X81430905Y-171455791D02*
X81811857Y-171455791D01*
X81811857Y-171455791D02*
X81907095Y-171503410D01*
X81907095Y-171503410D02*
X81954714Y-171551029D01*
X81954714Y-171551029D02*
X82002333Y-171646267D01*
X82002333Y-171646267D02*
X82002333Y-171789124D01*
X82002333Y-171789124D02*
X81954714Y-171884362D01*
X81954714Y-171884362D02*
X81907095Y-171931981D01*
X81907095Y-171931981D02*
X81811857Y-171979600D01*
X81811857Y-171979600D02*
X81430905Y-171979600D01*
X82335667Y-171455791D02*
X83002333Y-172455791D01*
X83002333Y-171455791D02*
X82335667Y-172455791D01*
X81407095Y-173113354D02*
X81311857Y-173065735D01*
X81311857Y-173065735D02*
X81169000Y-173065735D01*
X81169000Y-173065735D02*
X81026143Y-173113354D01*
X81026143Y-173113354D02*
X80930905Y-173208592D01*
X80930905Y-173208592D02*
X80883286Y-173303830D01*
X80883286Y-173303830D02*
X80835667Y-173494306D01*
X80835667Y-173494306D02*
X80835667Y-173637163D01*
X80835667Y-173637163D02*
X80883286Y-173827639D01*
X80883286Y-173827639D02*
X80930905Y-173922877D01*
X80930905Y-173922877D02*
X81026143Y-174018116D01*
X81026143Y-174018116D02*
X81169000Y-174065735D01*
X81169000Y-174065735D02*
X81264238Y-174065735D01*
X81264238Y-174065735D02*
X81407095Y-174018116D01*
X81407095Y-174018116D02*
X81454714Y-173970496D01*
X81454714Y-173970496D02*
X81454714Y-173637163D01*
X81454714Y-173637163D02*
X81264238Y-173637163D01*
X81883286Y-174065735D02*
X81883286Y-173065735D01*
X81883286Y-173065735D02*
X82454714Y-174065735D01*
X82454714Y-174065735D02*
X82454714Y-173065735D01*
X82930905Y-174065735D02*
X82930905Y-173065735D01*
X82930905Y-173065735D02*
X83169000Y-173065735D01*
X83169000Y-173065735D02*
X83311857Y-173113354D01*
X83311857Y-173113354D02*
X83407095Y-173208592D01*
X83407095Y-173208592D02*
X83454714Y-173303830D01*
X83454714Y-173303830D02*
X83502333Y-173494306D01*
X83502333Y-173494306D02*
X83502333Y-173637163D01*
X83502333Y-173637163D02*
X83454714Y-173827639D01*
X83454714Y-173827639D02*
X83407095Y-173922877D01*
X83407095Y-173922877D02*
X83311857Y-174018116D01*
X83311857Y-174018116D02*
X83169000Y-174065735D01*
X83169000Y-174065735D02*
X82930905Y-174065735D01*
X53871905Y-178635819D02*
X53871905Y-177635819D01*
X53871905Y-177635819D02*
X54252857Y-177635819D01*
X54252857Y-177635819D02*
X54348095Y-177683438D01*
X54348095Y-177683438D02*
X54395714Y-177731057D01*
X54395714Y-177731057D02*
X54443333Y-177826295D01*
X54443333Y-177826295D02*
X54443333Y-177969152D01*
X54443333Y-177969152D02*
X54395714Y-178064390D01*
X54395714Y-178064390D02*
X54348095Y-178112009D01*
X54348095Y-178112009D02*
X54252857Y-178159628D01*
X54252857Y-178159628D02*
X53871905Y-178159628D01*
X54824286Y-177731057D02*
X54871905Y-177683438D01*
X54871905Y-177683438D02*
X54967143Y-177635819D01*
X54967143Y-177635819D02*
X55205238Y-177635819D01*
X55205238Y-177635819D02*
X55300476Y-177683438D01*
X55300476Y-177683438D02*
X55348095Y-177731057D01*
X55348095Y-177731057D02*
X55395714Y-177826295D01*
X55395714Y-177826295D02*
X55395714Y-177921533D01*
X55395714Y-177921533D02*
X55348095Y-178064390D01*
X55348095Y-178064390D02*
X54776667Y-178635819D01*
X54776667Y-178635819D02*
X55395714Y-178635819D01*
X54131905Y-197594819D02*
X54131905Y-196594819D01*
X54131905Y-196594819D02*
X54512857Y-196594819D01*
X54512857Y-196594819D02*
X54608095Y-196642438D01*
X54608095Y-196642438D02*
X54655714Y-196690057D01*
X54655714Y-196690057D02*
X54703333Y-196785295D01*
X54703333Y-196785295D02*
X54703333Y-196928152D01*
X54703333Y-196928152D02*
X54655714Y-197023390D01*
X54655714Y-197023390D02*
X54608095Y-197071009D01*
X54608095Y-197071009D02*
X54512857Y-197118628D01*
X54512857Y-197118628D02*
X54131905Y-197118628D01*
X55084286Y-196690057D02*
X55131905Y-196642438D01*
X55131905Y-196642438D02*
X55227143Y-196594819D01*
X55227143Y-196594819D02*
X55465238Y-196594819D01*
X55465238Y-196594819D02*
X55560476Y-196642438D01*
X55560476Y-196642438D02*
X55608095Y-196690057D01*
X55608095Y-196690057D02*
X55655714Y-196785295D01*
X55655714Y-196785295D02*
X55655714Y-196880533D01*
X55655714Y-196880533D02*
X55608095Y-197023390D01*
X55608095Y-197023390D02*
X55036667Y-197594819D01*
X55036667Y-197594819D02*
X55655714Y-197594819D01*
X32099476Y-152870819D02*
X32670904Y-152870819D01*
X32385190Y-153870819D02*
X32385190Y-152870819D01*
X33004238Y-153347009D02*
X33337571Y-153347009D01*
X33480428Y-153870819D02*
X33004238Y-153870819D01*
X33004238Y-153870819D02*
X33004238Y-152870819D01*
X33004238Y-152870819D02*
X33480428Y-152870819D01*
X33909000Y-153870819D02*
X33909000Y-152870819D01*
X33909000Y-152870819D02*
X34242333Y-153585104D01*
X34242333Y-153585104D02*
X34575666Y-152870819D01*
X34575666Y-152870819D02*
X34575666Y-153870819D01*
X35051857Y-153870819D02*
X35051857Y-152870819D01*
X35051857Y-152870819D02*
X35432809Y-152870819D01*
X35432809Y-152870819D02*
X35528047Y-152918438D01*
X35528047Y-152918438D02*
X35575666Y-152966057D01*
X35575666Y-152966057D02*
X35623285Y-153061295D01*
X35623285Y-153061295D02*
X35623285Y-153204152D01*
X35623285Y-153204152D02*
X35575666Y-153299390D01*
X35575666Y-153299390D02*
X35528047Y-153347009D01*
X35528047Y-153347009D02*
X35432809Y-153394628D01*
X35432809Y-153394628D02*
X35051857Y-153394628D01*
X56324286Y-190337200D02*
X56467143Y-190384819D01*
X56467143Y-190384819D02*
X56705238Y-190384819D01*
X56705238Y-190384819D02*
X56800476Y-190337200D01*
X56800476Y-190337200D02*
X56848095Y-190289580D01*
X56848095Y-190289580D02*
X56895714Y-190194342D01*
X56895714Y-190194342D02*
X56895714Y-190099104D01*
X56895714Y-190099104D02*
X56848095Y-190003866D01*
X56848095Y-190003866D02*
X56800476Y-189956247D01*
X56800476Y-189956247D02*
X56705238Y-189908628D01*
X56705238Y-189908628D02*
X56514762Y-189861009D01*
X56514762Y-189861009D02*
X56419524Y-189813390D01*
X56419524Y-189813390D02*
X56371905Y-189765771D01*
X56371905Y-189765771D02*
X56324286Y-189670533D01*
X56324286Y-189670533D02*
X56324286Y-189575295D01*
X56324286Y-189575295D02*
X56371905Y-189480057D01*
X56371905Y-189480057D02*
X56419524Y-189432438D01*
X56419524Y-189432438D02*
X56514762Y-189384819D01*
X56514762Y-189384819D02*
X56752857Y-189384819D01*
X56752857Y-189384819D02*
X56895714Y-189432438D01*
X80526095Y-150457819D02*
X81097523Y-150457819D01*
X80811809Y-151457819D02*
X80811809Y-150457819D01*
X81907047Y-151457819D02*
X81430857Y-151457819D01*
X81430857Y-151457819D02*
X81430857Y-150457819D01*
X82240381Y-151457819D02*
X82240381Y-150457819D01*
X82240381Y-150457819D02*
X82573714Y-151172104D01*
X82573714Y-151172104D02*
X82907047Y-150457819D01*
X82907047Y-150457819D02*
X82907047Y-151457819D01*
X74294951Y-155501133D02*
X73533047Y-155501133D01*
X73913999Y-155120180D02*
X73913999Y-155882085D01*
X48863333Y-178588200D02*
X49006190Y-178635819D01*
X49006190Y-178635819D02*
X49244285Y-178635819D01*
X49244285Y-178635819D02*
X49339523Y-178588200D01*
X49339523Y-178588200D02*
X49387142Y-178540580D01*
X49387142Y-178540580D02*
X49434761Y-178445342D01*
X49434761Y-178445342D02*
X49434761Y-178350104D01*
X49434761Y-178350104D02*
X49387142Y-178254866D01*
X49387142Y-178254866D02*
X49339523Y-178207247D01*
X49339523Y-178207247D02*
X49244285Y-178159628D01*
X49244285Y-178159628D02*
X49053809Y-178112009D01*
X49053809Y-178112009D02*
X48958571Y-178064390D01*
X48958571Y-178064390D02*
X48910952Y-178016771D01*
X48910952Y-178016771D02*
X48863333Y-177921533D01*
X48863333Y-177921533D02*
X48863333Y-177826295D01*
X48863333Y-177826295D02*
X48910952Y-177731057D01*
X48910952Y-177731057D02*
X48958571Y-177683438D01*
X48958571Y-177683438D02*
X49053809Y-177635819D01*
X49053809Y-177635819D02*
X49291904Y-177635819D01*
X49291904Y-177635819D02*
X49434761Y-177683438D01*
X49720476Y-177635819D02*
X50291904Y-177635819D01*
X50006190Y-178635819D02*
X50006190Y-177635819D01*
X13358905Y-188160819D02*
X13358905Y-187160819D01*
X13358905Y-187160819D02*
X13739857Y-187160819D01*
X13739857Y-187160819D02*
X13835095Y-187208438D01*
X13835095Y-187208438D02*
X13882714Y-187256057D01*
X13882714Y-187256057D02*
X13930333Y-187351295D01*
X13930333Y-187351295D02*
X13930333Y-187494152D01*
X13930333Y-187494152D02*
X13882714Y-187589390D01*
X13882714Y-187589390D02*
X13835095Y-187637009D01*
X13835095Y-187637009D02*
X13739857Y-187684628D01*
X13739857Y-187684628D02*
X13358905Y-187684628D01*
X14882714Y-188160819D02*
X14311286Y-188160819D01*
X14597000Y-188160819D02*
X14597000Y-187160819D01*
X14597000Y-187160819D02*
X14501762Y-187303676D01*
X14501762Y-187303676D02*
X14406524Y-187398914D01*
X14406524Y-187398914D02*
X14311286Y-187446533D01*
X50883334Y-180339366D02*
X50983334Y-180372700D01*
X50983334Y-180372700D02*
X51016667Y-180406033D01*
X51016667Y-180406033D02*
X51050000Y-180472700D01*
X51050000Y-180472700D02*
X51050000Y-180572700D01*
X51050000Y-180572700D02*
X51016667Y-180639366D01*
X51016667Y-180639366D02*
X50983334Y-180672700D01*
X50983334Y-180672700D02*
X50916667Y-180706033D01*
X50916667Y-180706033D02*
X50650000Y-180706033D01*
X50650000Y-180706033D02*
X50650000Y-180006033D01*
X50650000Y-180006033D02*
X50883334Y-180006033D01*
X50883334Y-180006033D02*
X50950000Y-180039366D01*
X50950000Y-180039366D02*
X50983334Y-180072700D01*
X50983334Y-180072700D02*
X51016667Y-180139366D01*
X51016667Y-180139366D02*
X51016667Y-180206033D01*
X51016667Y-180206033D02*
X50983334Y-180272700D01*
X50983334Y-180272700D02*
X50950000Y-180306033D01*
X50950000Y-180306033D02*
X50883334Y-180339366D01*
X50883334Y-180339366D02*
X50650000Y-180339366D01*
X51483334Y-180006033D02*
X51616667Y-180006033D01*
X51616667Y-180006033D02*
X51683334Y-180039366D01*
X51683334Y-180039366D02*
X51750000Y-180106033D01*
X51750000Y-180106033D02*
X51783334Y-180239366D01*
X51783334Y-180239366D02*
X51783334Y-180472700D01*
X51783334Y-180472700D02*
X51750000Y-180606033D01*
X51750000Y-180606033D02*
X51683334Y-180672700D01*
X51683334Y-180672700D02*
X51616667Y-180706033D01*
X51616667Y-180706033D02*
X51483334Y-180706033D01*
X51483334Y-180706033D02*
X51416667Y-180672700D01*
X51416667Y-180672700D02*
X51350000Y-180606033D01*
X51350000Y-180606033D02*
X51316667Y-180472700D01*
X51316667Y-180472700D02*
X51316667Y-180239366D01*
X51316667Y-180239366D02*
X51350000Y-180106033D01*
X51350000Y-180106033D02*
X51416667Y-180039366D01*
X51416667Y-180039366D02*
X51483334Y-180006033D01*
X52216667Y-180006033D02*
X52350000Y-180006033D01*
X52350000Y-180006033D02*
X52416667Y-180039366D01*
X52416667Y-180039366D02*
X52483333Y-180106033D01*
X52483333Y-180106033D02*
X52516667Y-180239366D01*
X52516667Y-180239366D02*
X52516667Y-180472700D01*
X52516667Y-180472700D02*
X52483333Y-180606033D01*
X52483333Y-180606033D02*
X52416667Y-180672700D01*
X52416667Y-180672700D02*
X52350000Y-180706033D01*
X52350000Y-180706033D02*
X52216667Y-180706033D01*
X52216667Y-180706033D02*
X52150000Y-180672700D01*
X52150000Y-180672700D02*
X52083333Y-180606033D01*
X52083333Y-180606033D02*
X52050000Y-180472700D01*
X52050000Y-180472700D02*
X52050000Y-180239366D01*
X52050000Y-180239366D02*
X52083333Y-180106033D01*
X52083333Y-180106033D02*
X52150000Y-180039366D01*
X52150000Y-180039366D02*
X52216667Y-180006033D01*
X52716666Y-180006033D02*
X53116666Y-180006033D01*
X52916666Y-180706033D02*
X52916666Y-180006033D01*
X53683333Y-180706033D02*
X53349999Y-180706033D01*
X53349999Y-180706033D02*
X53349999Y-180006033D01*
X54050000Y-180006033D02*
X54183333Y-180006033D01*
X54183333Y-180006033D02*
X54250000Y-180039366D01*
X54250000Y-180039366D02*
X54316666Y-180106033D01*
X54316666Y-180106033D02*
X54350000Y-180239366D01*
X54350000Y-180239366D02*
X54350000Y-180472700D01*
X54350000Y-180472700D02*
X54316666Y-180606033D01*
X54316666Y-180606033D02*
X54250000Y-180672700D01*
X54250000Y-180672700D02*
X54183333Y-180706033D01*
X54183333Y-180706033D02*
X54050000Y-180706033D01*
X54050000Y-180706033D02*
X53983333Y-180672700D01*
X53983333Y-180672700D02*
X53916666Y-180606033D01*
X53916666Y-180606033D02*
X53883333Y-180472700D01*
X53883333Y-180472700D02*
X53883333Y-180239366D01*
X53883333Y-180239366D02*
X53916666Y-180106033D01*
X53916666Y-180106033D02*
X53983333Y-180039366D01*
X53983333Y-180039366D02*
X54050000Y-180006033D01*
X54616666Y-180506033D02*
X54949999Y-180506033D01*
X54549999Y-180706033D02*
X54783333Y-180006033D01*
X54783333Y-180006033D02*
X55016666Y-180706033D01*
X55249999Y-180706033D02*
X55249999Y-180006033D01*
X55249999Y-180006033D02*
X55416666Y-180006033D01*
X55416666Y-180006033D02*
X55516666Y-180039366D01*
X55516666Y-180039366D02*
X55583333Y-180106033D01*
X55583333Y-180106033D02*
X55616666Y-180172700D01*
X55616666Y-180172700D02*
X55649999Y-180306033D01*
X55649999Y-180306033D02*
X55649999Y-180406033D01*
X55649999Y-180406033D02*
X55616666Y-180539366D01*
X55616666Y-180539366D02*
X55583333Y-180606033D01*
X55583333Y-180606033D02*
X55516666Y-180672700D01*
X55516666Y-180672700D02*
X55416666Y-180706033D01*
X55416666Y-180706033D02*
X55249999Y-180706033D01*
X55949999Y-180339366D02*
X56183333Y-180339366D01*
X56283333Y-180706033D02*
X55949999Y-180706033D01*
X55949999Y-180706033D02*
X55949999Y-180006033D01*
X55949999Y-180006033D02*
X56283333Y-180006033D01*
X56983332Y-180706033D02*
X56749999Y-180372700D01*
X56583332Y-180706033D02*
X56583332Y-180006033D01*
X56583332Y-180006033D02*
X56849999Y-180006033D01*
X56849999Y-180006033D02*
X56916666Y-180039366D01*
X56916666Y-180039366D02*
X56949999Y-180072700D01*
X56949999Y-180072700D02*
X56983332Y-180139366D01*
X56983332Y-180139366D02*
X56983332Y-180239366D01*
X56983332Y-180239366D02*
X56949999Y-180306033D01*
X56949999Y-180306033D02*
X56916666Y-180339366D01*
X56916666Y-180339366D02*
X56849999Y-180372700D01*
X56849999Y-180372700D02*
X56583332Y-180372700D01*
X56399048Y-195103866D02*
X57160953Y-195103866D01*
X56578523Y-158077819D02*
X56102333Y-158077819D01*
X56102333Y-158077819D02*
X56054714Y-158554009D01*
X56054714Y-158554009D02*
X56102333Y-158506390D01*
X56102333Y-158506390D02*
X56197571Y-158458771D01*
X56197571Y-158458771D02*
X56435666Y-158458771D01*
X56435666Y-158458771D02*
X56530904Y-158506390D01*
X56530904Y-158506390D02*
X56578523Y-158554009D01*
X56578523Y-158554009D02*
X56626142Y-158649247D01*
X56626142Y-158649247D02*
X56626142Y-158887342D01*
X56626142Y-158887342D02*
X56578523Y-158982580D01*
X56578523Y-158982580D02*
X56530904Y-159030200D01*
X56530904Y-159030200D02*
X56435666Y-159077819D01*
X56435666Y-159077819D02*
X56197571Y-159077819D01*
X56197571Y-159077819D02*
X56102333Y-159030200D01*
X56102333Y-159030200D02*
X56054714Y-158982580D01*
X56911857Y-158077819D02*
X57245190Y-159077819D01*
X57245190Y-159077819D02*
X57578523Y-158077819D01*
X80565810Y-160116931D02*
X81184857Y-160116931D01*
X81184857Y-160116931D02*
X80851524Y-160497883D01*
X80851524Y-160497883D02*
X80994381Y-160497883D01*
X80994381Y-160497883D02*
X81089619Y-160545502D01*
X81089619Y-160545502D02*
X81137238Y-160593121D01*
X81137238Y-160593121D02*
X81184857Y-160688359D01*
X81184857Y-160688359D02*
X81184857Y-160926454D01*
X81184857Y-160926454D02*
X81137238Y-161021692D01*
X81137238Y-161021692D02*
X81089619Y-161069312D01*
X81089619Y-161069312D02*
X80994381Y-161116931D01*
X80994381Y-161116931D02*
X80708667Y-161116931D01*
X80708667Y-161116931D02*
X80613429Y-161069312D01*
X80613429Y-161069312D02*
X80565810Y-161021692D01*
X81613429Y-161021692D02*
X81661048Y-161069312D01*
X81661048Y-161069312D02*
X81613429Y-161116931D01*
X81613429Y-161116931D02*
X81565810Y-161069312D01*
X81565810Y-161069312D02*
X81613429Y-161021692D01*
X81613429Y-161021692D02*
X81613429Y-161116931D01*
X81994381Y-160116931D02*
X82613428Y-160116931D01*
X82613428Y-160116931D02*
X82280095Y-160497883D01*
X82280095Y-160497883D02*
X82422952Y-160497883D01*
X82422952Y-160497883D02*
X82518190Y-160545502D01*
X82518190Y-160545502D02*
X82565809Y-160593121D01*
X82565809Y-160593121D02*
X82613428Y-160688359D01*
X82613428Y-160688359D02*
X82613428Y-160926454D01*
X82613428Y-160926454D02*
X82565809Y-161021692D01*
X82565809Y-161021692D02*
X82518190Y-161069312D01*
X82518190Y-161069312D02*
X82422952Y-161116931D01*
X82422952Y-161116931D02*
X82137238Y-161116931D01*
X82137238Y-161116931D02*
X82042000Y-161069312D01*
X82042000Y-161069312D02*
X81994381Y-161021692D01*
X82899143Y-160116931D02*
X83232476Y-161116931D01*
X83232476Y-161116931D02*
X83565809Y-160116931D01*
X80494381Y-161726875D02*
X80684857Y-161726875D01*
X80684857Y-161726875D02*
X80780095Y-161774494D01*
X80780095Y-161774494D02*
X80875333Y-161869732D01*
X80875333Y-161869732D02*
X80922952Y-162060208D01*
X80922952Y-162060208D02*
X80922952Y-162393541D01*
X80922952Y-162393541D02*
X80875333Y-162584017D01*
X80875333Y-162584017D02*
X80780095Y-162679256D01*
X80780095Y-162679256D02*
X80684857Y-162726875D01*
X80684857Y-162726875D02*
X80494381Y-162726875D01*
X80494381Y-162726875D02*
X80399143Y-162679256D01*
X80399143Y-162679256D02*
X80303905Y-162584017D01*
X80303905Y-162584017D02*
X80256286Y-162393541D01*
X80256286Y-162393541D02*
X80256286Y-162060208D01*
X80256286Y-162060208D02*
X80303905Y-161869732D01*
X80303905Y-161869732D02*
X80399143Y-161774494D01*
X80399143Y-161774494D02*
X80494381Y-161726875D01*
X81351524Y-162060208D02*
X81351524Y-162726875D01*
X81351524Y-162155446D02*
X81399143Y-162107827D01*
X81399143Y-162107827D02*
X81494381Y-162060208D01*
X81494381Y-162060208D02*
X81637238Y-162060208D01*
X81637238Y-162060208D02*
X81732476Y-162107827D01*
X81732476Y-162107827D02*
X81780095Y-162203065D01*
X81780095Y-162203065D02*
X81780095Y-162726875D01*
X82637238Y-162679256D02*
X82542000Y-162726875D01*
X82542000Y-162726875D02*
X82351524Y-162726875D01*
X82351524Y-162726875D02*
X82256286Y-162679256D01*
X82256286Y-162679256D02*
X82208667Y-162584017D01*
X82208667Y-162584017D02*
X82208667Y-162203065D01*
X82208667Y-162203065D02*
X82256286Y-162107827D01*
X82256286Y-162107827D02*
X82351524Y-162060208D01*
X82351524Y-162060208D02*
X82542000Y-162060208D01*
X82542000Y-162060208D02*
X82637238Y-162107827D01*
X82637238Y-162107827D02*
X82684857Y-162203065D01*
X82684857Y-162203065D02*
X82684857Y-162298303D01*
X82684857Y-162298303D02*
X82208667Y-162393541D01*
X83018191Y-161726875D02*
X83256286Y-162726875D01*
X83256286Y-162726875D02*
X83446762Y-162012589D01*
X83446762Y-162012589D02*
X83637238Y-162726875D01*
X83637238Y-162726875D02*
X83875334Y-161726875D01*
X80851524Y-164289200D02*
X80994381Y-164336819D01*
X80994381Y-164336819D02*
X81232476Y-164336819D01*
X81232476Y-164336819D02*
X81327714Y-164289200D01*
X81327714Y-164289200D02*
X81375333Y-164241580D01*
X81375333Y-164241580D02*
X81422952Y-164146342D01*
X81422952Y-164146342D02*
X81422952Y-164051104D01*
X81422952Y-164051104D02*
X81375333Y-163955866D01*
X81375333Y-163955866D02*
X81327714Y-163908247D01*
X81327714Y-163908247D02*
X81232476Y-163860628D01*
X81232476Y-163860628D02*
X81042000Y-163813009D01*
X81042000Y-163813009D02*
X80946762Y-163765390D01*
X80946762Y-163765390D02*
X80899143Y-163717771D01*
X80899143Y-163717771D02*
X80851524Y-163622533D01*
X80851524Y-163622533D02*
X80851524Y-163527295D01*
X80851524Y-163527295D02*
X80899143Y-163432057D01*
X80899143Y-163432057D02*
X80946762Y-163384438D01*
X80946762Y-163384438D02*
X81042000Y-163336819D01*
X81042000Y-163336819D02*
X81280095Y-163336819D01*
X81280095Y-163336819D02*
X81422952Y-163384438D01*
X82422952Y-164241580D02*
X82375333Y-164289200D01*
X82375333Y-164289200D02*
X82232476Y-164336819D01*
X82232476Y-164336819D02*
X82137238Y-164336819D01*
X82137238Y-164336819D02*
X81994381Y-164289200D01*
X81994381Y-164289200D02*
X81899143Y-164193961D01*
X81899143Y-164193961D02*
X81851524Y-164098723D01*
X81851524Y-164098723D02*
X81803905Y-163908247D01*
X81803905Y-163908247D02*
X81803905Y-163765390D01*
X81803905Y-163765390D02*
X81851524Y-163574914D01*
X81851524Y-163574914D02*
X81899143Y-163479676D01*
X81899143Y-163479676D02*
X81994381Y-163384438D01*
X81994381Y-163384438D02*
X82137238Y-163336819D01*
X82137238Y-163336819D02*
X82232476Y-163336819D01*
X82232476Y-163336819D02*
X82375333Y-163384438D01*
X82375333Y-163384438D02*
X82422952Y-163432057D01*
X83327714Y-164336819D02*
X82851524Y-164336819D01*
X82851524Y-164336819D02*
X82851524Y-163336819D01*
X80827714Y-165899144D02*
X80970571Y-165946763D01*
X80970571Y-165946763D02*
X81208666Y-165946763D01*
X81208666Y-165946763D02*
X81303904Y-165899144D01*
X81303904Y-165899144D02*
X81351523Y-165851524D01*
X81351523Y-165851524D02*
X81399142Y-165756286D01*
X81399142Y-165756286D02*
X81399142Y-165661048D01*
X81399142Y-165661048D02*
X81351523Y-165565810D01*
X81351523Y-165565810D02*
X81303904Y-165518191D01*
X81303904Y-165518191D02*
X81208666Y-165470572D01*
X81208666Y-165470572D02*
X81018190Y-165422953D01*
X81018190Y-165422953D02*
X80922952Y-165375334D01*
X80922952Y-165375334D02*
X80875333Y-165327715D01*
X80875333Y-165327715D02*
X80827714Y-165232477D01*
X80827714Y-165232477D02*
X80827714Y-165137239D01*
X80827714Y-165137239D02*
X80875333Y-165042001D01*
X80875333Y-165042001D02*
X80922952Y-164994382D01*
X80922952Y-164994382D02*
X81018190Y-164946763D01*
X81018190Y-164946763D02*
X81256285Y-164946763D01*
X81256285Y-164946763D02*
X81399142Y-164994382D01*
X81827714Y-165946763D02*
X81827714Y-164946763D01*
X81827714Y-164946763D02*
X82065809Y-164946763D01*
X82065809Y-164946763D02*
X82208666Y-164994382D01*
X82208666Y-164994382D02*
X82303904Y-165089620D01*
X82303904Y-165089620D02*
X82351523Y-165184858D01*
X82351523Y-165184858D02*
X82399142Y-165375334D01*
X82399142Y-165375334D02*
X82399142Y-165518191D01*
X82399142Y-165518191D02*
X82351523Y-165708667D01*
X82351523Y-165708667D02*
X82303904Y-165803905D01*
X82303904Y-165803905D02*
X82208666Y-165899144D01*
X82208666Y-165899144D02*
X82065809Y-165946763D01*
X82065809Y-165946763D02*
X81827714Y-165946763D01*
X82780095Y-165661048D02*
X83256285Y-165661048D01*
X82684857Y-165946763D02*
X83018190Y-164946763D01*
X83018190Y-164946763D02*
X83351523Y-165946763D01*
X81280095Y-166604326D02*
X81184857Y-166556707D01*
X81184857Y-166556707D02*
X81042000Y-166556707D01*
X81042000Y-166556707D02*
X80899143Y-166604326D01*
X80899143Y-166604326D02*
X80803905Y-166699564D01*
X80803905Y-166699564D02*
X80756286Y-166794802D01*
X80756286Y-166794802D02*
X80708667Y-166985278D01*
X80708667Y-166985278D02*
X80708667Y-167128135D01*
X80708667Y-167128135D02*
X80756286Y-167318611D01*
X80756286Y-167318611D02*
X80803905Y-167413849D01*
X80803905Y-167413849D02*
X80899143Y-167509088D01*
X80899143Y-167509088D02*
X81042000Y-167556707D01*
X81042000Y-167556707D02*
X81137238Y-167556707D01*
X81137238Y-167556707D02*
X81280095Y-167509088D01*
X81280095Y-167509088D02*
X81327714Y-167461468D01*
X81327714Y-167461468D02*
X81327714Y-167128135D01*
X81327714Y-167128135D02*
X81137238Y-167128135D01*
X81756286Y-167556707D02*
X81756286Y-166556707D01*
X81756286Y-166556707D02*
X82327714Y-167556707D01*
X82327714Y-167556707D02*
X82327714Y-166556707D01*
X82803905Y-167556707D02*
X82803905Y-166556707D01*
X82803905Y-166556707D02*
X83042000Y-166556707D01*
X83042000Y-166556707D02*
X83184857Y-166604326D01*
X83184857Y-166604326D02*
X83280095Y-166699564D01*
X83280095Y-166699564D02*
X83327714Y-166794802D01*
X83327714Y-166794802D02*
X83375333Y-166985278D01*
X83375333Y-166985278D02*
X83375333Y-167128135D01*
X83375333Y-167128135D02*
X83327714Y-167318611D01*
X83327714Y-167318611D02*
X83280095Y-167413849D01*
X83280095Y-167413849D02*
X83184857Y-167509088D01*
X83184857Y-167509088D02*
X83042000Y-167556707D01*
X83042000Y-167556707D02*
X82803905Y-167556707D01*
X13827142Y-193304438D02*
X13731904Y-193256819D01*
X13731904Y-193256819D02*
X13589047Y-193256819D01*
X13589047Y-193256819D02*
X13446190Y-193304438D01*
X13446190Y-193304438D02*
X13350952Y-193399676D01*
X13350952Y-193399676D02*
X13303333Y-193494914D01*
X13303333Y-193494914D02*
X13255714Y-193685390D01*
X13255714Y-193685390D02*
X13255714Y-193828247D01*
X13255714Y-193828247D02*
X13303333Y-194018723D01*
X13303333Y-194018723D02*
X13350952Y-194113961D01*
X13350952Y-194113961D02*
X13446190Y-194209200D01*
X13446190Y-194209200D02*
X13589047Y-194256819D01*
X13589047Y-194256819D02*
X13684285Y-194256819D01*
X13684285Y-194256819D02*
X13827142Y-194209200D01*
X13827142Y-194209200D02*
X13874761Y-194161580D01*
X13874761Y-194161580D02*
X13874761Y-193828247D01*
X13874761Y-193828247D02*
X13684285Y-193828247D01*
X14779523Y-194256819D02*
X14303333Y-194256819D01*
X14303333Y-194256819D02*
X14303333Y-193256819D01*
X51471905Y-197574819D02*
X51471905Y-196574819D01*
X51471905Y-196574819D02*
X51852857Y-196574819D01*
X51852857Y-196574819D02*
X51948095Y-196622438D01*
X51948095Y-196622438D02*
X51995714Y-196670057D01*
X51995714Y-196670057D02*
X52043333Y-196765295D01*
X52043333Y-196765295D02*
X52043333Y-196908152D01*
X52043333Y-196908152D02*
X51995714Y-197003390D01*
X51995714Y-197003390D02*
X51948095Y-197051009D01*
X51948095Y-197051009D02*
X51852857Y-197098628D01*
X51852857Y-197098628D02*
X51471905Y-197098628D01*
X52995714Y-197574819D02*
X52424286Y-197574819D01*
X52710000Y-197574819D02*
X52710000Y-196574819D01*
X52710000Y-196574819D02*
X52614762Y-196717676D01*
X52614762Y-196717676D02*
X52519524Y-196812914D01*
X52519524Y-196812914D02*
X52424286Y-196860533D01*
X27059048Y-151584819D02*
X27059048Y-150584819D01*
X27630476Y-151584819D02*
X27201905Y-151013390D01*
X27630476Y-150584819D02*
X27059048Y-151156247D01*
X28059048Y-151203866D02*
X28820953Y-151203866D01*
X51188095Y-184462438D02*
X51092857Y-184414819D01*
X51092857Y-184414819D02*
X50950000Y-184414819D01*
X50950000Y-184414819D02*
X50807143Y-184462438D01*
X50807143Y-184462438D02*
X50711905Y-184557676D01*
X50711905Y-184557676D02*
X50664286Y-184652914D01*
X50664286Y-184652914D02*
X50616667Y-184843390D01*
X50616667Y-184843390D02*
X50616667Y-184986247D01*
X50616667Y-184986247D02*
X50664286Y-185176723D01*
X50664286Y-185176723D02*
X50711905Y-185271961D01*
X50711905Y-185271961D02*
X50807143Y-185367200D01*
X50807143Y-185367200D02*
X50950000Y-185414819D01*
X50950000Y-185414819D02*
X51045238Y-185414819D01*
X51045238Y-185414819D02*
X51188095Y-185367200D01*
X51188095Y-185367200D02*
X51235714Y-185319580D01*
X51235714Y-185319580D02*
X51235714Y-184986247D01*
X51235714Y-184986247D02*
X51045238Y-184986247D01*
X51664286Y-185414819D02*
X51664286Y-184414819D01*
X51664286Y-184414819D02*
X52235714Y-185414819D01*
X52235714Y-185414819D02*
X52235714Y-184414819D01*
X52711905Y-185414819D02*
X52711905Y-184414819D01*
X52711905Y-184414819D02*
X52950000Y-184414819D01*
X52950000Y-184414819D02*
X53092857Y-184462438D01*
X53092857Y-184462438D02*
X53188095Y-184557676D01*
X53188095Y-184557676D02*
X53235714Y-184652914D01*
X53235714Y-184652914D02*
X53283333Y-184843390D01*
X53283333Y-184843390D02*
X53283333Y-184986247D01*
X53283333Y-184986247D02*
X53235714Y-185176723D01*
X53235714Y-185176723D02*
X53188095Y-185271961D01*
X53188095Y-185271961D02*
X53092857Y-185367200D01*
X53092857Y-185367200D02*
X52950000Y-185414819D01*
X52950000Y-185414819D02*
X52711905Y-185414819D01*
X61223057Y-171638744D02*
X60794485Y-171938744D01*
X61223057Y-172153030D02*
X60323057Y-172153030D01*
X60323057Y-172153030D02*
X60323057Y-171810173D01*
X60323057Y-171810173D02*
X60365914Y-171724458D01*
X60365914Y-171724458D02*
X60408771Y-171681601D01*
X60408771Y-171681601D02*
X60494485Y-171638744D01*
X60494485Y-171638744D02*
X60623057Y-171638744D01*
X60623057Y-171638744D02*
X60708771Y-171681601D01*
X60708771Y-171681601D02*
X60751628Y-171724458D01*
X60751628Y-171724458D02*
X60794485Y-171810173D01*
X60794485Y-171810173D02*
X60794485Y-172153030D01*
X61180200Y-171295887D02*
X61223057Y-171167316D01*
X61223057Y-171167316D02*
X61223057Y-170953030D01*
X61223057Y-170953030D02*
X61180200Y-170867316D01*
X61180200Y-170867316D02*
X61137342Y-170824458D01*
X61137342Y-170824458D02*
X61051628Y-170781601D01*
X61051628Y-170781601D02*
X60965914Y-170781601D01*
X60965914Y-170781601D02*
X60880200Y-170824458D01*
X60880200Y-170824458D02*
X60837342Y-170867316D01*
X60837342Y-170867316D02*
X60794485Y-170953030D01*
X60794485Y-170953030D02*
X60751628Y-171124458D01*
X60751628Y-171124458D02*
X60708771Y-171210173D01*
X60708771Y-171210173D02*
X60665914Y-171253030D01*
X60665914Y-171253030D02*
X60580200Y-171295887D01*
X60580200Y-171295887D02*
X60494485Y-171295887D01*
X60494485Y-171295887D02*
X60408771Y-171253030D01*
X60408771Y-171253030D02*
X60365914Y-171210173D01*
X60365914Y-171210173D02*
X60323057Y-171124458D01*
X60323057Y-171124458D02*
X60323057Y-170910173D01*
X60323057Y-170910173D02*
X60365914Y-170781601D01*
X60323057Y-170524458D02*
X60323057Y-170010173D01*
X61223057Y-170267315D02*
X60323057Y-170267315D01*
D11*
X52149524Y-166132337D02*
X52482857Y-166132337D01*
X52625714Y-166656147D02*
X52149524Y-166656147D01*
X52149524Y-166656147D02*
X52149524Y-165656147D01*
X52149524Y-165656147D02*
X52625714Y-165656147D01*
X53006667Y-166608528D02*
X53149524Y-166656147D01*
X53149524Y-166656147D02*
X53387619Y-166656147D01*
X53387619Y-166656147D02*
X53482857Y-166608528D01*
X53482857Y-166608528D02*
X53530476Y-166560908D01*
X53530476Y-166560908D02*
X53578095Y-166465670D01*
X53578095Y-166465670D02*
X53578095Y-166370432D01*
X53578095Y-166370432D02*
X53530476Y-166275194D01*
X53530476Y-166275194D02*
X53482857Y-166227575D01*
X53482857Y-166227575D02*
X53387619Y-166179956D01*
X53387619Y-166179956D02*
X53197143Y-166132337D01*
X53197143Y-166132337D02*
X53101905Y-166084718D01*
X53101905Y-166084718D02*
X53054286Y-166037099D01*
X53054286Y-166037099D02*
X53006667Y-165941861D01*
X53006667Y-165941861D02*
X53006667Y-165846623D01*
X53006667Y-165846623D02*
X53054286Y-165751385D01*
X53054286Y-165751385D02*
X53101905Y-165703766D01*
X53101905Y-165703766D02*
X53197143Y-165656147D01*
X53197143Y-165656147D02*
X53435238Y-165656147D01*
X53435238Y-165656147D02*
X53578095Y-165703766D01*
X54578095Y-166560908D02*
X54530476Y-166608528D01*
X54530476Y-166608528D02*
X54387619Y-166656147D01*
X54387619Y-166656147D02*
X54292381Y-166656147D01*
X54292381Y-166656147D02*
X54149524Y-166608528D01*
X54149524Y-166608528D02*
X54054286Y-166513289D01*
X54054286Y-166513289D02*
X54006667Y-166418051D01*
X54006667Y-166418051D02*
X53959048Y-166227575D01*
X53959048Y-166227575D02*
X53959048Y-166084718D01*
X53959048Y-166084718D02*
X54006667Y-165894242D01*
X54006667Y-165894242D02*
X54054286Y-165799004D01*
X54054286Y-165799004D02*
X54149524Y-165703766D01*
X54149524Y-165703766D02*
X54292381Y-165656147D01*
X54292381Y-165656147D02*
X54387619Y-165656147D01*
X54387619Y-165656147D02*
X54530476Y-165703766D01*
X54530476Y-165703766D02*
X54578095Y-165751385D01*
X51006667Y-168266091D02*
X51006667Y-167266091D01*
X51006667Y-167266091D02*
X51244762Y-167266091D01*
X51244762Y-167266091D02*
X51387619Y-167313710D01*
X51387619Y-167313710D02*
X51482857Y-167408948D01*
X51482857Y-167408948D02*
X51530476Y-167504186D01*
X51530476Y-167504186D02*
X51578095Y-167694662D01*
X51578095Y-167694662D02*
X51578095Y-167837519D01*
X51578095Y-167837519D02*
X51530476Y-168027995D01*
X51530476Y-168027995D02*
X51482857Y-168123233D01*
X51482857Y-168123233D02*
X51387619Y-168218472D01*
X51387619Y-168218472D02*
X51244762Y-168266091D01*
X51244762Y-168266091D02*
X51006667Y-168266091D01*
X52006667Y-168266091D02*
X52006667Y-167266091D01*
X53054285Y-168266091D02*
X52720952Y-167789900D01*
X52482857Y-168266091D02*
X52482857Y-167266091D01*
X52482857Y-167266091D02*
X52863809Y-167266091D01*
X52863809Y-167266091D02*
X52959047Y-167313710D01*
X52959047Y-167313710D02*
X53006666Y-167361329D01*
X53006666Y-167361329D02*
X53054285Y-167456567D01*
X53054285Y-167456567D02*
X53054285Y-167599424D01*
X53054285Y-167599424D02*
X53006666Y-167694662D01*
X53006666Y-167694662D02*
X52959047Y-167742281D01*
X52959047Y-167742281D02*
X52863809Y-167789900D01*
X52863809Y-167789900D02*
X52482857Y-167789900D01*
X53482857Y-167742281D02*
X53816190Y-167742281D01*
X53959047Y-168266091D02*
X53482857Y-168266091D01*
X53482857Y-168266091D02*
X53482857Y-167266091D01*
X53482857Y-167266091D02*
X53959047Y-167266091D01*
X54959047Y-168170852D02*
X54911428Y-168218472D01*
X54911428Y-168218472D02*
X54768571Y-168266091D01*
X54768571Y-168266091D02*
X54673333Y-168266091D01*
X54673333Y-168266091D02*
X54530476Y-168218472D01*
X54530476Y-168218472D02*
X54435238Y-168123233D01*
X54435238Y-168123233D02*
X54387619Y-168027995D01*
X54387619Y-168027995D02*
X54340000Y-167837519D01*
X54340000Y-167837519D02*
X54340000Y-167694662D01*
X54340000Y-167694662D02*
X54387619Y-167504186D01*
X54387619Y-167504186D02*
X54435238Y-167408948D01*
X54435238Y-167408948D02*
X54530476Y-167313710D01*
X54530476Y-167313710D02*
X54673333Y-167266091D01*
X54673333Y-167266091D02*
X54768571Y-167266091D01*
X54768571Y-167266091D02*
X54911428Y-167313710D01*
X54911428Y-167313710D02*
X54959047Y-167361329D01*
X55244762Y-167266091D02*
X55816190Y-167266091D01*
X55530476Y-168266091D02*
X55530476Y-167266091D01*
D10*
X77374905Y-151172104D02*
X77851095Y-151172104D01*
X77279667Y-151457819D02*
X77613000Y-150457819D01*
X77613000Y-150457819D02*
X77946333Y-151457819D01*
X78279667Y-150457819D02*
X78279667Y-151267342D01*
X78279667Y-151267342D02*
X78327286Y-151362580D01*
X78327286Y-151362580D02*
X78374905Y-151410200D01*
X78374905Y-151410200D02*
X78470143Y-151457819D01*
X78470143Y-151457819D02*
X78660619Y-151457819D01*
X78660619Y-151457819D02*
X78755857Y-151410200D01*
X78755857Y-151410200D02*
X78803476Y-151362580D01*
X78803476Y-151362580D02*
X78851095Y-151267342D01*
X78851095Y-151267342D02*
X78851095Y-150457819D01*
X79232048Y-150457819D02*
X79898714Y-151457819D01*
X79898714Y-150457819D02*
X79232048Y-151457819D01*
X44766033Y-184920666D02*
X44066033Y-184920666D01*
X44066033Y-184920666D02*
X44066033Y-184753999D01*
X44066033Y-184753999D02*
X44099366Y-184653999D01*
X44099366Y-184653999D02*
X44166033Y-184587333D01*
X44166033Y-184587333D02*
X44232700Y-184553999D01*
X44232700Y-184553999D02*
X44366033Y-184520666D01*
X44366033Y-184520666D02*
X44466033Y-184520666D01*
X44466033Y-184520666D02*
X44599366Y-184553999D01*
X44599366Y-184553999D02*
X44666033Y-184587333D01*
X44666033Y-184587333D02*
X44732700Y-184653999D01*
X44732700Y-184653999D02*
X44766033Y-184753999D01*
X44766033Y-184753999D02*
X44766033Y-184920666D01*
X44066033Y-183920666D02*
X44066033Y-184053999D01*
X44066033Y-184053999D02*
X44099366Y-184120666D01*
X44099366Y-184120666D02*
X44132700Y-184153999D01*
X44132700Y-184153999D02*
X44232700Y-184220666D01*
X44232700Y-184220666D02*
X44366033Y-184253999D01*
X44366033Y-184253999D02*
X44632700Y-184253999D01*
X44632700Y-184253999D02*
X44699366Y-184220666D01*
X44699366Y-184220666D02*
X44732700Y-184187333D01*
X44732700Y-184187333D02*
X44766033Y-184120666D01*
X44766033Y-184120666D02*
X44766033Y-183987333D01*
X44766033Y-183987333D02*
X44732700Y-183920666D01*
X44732700Y-183920666D02*
X44699366Y-183887333D01*
X44699366Y-183887333D02*
X44632700Y-183853999D01*
X44632700Y-183853999D02*
X44466033Y-183853999D01*
X44466033Y-183853999D02*
X44399366Y-183887333D01*
X44399366Y-183887333D02*
X44366033Y-183920666D01*
X44366033Y-183920666D02*
X44332700Y-183987333D01*
X44332700Y-183987333D02*
X44332700Y-184120666D01*
X44332700Y-184120666D02*
X44366033Y-184187333D01*
X44366033Y-184187333D02*
X44399366Y-184220666D01*
X44399366Y-184220666D02*
X44466033Y-184253999D01*
X46987033Y-161069999D02*
X46987033Y-160669999D01*
X47687033Y-160869999D02*
X46987033Y-160869999D01*
X47687033Y-160436666D02*
X46987033Y-160436666D01*
X46987033Y-160436666D02*
X46987033Y-160269999D01*
X46987033Y-160269999D02*
X47020366Y-160169999D01*
X47020366Y-160169999D02*
X47087033Y-160103333D01*
X47087033Y-160103333D02*
X47153700Y-160069999D01*
X47153700Y-160069999D02*
X47287033Y-160036666D01*
X47287033Y-160036666D02*
X47387033Y-160036666D01*
X47387033Y-160036666D02*
X47520366Y-160069999D01*
X47520366Y-160069999D02*
X47587033Y-160103333D01*
X47587033Y-160103333D02*
X47653700Y-160169999D01*
X47653700Y-160169999D02*
X47687033Y-160269999D01*
X47687033Y-160269999D02*
X47687033Y-160436666D01*
X47687033Y-159736666D02*
X46987033Y-159736666D01*
X47687033Y-159036666D02*
X47687033Y-159436666D01*
X47687033Y-159236666D02*
X46987033Y-159236666D01*
X46987033Y-159236666D02*
X47087033Y-159303333D01*
X47087033Y-159303333D02*
X47153700Y-159370000D01*
X47153700Y-159370000D02*
X47187033Y-159436666D01*
X26798700Y-186248666D02*
X26765366Y-186315333D01*
X26765366Y-186315333D02*
X26698700Y-186382000D01*
X26698700Y-186382000D02*
X26598700Y-186482000D01*
X26598700Y-186482000D02*
X26565366Y-186548666D01*
X26565366Y-186548666D02*
X26565366Y-186615333D01*
X26732033Y-186582000D02*
X26698700Y-186648666D01*
X26698700Y-186648666D02*
X26632033Y-186715333D01*
X26632033Y-186715333D02*
X26498700Y-186748666D01*
X26498700Y-186748666D02*
X26265366Y-186748666D01*
X26265366Y-186748666D02*
X26132033Y-186715333D01*
X26132033Y-186715333D02*
X26065366Y-186648666D01*
X26065366Y-186648666D02*
X26032033Y-186582000D01*
X26032033Y-186582000D02*
X26032033Y-186448666D01*
X26032033Y-186448666D02*
X26065366Y-186382000D01*
X26065366Y-186382000D02*
X26132033Y-186315333D01*
X26132033Y-186315333D02*
X26265366Y-186282000D01*
X26265366Y-186282000D02*
X26498700Y-186282000D01*
X26498700Y-186282000D02*
X26632033Y-186315333D01*
X26632033Y-186315333D02*
X26698700Y-186382000D01*
X26698700Y-186382000D02*
X26732033Y-186448666D01*
X26732033Y-186448666D02*
X26732033Y-186582000D01*
X26032033Y-185648667D02*
X26032033Y-185982000D01*
X26032033Y-185982000D02*
X26365366Y-186015333D01*
X26365366Y-186015333D02*
X26332033Y-185982000D01*
X26332033Y-185982000D02*
X26298700Y-185915333D01*
X26298700Y-185915333D02*
X26298700Y-185748667D01*
X26298700Y-185748667D02*
X26332033Y-185682000D01*
X26332033Y-185682000D02*
X26365366Y-185648667D01*
X26365366Y-185648667D02*
X26432033Y-185615333D01*
X26432033Y-185615333D02*
X26598700Y-185615333D01*
X26598700Y-185615333D02*
X26665366Y-185648667D01*
X26665366Y-185648667D02*
X26698700Y-185682000D01*
X26698700Y-185682000D02*
X26732033Y-185748667D01*
X26732033Y-185748667D02*
X26732033Y-185915333D01*
X26732033Y-185915333D02*
X26698700Y-185982000D01*
X26698700Y-185982000D02*
X26665366Y-186015333D01*
X26798700Y-172278666D02*
X26765366Y-172345333D01*
X26765366Y-172345333D02*
X26698700Y-172412000D01*
X26698700Y-172412000D02*
X26598700Y-172512000D01*
X26598700Y-172512000D02*
X26565366Y-172578666D01*
X26565366Y-172578666D02*
X26565366Y-172645333D01*
X26732033Y-172612000D02*
X26698700Y-172678666D01*
X26698700Y-172678666D02*
X26632033Y-172745333D01*
X26632033Y-172745333D02*
X26498700Y-172778666D01*
X26498700Y-172778666D02*
X26265366Y-172778666D01*
X26265366Y-172778666D02*
X26132033Y-172745333D01*
X26132033Y-172745333D02*
X26065366Y-172678666D01*
X26065366Y-172678666D02*
X26032033Y-172612000D01*
X26032033Y-172612000D02*
X26032033Y-172478666D01*
X26032033Y-172478666D02*
X26065366Y-172412000D01*
X26065366Y-172412000D02*
X26132033Y-172345333D01*
X26132033Y-172345333D02*
X26265366Y-172312000D01*
X26265366Y-172312000D02*
X26498700Y-172312000D01*
X26498700Y-172312000D02*
X26632033Y-172345333D01*
X26632033Y-172345333D02*
X26698700Y-172412000D01*
X26698700Y-172412000D02*
X26732033Y-172478666D01*
X26732033Y-172478666D02*
X26732033Y-172612000D01*
X26032033Y-171712000D02*
X26032033Y-171845333D01*
X26032033Y-171845333D02*
X26065366Y-171912000D01*
X26065366Y-171912000D02*
X26098700Y-171945333D01*
X26098700Y-171945333D02*
X26198700Y-172012000D01*
X26198700Y-172012000D02*
X26332033Y-172045333D01*
X26332033Y-172045333D02*
X26598700Y-172045333D01*
X26598700Y-172045333D02*
X26665366Y-172012000D01*
X26665366Y-172012000D02*
X26698700Y-171978667D01*
X26698700Y-171978667D02*
X26732033Y-171912000D01*
X26732033Y-171912000D02*
X26732033Y-171778667D01*
X26732033Y-171778667D02*
X26698700Y-171712000D01*
X26698700Y-171712000D02*
X26665366Y-171678667D01*
X26665366Y-171678667D02*
X26598700Y-171645333D01*
X26598700Y-171645333D02*
X26432033Y-171645333D01*
X26432033Y-171645333D02*
X26365366Y-171678667D01*
X26365366Y-171678667D02*
X26332033Y-171712000D01*
X26332033Y-171712000D02*
X26298700Y-171778667D01*
X26298700Y-171778667D02*
X26298700Y-171912000D01*
X26298700Y-171912000D02*
X26332033Y-171978667D01*
X26332033Y-171978667D02*
X26365366Y-172012000D01*
X26365366Y-172012000D02*
X26432033Y-172045333D01*
X23632333Y-162622033D02*
X23399000Y-162288700D01*
X23232333Y-162622033D02*
X23232333Y-161922033D01*
X23232333Y-161922033D02*
X23499000Y-161922033D01*
X23499000Y-161922033D02*
X23565667Y-161955366D01*
X23565667Y-161955366D02*
X23599000Y-161988700D01*
X23599000Y-161988700D02*
X23632333Y-162055366D01*
X23632333Y-162055366D02*
X23632333Y-162155366D01*
X23632333Y-162155366D02*
X23599000Y-162222033D01*
X23599000Y-162222033D02*
X23565667Y-162255366D01*
X23565667Y-162255366D02*
X23499000Y-162288700D01*
X23499000Y-162288700D02*
X23232333Y-162288700D01*
X24232333Y-162155366D02*
X24232333Y-162622033D01*
X24065667Y-161888700D02*
X23899000Y-162388700D01*
X23899000Y-162388700D02*
X24332333Y-162388700D01*
X58049333Y-167101966D02*
X58016000Y-167135300D01*
X58016000Y-167135300D02*
X57916000Y-167168633D01*
X57916000Y-167168633D02*
X57849333Y-167168633D01*
X57849333Y-167168633D02*
X57749333Y-167135300D01*
X57749333Y-167135300D02*
X57682667Y-167068633D01*
X57682667Y-167068633D02*
X57649333Y-167001966D01*
X57649333Y-167001966D02*
X57616000Y-166868633D01*
X57616000Y-166868633D02*
X57616000Y-166768633D01*
X57616000Y-166768633D02*
X57649333Y-166635300D01*
X57649333Y-166635300D02*
X57682667Y-166568633D01*
X57682667Y-166568633D02*
X57749333Y-166501966D01*
X57749333Y-166501966D02*
X57849333Y-166468633D01*
X57849333Y-166468633D02*
X57916000Y-166468633D01*
X57916000Y-166468633D02*
X58016000Y-166501966D01*
X58016000Y-166501966D02*
X58049333Y-166535300D01*
X58282667Y-166468633D02*
X58749333Y-166468633D01*
X58749333Y-166468633D02*
X58449333Y-167168633D01*
X46798033Y-184346000D02*
X46464700Y-184579333D01*
X46798033Y-184746000D02*
X46098033Y-184746000D01*
X46098033Y-184746000D02*
X46098033Y-184479333D01*
X46098033Y-184479333D02*
X46131366Y-184412667D01*
X46131366Y-184412667D02*
X46164700Y-184379333D01*
X46164700Y-184379333D02*
X46231366Y-184346000D01*
X46231366Y-184346000D02*
X46331366Y-184346000D01*
X46331366Y-184346000D02*
X46398033Y-184379333D01*
X46398033Y-184379333D02*
X46431366Y-184412667D01*
X46431366Y-184412667D02*
X46464700Y-184479333D01*
X46464700Y-184479333D02*
X46464700Y-184746000D01*
X46164700Y-184079333D02*
X46131366Y-184046000D01*
X46131366Y-184046000D02*
X46098033Y-183979333D01*
X46098033Y-183979333D02*
X46098033Y-183812667D01*
X46098033Y-183812667D02*
X46131366Y-183746000D01*
X46131366Y-183746000D02*
X46164700Y-183712667D01*
X46164700Y-183712667D02*
X46231366Y-183679333D01*
X46231366Y-183679333D02*
X46298033Y-183679333D01*
X46298033Y-183679333D02*
X46398033Y-183712667D01*
X46398033Y-183712667D02*
X46798033Y-184112667D01*
X46798033Y-184112667D02*
X46798033Y-183679333D01*
X46098033Y-183046000D02*
X46098033Y-183379333D01*
X46098033Y-183379333D02*
X46431366Y-183412666D01*
X46431366Y-183412666D02*
X46398033Y-183379333D01*
X46398033Y-183379333D02*
X46364700Y-183312666D01*
X46364700Y-183312666D02*
X46364700Y-183146000D01*
X46364700Y-183146000D02*
X46398033Y-183079333D01*
X46398033Y-183079333D02*
X46431366Y-183046000D01*
X46431366Y-183046000D02*
X46498033Y-183012666D01*
X46498033Y-183012666D02*
X46664700Y-183012666D01*
X46664700Y-183012666D02*
X46731366Y-183046000D01*
X46731366Y-183046000D02*
X46764700Y-183079333D01*
X46764700Y-183079333D02*
X46798033Y-183146000D01*
X46798033Y-183146000D02*
X46798033Y-183312666D01*
X46798033Y-183312666D02*
X46764700Y-183379333D01*
X46764700Y-183379333D02*
X46731366Y-183412666D01*
X20584333Y-162368033D02*
X20351000Y-162034700D01*
X20184333Y-162368033D02*
X20184333Y-161668033D01*
X20184333Y-161668033D02*
X20451000Y-161668033D01*
X20451000Y-161668033D02*
X20517667Y-161701366D01*
X20517667Y-161701366D02*
X20551000Y-161734700D01*
X20551000Y-161734700D02*
X20584333Y-161801366D01*
X20584333Y-161801366D02*
X20584333Y-161901366D01*
X20584333Y-161901366D02*
X20551000Y-161968033D01*
X20551000Y-161968033D02*
X20517667Y-162001366D01*
X20517667Y-162001366D02*
X20451000Y-162034700D01*
X20451000Y-162034700D02*
X20184333Y-162034700D01*
X20817667Y-161668033D02*
X21251000Y-161668033D01*
X21251000Y-161668033D02*
X21017667Y-161934700D01*
X21017667Y-161934700D02*
X21117667Y-161934700D01*
X21117667Y-161934700D02*
X21184333Y-161968033D01*
X21184333Y-161968033D02*
X21217667Y-162001366D01*
X21217667Y-162001366D02*
X21251000Y-162068033D01*
X21251000Y-162068033D02*
X21251000Y-162234700D01*
X21251000Y-162234700D02*
X21217667Y-162301366D01*
X21217667Y-162301366D02*
X21184333Y-162334700D01*
X21184333Y-162334700D02*
X21117667Y-162368033D01*
X21117667Y-162368033D02*
X20917667Y-162368033D01*
X20917667Y-162368033D02*
X20851000Y-162334700D01*
X20851000Y-162334700D02*
X20817667Y-162301366D01*
X36860033Y-190864000D02*
X36526700Y-191097333D01*
X36860033Y-191264000D02*
X36160033Y-191264000D01*
X36160033Y-191264000D02*
X36160033Y-190997333D01*
X36160033Y-190997333D02*
X36193366Y-190930667D01*
X36193366Y-190930667D02*
X36226700Y-190897333D01*
X36226700Y-190897333D02*
X36293366Y-190864000D01*
X36293366Y-190864000D02*
X36393366Y-190864000D01*
X36393366Y-190864000D02*
X36460033Y-190897333D01*
X36460033Y-190897333D02*
X36493366Y-190930667D01*
X36493366Y-190930667D02*
X36526700Y-190997333D01*
X36526700Y-190997333D02*
X36526700Y-191264000D01*
X36860033Y-190197333D02*
X36860033Y-190597333D01*
X36860033Y-190397333D02*
X36160033Y-190397333D01*
X36160033Y-190397333D02*
X36260033Y-190464000D01*
X36260033Y-190464000D02*
X36326700Y-190530667D01*
X36326700Y-190530667D02*
X36360033Y-190597333D01*
X36860033Y-189530666D02*
X36860033Y-189930666D01*
X36860033Y-189730666D02*
X36160033Y-189730666D01*
X36160033Y-189730666D02*
X36260033Y-189797333D01*
X36260033Y-189797333D02*
X36326700Y-189864000D01*
X36326700Y-189864000D02*
X36360033Y-189930666D01*
X35495033Y-186571666D02*
X34795033Y-186571666D01*
X34795033Y-186571666D02*
X34795033Y-186404999D01*
X34795033Y-186404999D02*
X34828366Y-186304999D01*
X34828366Y-186304999D02*
X34895033Y-186238333D01*
X34895033Y-186238333D02*
X34961700Y-186204999D01*
X34961700Y-186204999D02*
X35095033Y-186171666D01*
X35095033Y-186171666D02*
X35195033Y-186171666D01*
X35195033Y-186171666D02*
X35328366Y-186204999D01*
X35328366Y-186204999D02*
X35395033Y-186238333D01*
X35395033Y-186238333D02*
X35461700Y-186304999D01*
X35461700Y-186304999D02*
X35495033Y-186404999D01*
X35495033Y-186404999D02*
X35495033Y-186571666D01*
X34861700Y-185904999D02*
X34828366Y-185871666D01*
X34828366Y-185871666D02*
X34795033Y-185804999D01*
X34795033Y-185804999D02*
X34795033Y-185638333D01*
X34795033Y-185638333D02*
X34828366Y-185571666D01*
X34828366Y-185571666D02*
X34861700Y-185538333D01*
X34861700Y-185538333D02*
X34928366Y-185504999D01*
X34928366Y-185504999D02*
X34995033Y-185504999D01*
X34995033Y-185504999D02*
X35095033Y-185538333D01*
X35095033Y-185538333D02*
X35495033Y-185938333D01*
X35495033Y-185938333D02*
X35495033Y-185504999D01*
X39178033Y-184012666D02*
X38844700Y-184245999D01*
X39178033Y-184412666D02*
X38478033Y-184412666D01*
X38478033Y-184412666D02*
X38478033Y-184145999D01*
X38478033Y-184145999D02*
X38511366Y-184079333D01*
X38511366Y-184079333D02*
X38544700Y-184045999D01*
X38544700Y-184045999D02*
X38611366Y-184012666D01*
X38611366Y-184012666D02*
X38711366Y-184012666D01*
X38711366Y-184012666D02*
X38778033Y-184045999D01*
X38778033Y-184045999D02*
X38811366Y-184079333D01*
X38811366Y-184079333D02*
X38844700Y-184145999D01*
X38844700Y-184145999D02*
X38844700Y-184412666D01*
X38478033Y-183779333D02*
X38478033Y-183312666D01*
X38478033Y-183312666D02*
X39178033Y-183612666D01*
X55143333Y-186856033D02*
X55143333Y-187356033D01*
X55143333Y-187356033D02*
X55110000Y-187456033D01*
X55110000Y-187456033D02*
X55043333Y-187522700D01*
X55043333Y-187522700D02*
X54943333Y-187556033D01*
X54943333Y-187556033D02*
X54876667Y-187556033D01*
X55843333Y-187556033D02*
X55443333Y-187556033D01*
X55643333Y-187556033D02*
X55643333Y-186856033D01*
X55643333Y-186856033D02*
X55576666Y-186956033D01*
X55576666Y-186956033D02*
X55510000Y-187022700D01*
X55510000Y-187022700D02*
X55443333Y-187056033D01*
X56176667Y-187556033D02*
X56310000Y-187556033D01*
X56310000Y-187556033D02*
X56376667Y-187522700D01*
X56376667Y-187522700D02*
X56410000Y-187489366D01*
X56410000Y-187489366D02*
X56476667Y-187389366D01*
X56476667Y-187389366D02*
X56510000Y-187256033D01*
X56510000Y-187256033D02*
X56510000Y-186989366D01*
X56510000Y-186989366D02*
X56476667Y-186922700D01*
X56476667Y-186922700D02*
X56443333Y-186889366D01*
X56443333Y-186889366D02*
X56376667Y-186856033D01*
X56376667Y-186856033D02*
X56243333Y-186856033D01*
X56243333Y-186856033D02*
X56176667Y-186889366D01*
X56176667Y-186889366D02*
X56143333Y-186922700D01*
X56143333Y-186922700D02*
X56110000Y-186989366D01*
X56110000Y-186989366D02*
X56110000Y-187156033D01*
X56110000Y-187156033D02*
X56143333Y-187222700D01*
X56143333Y-187222700D02*
X56176667Y-187256033D01*
X56176667Y-187256033D02*
X56243333Y-187289366D01*
X56243333Y-187289366D02*
X56376667Y-187289366D01*
X56376667Y-187289366D02*
X56443333Y-187256033D01*
X56443333Y-187256033D02*
X56476667Y-187222700D01*
X56476667Y-187222700D02*
X56510000Y-187156033D01*
X33077999Y-164273033D02*
X32844666Y-163939700D01*
X32677999Y-164273033D02*
X32677999Y-163573033D01*
X32677999Y-163573033D02*
X32944666Y-163573033D01*
X32944666Y-163573033D02*
X33011333Y-163606366D01*
X33011333Y-163606366D02*
X33044666Y-163639700D01*
X33044666Y-163639700D02*
X33077999Y-163706366D01*
X33077999Y-163706366D02*
X33077999Y-163806366D01*
X33077999Y-163806366D02*
X33044666Y-163873033D01*
X33044666Y-163873033D02*
X33011333Y-163906366D01*
X33011333Y-163906366D02*
X32944666Y-163939700D01*
X32944666Y-163939700D02*
X32677999Y-163939700D01*
X33744666Y-164273033D02*
X33344666Y-164273033D01*
X33544666Y-164273033D02*
X33544666Y-163573033D01*
X33544666Y-163573033D02*
X33477999Y-163673033D01*
X33477999Y-163673033D02*
X33411333Y-163739700D01*
X33411333Y-163739700D02*
X33344666Y-163773033D01*
X34011333Y-163639700D02*
X34044666Y-163606366D01*
X34044666Y-163606366D02*
X34111333Y-163573033D01*
X34111333Y-163573033D02*
X34278000Y-163573033D01*
X34278000Y-163573033D02*
X34344666Y-163606366D01*
X34344666Y-163606366D02*
X34378000Y-163639700D01*
X34378000Y-163639700D02*
X34411333Y-163706366D01*
X34411333Y-163706366D02*
X34411333Y-163773033D01*
X34411333Y-163773033D02*
X34378000Y-163873033D01*
X34378000Y-163873033D02*
X33978000Y-164273033D01*
X33978000Y-164273033D02*
X34411333Y-164273033D01*
X13121571Y-180200700D02*
X14264429Y-180200700D01*
X13693000Y-180772128D02*
X13693000Y-179629271D01*
X26121571Y-180200700D02*
X27264429Y-180200700D01*
X68737366Y-166093666D02*
X68704033Y-166160333D01*
X68704033Y-166160333D02*
X68704033Y-166260333D01*
X68704033Y-166260333D02*
X68737366Y-166360333D01*
X68737366Y-166360333D02*
X68804033Y-166427000D01*
X68804033Y-166427000D02*
X68870700Y-166460333D01*
X68870700Y-166460333D02*
X69004033Y-166493666D01*
X69004033Y-166493666D02*
X69104033Y-166493666D01*
X69104033Y-166493666D02*
X69237366Y-166460333D01*
X69237366Y-166460333D02*
X69304033Y-166427000D01*
X69304033Y-166427000D02*
X69370700Y-166360333D01*
X69370700Y-166360333D02*
X69404033Y-166260333D01*
X69404033Y-166260333D02*
X69404033Y-166193666D01*
X69404033Y-166193666D02*
X69370700Y-166093666D01*
X69370700Y-166093666D02*
X69337366Y-166060333D01*
X69337366Y-166060333D02*
X69104033Y-166060333D01*
X69104033Y-166060333D02*
X69104033Y-166193666D01*
X69404033Y-165760333D02*
X68704033Y-165760333D01*
X68704033Y-165760333D02*
X69404033Y-165360333D01*
X69404033Y-165360333D02*
X68704033Y-165360333D01*
X69404033Y-165027000D02*
X68704033Y-165027000D01*
X68704033Y-165027000D02*
X68704033Y-164860333D01*
X68704033Y-164860333D02*
X68737366Y-164760333D01*
X68737366Y-164760333D02*
X68804033Y-164693667D01*
X68804033Y-164693667D02*
X68870700Y-164660333D01*
X68870700Y-164660333D02*
X69004033Y-164627000D01*
X69004033Y-164627000D02*
X69104033Y-164627000D01*
X69104033Y-164627000D02*
X69237366Y-164660333D01*
X69237366Y-164660333D02*
X69304033Y-164693667D01*
X69304033Y-164693667D02*
X69370700Y-164760333D01*
X69370700Y-164760333D02*
X69404033Y-164860333D01*
X69404033Y-164860333D02*
X69404033Y-165027000D01*
X69404033Y-163960333D02*
X69404033Y-164360333D01*
X69404033Y-164160333D02*
X68704033Y-164160333D01*
X68704033Y-164160333D02*
X68804033Y-164227000D01*
X68804033Y-164227000D02*
X68870700Y-164293667D01*
X68870700Y-164293667D02*
X68904033Y-164360333D01*
X26798700Y-179390666D02*
X26765366Y-179457333D01*
X26765366Y-179457333D02*
X26698700Y-179524000D01*
X26698700Y-179524000D02*
X26598700Y-179624000D01*
X26598700Y-179624000D02*
X26565366Y-179690666D01*
X26565366Y-179690666D02*
X26565366Y-179757333D01*
X26732033Y-179724000D02*
X26698700Y-179790666D01*
X26698700Y-179790666D02*
X26632033Y-179857333D01*
X26632033Y-179857333D02*
X26498700Y-179890666D01*
X26498700Y-179890666D02*
X26265366Y-179890666D01*
X26265366Y-179890666D02*
X26132033Y-179857333D01*
X26132033Y-179857333D02*
X26065366Y-179790666D01*
X26065366Y-179790666D02*
X26032033Y-179724000D01*
X26032033Y-179724000D02*
X26032033Y-179590666D01*
X26032033Y-179590666D02*
X26065366Y-179524000D01*
X26065366Y-179524000D02*
X26132033Y-179457333D01*
X26132033Y-179457333D02*
X26265366Y-179424000D01*
X26265366Y-179424000D02*
X26498700Y-179424000D01*
X26498700Y-179424000D02*
X26632033Y-179457333D01*
X26632033Y-179457333D02*
X26698700Y-179524000D01*
X26698700Y-179524000D02*
X26732033Y-179590666D01*
X26732033Y-179590666D02*
X26732033Y-179724000D01*
X26265366Y-178824000D02*
X26732033Y-178824000D01*
X25998700Y-178990667D02*
X26498700Y-179157333D01*
X26498700Y-179157333D02*
X26498700Y-178724000D01*
X45843333Y-188836033D02*
X45610000Y-188502700D01*
X45443333Y-188836033D02*
X45443333Y-188136033D01*
X45443333Y-188136033D02*
X45710000Y-188136033D01*
X45710000Y-188136033D02*
X45776667Y-188169366D01*
X45776667Y-188169366D02*
X45810000Y-188202700D01*
X45810000Y-188202700D02*
X45843333Y-188269366D01*
X45843333Y-188269366D02*
X45843333Y-188369366D01*
X45843333Y-188369366D02*
X45810000Y-188436033D01*
X45810000Y-188436033D02*
X45776667Y-188469366D01*
X45776667Y-188469366D02*
X45710000Y-188502700D01*
X45710000Y-188502700D02*
X45443333Y-188502700D01*
X46110000Y-188202700D02*
X46143333Y-188169366D01*
X46143333Y-188169366D02*
X46210000Y-188136033D01*
X46210000Y-188136033D02*
X46376667Y-188136033D01*
X46376667Y-188136033D02*
X46443333Y-188169366D01*
X46443333Y-188169366D02*
X46476667Y-188202700D01*
X46476667Y-188202700D02*
X46510000Y-188269366D01*
X46510000Y-188269366D02*
X46510000Y-188336033D01*
X46510000Y-188336033D02*
X46476667Y-188436033D01*
X46476667Y-188436033D02*
X46076667Y-188836033D01*
X46076667Y-188836033D02*
X46510000Y-188836033D01*
X62673033Y-168090000D02*
X62339700Y-168323333D01*
X62673033Y-168490000D02*
X61973033Y-168490000D01*
X61973033Y-168490000D02*
X61973033Y-168223333D01*
X61973033Y-168223333D02*
X62006366Y-168156667D01*
X62006366Y-168156667D02*
X62039700Y-168123333D01*
X62039700Y-168123333D02*
X62106366Y-168090000D01*
X62106366Y-168090000D02*
X62206366Y-168090000D01*
X62206366Y-168090000D02*
X62273033Y-168123333D01*
X62273033Y-168123333D02*
X62306366Y-168156667D01*
X62306366Y-168156667D02*
X62339700Y-168223333D01*
X62339700Y-168223333D02*
X62339700Y-168490000D01*
X62673033Y-167423333D02*
X62673033Y-167823333D01*
X62673033Y-167623333D02*
X61973033Y-167623333D01*
X61973033Y-167623333D02*
X62073033Y-167690000D01*
X62073033Y-167690000D02*
X62139700Y-167756667D01*
X62139700Y-167756667D02*
X62173033Y-167823333D01*
X61973033Y-166790000D02*
X61973033Y-167123333D01*
X61973033Y-167123333D02*
X62306366Y-167156666D01*
X62306366Y-167156666D02*
X62273033Y-167123333D01*
X62273033Y-167123333D02*
X62239700Y-167056666D01*
X62239700Y-167056666D02*
X62239700Y-166890000D01*
X62239700Y-166890000D02*
X62273033Y-166823333D01*
X62273033Y-166823333D02*
X62306366Y-166790000D01*
X62306366Y-166790000D02*
X62373033Y-166756666D01*
X62373033Y-166756666D02*
X62539700Y-166756666D01*
X62539700Y-166756666D02*
X62606366Y-166790000D01*
X62606366Y-166790000D02*
X62639700Y-166823333D01*
X62639700Y-166823333D02*
X62673033Y-166890000D01*
X62673033Y-166890000D02*
X62673033Y-167056666D01*
X62673033Y-167056666D02*
X62639700Y-167123333D01*
X62639700Y-167123333D02*
X62606366Y-167156666D01*
X30344333Y-164273033D02*
X30344333Y-163573033D01*
X30344333Y-163573033D02*
X30511000Y-163573033D01*
X30511000Y-163573033D02*
X30611000Y-163606366D01*
X30611000Y-163606366D02*
X30677667Y-163673033D01*
X30677667Y-163673033D02*
X30711000Y-163739700D01*
X30711000Y-163739700D02*
X30744333Y-163873033D01*
X30744333Y-163873033D02*
X30744333Y-163973033D01*
X30744333Y-163973033D02*
X30711000Y-164106366D01*
X30711000Y-164106366D02*
X30677667Y-164173033D01*
X30677667Y-164173033D02*
X30611000Y-164239700D01*
X30611000Y-164239700D02*
X30511000Y-164273033D01*
X30511000Y-164273033D02*
X30344333Y-164273033D01*
X31377667Y-163573033D02*
X31044333Y-163573033D01*
X31044333Y-163573033D02*
X31011000Y-163906366D01*
X31011000Y-163906366D02*
X31044333Y-163873033D01*
X31044333Y-163873033D02*
X31111000Y-163839700D01*
X31111000Y-163839700D02*
X31277667Y-163839700D01*
X31277667Y-163839700D02*
X31344333Y-163873033D01*
X31344333Y-163873033D02*
X31377667Y-163906366D01*
X31377667Y-163906366D02*
X31411000Y-163973033D01*
X31411000Y-163973033D02*
X31411000Y-164139700D01*
X31411000Y-164139700D02*
X31377667Y-164206366D01*
X31377667Y-164206366D02*
X31344333Y-164239700D01*
X31344333Y-164239700D02*
X31277667Y-164273033D01*
X31277667Y-164273033D02*
X31111000Y-164273033D01*
X31111000Y-164273033D02*
X31044333Y-164239700D01*
X31044333Y-164239700D02*
X31011000Y-164206366D01*
X38138999Y-157669033D02*
X38138999Y-156969033D01*
X38138999Y-156969033D02*
X38305666Y-156969033D01*
X38305666Y-156969033D02*
X38405666Y-157002366D01*
X38405666Y-157002366D02*
X38472333Y-157069033D01*
X38472333Y-157069033D02*
X38505666Y-157135700D01*
X38505666Y-157135700D02*
X38538999Y-157269033D01*
X38538999Y-157269033D02*
X38538999Y-157369033D01*
X38538999Y-157369033D02*
X38505666Y-157502366D01*
X38505666Y-157502366D02*
X38472333Y-157569033D01*
X38472333Y-157569033D02*
X38405666Y-157635700D01*
X38405666Y-157635700D02*
X38305666Y-157669033D01*
X38305666Y-157669033D02*
X38138999Y-157669033D01*
X39205666Y-157669033D02*
X38805666Y-157669033D01*
X39005666Y-157669033D02*
X39005666Y-156969033D01*
X39005666Y-156969033D02*
X38938999Y-157069033D01*
X38938999Y-157069033D02*
X38872333Y-157135700D01*
X38872333Y-157135700D02*
X38805666Y-157169033D01*
X39605666Y-157269033D02*
X39539000Y-157235700D01*
X39539000Y-157235700D02*
X39505666Y-157202366D01*
X39505666Y-157202366D02*
X39472333Y-157135700D01*
X39472333Y-157135700D02*
X39472333Y-157102366D01*
X39472333Y-157102366D02*
X39505666Y-157035700D01*
X39505666Y-157035700D02*
X39539000Y-157002366D01*
X39539000Y-157002366D02*
X39605666Y-156969033D01*
X39605666Y-156969033D02*
X39739000Y-156969033D01*
X39739000Y-156969033D02*
X39805666Y-157002366D01*
X39805666Y-157002366D02*
X39839000Y-157035700D01*
X39839000Y-157035700D02*
X39872333Y-157102366D01*
X39872333Y-157102366D02*
X39872333Y-157135700D01*
X39872333Y-157135700D02*
X39839000Y-157202366D01*
X39839000Y-157202366D02*
X39805666Y-157235700D01*
X39805666Y-157235700D02*
X39739000Y-157269033D01*
X39739000Y-157269033D02*
X39605666Y-157269033D01*
X39605666Y-157269033D02*
X39539000Y-157302366D01*
X39539000Y-157302366D02*
X39505666Y-157335700D01*
X39505666Y-157335700D02*
X39472333Y-157402366D01*
X39472333Y-157402366D02*
X39472333Y-157535700D01*
X39472333Y-157535700D02*
X39505666Y-157602366D01*
X39505666Y-157602366D02*
X39539000Y-157635700D01*
X39539000Y-157635700D02*
X39605666Y-157669033D01*
X39605666Y-157669033D02*
X39739000Y-157669033D01*
X39739000Y-157669033D02*
X39805666Y-157635700D01*
X39805666Y-157635700D02*
X39839000Y-157602366D01*
X39839000Y-157602366D02*
X39872333Y-157535700D01*
X39872333Y-157535700D02*
X39872333Y-157402366D01*
X39872333Y-157402366D02*
X39839000Y-157335700D01*
X39839000Y-157335700D02*
X39805666Y-157302366D01*
X39805666Y-157302366D02*
X39739000Y-157269033D01*
X59433033Y-162937666D02*
X59433033Y-162537666D01*
X60133033Y-162737666D02*
X59433033Y-162737666D01*
X60133033Y-162304333D02*
X59433033Y-162304333D01*
X59433033Y-162304333D02*
X59933033Y-162071000D01*
X59933033Y-162071000D02*
X59433033Y-161837666D01*
X59433033Y-161837666D02*
X60133033Y-161837666D01*
X60099700Y-161537666D02*
X60133033Y-161437666D01*
X60133033Y-161437666D02*
X60133033Y-161271000D01*
X60133033Y-161271000D02*
X60099700Y-161204333D01*
X60099700Y-161204333D02*
X60066366Y-161171000D01*
X60066366Y-161171000D02*
X59999700Y-161137666D01*
X59999700Y-161137666D02*
X59933033Y-161137666D01*
X59933033Y-161137666D02*
X59866366Y-161171000D01*
X59866366Y-161171000D02*
X59833033Y-161204333D01*
X59833033Y-161204333D02*
X59799700Y-161271000D01*
X59799700Y-161271000D02*
X59766366Y-161404333D01*
X59766366Y-161404333D02*
X59733033Y-161471000D01*
X59733033Y-161471000D02*
X59699700Y-161504333D01*
X59699700Y-161504333D02*
X59633033Y-161537666D01*
X59633033Y-161537666D02*
X59566366Y-161537666D01*
X59566366Y-161537666D02*
X59499700Y-161504333D01*
X59499700Y-161504333D02*
X59466366Y-161471000D01*
X59466366Y-161471000D02*
X59433033Y-161404333D01*
X59433033Y-161404333D02*
X59433033Y-161237666D01*
X59433033Y-161237666D02*
X59466366Y-161137666D01*
X60133033Y-160470999D02*
X60133033Y-160870999D01*
X60133033Y-160670999D02*
X59433033Y-160670999D01*
X59433033Y-160670999D02*
X59533033Y-160737666D01*
X59533033Y-160737666D02*
X59599700Y-160804333D01*
X59599700Y-160804333D02*
X59633033Y-160870999D01*
X66545033Y-166460333D02*
X66545033Y-166060333D01*
X67245033Y-166260333D02*
X66545033Y-166260333D01*
X67178366Y-165427000D02*
X67211700Y-165460333D01*
X67211700Y-165460333D02*
X67245033Y-165560333D01*
X67245033Y-165560333D02*
X67245033Y-165627000D01*
X67245033Y-165627000D02*
X67211700Y-165727000D01*
X67211700Y-165727000D02*
X67145033Y-165793667D01*
X67145033Y-165793667D02*
X67078366Y-165827000D01*
X67078366Y-165827000D02*
X66945033Y-165860333D01*
X66945033Y-165860333D02*
X66845033Y-165860333D01*
X66845033Y-165860333D02*
X66711700Y-165827000D01*
X66711700Y-165827000D02*
X66645033Y-165793667D01*
X66645033Y-165793667D02*
X66578366Y-165727000D01*
X66578366Y-165727000D02*
X66545033Y-165627000D01*
X66545033Y-165627000D02*
X66545033Y-165560333D01*
X66545033Y-165560333D02*
X66578366Y-165460333D01*
X66578366Y-165460333D02*
X66611700Y-165427000D01*
X67245033Y-165127000D02*
X66545033Y-165127000D01*
X67245033Y-164727000D02*
X66845033Y-165027000D01*
X66545033Y-164727000D02*
X66945033Y-165127000D01*
X67245033Y-164060333D02*
X67245033Y-164460333D01*
X67245033Y-164260333D02*
X66545033Y-164260333D01*
X66545033Y-164260333D02*
X66645033Y-164327000D01*
X66645033Y-164327000D02*
X66711700Y-164393667D01*
X66711700Y-164393667D02*
X66745033Y-164460333D01*
X42419700Y-184216666D02*
X42386366Y-184283333D01*
X42386366Y-184283333D02*
X42319700Y-184350000D01*
X42319700Y-184350000D02*
X42219700Y-184450000D01*
X42219700Y-184450000D02*
X42186366Y-184516666D01*
X42186366Y-184516666D02*
X42186366Y-184583333D01*
X42353033Y-184550000D02*
X42319700Y-184616666D01*
X42319700Y-184616666D02*
X42253033Y-184683333D01*
X42253033Y-184683333D02*
X42119700Y-184716666D01*
X42119700Y-184716666D02*
X41886366Y-184716666D01*
X41886366Y-184716666D02*
X41753033Y-184683333D01*
X41753033Y-184683333D02*
X41686366Y-184616666D01*
X41686366Y-184616666D02*
X41653033Y-184550000D01*
X41653033Y-184550000D02*
X41653033Y-184416666D01*
X41653033Y-184416666D02*
X41686366Y-184350000D01*
X41686366Y-184350000D02*
X41753033Y-184283333D01*
X41753033Y-184283333D02*
X41886366Y-184250000D01*
X41886366Y-184250000D02*
X42119700Y-184250000D01*
X42119700Y-184250000D02*
X42253033Y-184283333D01*
X42253033Y-184283333D02*
X42319700Y-184350000D01*
X42319700Y-184350000D02*
X42353033Y-184416666D01*
X42353033Y-184416666D02*
X42353033Y-184550000D01*
X41719700Y-183983333D02*
X41686366Y-183950000D01*
X41686366Y-183950000D02*
X41653033Y-183883333D01*
X41653033Y-183883333D02*
X41653033Y-183716667D01*
X41653033Y-183716667D02*
X41686366Y-183650000D01*
X41686366Y-183650000D02*
X41719700Y-183616667D01*
X41719700Y-183616667D02*
X41786366Y-183583333D01*
X41786366Y-183583333D02*
X41853033Y-183583333D01*
X41853033Y-183583333D02*
X41953033Y-183616667D01*
X41953033Y-183616667D02*
X42353033Y-184016667D01*
X42353033Y-184016667D02*
X42353033Y-183583333D01*
X13288571Y-157594700D02*
X14431429Y-157594700D01*
X13860000Y-158166128D02*
X13860000Y-157023271D01*
X26288571Y-157594700D02*
X27431429Y-157594700D01*
X33331999Y-167448033D02*
X33098666Y-167114700D01*
X32931999Y-167448033D02*
X32931999Y-166748033D01*
X32931999Y-166748033D02*
X33198666Y-166748033D01*
X33198666Y-166748033D02*
X33265333Y-166781366D01*
X33265333Y-166781366D02*
X33298666Y-166814700D01*
X33298666Y-166814700D02*
X33331999Y-166881366D01*
X33331999Y-166881366D02*
X33331999Y-166981366D01*
X33331999Y-166981366D02*
X33298666Y-167048033D01*
X33298666Y-167048033D02*
X33265333Y-167081366D01*
X33265333Y-167081366D02*
X33198666Y-167114700D01*
X33198666Y-167114700D02*
X32931999Y-167114700D01*
X33998666Y-167448033D02*
X33598666Y-167448033D01*
X33798666Y-167448033D02*
X33798666Y-166748033D01*
X33798666Y-166748033D02*
X33731999Y-166848033D01*
X33731999Y-166848033D02*
X33665333Y-166914700D01*
X33665333Y-166914700D02*
X33598666Y-166948033D01*
X34432000Y-166748033D02*
X34498666Y-166748033D01*
X34498666Y-166748033D02*
X34565333Y-166781366D01*
X34565333Y-166781366D02*
X34598666Y-166814700D01*
X34598666Y-166814700D02*
X34632000Y-166881366D01*
X34632000Y-166881366D02*
X34665333Y-167014700D01*
X34665333Y-167014700D02*
X34665333Y-167181366D01*
X34665333Y-167181366D02*
X34632000Y-167314700D01*
X34632000Y-167314700D02*
X34598666Y-167381366D01*
X34598666Y-167381366D02*
X34565333Y-167414700D01*
X34565333Y-167414700D02*
X34498666Y-167448033D01*
X34498666Y-167448033D02*
X34432000Y-167448033D01*
X34432000Y-167448033D02*
X34365333Y-167414700D01*
X34365333Y-167414700D02*
X34332000Y-167381366D01*
X34332000Y-167381366D02*
X34298666Y-167314700D01*
X34298666Y-167314700D02*
X34265333Y-167181366D01*
X34265333Y-167181366D02*
X34265333Y-167014700D01*
X34265333Y-167014700D02*
X34298666Y-166881366D01*
X34298666Y-166881366D02*
X34332000Y-166814700D01*
X34332000Y-166814700D02*
X34365333Y-166781366D01*
X34365333Y-166781366D02*
X34432000Y-166748033D01*
X41031333Y-197674033D02*
X40798000Y-197340700D01*
X40631333Y-197674033D02*
X40631333Y-196974033D01*
X40631333Y-196974033D02*
X40898000Y-196974033D01*
X40898000Y-196974033D02*
X40964667Y-197007366D01*
X40964667Y-197007366D02*
X40998000Y-197040700D01*
X40998000Y-197040700D02*
X41031333Y-197107366D01*
X41031333Y-197107366D02*
X41031333Y-197207366D01*
X41031333Y-197207366D02*
X40998000Y-197274033D01*
X40998000Y-197274033D02*
X40964667Y-197307366D01*
X40964667Y-197307366D02*
X40898000Y-197340700D01*
X40898000Y-197340700D02*
X40631333Y-197340700D01*
X41698000Y-197674033D02*
X41298000Y-197674033D01*
X41498000Y-197674033D02*
X41498000Y-196974033D01*
X41498000Y-196974033D02*
X41431333Y-197074033D01*
X41431333Y-197074033D02*
X41364667Y-197140700D01*
X41364667Y-197140700D02*
X41298000Y-197174033D01*
X71332033Y-178825333D02*
X71898700Y-178825333D01*
X71898700Y-178825333D02*
X71965366Y-178792000D01*
X71965366Y-178792000D02*
X71998700Y-178758666D01*
X71998700Y-178758666D02*
X72032033Y-178692000D01*
X72032033Y-178692000D02*
X72032033Y-178558666D01*
X72032033Y-178558666D02*
X71998700Y-178492000D01*
X71998700Y-178492000D02*
X71965366Y-178458666D01*
X71965366Y-178458666D02*
X71898700Y-178425333D01*
X71898700Y-178425333D02*
X71332033Y-178425333D01*
X72032033Y-177725333D02*
X72032033Y-178125333D01*
X72032033Y-177925333D02*
X71332033Y-177925333D01*
X71332033Y-177925333D02*
X71432033Y-177992000D01*
X71432033Y-177992000D02*
X71498700Y-178058667D01*
X71498700Y-178058667D02*
X71532033Y-178125333D01*
X27365333Y-162561700D02*
X27298666Y-162528366D01*
X27298666Y-162528366D02*
X27232000Y-162461700D01*
X27232000Y-162461700D02*
X27132000Y-162361700D01*
X27132000Y-162361700D02*
X27065333Y-162328366D01*
X27065333Y-162328366D02*
X26998666Y-162328366D01*
X27032000Y-162495033D02*
X26965333Y-162461700D01*
X26965333Y-162461700D02*
X26898666Y-162395033D01*
X26898666Y-162395033D02*
X26865333Y-162261700D01*
X26865333Y-162261700D02*
X26865333Y-162028366D01*
X26865333Y-162028366D02*
X26898666Y-161895033D01*
X26898666Y-161895033D02*
X26965333Y-161828366D01*
X26965333Y-161828366D02*
X27032000Y-161795033D01*
X27032000Y-161795033D02*
X27165333Y-161795033D01*
X27165333Y-161795033D02*
X27232000Y-161828366D01*
X27232000Y-161828366D02*
X27298666Y-161895033D01*
X27298666Y-161895033D02*
X27332000Y-162028366D01*
X27332000Y-162028366D02*
X27332000Y-162261700D01*
X27332000Y-162261700D02*
X27298666Y-162395033D01*
X27298666Y-162395033D02*
X27232000Y-162461700D01*
X27232000Y-162461700D02*
X27165333Y-162495033D01*
X27165333Y-162495033D02*
X27032000Y-162495033D01*
X27998666Y-162495033D02*
X27598666Y-162495033D01*
X27798666Y-162495033D02*
X27798666Y-161795033D01*
X27798666Y-161795033D02*
X27731999Y-161895033D01*
X27731999Y-161895033D02*
X27665333Y-161961700D01*
X27665333Y-161961700D02*
X27598666Y-161995033D01*
X68808666Y-159305833D02*
X68808666Y-159872500D01*
X68808666Y-159872500D02*
X68842000Y-159939166D01*
X68842000Y-159939166D02*
X68875333Y-159972500D01*
X68875333Y-159972500D02*
X68942000Y-160005833D01*
X68942000Y-160005833D02*
X69075333Y-160005833D01*
X69075333Y-160005833D02*
X69142000Y-159972500D01*
X69142000Y-159972500D02*
X69175333Y-159939166D01*
X69175333Y-159939166D02*
X69208666Y-159872500D01*
X69208666Y-159872500D02*
X69208666Y-159305833D01*
X69841999Y-159539166D02*
X69841999Y-160005833D01*
X69675333Y-159272500D02*
X69508666Y-159772500D01*
X69508666Y-159772500D02*
X69941999Y-159772500D01*
X13121571Y-174104700D02*
X14264429Y-174104700D01*
X13693000Y-174676128D02*
X13693000Y-173533271D01*
X26121571Y-174104700D02*
X27264429Y-174104700D01*
X40067033Y-172582666D02*
X39733700Y-172815999D01*
X40067033Y-172982666D02*
X39367033Y-172982666D01*
X39367033Y-172982666D02*
X39367033Y-172715999D01*
X39367033Y-172715999D02*
X39400366Y-172649333D01*
X39400366Y-172649333D02*
X39433700Y-172615999D01*
X39433700Y-172615999D02*
X39500366Y-172582666D01*
X39500366Y-172582666D02*
X39600366Y-172582666D01*
X39600366Y-172582666D02*
X39667033Y-172615999D01*
X39667033Y-172615999D02*
X39700366Y-172649333D01*
X39700366Y-172649333D02*
X39733700Y-172715999D01*
X39733700Y-172715999D02*
X39733700Y-172982666D01*
X39667033Y-172182666D02*
X39633700Y-172249333D01*
X39633700Y-172249333D02*
X39600366Y-172282666D01*
X39600366Y-172282666D02*
X39533700Y-172315999D01*
X39533700Y-172315999D02*
X39500366Y-172315999D01*
X39500366Y-172315999D02*
X39433700Y-172282666D01*
X39433700Y-172282666D02*
X39400366Y-172249333D01*
X39400366Y-172249333D02*
X39367033Y-172182666D01*
X39367033Y-172182666D02*
X39367033Y-172049333D01*
X39367033Y-172049333D02*
X39400366Y-171982666D01*
X39400366Y-171982666D02*
X39433700Y-171949333D01*
X39433700Y-171949333D02*
X39500366Y-171915999D01*
X39500366Y-171915999D02*
X39533700Y-171915999D01*
X39533700Y-171915999D02*
X39600366Y-171949333D01*
X39600366Y-171949333D02*
X39633700Y-171982666D01*
X39633700Y-171982666D02*
X39667033Y-172049333D01*
X39667033Y-172049333D02*
X39667033Y-172182666D01*
X39667033Y-172182666D02*
X39700366Y-172249333D01*
X39700366Y-172249333D02*
X39733700Y-172282666D01*
X39733700Y-172282666D02*
X39800366Y-172315999D01*
X39800366Y-172315999D02*
X39933700Y-172315999D01*
X39933700Y-172315999D02*
X40000366Y-172282666D01*
X40000366Y-172282666D02*
X40033700Y-172249333D01*
X40033700Y-172249333D02*
X40067033Y-172182666D01*
X40067033Y-172182666D02*
X40067033Y-172049333D01*
X40067033Y-172049333D02*
X40033700Y-171982666D01*
X40033700Y-171982666D02*
X40000366Y-171949333D01*
X40000366Y-171949333D02*
X39933700Y-171915999D01*
X39933700Y-171915999D02*
X39800366Y-171915999D01*
X39800366Y-171915999D02*
X39733700Y-171949333D01*
X39733700Y-171949333D02*
X39700366Y-171982666D01*
X39700366Y-171982666D02*
X39667033Y-172049333D01*
X78356033Y-182430666D02*
X78856033Y-182430666D01*
X78856033Y-182430666D02*
X78956033Y-182463999D01*
X78956033Y-182463999D02*
X79022700Y-182530666D01*
X79022700Y-182530666D02*
X79056033Y-182630666D01*
X79056033Y-182630666D02*
X79056033Y-182697333D01*
X78422700Y-182130666D02*
X78389366Y-182097333D01*
X78389366Y-182097333D02*
X78356033Y-182030666D01*
X78356033Y-182030666D02*
X78356033Y-181864000D01*
X78356033Y-181864000D02*
X78389366Y-181797333D01*
X78389366Y-181797333D02*
X78422700Y-181764000D01*
X78422700Y-181764000D02*
X78489366Y-181730666D01*
X78489366Y-181730666D02*
X78556033Y-181730666D01*
X78556033Y-181730666D02*
X78656033Y-181764000D01*
X78656033Y-181764000D02*
X79056033Y-182164000D01*
X79056033Y-182164000D02*
X79056033Y-181730666D01*
X78589366Y-181130666D02*
X79056033Y-181130666D01*
X78322700Y-181297333D02*
X78822700Y-181463999D01*
X78822700Y-181463999D02*
X78822700Y-181030666D01*
X26034571Y-192138700D02*
X27177429Y-192138700D01*
X13034571Y-192138700D02*
X14177429Y-192138700D01*
X13606000Y-192710128D02*
X13606000Y-191567271D01*
X56045999Y-157542033D02*
X56045999Y-156842033D01*
X56045999Y-156842033D02*
X56212666Y-156842033D01*
X56212666Y-156842033D02*
X56312666Y-156875366D01*
X56312666Y-156875366D02*
X56379333Y-156942033D01*
X56379333Y-156942033D02*
X56412666Y-157008700D01*
X56412666Y-157008700D02*
X56445999Y-157142033D01*
X56445999Y-157142033D02*
X56445999Y-157242033D01*
X56445999Y-157242033D02*
X56412666Y-157375366D01*
X56412666Y-157375366D02*
X56379333Y-157442033D01*
X56379333Y-157442033D02*
X56312666Y-157508700D01*
X56312666Y-157508700D02*
X56212666Y-157542033D01*
X56212666Y-157542033D02*
X56045999Y-157542033D01*
X57112666Y-157542033D02*
X56712666Y-157542033D01*
X56912666Y-157542033D02*
X56912666Y-156842033D01*
X56912666Y-156842033D02*
X56845999Y-156942033D01*
X56845999Y-156942033D02*
X56779333Y-157008700D01*
X56779333Y-157008700D02*
X56712666Y-157042033D01*
X57779333Y-157542033D02*
X57379333Y-157542033D01*
X57579333Y-157542033D02*
X57579333Y-156842033D01*
X57579333Y-156842033D02*
X57512666Y-156942033D01*
X57512666Y-156942033D02*
X57446000Y-157008700D01*
X57446000Y-157008700D02*
X57379333Y-157042033D01*
X48905333Y-151506366D02*
X48872000Y-151539700D01*
X48872000Y-151539700D02*
X48772000Y-151573033D01*
X48772000Y-151573033D02*
X48705333Y-151573033D01*
X48705333Y-151573033D02*
X48605333Y-151539700D01*
X48605333Y-151539700D02*
X48538667Y-151473033D01*
X48538667Y-151473033D02*
X48505333Y-151406366D01*
X48505333Y-151406366D02*
X48472000Y-151273033D01*
X48472000Y-151273033D02*
X48472000Y-151173033D01*
X48472000Y-151173033D02*
X48505333Y-151039700D01*
X48505333Y-151039700D02*
X48538667Y-150973033D01*
X48538667Y-150973033D02*
X48605333Y-150906366D01*
X48605333Y-150906366D02*
X48705333Y-150873033D01*
X48705333Y-150873033D02*
X48772000Y-150873033D01*
X48772000Y-150873033D02*
X48872000Y-150906366D01*
X48872000Y-150906366D02*
X48905333Y-150939700D01*
X49305333Y-151173033D02*
X49238667Y-151139700D01*
X49238667Y-151139700D02*
X49205333Y-151106366D01*
X49205333Y-151106366D02*
X49172000Y-151039700D01*
X49172000Y-151039700D02*
X49172000Y-151006366D01*
X49172000Y-151006366D02*
X49205333Y-150939700D01*
X49205333Y-150939700D02*
X49238667Y-150906366D01*
X49238667Y-150906366D02*
X49305333Y-150873033D01*
X49305333Y-150873033D02*
X49438667Y-150873033D01*
X49438667Y-150873033D02*
X49505333Y-150906366D01*
X49505333Y-150906366D02*
X49538667Y-150939700D01*
X49538667Y-150939700D02*
X49572000Y-151006366D01*
X49572000Y-151006366D02*
X49572000Y-151039700D01*
X49572000Y-151039700D02*
X49538667Y-151106366D01*
X49538667Y-151106366D02*
X49505333Y-151139700D01*
X49505333Y-151139700D02*
X49438667Y-151173033D01*
X49438667Y-151173033D02*
X49305333Y-151173033D01*
X49305333Y-151173033D02*
X49238667Y-151206366D01*
X49238667Y-151206366D02*
X49205333Y-151239700D01*
X49205333Y-151239700D02*
X49172000Y-151306366D01*
X49172000Y-151306366D02*
X49172000Y-151439700D01*
X49172000Y-151439700D02*
X49205333Y-151506366D01*
X49205333Y-151506366D02*
X49238667Y-151539700D01*
X49238667Y-151539700D02*
X49305333Y-151573033D01*
X49305333Y-151573033D02*
X49438667Y-151573033D01*
X49438667Y-151573033D02*
X49505333Y-151539700D01*
X49505333Y-151539700D02*
X49538667Y-151506366D01*
X49538667Y-151506366D02*
X49572000Y-151439700D01*
X49572000Y-151439700D02*
X49572000Y-151306366D01*
X49572000Y-151306366D02*
X49538667Y-151239700D01*
X49538667Y-151239700D02*
X49505333Y-151206366D01*
X49505333Y-151206366D02*
X49438667Y-151173033D01*
X57085033Y-172027000D02*
X56751700Y-172260333D01*
X57085033Y-172427000D02*
X56385033Y-172427000D01*
X56385033Y-172427000D02*
X56385033Y-172160333D01*
X56385033Y-172160333D02*
X56418366Y-172093667D01*
X56418366Y-172093667D02*
X56451700Y-172060333D01*
X56451700Y-172060333D02*
X56518366Y-172027000D01*
X56518366Y-172027000D02*
X56618366Y-172027000D01*
X56618366Y-172027000D02*
X56685033Y-172060333D01*
X56685033Y-172060333D02*
X56718366Y-172093667D01*
X56718366Y-172093667D02*
X56751700Y-172160333D01*
X56751700Y-172160333D02*
X56751700Y-172427000D01*
X57085033Y-171360333D02*
X57085033Y-171760333D01*
X57085033Y-171560333D02*
X56385033Y-171560333D01*
X56385033Y-171560333D02*
X56485033Y-171627000D01*
X56485033Y-171627000D02*
X56551700Y-171693667D01*
X56551700Y-171693667D02*
X56585033Y-171760333D01*
X56385033Y-171127000D02*
X56385033Y-170693666D01*
X56385033Y-170693666D02*
X56651700Y-170927000D01*
X56651700Y-170927000D02*
X56651700Y-170827000D01*
X56651700Y-170827000D02*
X56685033Y-170760333D01*
X56685033Y-170760333D02*
X56718366Y-170727000D01*
X56718366Y-170727000D02*
X56785033Y-170693666D01*
X56785033Y-170693666D02*
X56951700Y-170693666D01*
X56951700Y-170693666D02*
X57018366Y-170727000D01*
X57018366Y-170727000D02*
X57051700Y-170760333D01*
X57051700Y-170760333D02*
X57085033Y-170827000D01*
X57085033Y-170827000D02*
X57085033Y-171027000D01*
X57085033Y-171027000D02*
X57051700Y-171093666D01*
X57051700Y-171093666D02*
X57018366Y-171127000D01*
X38543033Y-179440666D02*
X38209700Y-179673999D01*
X38543033Y-179840666D02*
X37843033Y-179840666D01*
X37843033Y-179840666D02*
X37843033Y-179573999D01*
X37843033Y-179573999D02*
X37876366Y-179507333D01*
X37876366Y-179507333D02*
X37909700Y-179473999D01*
X37909700Y-179473999D02*
X37976366Y-179440666D01*
X37976366Y-179440666D02*
X38076366Y-179440666D01*
X38076366Y-179440666D02*
X38143033Y-179473999D01*
X38143033Y-179473999D02*
X38176366Y-179507333D01*
X38176366Y-179507333D02*
X38209700Y-179573999D01*
X38209700Y-179573999D02*
X38209700Y-179840666D01*
X38543033Y-179107333D02*
X38543033Y-178973999D01*
X38543033Y-178973999D02*
X38509700Y-178907333D01*
X38509700Y-178907333D02*
X38476366Y-178873999D01*
X38476366Y-178873999D02*
X38376366Y-178807333D01*
X38376366Y-178807333D02*
X38243033Y-178773999D01*
X38243033Y-178773999D02*
X37976366Y-178773999D01*
X37976366Y-178773999D02*
X37909700Y-178807333D01*
X37909700Y-178807333D02*
X37876366Y-178840666D01*
X37876366Y-178840666D02*
X37843033Y-178907333D01*
X37843033Y-178907333D02*
X37843033Y-179040666D01*
X37843033Y-179040666D02*
X37876366Y-179107333D01*
X37876366Y-179107333D02*
X37909700Y-179140666D01*
X37909700Y-179140666D02*
X37976366Y-179173999D01*
X37976366Y-179173999D02*
X38143033Y-179173999D01*
X38143033Y-179173999D02*
X38209700Y-179140666D01*
X38209700Y-179140666D02*
X38243033Y-179107333D01*
X38243033Y-179107333D02*
X38276366Y-179040666D01*
X38276366Y-179040666D02*
X38276366Y-178907333D01*
X38276366Y-178907333D02*
X38243033Y-178840666D01*
X38243033Y-178840666D02*
X38209700Y-178807333D01*
X38209700Y-178807333D02*
X38143033Y-178773999D01*
X60335333Y-168464033D02*
X60102000Y-168130700D01*
X59935333Y-168464033D02*
X59935333Y-167764033D01*
X59935333Y-167764033D02*
X60202000Y-167764033D01*
X60202000Y-167764033D02*
X60268667Y-167797366D01*
X60268667Y-167797366D02*
X60302000Y-167830700D01*
X60302000Y-167830700D02*
X60335333Y-167897366D01*
X60335333Y-167897366D02*
X60335333Y-167997366D01*
X60335333Y-167997366D02*
X60302000Y-168064033D01*
X60302000Y-168064033D02*
X60268667Y-168097366D01*
X60268667Y-168097366D02*
X60202000Y-168130700D01*
X60202000Y-168130700D02*
X59935333Y-168130700D01*
X60968667Y-167764033D02*
X60635333Y-167764033D01*
X60635333Y-167764033D02*
X60602000Y-168097366D01*
X60602000Y-168097366D02*
X60635333Y-168064033D01*
X60635333Y-168064033D02*
X60702000Y-168030700D01*
X60702000Y-168030700D02*
X60868667Y-168030700D01*
X60868667Y-168030700D02*
X60935333Y-168064033D01*
X60935333Y-168064033D02*
X60968667Y-168097366D01*
X60968667Y-168097366D02*
X61002000Y-168164033D01*
X61002000Y-168164033D02*
X61002000Y-168330700D01*
X61002000Y-168330700D02*
X60968667Y-168397366D01*
X60968667Y-168397366D02*
X60935333Y-168430700D01*
X60935333Y-168430700D02*
X60868667Y-168464033D01*
X60868667Y-168464033D02*
X60702000Y-168464033D01*
X60702000Y-168464033D02*
X60635333Y-168430700D01*
X60635333Y-168430700D02*
X60602000Y-168397366D01*
X63811999Y-151446033D02*
X63578666Y-151112700D01*
X63411999Y-151446033D02*
X63411999Y-150746033D01*
X63411999Y-150746033D02*
X63678666Y-150746033D01*
X63678666Y-150746033D02*
X63745333Y-150779366D01*
X63745333Y-150779366D02*
X63778666Y-150812700D01*
X63778666Y-150812700D02*
X63811999Y-150879366D01*
X63811999Y-150879366D02*
X63811999Y-150979366D01*
X63811999Y-150979366D02*
X63778666Y-151046033D01*
X63778666Y-151046033D02*
X63745333Y-151079366D01*
X63745333Y-151079366D02*
X63678666Y-151112700D01*
X63678666Y-151112700D02*
X63411999Y-151112700D01*
X64045333Y-150746033D02*
X64478666Y-150746033D01*
X64478666Y-150746033D02*
X64245333Y-151012700D01*
X64245333Y-151012700D02*
X64345333Y-151012700D01*
X64345333Y-151012700D02*
X64411999Y-151046033D01*
X64411999Y-151046033D02*
X64445333Y-151079366D01*
X64445333Y-151079366D02*
X64478666Y-151146033D01*
X64478666Y-151146033D02*
X64478666Y-151312700D01*
X64478666Y-151312700D02*
X64445333Y-151379366D01*
X64445333Y-151379366D02*
X64411999Y-151412700D01*
X64411999Y-151412700D02*
X64345333Y-151446033D01*
X64345333Y-151446033D02*
X64145333Y-151446033D01*
X64145333Y-151446033D02*
X64078666Y-151412700D01*
X64078666Y-151412700D02*
X64045333Y-151379366D01*
X64745333Y-150812700D02*
X64778666Y-150779366D01*
X64778666Y-150779366D02*
X64845333Y-150746033D01*
X64845333Y-150746033D02*
X65012000Y-150746033D01*
X65012000Y-150746033D02*
X65078666Y-150779366D01*
X65078666Y-150779366D02*
X65112000Y-150812700D01*
X65112000Y-150812700D02*
X65145333Y-150879366D01*
X65145333Y-150879366D02*
X65145333Y-150946033D01*
X65145333Y-150946033D02*
X65112000Y-151046033D01*
X65112000Y-151046033D02*
X64712000Y-151446033D01*
X64712000Y-151446033D02*
X65145333Y-151446033D01*
X56196033Y-152342000D02*
X55862700Y-152575333D01*
X56196033Y-152742000D02*
X55496033Y-152742000D01*
X55496033Y-152742000D02*
X55496033Y-152475333D01*
X55496033Y-152475333D02*
X55529366Y-152408667D01*
X55529366Y-152408667D02*
X55562700Y-152375333D01*
X55562700Y-152375333D02*
X55629366Y-152342000D01*
X55629366Y-152342000D02*
X55729366Y-152342000D01*
X55729366Y-152342000D02*
X55796033Y-152375333D01*
X55796033Y-152375333D02*
X55829366Y-152408667D01*
X55829366Y-152408667D02*
X55862700Y-152475333D01*
X55862700Y-152475333D02*
X55862700Y-152742000D01*
X55496033Y-152108667D02*
X55496033Y-151675333D01*
X55496033Y-151675333D02*
X55762700Y-151908667D01*
X55762700Y-151908667D02*
X55762700Y-151808667D01*
X55762700Y-151808667D02*
X55796033Y-151742000D01*
X55796033Y-151742000D02*
X55829366Y-151708667D01*
X55829366Y-151708667D02*
X55896033Y-151675333D01*
X55896033Y-151675333D02*
X56062700Y-151675333D01*
X56062700Y-151675333D02*
X56129366Y-151708667D01*
X56129366Y-151708667D02*
X56162700Y-151742000D01*
X56162700Y-151742000D02*
X56196033Y-151808667D01*
X56196033Y-151808667D02*
X56196033Y-152008667D01*
X56196033Y-152008667D02*
X56162700Y-152075333D01*
X56162700Y-152075333D02*
X56129366Y-152108667D01*
X55496033Y-151442000D02*
X55496033Y-151008666D01*
X55496033Y-151008666D02*
X55762700Y-151242000D01*
X55762700Y-151242000D02*
X55762700Y-151142000D01*
X55762700Y-151142000D02*
X55796033Y-151075333D01*
X55796033Y-151075333D02*
X55829366Y-151042000D01*
X55829366Y-151042000D02*
X55896033Y-151008666D01*
X55896033Y-151008666D02*
X56062700Y-151008666D01*
X56062700Y-151008666D02*
X56129366Y-151042000D01*
X56129366Y-151042000D02*
X56162700Y-151075333D01*
X56162700Y-151075333D02*
X56196033Y-151142000D01*
X56196033Y-151142000D02*
X56196033Y-151342000D01*
X56196033Y-151342000D02*
X56162700Y-151408666D01*
X56162700Y-151408666D02*
X56129366Y-151442000D01*
X58811333Y-151633366D02*
X58778000Y-151666700D01*
X58778000Y-151666700D02*
X58678000Y-151700033D01*
X58678000Y-151700033D02*
X58611333Y-151700033D01*
X58611333Y-151700033D02*
X58511333Y-151666700D01*
X58511333Y-151666700D02*
X58444667Y-151600033D01*
X58444667Y-151600033D02*
X58411333Y-151533366D01*
X58411333Y-151533366D02*
X58378000Y-151400033D01*
X58378000Y-151400033D02*
X58378000Y-151300033D01*
X58378000Y-151300033D02*
X58411333Y-151166700D01*
X58411333Y-151166700D02*
X58444667Y-151100033D01*
X58444667Y-151100033D02*
X58511333Y-151033366D01*
X58511333Y-151033366D02*
X58611333Y-151000033D01*
X58611333Y-151000033D02*
X58678000Y-151000033D01*
X58678000Y-151000033D02*
X58778000Y-151033366D01*
X58778000Y-151033366D02*
X58811333Y-151066700D01*
X59044667Y-151000033D02*
X59478000Y-151000033D01*
X59478000Y-151000033D02*
X59244667Y-151266700D01*
X59244667Y-151266700D02*
X59344667Y-151266700D01*
X59344667Y-151266700D02*
X59411333Y-151300033D01*
X59411333Y-151300033D02*
X59444667Y-151333366D01*
X59444667Y-151333366D02*
X59478000Y-151400033D01*
X59478000Y-151400033D02*
X59478000Y-151566700D01*
X59478000Y-151566700D02*
X59444667Y-151633366D01*
X59444667Y-151633366D02*
X59411333Y-151666700D01*
X59411333Y-151666700D02*
X59344667Y-151700033D01*
X59344667Y-151700033D02*
X59144667Y-151700033D01*
X59144667Y-151700033D02*
X59078000Y-151666700D01*
X59078000Y-151666700D02*
X59044667Y-151633366D01*
X35114033Y-172601666D02*
X34414033Y-172601666D01*
X34414033Y-172601666D02*
X34414033Y-172434999D01*
X34414033Y-172434999D02*
X34447366Y-172334999D01*
X34447366Y-172334999D02*
X34514033Y-172268333D01*
X34514033Y-172268333D02*
X34580700Y-172234999D01*
X34580700Y-172234999D02*
X34714033Y-172201666D01*
X34714033Y-172201666D02*
X34814033Y-172201666D01*
X34814033Y-172201666D02*
X34947366Y-172234999D01*
X34947366Y-172234999D02*
X35014033Y-172268333D01*
X35014033Y-172268333D02*
X35080700Y-172334999D01*
X35080700Y-172334999D02*
X35114033Y-172434999D01*
X35114033Y-172434999D02*
X35114033Y-172601666D01*
X34647366Y-171601666D02*
X35114033Y-171601666D01*
X34380700Y-171768333D02*
X34880700Y-171934999D01*
X34880700Y-171934999D02*
X34880700Y-171501666D01*
X78839366Y-187836666D02*
X78872700Y-187869999D01*
X78872700Y-187869999D02*
X78906033Y-187969999D01*
X78906033Y-187969999D02*
X78906033Y-188036666D01*
X78906033Y-188036666D02*
X78872700Y-188136666D01*
X78872700Y-188136666D02*
X78806033Y-188203333D01*
X78806033Y-188203333D02*
X78739366Y-188236666D01*
X78739366Y-188236666D02*
X78606033Y-188269999D01*
X78606033Y-188269999D02*
X78506033Y-188269999D01*
X78506033Y-188269999D02*
X78372700Y-188236666D01*
X78372700Y-188236666D02*
X78306033Y-188203333D01*
X78306033Y-188203333D02*
X78239366Y-188136666D01*
X78239366Y-188136666D02*
X78206033Y-188036666D01*
X78206033Y-188036666D02*
X78206033Y-187969999D01*
X78206033Y-187969999D02*
X78239366Y-187869999D01*
X78239366Y-187869999D02*
X78272700Y-187836666D01*
X78906033Y-187503333D02*
X78906033Y-187369999D01*
X78906033Y-187369999D02*
X78872700Y-187303333D01*
X78872700Y-187303333D02*
X78839366Y-187269999D01*
X78839366Y-187269999D02*
X78739366Y-187203333D01*
X78739366Y-187203333D02*
X78606033Y-187169999D01*
X78606033Y-187169999D02*
X78339366Y-187169999D01*
X78339366Y-187169999D02*
X78272700Y-187203333D01*
X78272700Y-187203333D02*
X78239366Y-187236666D01*
X78239366Y-187236666D02*
X78206033Y-187303333D01*
X78206033Y-187303333D02*
X78206033Y-187436666D01*
X78206033Y-187436666D02*
X78239366Y-187503333D01*
X78239366Y-187503333D02*
X78272700Y-187536666D01*
X78272700Y-187536666D02*
X78339366Y-187569999D01*
X78339366Y-187569999D02*
X78506033Y-187569999D01*
X78506033Y-187569999D02*
X78572700Y-187536666D01*
X78572700Y-187536666D02*
X78606033Y-187503333D01*
X78606033Y-187503333D02*
X78639366Y-187436666D01*
X78639366Y-187436666D02*
X78639366Y-187303333D01*
X78639366Y-187303333D02*
X78606033Y-187236666D01*
X78606033Y-187236666D02*
X78572700Y-187203333D01*
X78572700Y-187203333D02*
X78506033Y-187169999D01*
X31522333Y-197669700D02*
X31455666Y-197636366D01*
X31455666Y-197636366D02*
X31389000Y-197569700D01*
X31389000Y-197569700D02*
X31289000Y-197469700D01*
X31289000Y-197469700D02*
X31222333Y-197436366D01*
X31222333Y-197436366D02*
X31155666Y-197436366D01*
X31189000Y-197603033D02*
X31122333Y-197569700D01*
X31122333Y-197569700D02*
X31055666Y-197503033D01*
X31055666Y-197503033D02*
X31022333Y-197369700D01*
X31022333Y-197369700D02*
X31022333Y-197136366D01*
X31022333Y-197136366D02*
X31055666Y-197003033D01*
X31055666Y-197003033D02*
X31122333Y-196936366D01*
X31122333Y-196936366D02*
X31189000Y-196903033D01*
X31189000Y-196903033D02*
X31322333Y-196903033D01*
X31322333Y-196903033D02*
X31389000Y-196936366D01*
X31389000Y-196936366D02*
X31455666Y-197003033D01*
X31455666Y-197003033D02*
X31489000Y-197136366D01*
X31489000Y-197136366D02*
X31489000Y-197369700D01*
X31489000Y-197369700D02*
X31455666Y-197503033D01*
X31455666Y-197503033D02*
X31389000Y-197569700D01*
X31389000Y-197569700D02*
X31322333Y-197603033D01*
X31322333Y-197603033D02*
X31189000Y-197603033D01*
X31822333Y-197603033D02*
X31955666Y-197603033D01*
X31955666Y-197603033D02*
X32022333Y-197569700D01*
X32022333Y-197569700D02*
X32055666Y-197536366D01*
X32055666Y-197536366D02*
X32122333Y-197436366D01*
X32122333Y-197436366D02*
X32155666Y-197303033D01*
X32155666Y-197303033D02*
X32155666Y-197036366D01*
X32155666Y-197036366D02*
X32122333Y-196969700D01*
X32122333Y-196969700D02*
X32088999Y-196936366D01*
X32088999Y-196936366D02*
X32022333Y-196903033D01*
X32022333Y-196903033D02*
X31888999Y-196903033D01*
X31888999Y-196903033D02*
X31822333Y-196936366D01*
X31822333Y-196936366D02*
X31788999Y-196969700D01*
X31788999Y-196969700D02*
X31755666Y-197036366D01*
X31755666Y-197036366D02*
X31755666Y-197203033D01*
X31755666Y-197203033D02*
X31788999Y-197269700D01*
X31788999Y-197269700D02*
X31822333Y-197303033D01*
X31822333Y-197303033D02*
X31888999Y-197336366D01*
X31888999Y-197336366D02*
X32022333Y-197336366D01*
X32022333Y-197336366D02*
X32088999Y-197303033D01*
X32088999Y-197303033D02*
X32122333Y-197269700D01*
X32122333Y-197269700D02*
X32155666Y-197203033D01*
X49779366Y-182340000D02*
X49812700Y-182373333D01*
X49812700Y-182373333D02*
X49846033Y-182473333D01*
X49846033Y-182473333D02*
X49846033Y-182540000D01*
X49846033Y-182540000D02*
X49812700Y-182640000D01*
X49812700Y-182640000D02*
X49746033Y-182706667D01*
X49746033Y-182706667D02*
X49679366Y-182740000D01*
X49679366Y-182740000D02*
X49546033Y-182773333D01*
X49546033Y-182773333D02*
X49446033Y-182773333D01*
X49446033Y-182773333D02*
X49312700Y-182740000D01*
X49312700Y-182740000D02*
X49246033Y-182706667D01*
X49246033Y-182706667D02*
X49179366Y-182640000D01*
X49179366Y-182640000D02*
X49146033Y-182540000D01*
X49146033Y-182540000D02*
X49146033Y-182473333D01*
X49146033Y-182473333D02*
X49179366Y-182373333D01*
X49179366Y-182373333D02*
X49212700Y-182340000D01*
X49846033Y-181673333D02*
X49846033Y-182073333D01*
X49846033Y-181873333D02*
X49146033Y-181873333D01*
X49146033Y-181873333D02*
X49246033Y-181940000D01*
X49246033Y-181940000D02*
X49312700Y-182006667D01*
X49312700Y-182006667D02*
X49346033Y-182073333D01*
X49379366Y-181073333D02*
X49846033Y-181073333D01*
X49112700Y-181240000D02*
X49612700Y-181406666D01*
X49612700Y-181406666D02*
X49612700Y-180973333D01*
X64386033Y-166603999D02*
X64386033Y-166203999D01*
X65086033Y-166403999D02*
X64386033Y-166403999D01*
X65086033Y-165970666D02*
X64386033Y-165970666D01*
X64386033Y-165970666D02*
X64386033Y-165803999D01*
X64386033Y-165803999D02*
X64419366Y-165703999D01*
X64419366Y-165703999D02*
X64486033Y-165637333D01*
X64486033Y-165637333D02*
X64552700Y-165603999D01*
X64552700Y-165603999D02*
X64686033Y-165570666D01*
X64686033Y-165570666D02*
X64786033Y-165570666D01*
X64786033Y-165570666D02*
X64919366Y-165603999D01*
X64919366Y-165603999D02*
X64986033Y-165637333D01*
X64986033Y-165637333D02*
X65052700Y-165703999D01*
X65052700Y-165703999D02*
X65086033Y-165803999D01*
X65086033Y-165803999D02*
X65086033Y-165970666D01*
X64386033Y-165137333D02*
X64386033Y-165003999D01*
X64386033Y-165003999D02*
X64419366Y-164937333D01*
X64419366Y-164937333D02*
X64486033Y-164870666D01*
X64486033Y-164870666D02*
X64619366Y-164837333D01*
X64619366Y-164837333D02*
X64852700Y-164837333D01*
X64852700Y-164837333D02*
X64986033Y-164870666D01*
X64986033Y-164870666D02*
X65052700Y-164937333D01*
X65052700Y-164937333D02*
X65086033Y-165003999D01*
X65086033Y-165003999D02*
X65086033Y-165137333D01*
X65086033Y-165137333D02*
X65052700Y-165203999D01*
X65052700Y-165203999D02*
X64986033Y-165270666D01*
X64986033Y-165270666D02*
X64852700Y-165303999D01*
X64852700Y-165303999D02*
X64619366Y-165303999D01*
X64619366Y-165303999D02*
X64486033Y-165270666D01*
X64486033Y-165270666D02*
X64419366Y-165203999D01*
X64419366Y-165203999D02*
X64386033Y-165137333D01*
X65086033Y-164170666D02*
X65086033Y-164570666D01*
X65086033Y-164370666D02*
X64386033Y-164370666D01*
X64386033Y-164370666D02*
X64486033Y-164437333D01*
X64486033Y-164437333D02*
X64552700Y-164504000D01*
X64552700Y-164504000D02*
X64586033Y-164570666D01*
X25968333Y-169927700D02*
X25901666Y-169894366D01*
X25901666Y-169894366D02*
X25835000Y-169827700D01*
X25835000Y-169827700D02*
X25735000Y-169727700D01*
X25735000Y-169727700D02*
X25668333Y-169694366D01*
X25668333Y-169694366D02*
X25601666Y-169694366D01*
X25635000Y-169861033D02*
X25568333Y-169827700D01*
X25568333Y-169827700D02*
X25501666Y-169761033D01*
X25501666Y-169761033D02*
X25468333Y-169627700D01*
X25468333Y-169627700D02*
X25468333Y-169394366D01*
X25468333Y-169394366D02*
X25501666Y-169261033D01*
X25501666Y-169261033D02*
X25568333Y-169194366D01*
X25568333Y-169194366D02*
X25635000Y-169161033D01*
X25635000Y-169161033D02*
X25768333Y-169161033D01*
X25768333Y-169161033D02*
X25835000Y-169194366D01*
X25835000Y-169194366D02*
X25901666Y-169261033D01*
X25901666Y-169261033D02*
X25935000Y-169394366D01*
X25935000Y-169394366D02*
X25935000Y-169627700D01*
X25935000Y-169627700D02*
X25901666Y-169761033D01*
X25901666Y-169761033D02*
X25835000Y-169827700D01*
X25835000Y-169827700D02*
X25768333Y-169861033D01*
X25768333Y-169861033D02*
X25635000Y-169861033D01*
X26168333Y-169161033D02*
X26601666Y-169161033D01*
X26601666Y-169161033D02*
X26368333Y-169427700D01*
X26368333Y-169427700D02*
X26468333Y-169427700D01*
X26468333Y-169427700D02*
X26534999Y-169461033D01*
X26534999Y-169461033D02*
X26568333Y-169494366D01*
X26568333Y-169494366D02*
X26601666Y-169561033D01*
X26601666Y-169561033D02*
X26601666Y-169727700D01*
X26601666Y-169727700D02*
X26568333Y-169794366D01*
X26568333Y-169794366D02*
X26534999Y-169827700D01*
X26534999Y-169827700D02*
X26468333Y-169861033D01*
X26468333Y-169861033D02*
X26268333Y-169861033D01*
X26268333Y-169861033D02*
X26201666Y-169827700D01*
X26201666Y-169827700D02*
X26168333Y-169794366D01*
X30010999Y-167448033D02*
X30010999Y-166748033D01*
X30010999Y-166748033D02*
X30177666Y-166748033D01*
X30177666Y-166748033D02*
X30277666Y-166781366D01*
X30277666Y-166781366D02*
X30344333Y-166848033D01*
X30344333Y-166848033D02*
X30377666Y-166914700D01*
X30377666Y-166914700D02*
X30410999Y-167048033D01*
X30410999Y-167048033D02*
X30410999Y-167148033D01*
X30410999Y-167148033D02*
X30377666Y-167281366D01*
X30377666Y-167281366D02*
X30344333Y-167348033D01*
X30344333Y-167348033D02*
X30277666Y-167414700D01*
X30277666Y-167414700D02*
X30177666Y-167448033D01*
X30177666Y-167448033D02*
X30010999Y-167448033D01*
X31077666Y-167448033D02*
X30677666Y-167448033D01*
X30877666Y-167448033D02*
X30877666Y-166748033D01*
X30877666Y-166748033D02*
X30810999Y-166848033D01*
X30810999Y-166848033D02*
X30744333Y-166914700D01*
X30744333Y-166914700D02*
X30677666Y-166948033D01*
X31344333Y-166814700D02*
X31377666Y-166781366D01*
X31377666Y-166781366D02*
X31444333Y-166748033D01*
X31444333Y-166748033D02*
X31611000Y-166748033D01*
X31611000Y-166748033D02*
X31677666Y-166781366D01*
X31677666Y-166781366D02*
X31711000Y-166814700D01*
X31711000Y-166814700D02*
X31744333Y-166881366D01*
X31744333Y-166881366D02*
X31744333Y-166948033D01*
X31744333Y-166948033D02*
X31711000Y-167048033D01*
X31711000Y-167048033D02*
X31311000Y-167448033D01*
X31311000Y-167448033D02*
X31744333Y-167448033D01*
X72381333Y-151446033D02*
X72381333Y-150746033D01*
X72381333Y-150746033D02*
X72548000Y-150746033D01*
X72548000Y-150746033D02*
X72648000Y-150779366D01*
X72648000Y-150779366D02*
X72714667Y-150846033D01*
X72714667Y-150846033D02*
X72748000Y-150912700D01*
X72748000Y-150912700D02*
X72781333Y-151046033D01*
X72781333Y-151046033D02*
X72781333Y-151146033D01*
X72781333Y-151146033D02*
X72748000Y-151279366D01*
X72748000Y-151279366D02*
X72714667Y-151346033D01*
X72714667Y-151346033D02*
X72648000Y-151412700D01*
X72648000Y-151412700D02*
X72548000Y-151446033D01*
X72548000Y-151446033D02*
X72381333Y-151446033D01*
X73181333Y-151046033D02*
X73114667Y-151012700D01*
X73114667Y-151012700D02*
X73081333Y-150979366D01*
X73081333Y-150979366D02*
X73048000Y-150912700D01*
X73048000Y-150912700D02*
X73048000Y-150879366D01*
X73048000Y-150879366D02*
X73081333Y-150812700D01*
X73081333Y-150812700D02*
X73114667Y-150779366D01*
X73114667Y-150779366D02*
X73181333Y-150746033D01*
X73181333Y-150746033D02*
X73314667Y-150746033D01*
X73314667Y-150746033D02*
X73381333Y-150779366D01*
X73381333Y-150779366D02*
X73414667Y-150812700D01*
X73414667Y-150812700D02*
X73448000Y-150879366D01*
X73448000Y-150879366D02*
X73448000Y-150912700D01*
X73448000Y-150912700D02*
X73414667Y-150979366D01*
X73414667Y-150979366D02*
X73381333Y-151012700D01*
X73381333Y-151012700D02*
X73314667Y-151046033D01*
X73314667Y-151046033D02*
X73181333Y-151046033D01*
X73181333Y-151046033D02*
X73114667Y-151079366D01*
X73114667Y-151079366D02*
X73081333Y-151112700D01*
X73081333Y-151112700D02*
X73048000Y-151179366D01*
X73048000Y-151179366D02*
X73048000Y-151312700D01*
X73048000Y-151312700D02*
X73081333Y-151379366D01*
X73081333Y-151379366D02*
X73114667Y-151412700D01*
X73114667Y-151412700D02*
X73181333Y-151446033D01*
X73181333Y-151446033D02*
X73314667Y-151446033D01*
X73314667Y-151446033D02*
X73381333Y-151412700D01*
X73381333Y-151412700D02*
X73414667Y-151379366D01*
X73414667Y-151379366D02*
X73448000Y-151312700D01*
X73448000Y-151312700D02*
X73448000Y-151179366D01*
X73448000Y-151179366D02*
X73414667Y-151112700D01*
X73414667Y-151112700D02*
X73381333Y-151079366D01*
X73381333Y-151079366D02*
X73314667Y-151046033D01*
X26121571Y-186169700D02*
X27264429Y-186169700D01*
X13121571Y-186169700D02*
X14264429Y-186169700D01*
X13693000Y-186741128D02*
X13693000Y-185598271D01*
X78229033Y-193606666D02*
X78729033Y-193606666D01*
X78729033Y-193606666D02*
X78829033Y-193639999D01*
X78829033Y-193639999D02*
X78895700Y-193706666D01*
X78895700Y-193706666D02*
X78929033Y-193806666D01*
X78929033Y-193806666D02*
X78929033Y-193873333D01*
X78295700Y-193306666D02*
X78262366Y-193273333D01*
X78262366Y-193273333D02*
X78229033Y-193206666D01*
X78229033Y-193206666D02*
X78229033Y-193040000D01*
X78229033Y-193040000D02*
X78262366Y-192973333D01*
X78262366Y-192973333D02*
X78295700Y-192940000D01*
X78295700Y-192940000D02*
X78362366Y-192906666D01*
X78362366Y-192906666D02*
X78429033Y-192906666D01*
X78429033Y-192906666D02*
X78529033Y-192940000D01*
X78529033Y-192940000D02*
X78929033Y-193340000D01*
X78929033Y-193340000D02*
X78929033Y-192906666D01*
X78229033Y-192673333D02*
X78229033Y-192239999D01*
X78229033Y-192239999D02*
X78495700Y-192473333D01*
X78495700Y-192473333D02*
X78495700Y-192373333D01*
X78495700Y-192373333D02*
X78529033Y-192306666D01*
X78529033Y-192306666D02*
X78562366Y-192273333D01*
X78562366Y-192273333D02*
X78629033Y-192239999D01*
X78629033Y-192239999D02*
X78795700Y-192239999D01*
X78795700Y-192239999D02*
X78862366Y-192273333D01*
X78862366Y-192273333D02*
X78895700Y-192306666D01*
X78895700Y-192306666D02*
X78929033Y-192373333D01*
X78929033Y-192373333D02*
X78929033Y-192573333D01*
X78929033Y-192573333D02*
X78895700Y-192639999D01*
X78895700Y-192639999D02*
X78862366Y-192673333D01*
D12*
G04 #@! TO.C,D6*
X43715000Y-188175000D02*
X45185000Y-188175000D01*
X45185000Y-188175000D02*
X45185000Y-185890000D01*
X43715000Y-185890000D02*
X43715000Y-188175000D01*
G04 #@! TO.C,TDI1*
X46311000Y-162008000D02*
X47371000Y-162008000D01*
X46311000Y-163068000D02*
X46311000Y-162008000D01*
X46311000Y-164068000D02*
X46311000Y-164128000D01*
X46311000Y-164068000D02*
X48431000Y-164068000D01*
X46311000Y-164128000D02*
X48431000Y-164128000D01*
X48431000Y-164068000D02*
X48431000Y-164128000D01*
G04 #@! TO.C,Q5*
X34899000Y-189760000D02*
X34899000Y-189490000D01*
X34899000Y-189490000D02*
X37729000Y-189490000D01*
X34899000Y-183130000D02*
X35999000Y-183130000D01*
X34899000Y-182860000D02*
X34899000Y-183130000D01*
X33399000Y-189760000D02*
X34899000Y-189760000D01*
X33399000Y-182860000D02*
X34899000Y-182860000D01*
G04 #@! TO.C,Q6*
X34820000Y-175788000D02*
X34820000Y-175518000D01*
X34820000Y-175518000D02*
X37650000Y-175518000D01*
X34820000Y-169158000D02*
X35920000Y-169158000D01*
X34820000Y-168888000D02*
X34820000Y-169158000D01*
X33320000Y-175788000D02*
X34820000Y-175788000D01*
X33320000Y-168888000D02*
X34820000Y-168888000D01*
G04 #@! TO.C,R4*
X23600742Y-160386500D02*
X24075258Y-160386500D01*
X23600742Y-161431500D02*
X24075258Y-161431500D01*
G04 #@! TO.C,C7*
X58306580Y-168531000D02*
X58025420Y-168531000D01*
X58306580Y-167511000D02*
X58025420Y-167511000D01*
G04 #@! TO.C,J16*
X55940000Y-177210000D02*
X54610000Y-177210000D01*
X55940000Y-175880000D02*
X55940000Y-177210000D01*
X55940000Y-174610000D02*
X55940000Y-169470000D01*
X55940000Y-174610000D02*
X53280000Y-174610000D01*
X55940000Y-169470000D02*
X53280000Y-169470000D01*
X53280000Y-174610000D02*
X53280000Y-169470000D01*
G04 #@! TO.C,R25*
X45705500Y-186927258D02*
X45705500Y-186452742D01*
X46750500Y-186927258D02*
X46750500Y-186452742D01*
G04 #@! TO.C,R3*
X20590742Y-160386500D02*
X21065258Y-160386500D01*
X20590742Y-161431500D02*
X21065258Y-161431500D01*
G04 #@! TO.C,R11*
X36053500Y-192960258D02*
X36053500Y-192485742D01*
X37098500Y-192960258D02*
X37098500Y-192485742D01*
G04 #@! TO.C,J18*
X53530000Y-188640000D02*
X54860000Y-188640000D01*
X53530000Y-189970000D02*
X53530000Y-188640000D01*
X53530000Y-191240000D02*
X53530000Y-196380000D01*
X53530000Y-191240000D02*
X56190000Y-191240000D01*
X53530000Y-196380000D02*
X56190000Y-196380000D01*
X56190000Y-191240000D02*
X56190000Y-196380000D01*
G04 #@! TO.C,D2*
X37311000Y-184824000D02*
X35841000Y-184824000D01*
X35841000Y-184824000D02*
X35841000Y-187109000D01*
X37311000Y-187109000D02*
X37311000Y-184824000D01*
G04 #@! TO.C,J7*
X17481000Y-167954000D02*
X17481000Y-166624000D01*
X18811000Y-167954000D02*
X17481000Y-167954000D01*
X20081000Y-167954000D02*
X25221000Y-167954000D01*
X20081000Y-167954000D02*
X20081000Y-165294000D01*
X25221000Y-167954000D02*
X25221000Y-165294000D01*
X20081000Y-165294000D02*
X25221000Y-165294000D01*
G04 #@! TO.C,J4*
X47916600Y-188640000D02*
X49246600Y-188640000D01*
X47916600Y-189970000D02*
X47916600Y-188640000D01*
X47916600Y-191240000D02*
X47916600Y-196380000D01*
X47916600Y-191240000D02*
X50576600Y-191240000D01*
X47916600Y-196380000D02*
X50576600Y-196380000D01*
X50576600Y-191240000D02*
X50576600Y-196380000D01*
G04 #@! TO.C,J15*
X50736000Y-188640000D02*
X52066000Y-188640000D01*
X50736000Y-189970000D02*
X50736000Y-188640000D01*
X50736000Y-191240000D02*
X50736000Y-196380000D01*
X50736000Y-191240000D02*
X53396000Y-191240000D01*
X50736000Y-196380000D02*
X53396000Y-196380000D01*
X53396000Y-191240000D02*
X53396000Y-196380000D01*
G04 #@! TO.C,J10*
X26610000Y-154492000D02*
X26610000Y-153162000D01*
X27940000Y-154492000D02*
X26610000Y-154492000D01*
X29210000Y-154492000D02*
X31810000Y-154492000D01*
X29210000Y-154492000D02*
X29210000Y-151832000D01*
X31810000Y-154492000D02*
X31810000Y-151832000D01*
X29210000Y-151832000D02*
X31810000Y-151832000D01*
G04 #@! TO.C,R7*
X39130500Y-186071742D02*
X39130500Y-186546258D01*
X38085500Y-186071742D02*
X38085500Y-186546258D01*
G04 #@! TO.C,J19*
X56160000Y-186380000D02*
X54830000Y-186380000D01*
X56160000Y-185050000D02*
X56160000Y-186380000D01*
X56160000Y-183780000D02*
X56160000Y-181180000D01*
X56160000Y-183780000D02*
X53500000Y-183780000D01*
X56160000Y-181180000D02*
X53500000Y-181180000D01*
X53500000Y-183780000D02*
X53500000Y-181180000D01*
G04 #@! TO.C,R12*
X33828258Y-166003500D02*
X33353742Y-166003500D01*
X33828258Y-164958500D02*
X33353742Y-164958500D01*
G04 #@! TO.C,J9*
X25403000Y-181496000D02*
X25403000Y-178676000D01*
X25403000Y-181496000D02*
X23703000Y-182796000D01*
X25403000Y-178676000D02*
X23703000Y-177376000D01*
X23703000Y-182796000D02*
X14983000Y-182796000D01*
X23703000Y-177376000D02*
X14983000Y-177376000D01*
X14983000Y-182796000D02*
X14983000Y-177376000D01*
G04 #@! TO.C,GND1*
X68028000Y-167342000D02*
X69088000Y-167342000D01*
X68028000Y-168402000D02*
X68028000Y-167342000D01*
X68028000Y-169402000D02*
X68028000Y-169462000D01*
X68028000Y-169402000D02*
X70148000Y-169402000D01*
X68028000Y-169462000D02*
X70148000Y-169462000D01*
X70148000Y-169402000D02*
X70148000Y-169462000D01*
G04 #@! TO.C,Q4*
X34855000Y-182775000D02*
X34855000Y-182505000D01*
X34855000Y-182505000D02*
X37685000Y-182505000D01*
X34855000Y-176145000D02*
X35955000Y-176145000D01*
X34855000Y-175875000D02*
X34855000Y-176145000D01*
X33355000Y-182775000D02*
X34855000Y-182775000D01*
X33355000Y-175875000D02*
X34855000Y-175875000D01*
G04 #@! TO.C,R2*
X40852936Y-189280000D02*
X45207064Y-189280000D01*
X40852936Y-192700000D02*
X45207064Y-192700000D01*
G04 #@! TO.C,R15*
X61834500Y-170671258D02*
X61834500Y-170196742D01*
X62879500Y-170671258D02*
X62879500Y-170196742D01*
G04 #@! TO.C,D5*
X32219000Y-166216000D02*
X32219000Y-164746000D01*
X32219000Y-164746000D02*
X29934000Y-164746000D01*
X29934000Y-166216000D02*
X32219000Y-166216000D01*
G04 #@! TO.C,J6*
X17481000Y-170748000D02*
X17481000Y-169418000D01*
X18811000Y-170748000D02*
X17481000Y-170748000D01*
X20081000Y-170748000D02*
X25221000Y-170748000D01*
X20081000Y-170748000D02*
X20081000Y-168088000D01*
X25221000Y-170748000D02*
X25221000Y-168088000D01*
X20081000Y-168088000D02*
X25221000Y-168088000D01*
G04 #@! TO.C,D18*
X37201000Y-158232600D02*
X37201000Y-160232600D01*
X37201000Y-160232600D02*
X41501000Y-160232600D01*
X41501000Y-158232600D02*
X37201000Y-158232600D01*
G04 #@! TO.C,TMS1*
X58630000Y-163659000D02*
X59690000Y-163659000D01*
X58630000Y-164719000D02*
X58630000Y-163659000D01*
X58630000Y-165719000D02*
X58630000Y-165779000D01*
X58630000Y-165719000D02*
X60750000Y-165719000D01*
X58630000Y-165779000D02*
X60750000Y-165779000D01*
X60750000Y-165719000D02*
X60750000Y-165779000D01*
G04 #@! TO.C,TCK1*
X65869000Y-167342000D02*
X66929000Y-167342000D01*
X65869000Y-168402000D02*
X65869000Y-167342000D01*
X65869000Y-169402000D02*
X65869000Y-169462000D01*
X65869000Y-169402000D02*
X67989000Y-169402000D01*
X65869000Y-169462000D02*
X67989000Y-169462000D01*
X67989000Y-169402000D02*
X67989000Y-169462000D01*
G04 #@! TO.C,J3*
X50860000Y-177225000D02*
X49530000Y-177225000D01*
X50860000Y-175895000D02*
X50860000Y-177225000D01*
X50860000Y-174625000D02*
X50860000Y-169485000D01*
X50860000Y-174625000D02*
X48200000Y-174625000D01*
X50860000Y-169485000D02*
X48200000Y-169485000D01*
X48200000Y-174625000D02*
X48200000Y-169485000D01*
G04 #@! TO.C,Q2*
X43597000Y-187022500D02*
X43597000Y-185347500D01*
X43597000Y-187022500D02*
X43597000Y-187672500D01*
X40477000Y-187022500D02*
X40477000Y-186372500D01*
X40477000Y-187022500D02*
X40477000Y-187672500D01*
G04 #@! TO.C,J8*
X25570000Y-158890000D02*
X25570000Y-156070000D01*
X25570000Y-158890000D02*
X23870000Y-160190000D01*
X25570000Y-156070000D02*
X23870000Y-154770000D01*
X23870000Y-160190000D02*
X15150000Y-160190000D01*
X23870000Y-154770000D02*
X15150000Y-154770000D01*
X15150000Y-160190000D02*
X15150000Y-154770000D01*
G04 #@! TO.C,R10*
X33290742Y-168006500D02*
X33765258Y-168006500D01*
X33290742Y-169051500D02*
X33765258Y-169051500D01*
G04 #@! TO.C,R1*
X40852936Y-193070000D02*
X45207064Y-193070000D01*
X40852936Y-196490000D02*
X45207064Y-196490000D01*
G04 #@! TO.C,U1*
X77280000Y-198515000D02*
X77280000Y-192100000D01*
X77280000Y-198515000D02*
X59040000Y-198515000D01*
X77280000Y-192100000D02*
X77660000Y-192100000D01*
X77280000Y-173555000D02*
X77280000Y-172775000D01*
X77280000Y-172775000D02*
X76280000Y-172775000D01*
X59040000Y-198515000D02*
X59040000Y-192100000D01*
X59040000Y-173555000D02*
X59040000Y-172775000D01*
X59040000Y-172775000D02*
X60040000Y-172775000D01*
G04 #@! TO.C,Q1*
X27305000Y-166025000D02*
X28980000Y-166025000D01*
X27305000Y-166025000D02*
X26655000Y-166025000D01*
X27305000Y-162905000D02*
X27955000Y-162905000D01*
X27305000Y-162905000D02*
X26655000Y-162905000D01*
G04 #@! TO.C,U4*
X65140000Y-152038000D02*
X71150000Y-152038000D01*
X67390000Y-158858000D02*
X71150000Y-158858000D01*
X71150000Y-152038000D02*
X71150000Y-153298000D01*
X71150000Y-158858000D02*
X71150000Y-157598000D01*
G04 #@! TO.C,J1*
X77530000Y-159333000D02*
X76200000Y-159333000D01*
X77530000Y-158003000D02*
X77530000Y-159333000D01*
X77530000Y-156733000D02*
X77530000Y-151593000D01*
X77530000Y-156733000D02*
X74870000Y-156733000D01*
X77530000Y-151593000D02*
X74870000Y-151593000D01*
X74870000Y-156733000D02*
X74870000Y-151593000D01*
G04 #@! TO.C,J17*
X25403000Y-175400000D02*
X25403000Y-172580000D01*
X25403000Y-175400000D02*
X23703000Y-176700000D01*
X25403000Y-172580000D02*
X23703000Y-171280000D01*
X23703000Y-176700000D02*
X14983000Y-176700000D01*
X23703000Y-171280000D02*
X14983000Y-171280000D01*
X14983000Y-176700000D02*
X14983000Y-171280000D01*
G04 #@! TO.C,R8*
X38749500Y-172228742D02*
X38749500Y-172703258D01*
X37704500Y-172228742D02*
X37704500Y-172703258D01*
G04 #@! TO.C,J24*
X84406000Y-174424000D02*
X83156000Y-174424000D01*
X84106000Y-174724000D02*
X79386000Y-174724000D01*
X82796000Y-174724000D02*
X82796000Y-175334000D01*
X81496000Y-174724000D02*
X81496000Y-175334000D01*
X79386000Y-174724000D02*
X79386000Y-186844000D01*
X83496000Y-175334000D02*
X79996000Y-175334000D01*
X79996000Y-175334000D02*
X79996000Y-186234000D01*
X84406000Y-175674000D02*
X84406000Y-174424000D01*
X84306000Y-176184000D02*
X84106000Y-176184000D01*
X84306000Y-176484000D02*
X84306000Y-176184000D01*
X84206000Y-176484000D02*
X84206000Y-176184000D01*
X84106000Y-176484000D02*
X84306000Y-176484000D01*
X84106000Y-177284000D02*
X83496000Y-177284000D01*
X83496000Y-177284000D02*
X83496000Y-175334000D01*
X80496000Y-177684000D02*
X80496000Y-177884000D01*
X79996000Y-177684000D02*
X80496000Y-177684000D01*
X79996000Y-177784000D02*
X80496000Y-177784000D01*
X80496000Y-177884000D02*
X79996000Y-177884000D01*
X80496000Y-179684000D02*
X80496000Y-179884000D01*
X79996000Y-179684000D02*
X80496000Y-179684000D01*
X79996000Y-179784000D02*
X80496000Y-179784000D01*
X80496000Y-179884000D02*
X79996000Y-179884000D01*
X80496000Y-181684000D02*
X80496000Y-181884000D01*
X79996000Y-181684000D02*
X80496000Y-181684000D01*
X79996000Y-181784000D02*
X80496000Y-181784000D01*
X80496000Y-181884000D02*
X79996000Y-181884000D01*
X80496000Y-183684000D02*
X80496000Y-183884000D01*
X79996000Y-183684000D02*
X80496000Y-183684000D01*
X79996000Y-183784000D02*
X80496000Y-183784000D01*
X80496000Y-183884000D02*
X79996000Y-183884000D01*
X83496000Y-184284000D02*
X84106000Y-184284000D01*
X83496000Y-186234000D02*
X83496000Y-184284000D01*
X79996000Y-186234000D02*
X83496000Y-186234000D01*
X84106000Y-186844000D02*
X84106000Y-174724000D01*
X82796000Y-186844000D02*
X82796000Y-186234000D01*
X81496000Y-186844000D02*
X81496000Y-186234000D01*
X79386000Y-186844000D02*
X84106000Y-186844000D01*
G04 #@! TO.C,J5*
X25316000Y-193434000D02*
X25316000Y-190614000D01*
X25316000Y-193434000D02*
X23616000Y-194734000D01*
X25316000Y-190614000D02*
X23616000Y-189314000D01*
X23616000Y-194734000D02*
X14896000Y-194734000D01*
X23616000Y-189314000D02*
X14896000Y-189314000D01*
X14896000Y-194734000D02*
X14896000Y-189314000D01*
G04 #@! TO.C,J12*
X82610000Y-159318000D02*
X81280000Y-159318000D01*
X82610000Y-157988000D02*
X82610000Y-159318000D01*
X82610000Y-156718000D02*
X82610000Y-151578000D01*
X82610000Y-156718000D02*
X79950000Y-156718000D01*
X82610000Y-151578000D02*
X79950000Y-151578000D01*
X79950000Y-156718000D02*
X79950000Y-151578000D01*
G04 #@! TO.C,D11*
X57885000Y-153709000D02*
X56415000Y-153709000D01*
X56415000Y-153709000D02*
X56415000Y-155994000D01*
X57885000Y-155994000D02*
X57885000Y-153709000D01*
G04 #@! TO.C,J13*
X53400000Y-177225000D02*
X52070000Y-177225000D01*
X53400000Y-175895000D02*
X53400000Y-177225000D01*
X53400000Y-174625000D02*
X53400000Y-169485000D01*
X53400000Y-174625000D02*
X50740000Y-174625000D01*
X53400000Y-169485000D02*
X50740000Y-169485000D01*
X50740000Y-174625000D02*
X50740000Y-169485000D01*
G04 #@! TO.C,C8*
X48785000Y-152493000D02*
X49410000Y-152493000D01*
X49097500Y-152180500D02*
X49097500Y-152805500D01*
X49650000Y-152482437D02*
X49650000Y-153118000D01*
X49650000Y-152482437D02*
X50714437Y-151418000D01*
X49650000Y-155873563D02*
X49650000Y-155238000D01*
X49650000Y-155873563D02*
X50714437Y-156938000D01*
X50714437Y-151418000D02*
X55170000Y-151418000D01*
X50714437Y-156938000D02*
X55170000Y-156938000D01*
X55170000Y-151418000D02*
X55170000Y-153118000D01*
X55170000Y-156938000D02*
X55170000Y-155238000D01*
G04 #@! TO.C,R13*
X58561500Y-171402742D02*
X58561500Y-171877258D01*
X57516500Y-171402742D02*
X57516500Y-171877258D01*
G04 #@! TO.C,R9*
X36053500Y-179624258D02*
X36053500Y-179149742D01*
X37098500Y-179624258D02*
X37098500Y-179149742D01*
G04 #@! TO.C,R5*
X59579742Y-168895500D02*
X60054258Y-168895500D01*
X59579742Y-169940500D02*
X60054258Y-169940500D01*
G04 #@! TO.C,R32*
X67484258Y-151652500D02*
X67009742Y-151652500D01*
X67484258Y-150607500D02*
X67009742Y-150607500D01*
G04 #@! TO.C,J2*
X80070000Y-159333000D02*
X78740000Y-159333000D01*
X80070000Y-158003000D02*
X80070000Y-159333000D01*
X80070000Y-156733000D02*
X80070000Y-151593000D01*
X80070000Y-156733000D02*
X77410000Y-156733000D01*
X80070000Y-151593000D02*
X77410000Y-151593000D01*
X77410000Y-156733000D02*
X77410000Y-151593000D01*
G04 #@! TO.C,R33*
X56627500Y-152383258D02*
X56627500Y-151908742D01*
X57672500Y-152383258D02*
X57672500Y-151908742D01*
G04 #@! TO.C,J11*
X23936000Y-151832000D02*
X23936000Y-153162000D01*
X22606000Y-151832000D02*
X23936000Y-151832000D01*
X21336000Y-151832000D02*
X16196000Y-151832000D01*
X21336000Y-151832000D02*
X21336000Y-154492000D01*
X16196000Y-151832000D02*
X16196000Y-154492000D01*
X21336000Y-154492000D02*
X16196000Y-154492000D01*
G04 #@! TO.C,C3*
X59275000Y-158438000D02*
X59275000Y-157813000D01*
X58962500Y-158125500D02*
X59587500Y-158125500D01*
X59264437Y-157573000D02*
X59900000Y-157573000D01*
X59264437Y-157573000D02*
X58200000Y-156508563D01*
X62655563Y-157573000D02*
X62020000Y-157573000D01*
X62655563Y-157573000D02*
X63720000Y-156508563D01*
X58200000Y-156508563D02*
X58200000Y-152053000D01*
X63720000Y-156508563D02*
X63720000Y-152053000D01*
X58200000Y-152053000D02*
X59900000Y-152053000D01*
X63720000Y-152053000D02*
X62020000Y-152053000D01*
G04 #@! TO.C,D4*
X37311000Y-170981000D02*
X35841000Y-170981000D01*
X35841000Y-170981000D02*
X35841000Y-173266000D01*
X37311000Y-173266000D02*
X37311000Y-170981000D01*
G04 #@! TO.C,C9*
X78970000Y-189974420D02*
X78970000Y-190255580D01*
X77950000Y-189974420D02*
X77950000Y-190255580D01*
G04 #@! TO.C,Q9*
X34899000Y-196237000D02*
X34899000Y-195967000D01*
X34899000Y-195967000D02*
X37729000Y-195967000D01*
X34899000Y-189607000D02*
X35999000Y-189607000D01*
X34899000Y-189337000D02*
X34899000Y-189607000D01*
X28479000Y-196237000D02*
X34899000Y-196237000D01*
X28479000Y-189337000D02*
X34899000Y-189337000D01*
G04 #@! TO.C,C14*
X50167000Y-184149420D02*
X50167000Y-184430580D01*
X49147000Y-184149420D02*
X49147000Y-184430580D01*
G04 #@! TO.C,TDO1*
X63710000Y-167342000D02*
X64770000Y-167342000D01*
X63710000Y-168402000D02*
X63710000Y-167342000D01*
X63710000Y-169402000D02*
X63710000Y-169462000D01*
X63710000Y-169402000D02*
X65830000Y-169402000D01*
X63710000Y-169462000D02*
X65830000Y-169462000D01*
X65830000Y-169402000D02*
X65830000Y-169462000D01*
G04 #@! TO.C,Q3*
X27305000Y-169200000D02*
X28980000Y-169200000D01*
X27305000Y-169200000D02*
X26655000Y-169200000D01*
X27305000Y-166080000D02*
X27955000Y-166080000D01*
X27305000Y-166080000D02*
X26655000Y-166080000D01*
G04 #@! TO.C,D12*
X32092000Y-169264000D02*
X32092000Y-167794000D01*
X32092000Y-167794000D02*
X29807000Y-167794000D01*
X29807000Y-169264000D02*
X32092000Y-169264000D01*
G04 #@! TO.C,RST1*
X58926000Y-171603580D02*
X58926000Y-171322420D01*
X59946000Y-171603580D02*
X59946000Y-171322420D01*
G04 #@! TO.C,D8*
X69101500Y-150395000D02*
X69101500Y-151865000D01*
X69101500Y-151865000D02*
X71386500Y-151865000D01*
X71386500Y-150395000D02*
X69101500Y-150395000D01*
G04 #@! TO.C,J14*
X25403000Y-187465000D02*
X25403000Y-184645000D01*
X25403000Y-187465000D02*
X23703000Y-188765000D01*
X25403000Y-184645000D02*
X23703000Y-183345000D01*
X23703000Y-188765000D02*
X14983000Y-188765000D01*
X23703000Y-183345000D02*
X14983000Y-183345000D01*
X14983000Y-188765000D02*
X14983000Y-183345000D01*
G04 #@! TO.C,J23*
X84406000Y-186870000D02*
X83156000Y-186870000D01*
X84106000Y-187170000D02*
X79386000Y-187170000D01*
X82796000Y-187170000D02*
X82796000Y-187780000D01*
X81496000Y-187170000D02*
X81496000Y-187780000D01*
X79386000Y-187170000D02*
X79386000Y-197290000D01*
X83496000Y-187780000D02*
X79996000Y-187780000D01*
X79996000Y-187780000D02*
X79996000Y-196680000D01*
X84406000Y-188120000D02*
X84406000Y-186870000D01*
X84306000Y-188630000D02*
X84106000Y-188630000D01*
X84306000Y-188930000D02*
X84306000Y-188630000D01*
X84206000Y-188930000D02*
X84206000Y-188630000D01*
X84106000Y-188930000D02*
X84306000Y-188930000D01*
X84106000Y-189730000D02*
X83496000Y-189730000D01*
X83496000Y-189730000D02*
X83496000Y-187780000D01*
X80496000Y-190130000D02*
X80496000Y-190330000D01*
X79996000Y-190130000D02*
X80496000Y-190130000D01*
X79996000Y-190230000D02*
X80496000Y-190230000D01*
X80496000Y-190330000D02*
X79996000Y-190330000D01*
X80496000Y-192130000D02*
X80496000Y-192330000D01*
X79996000Y-192130000D02*
X80496000Y-192130000D01*
X79996000Y-192230000D02*
X80496000Y-192230000D01*
X80496000Y-192330000D02*
X79996000Y-192330000D01*
X80496000Y-194130000D02*
X80496000Y-194330000D01*
X79996000Y-194130000D02*
X80496000Y-194130000D01*
X79996000Y-194230000D02*
X80496000Y-194230000D01*
X80496000Y-194330000D02*
X79996000Y-194330000D01*
X83496000Y-194730000D02*
X84106000Y-194730000D01*
X83496000Y-196680000D02*
X83496000Y-194730000D01*
X79996000Y-196680000D02*
X83496000Y-196680000D01*
X84106000Y-197290000D02*
X84106000Y-187170000D01*
X82796000Y-197290000D02*
X82796000Y-196680000D01*
X81496000Y-197290000D02*
X81496000Y-196680000D01*
X79386000Y-197290000D02*
X84106000Y-197290000D01*
G04 #@! TD*
%LPC*%
D13*
G04 #@! TO.C,D6*
X44450000Y-187477500D03*
X44450000Y-185902500D03*
G04 #@! TD*
D14*
G04 #@! TO.C,TDI1*
X47371000Y-163068000D03*
G04 #@! TD*
D15*
G04 #@! TO.C,Q5*
X36629000Y-188590000D03*
D16*
X30329000Y-186310000D03*
D15*
X36629000Y-184030000D03*
G04 #@! TD*
G04 #@! TO.C,Q6*
X36550000Y-174618000D03*
D16*
X30250000Y-172338000D03*
D15*
X36550000Y-170058000D03*
G04 #@! TD*
D17*
G04 #@! TO.C,R4*
X23013000Y-160909000D03*
X24663000Y-160909000D03*
G04 #@! TD*
D18*
G04 #@! TO.C,C7*
X58941000Y-168021000D03*
X57391000Y-168021000D03*
G04 #@! TD*
D19*
G04 #@! TO.C,J16*
X54610000Y-175880000D03*
D20*
X54610000Y-173340000D03*
X54610000Y-170800000D03*
G04 #@! TD*
D21*
G04 #@! TO.C,R25*
X46228000Y-187515000D03*
X46228000Y-185865000D03*
G04 #@! TD*
D17*
G04 #@! TO.C,R3*
X20003000Y-160909000D03*
X21653000Y-160909000D03*
G04 #@! TD*
D21*
G04 #@! TO.C,R11*
X36576000Y-193548000D03*
X36576000Y-191898000D03*
G04 #@! TD*
D19*
G04 #@! TO.C,J18*
X54860000Y-189970000D03*
D20*
X54860000Y-192510000D03*
X54860000Y-195050000D03*
G04 #@! TD*
D22*
G04 #@! TO.C,D2*
X36576000Y-185521500D03*
X36576000Y-187096500D03*
G04 #@! TD*
D19*
G04 #@! TO.C,J7*
X18811000Y-166624000D03*
D20*
X21351000Y-166624000D03*
X23891000Y-166624000D03*
G04 #@! TD*
D19*
G04 #@! TO.C,J4*
X49246600Y-189970000D03*
D20*
X49246600Y-192510000D03*
X49246600Y-195050000D03*
G04 #@! TD*
D19*
G04 #@! TO.C,J15*
X52066000Y-189970000D03*
D20*
X52066000Y-192510000D03*
X52066000Y-195050000D03*
G04 #@! TD*
D19*
G04 #@! TO.C,J10*
X27940000Y-153162000D03*
D20*
X30480000Y-153162000D03*
G04 #@! TD*
D23*
G04 #@! TO.C,R7*
X38608000Y-185484000D03*
X38608000Y-187134000D03*
G04 #@! TD*
D19*
G04 #@! TO.C,J19*
X54830000Y-185050000D03*
D20*
X54830000Y-182510000D03*
G04 #@! TD*
D24*
G04 #@! TO.C,R12*
X34416000Y-165481000D03*
X32766000Y-165481000D03*
G04 #@! TD*
D25*
G04 #@! TO.C,J9*
X22693000Y-180086000D03*
D26*
X17693000Y-180086000D03*
G04 #@! TD*
D14*
G04 #@! TO.C,GND1*
X69088000Y-168402000D03*
G04 #@! TD*
D15*
G04 #@! TO.C,Q4*
X36585000Y-181605000D03*
D16*
X30285000Y-179325000D03*
D15*
X36585000Y-177045000D03*
G04 #@! TD*
D27*
G04 #@! TO.C,R2*
X40067500Y-190990000D03*
X45992500Y-190990000D03*
G04 #@! TD*
D21*
G04 #@! TO.C,R15*
X62357000Y-171259000D03*
X62357000Y-169609000D03*
G04 #@! TD*
D28*
G04 #@! TO.C,D5*
X31521500Y-165481000D03*
X29946500Y-165481000D03*
G04 #@! TD*
D19*
G04 #@! TO.C,J6*
X18811000Y-169418000D03*
D20*
X21351000Y-169418000D03*
X23891000Y-169418000D03*
G04 #@! TD*
D29*
G04 #@! TO.C,D18*
X38001000Y-159232600D03*
X41501000Y-159232600D03*
G04 #@! TD*
D14*
G04 #@! TO.C,TMS1*
X59690000Y-164719000D03*
G04 #@! TD*
G04 #@! TO.C,TCK1*
X66929000Y-168402000D03*
G04 #@! TD*
D19*
G04 #@! TO.C,J3*
X49530000Y-175895000D03*
D20*
X49530000Y-173355000D03*
X49530000Y-170815000D03*
G04 #@! TD*
D30*
G04 #@! TO.C,Q2*
X42987000Y-186085000D03*
X41087000Y-186085000D03*
X42037000Y-187960000D03*
G04 #@! TD*
D25*
G04 #@! TO.C,J8*
X22860000Y-157480000D03*
D31*
X17860000Y-157480000D03*
G04 #@! TD*
D17*
G04 #@! TO.C,R10*
X32703000Y-168529000D03*
X34353000Y-168529000D03*
G04 #@! TD*
D27*
G04 #@! TO.C,R1*
X40067500Y-194780000D03*
X45992500Y-194780000D03*
G04 #@! TD*
D32*
G04 #@! TO.C,U1*
X76910000Y-190905000D03*
X76910000Y-189635000D03*
X76910000Y-188365000D03*
X76910000Y-187095000D03*
X76910000Y-185825000D03*
X76910000Y-184555000D03*
X76910000Y-183285000D03*
X76910000Y-182015000D03*
X76910000Y-180745000D03*
X76910000Y-179475000D03*
X76910000Y-178205000D03*
X76910000Y-176935000D03*
X76910000Y-175665000D03*
X76910000Y-174395000D03*
D33*
X73870000Y-173145000D03*
X72600000Y-173145000D03*
X71330000Y-173145000D03*
X70060000Y-173145000D03*
X68790000Y-173145000D03*
X67520000Y-173145000D03*
X66250000Y-173145000D03*
X64980000Y-173145000D03*
X63710000Y-173145000D03*
X62440000Y-173145000D03*
D32*
X59410000Y-174395000D03*
X59410000Y-175665000D03*
X59410000Y-176935000D03*
X59410000Y-178205000D03*
X59410000Y-179475000D03*
X59410000Y-180745000D03*
X59410000Y-182015000D03*
X59410000Y-183285000D03*
X59410000Y-184555000D03*
X59410000Y-185825000D03*
X59410000Y-187095000D03*
X59410000Y-188365000D03*
X59410000Y-189635000D03*
X59410000Y-190905000D03*
D34*
X68840000Y-183565000D03*
G04 #@! TD*
D35*
G04 #@! TO.C,Q1*
X28242500Y-165415000D03*
X28242500Y-163515000D03*
X26367500Y-164465000D03*
G04 #@! TD*
D36*
G04 #@! TO.C,U4*
X66090000Y-153148000D03*
X66090000Y-155448000D03*
D37*
X72390000Y-155448000D03*
D36*
X66090000Y-157748000D03*
G04 #@! TD*
D19*
G04 #@! TO.C,J1*
X76200000Y-158003000D03*
D20*
X76200000Y-155463000D03*
X76200000Y-152923000D03*
G04 #@! TD*
D25*
G04 #@! TO.C,J17*
X22693000Y-173990000D03*
D26*
X17693000Y-173990000D03*
G04 #@! TD*
D23*
G04 #@! TO.C,R8*
X38227000Y-171641000D03*
X38227000Y-173291000D03*
G04 #@! TD*
D38*
G04 #@! TO.C,J24*
X82296000Y-176784000D03*
D39*
X82296000Y-178784000D03*
X82296000Y-180784000D03*
X82296000Y-182784000D03*
X82296000Y-184784000D03*
G04 #@! TD*
D25*
G04 #@! TO.C,J5*
X22606000Y-192024000D03*
D26*
X17606000Y-192024000D03*
G04 #@! TD*
D19*
G04 #@! TO.C,J12*
X81280000Y-157988000D03*
D20*
X81280000Y-155448000D03*
X81280000Y-152908000D03*
G04 #@! TD*
D22*
G04 #@! TO.C,D11*
X57150000Y-154406500D03*
X57150000Y-155981500D03*
G04 #@! TD*
D19*
G04 #@! TO.C,J13*
X52070000Y-175895000D03*
D20*
X52070000Y-173355000D03*
X52070000Y-170815000D03*
G04 #@! TD*
D40*
G04 #@! TO.C,C8*
X50210000Y-154178000D03*
X54610000Y-154178000D03*
G04 #@! TD*
D23*
G04 #@! TO.C,R13*
X58039000Y-170815000D03*
X58039000Y-172465000D03*
G04 #@! TD*
D21*
G04 #@! TO.C,R9*
X36576000Y-180212000D03*
X36576000Y-178562000D03*
G04 #@! TD*
D17*
G04 #@! TO.C,R5*
X58992000Y-169418000D03*
X60642000Y-169418000D03*
G04 #@! TD*
D24*
G04 #@! TO.C,R32*
X68072000Y-151130000D03*
X66422000Y-151130000D03*
G04 #@! TD*
D19*
G04 #@! TO.C,J2*
X78740000Y-158003000D03*
D20*
X78740000Y-155463000D03*
X78740000Y-152923000D03*
G04 #@! TD*
D21*
G04 #@! TO.C,R33*
X57150000Y-152971000D03*
X57150000Y-151321000D03*
G04 #@! TD*
D19*
G04 #@! TO.C,J11*
X22606000Y-153162000D03*
D20*
X20066000Y-153162000D03*
X17526000Y-153162000D03*
G04 #@! TD*
D41*
G04 #@! TO.C,C3*
X60960000Y-157013000D03*
X60960000Y-152613000D03*
G04 #@! TD*
D22*
G04 #@! TO.C,D4*
X36576000Y-171678500D03*
X36576000Y-173253500D03*
G04 #@! TD*
D42*
G04 #@! TO.C,C9*
X78460000Y-189340000D03*
X78460000Y-190890000D03*
G04 #@! TD*
D43*
G04 #@! TO.C,Q9*
X36629000Y-195067000D03*
D44*
X30329000Y-192787000D03*
D43*
X36629000Y-190507000D03*
G04 #@! TD*
D42*
G04 #@! TO.C,C14*
X49657000Y-183515000D03*
X49657000Y-185065000D03*
G04 #@! TD*
D14*
G04 #@! TO.C,TDO1*
X64770000Y-168402000D03*
G04 #@! TD*
D35*
G04 #@! TO.C,Q3*
X28242500Y-168590000D03*
X28242500Y-166690000D03*
X26367500Y-167640000D03*
G04 #@! TD*
D28*
G04 #@! TO.C,D12*
X31394500Y-168529000D03*
X29819500Y-168529000D03*
G04 #@! TD*
D45*
G04 #@! TO.C,RST1*
X59436000Y-172238000D03*
X59436000Y-170688000D03*
G04 #@! TD*
D46*
G04 #@! TO.C,D8*
X69799000Y-151130000D03*
X71374000Y-151130000D03*
G04 #@! TD*
D25*
G04 #@! TO.C,J14*
X22693000Y-186055000D03*
D26*
X17693000Y-186055000D03*
G04 #@! TD*
D38*
G04 #@! TO.C,J23*
X82296000Y-189230000D03*
D39*
X82296000Y-191230000D03*
X82296000Y-193230000D03*
X82296000Y-195230000D03*
G04 #@! TD*
D47*
G04 #@! TO.C,J22*
X65199000Y-195158000D03*
X73199000Y-195158000D03*
G04 #@! TD*
%LPD*%
M02*
