%TF.GenerationSoftware,KiCad,Pcbnew,9.0.6*%
%TF.CreationDate,2026-01-13T15:48:08+02:00*%
%TF.ProjectId,jf-ecu32.7,6a662d65-6375-4333-922e-372e6b696361,rev?*%
%TF.SameCoordinates,Original*%
%TF.FileFunction,Drillmap*%
%TF.FilePolarity,Positive*%
%FSLAX45Y45*%
G04 Gerber Fmt 4.5, Leading zero omitted, Abs format (unit mm)*
G04 Created by KiCad (PCBNEW 9.0.6) date 2026-01-13 15:48:08*
%MOMM*%
%LPD*%
G01*
G04 APERTURE LIST*
%ADD10C,0.200000*%
%ADD11C,0.100000*%
G04 APERTURE END LIST*
D10*
X1278000Y-15011400D02*
X8407400Y-15011400D01*
X8407400Y-19807000D01*
X1278000Y-19807000D01*
X1278000Y-15011400D01*
D11*
X6474900Y-19470800D02*
X6564900Y-19560800D01*
X6564900Y-19470800D02*
X6474900Y-19560800D01*
X7274900Y-19470800D02*
X7364900Y-19560800D01*
X7364900Y-19470800D02*
X7274900Y-19560800D01*
D10*
X1528777Y-20128484D02*
X1528777Y-19928484D01*
X1528777Y-19928484D02*
X1576396Y-19928484D01*
X1576396Y-19928484D02*
X1604967Y-19938008D01*
X1604967Y-19938008D02*
X1624015Y-19957055D01*
X1624015Y-19957055D02*
X1633539Y-19976103D01*
X1633539Y-19976103D02*
X1643062Y-20014198D01*
X1643062Y-20014198D02*
X1643062Y-20042770D01*
X1643062Y-20042770D02*
X1633539Y-20080865D01*
X1633539Y-20080865D02*
X1624015Y-20099912D01*
X1624015Y-20099912D02*
X1604967Y-20118960D01*
X1604967Y-20118960D02*
X1576396Y-20128484D01*
X1576396Y-20128484D02*
X1528777Y-20128484D01*
X1728777Y-20128484D02*
X1728777Y-19995150D01*
X1728777Y-20033246D02*
X1738301Y-20014198D01*
X1738301Y-20014198D02*
X1747824Y-20004674D01*
X1747824Y-20004674D02*
X1766872Y-19995150D01*
X1766872Y-19995150D02*
X1785920Y-19995150D01*
X1852586Y-20128484D02*
X1852586Y-19995150D01*
X1852586Y-19928484D02*
X1843062Y-19938008D01*
X1843062Y-19938008D02*
X1852586Y-19947531D01*
X1852586Y-19947531D02*
X1862110Y-19938008D01*
X1862110Y-19938008D02*
X1852586Y-19928484D01*
X1852586Y-19928484D02*
X1852586Y-19947531D01*
X1976396Y-20128484D02*
X1957348Y-20118960D01*
X1957348Y-20118960D02*
X1947824Y-20099912D01*
X1947824Y-20099912D02*
X1947824Y-19928484D01*
X2081158Y-20128484D02*
X2062110Y-20118960D01*
X2062110Y-20118960D02*
X2052586Y-20099912D01*
X2052586Y-20099912D02*
X2052586Y-19928484D01*
X2309729Y-20128484D02*
X2309729Y-19928484D01*
X2309729Y-19928484D02*
X2376396Y-20071341D01*
X2376396Y-20071341D02*
X2443063Y-19928484D01*
X2443063Y-19928484D02*
X2443063Y-20128484D01*
X2624015Y-20128484D02*
X2624015Y-20023722D01*
X2624015Y-20023722D02*
X2614491Y-20004674D01*
X2614491Y-20004674D02*
X2595444Y-19995150D01*
X2595444Y-19995150D02*
X2557348Y-19995150D01*
X2557348Y-19995150D02*
X2538301Y-20004674D01*
X2624015Y-20118960D02*
X2604967Y-20128484D01*
X2604967Y-20128484D02*
X2557348Y-20128484D01*
X2557348Y-20128484D02*
X2538301Y-20118960D01*
X2538301Y-20118960D02*
X2528777Y-20099912D01*
X2528777Y-20099912D02*
X2528777Y-20080865D01*
X2528777Y-20080865D02*
X2538301Y-20061817D01*
X2538301Y-20061817D02*
X2557348Y-20052293D01*
X2557348Y-20052293D02*
X2604967Y-20052293D01*
X2604967Y-20052293D02*
X2624015Y-20042770D01*
X2719253Y-19995150D02*
X2719253Y-20195150D01*
X2719253Y-20004674D02*
X2738301Y-19995150D01*
X2738301Y-19995150D02*
X2776396Y-19995150D01*
X2776396Y-19995150D02*
X2795444Y-20004674D01*
X2795444Y-20004674D02*
X2804967Y-20014198D01*
X2804967Y-20014198D02*
X2814491Y-20033246D01*
X2814491Y-20033246D02*
X2814491Y-20090389D01*
X2814491Y-20090389D02*
X2804967Y-20109436D01*
X2804967Y-20109436D02*
X2795444Y-20118960D01*
X2795444Y-20118960D02*
X2776396Y-20128484D01*
X2776396Y-20128484D02*
X2738301Y-20128484D01*
X2738301Y-20128484D02*
X2719253Y-20118960D01*
X2900205Y-20109436D02*
X2909729Y-20118960D01*
X2909729Y-20118960D02*
X2900205Y-20128484D01*
X2900205Y-20128484D02*
X2890682Y-20118960D01*
X2890682Y-20118960D02*
X2900205Y-20109436D01*
X2900205Y-20109436D02*
X2900205Y-20128484D01*
X2900205Y-20004674D02*
X2909729Y-20014198D01*
X2909729Y-20014198D02*
X2900205Y-20023722D01*
X2900205Y-20023722D02*
X2890682Y-20014198D01*
X2890682Y-20014198D02*
X2900205Y-20004674D01*
X2900205Y-20004674D02*
X2900205Y-20023722D01*
D11*
X1178000Y-20412000D02*
X1268000Y-20502000D01*
X1268000Y-20412000D02*
X1178000Y-20502000D01*
D10*
X1566872Y-20348484D02*
X1585920Y-20348484D01*
X1585920Y-20348484D02*
X1604967Y-20358008D01*
X1604967Y-20358008D02*
X1614491Y-20367531D01*
X1614491Y-20367531D02*
X1624015Y-20386579D01*
X1624015Y-20386579D02*
X1633539Y-20424674D01*
X1633539Y-20424674D02*
X1633539Y-20472293D01*
X1633539Y-20472293D02*
X1624015Y-20510389D01*
X1624015Y-20510389D02*
X1614491Y-20529436D01*
X1614491Y-20529436D02*
X1604967Y-20538960D01*
X1604967Y-20538960D02*
X1585920Y-20548484D01*
X1585920Y-20548484D02*
X1566872Y-20548484D01*
X1566872Y-20548484D02*
X1547824Y-20538960D01*
X1547824Y-20538960D02*
X1538301Y-20529436D01*
X1538301Y-20529436D02*
X1528777Y-20510389D01*
X1528777Y-20510389D02*
X1519253Y-20472293D01*
X1519253Y-20472293D02*
X1519253Y-20424674D01*
X1519253Y-20424674D02*
X1528777Y-20386579D01*
X1528777Y-20386579D02*
X1538301Y-20367531D01*
X1538301Y-20367531D02*
X1547824Y-20358008D01*
X1547824Y-20358008D02*
X1566872Y-20348484D01*
X1719253Y-20529436D02*
X1728777Y-20538960D01*
X1728777Y-20538960D02*
X1719253Y-20548484D01*
X1719253Y-20548484D02*
X1709729Y-20538960D01*
X1709729Y-20538960D02*
X1719253Y-20529436D01*
X1719253Y-20529436D02*
X1719253Y-20548484D01*
X1824015Y-20548484D02*
X1862110Y-20548484D01*
X1862110Y-20548484D02*
X1881158Y-20538960D01*
X1881158Y-20538960D02*
X1890682Y-20529436D01*
X1890682Y-20529436D02*
X1909729Y-20500865D01*
X1909729Y-20500865D02*
X1919253Y-20462770D01*
X1919253Y-20462770D02*
X1919253Y-20386579D01*
X1919253Y-20386579D02*
X1909729Y-20367531D01*
X1909729Y-20367531D02*
X1900205Y-20358008D01*
X1900205Y-20358008D02*
X1881158Y-20348484D01*
X1881158Y-20348484D02*
X1843062Y-20348484D01*
X1843062Y-20348484D02*
X1824015Y-20358008D01*
X1824015Y-20358008D02*
X1814491Y-20367531D01*
X1814491Y-20367531D02*
X1804967Y-20386579D01*
X1804967Y-20386579D02*
X1804967Y-20434198D01*
X1804967Y-20434198D02*
X1814491Y-20453246D01*
X1814491Y-20453246D02*
X1824015Y-20462770D01*
X1824015Y-20462770D02*
X1843062Y-20472293D01*
X1843062Y-20472293D02*
X1881158Y-20472293D01*
X1881158Y-20472293D02*
X1900205Y-20462770D01*
X1900205Y-20462770D02*
X1909729Y-20453246D01*
X1909729Y-20453246D02*
X1919253Y-20434198D01*
X2043062Y-20348484D02*
X2062110Y-20348484D01*
X2062110Y-20348484D02*
X2081158Y-20358008D01*
X2081158Y-20358008D02*
X2090682Y-20367531D01*
X2090682Y-20367531D02*
X2100205Y-20386579D01*
X2100205Y-20386579D02*
X2109729Y-20424674D01*
X2109729Y-20424674D02*
X2109729Y-20472293D01*
X2109729Y-20472293D02*
X2100205Y-20510389D01*
X2100205Y-20510389D02*
X2090682Y-20529436D01*
X2090682Y-20529436D02*
X2081158Y-20538960D01*
X2081158Y-20538960D02*
X2062110Y-20548484D01*
X2062110Y-20548484D02*
X2043062Y-20548484D01*
X2043062Y-20548484D02*
X2024015Y-20538960D01*
X2024015Y-20538960D02*
X2014491Y-20529436D01*
X2014491Y-20529436D02*
X2004967Y-20510389D01*
X2004967Y-20510389D02*
X1995443Y-20472293D01*
X1995443Y-20472293D02*
X1995443Y-20424674D01*
X1995443Y-20424674D02*
X2004967Y-20386579D01*
X2004967Y-20386579D02*
X2014491Y-20367531D01*
X2014491Y-20367531D02*
X2024015Y-20358008D01*
X2024015Y-20358008D02*
X2043062Y-20348484D01*
X2233539Y-20348484D02*
X2252586Y-20348484D01*
X2252586Y-20348484D02*
X2271634Y-20358008D01*
X2271634Y-20358008D02*
X2281158Y-20367531D01*
X2281158Y-20367531D02*
X2290682Y-20386579D01*
X2290682Y-20386579D02*
X2300205Y-20424674D01*
X2300205Y-20424674D02*
X2300205Y-20472293D01*
X2300205Y-20472293D02*
X2290682Y-20510389D01*
X2290682Y-20510389D02*
X2281158Y-20529436D01*
X2281158Y-20529436D02*
X2271634Y-20538960D01*
X2271634Y-20538960D02*
X2252586Y-20548484D01*
X2252586Y-20548484D02*
X2233539Y-20548484D01*
X2233539Y-20548484D02*
X2214491Y-20538960D01*
X2214491Y-20538960D02*
X2204967Y-20529436D01*
X2204967Y-20529436D02*
X2195444Y-20510389D01*
X2195444Y-20510389D02*
X2185920Y-20472293D01*
X2185920Y-20472293D02*
X2185920Y-20424674D01*
X2185920Y-20424674D02*
X2195444Y-20386579D01*
X2195444Y-20386579D02*
X2204967Y-20367531D01*
X2204967Y-20367531D02*
X2214491Y-20358008D01*
X2214491Y-20358008D02*
X2233539Y-20348484D01*
X2385920Y-20548484D02*
X2385920Y-20415150D01*
X2385920Y-20434198D02*
X2395444Y-20424674D01*
X2395444Y-20424674D02*
X2414491Y-20415150D01*
X2414491Y-20415150D02*
X2443063Y-20415150D01*
X2443063Y-20415150D02*
X2462110Y-20424674D01*
X2462110Y-20424674D02*
X2471634Y-20443722D01*
X2471634Y-20443722D02*
X2471634Y-20548484D01*
X2471634Y-20443722D02*
X2481158Y-20424674D01*
X2481158Y-20424674D02*
X2500205Y-20415150D01*
X2500205Y-20415150D02*
X2528777Y-20415150D01*
X2528777Y-20415150D02*
X2547825Y-20424674D01*
X2547825Y-20424674D02*
X2557348Y-20443722D01*
X2557348Y-20443722D02*
X2557348Y-20548484D01*
X2652586Y-20548484D02*
X2652586Y-20415150D01*
X2652586Y-20434198D02*
X2662110Y-20424674D01*
X2662110Y-20424674D02*
X2681158Y-20415150D01*
X2681158Y-20415150D02*
X2709729Y-20415150D01*
X2709729Y-20415150D02*
X2728777Y-20424674D01*
X2728777Y-20424674D02*
X2738301Y-20443722D01*
X2738301Y-20443722D02*
X2738301Y-20548484D01*
X2738301Y-20443722D02*
X2747825Y-20424674D01*
X2747825Y-20424674D02*
X2766872Y-20415150D01*
X2766872Y-20415150D02*
X2795444Y-20415150D01*
X2795444Y-20415150D02*
X2814491Y-20424674D01*
X2814491Y-20424674D02*
X2824015Y-20443722D01*
X2824015Y-20443722D02*
X2824015Y-20548484D01*
X3214491Y-20338960D02*
X3043063Y-20596103D01*
X3471634Y-20348484D02*
X3490682Y-20348484D01*
X3490682Y-20348484D02*
X3509729Y-20358008D01*
X3509729Y-20358008D02*
X3519253Y-20367531D01*
X3519253Y-20367531D02*
X3528777Y-20386579D01*
X3528777Y-20386579D02*
X3538301Y-20424674D01*
X3538301Y-20424674D02*
X3538301Y-20472293D01*
X3538301Y-20472293D02*
X3528777Y-20510389D01*
X3528777Y-20510389D02*
X3519253Y-20529436D01*
X3519253Y-20529436D02*
X3509729Y-20538960D01*
X3509729Y-20538960D02*
X3490682Y-20548484D01*
X3490682Y-20548484D02*
X3471634Y-20548484D01*
X3471634Y-20548484D02*
X3452586Y-20538960D01*
X3452586Y-20538960D02*
X3443063Y-20529436D01*
X3443063Y-20529436D02*
X3433539Y-20510389D01*
X3433539Y-20510389D02*
X3424015Y-20472293D01*
X3424015Y-20472293D02*
X3424015Y-20424674D01*
X3424015Y-20424674D02*
X3433539Y-20386579D01*
X3433539Y-20386579D02*
X3443063Y-20367531D01*
X3443063Y-20367531D02*
X3452586Y-20358008D01*
X3452586Y-20358008D02*
X3471634Y-20348484D01*
X3624015Y-20529436D02*
X3633539Y-20538960D01*
X3633539Y-20538960D02*
X3624015Y-20548484D01*
X3624015Y-20548484D02*
X3614491Y-20538960D01*
X3614491Y-20538960D02*
X3624015Y-20529436D01*
X3624015Y-20529436D02*
X3624015Y-20548484D01*
X3757348Y-20348484D02*
X3776396Y-20348484D01*
X3776396Y-20348484D02*
X3795444Y-20358008D01*
X3795444Y-20358008D02*
X3804967Y-20367531D01*
X3804967Y-20367531D02*
X3814491Y-20386579D01*
X3814491Y-20386579D02*
X3824015Y-20424674D01*
X3824015Y-20424674D02*
X3824015Y-20472293D01*
X3824015Y-20472293D02*
X3814491Y-20510389D01*
X3814491Y-20510389D02*
X3804967Y-20529436D01*
X3804967Y-20529436D02*
X3795444Y-20538960D01*
X3795444Y-20538960D02*
X3776396Y-20548484D01*
X3776396Y-20548484D02*
X3757348Y-20548484D01*
X3757348Y-20548484D02*
X3738301Y-20538960D01*
X3738301Y-20538960D02*
X3728777Y-20529436D01*
X3728777Y-20529436D02*
X3719253Y-20510389D01*
X3719253Y-20510389D02*
X3709729Y-20472293D01*
X3709729Y-20472293D02*
X3709729Y-20424674D01*
X3709729Y-20424674D02*
X3719253Y-20386579D01*
X3719253Y-20386579D02*
X3728777Y-20367531D01*
X3728777Y-20367531D02*
X3738301Y-20358008D01*
X3738301Y-20358008D02*
X3757348Y-20348484D01*
X3890682Y-20348484D02*
X4014491Y-20348484D01*
X4014491Y-20348484D02*
X3947825Y-20424674D01*
X3947825Y-20424674D02*
X3976396Y-20424674D01*
X3976396Y-20424674D02*
X3995444Y-20434198D01*
X3995444Y-20434198D02*
X4004967Y-20443722D01*
X4004967Y-20443722D02*
X4014491Y-20462770D01*
X4014491Y-20462770D02*
X4014491Y-20510389D01*
X4014491Y-20510389D02*
X4004967Y-20529436D01*
X4004967Y-20529436D02*
X3995444Y-20538960D01*
X3995444Y-20538960D02*
X3976396Y-20548484D01*
X3976396Y-20548484D02*
X3919253Y-20548484D01*
X3919253Y-20548484D02*
X3900206Y-20538960D01*
X3900206Y-20538960D02*
X3890682Y-20529436D01*
X4195444Y-20348484D02*
X4100206Y-20348484D01*
X4100206Y-20348484D02*
X4090682Y-20443722D01*
X4090682Y-20443722D02*
X4100206Y-20434198D01*
X4100206Y-20434198D02*
X4119253Y-20424674D01*
X4119253Y-20424674D02*
X4166872Y-20424674D01*
X4166872Y-20424674D02*
X4185920Y-20434198D01*
X4185920Y-20434198D02*
X4195444Y-20443722D01*
X4195444Y-20443722D02*
X4204968Y-20462770D01*
X4204968Y-20462770D02*
X4204968Y-20510389D01*
X4204968Y-20510389D02*
X4195444Y-20529436D01*
X4195444Y-20529436D02*
X4185920Y-20538960D01*
X4185920Y-20538960D02*
X4166872Y-20548484D01*
X4166872Y-20548484D02*
X4119253Y-20548484D01*
X4119253Y-20548484D02*
X4100206Y-20538960D01*
X4100206Y-20538960D02*
X4090682Y-20529436D01*
X4376396Y-20415150D02*
X4376396Y-20548484D01*
X4328777Y-20338960D02*
X4281158Y-20481817D01*
X4281158Y-20481817D02*
X4404968Y-20481817D01*
X4471634Y-20348484D02*
X4471634Y-20386579D01*
X4547825Y-20348484D02*
X4547825Y-20386579D01*
X4843063Y-20624674D02*
X4833539Y-20615150D01*
X4833539Y-20615150D02*
X4814491Y-20586579D01*
X4814491Y-20586579D02*
X4804968Y-20567531D01*
X4804968Y-20567531D02*
X4795444Y-20538960D01*
X4795444Y-20538960D02*
X4785920Y-20491341D01*
X4785920Y-20491341D02*
X4785920Y-20453246D01*
X4785920Y-20453246D02*
X4795444Y-20405627D01*
X4795444Y-20405627D02*
X4804968Y-20377055D01*
X4804968Y-20377055D02*
X4814491Y-20358008D01*
X4814491Y-20358008D02*
X4833539Y-20329436D01*
X4833539Y-20329436D02*
X4843063Y-20319912D01*
X4909730Y-20367531D02*
X4919253Y-20358008D01*
X4919253Y-20358008D02*
X4938301Y-20348484D01*
X4938301Y-20348484D02*
X4985920Y-20348484D01*
X4985920Y-20348484D02*
X5004968Y-20358008D01*
X5004968Y-20358008D02*
X5014491Y-20367531D01*
X5014491Y-20367531D02*
X5024015Y-20386579D01*
X5024015Y-20386579D02*
X5024015Y-20405627D01*
X5024015Y-20405627D02*
X5014491Y-20434198D01*
X5014491Y-20434198D02*
X4900206Y-20548484D01*
X4900206Y-20548484D02*
X5024015Y-20548484D01*
X5262111Y-20548484D02*
X5262111Y-20348484D01*
X5347825Y-20548484D02*
X5347825Y-20443722D01*
X5347825Y-20443722D02*
X5338301Y-20424674D01*
X5338301Y-20424674D02*
X5319253Y-20415150D01*
X5319253Y-20415150D02*
X5290682Y-20415150D01*
X5290682Y-20415150D02*
X5271634Y-20424674D01*
X5271634Y-20424674D02*
X5262111Y-20434198D01*
X5471634Y-20548484D02*
X5452587Y-20538960D01*
X5452587Y-20538960D02*
X5443063Y-20529436D01*
X5443063Y-20529436D02*
X5433539Y-20510389D01*
X5433539Y-20510389D02*
X5433539Y-20453246D01*
X5433539Y-20453246D02*
X5443063Y-20434198D01*
X5443063Y-20434198D02*
X5452587Y-20424674D01*
X5452587Y-20424674D02*
X5471634Y-20415150D01*
X5471634Y-20415150D02*
X5500206Y-20415150D01*
X5500206Y-20415150D02*
X5519253Y-20424674D01*
X5519253Y-20424674D02*
X5528777Y-20434198D01*
X5528777Y-20434198D02*
X5538301Y-20453246D01*
X5538301Y-20453246D02*
X5538301Y-20510389D01*
X5538301Y-20510389D02*
X5528777Y-20529436D01*
X5528777Y-20529436D02*
X5519253Y-20538960D01*
X5519253Y-20538960D02*
X5500206Y-20548484D01*
X5500206Y-20548484D02*
X5471634Y-20548484D01*
X5652587Y-20548484D02*
X5633539Y-20538960D01*
X5633539Y-20538960D02*
X5624015Y-20519912D01*
X5624015Y-20519912D02*
X5624015Y-20348484D01*
X5804968Y-20538960D02*
X5785920Y-20548484D01*
X5785920Y-20548484D02*
X5747825Y-20548484D01*
X5747825Y-20548484D02*
X5728777Y-20538960D01*
X5728777Y-20538960D02*
X5719253Y-20519912D01*
X5719253Y-20519912D02*
X5719253Y-20443722D01*
X5719253Y-20443722D02*
X5728777Y-20424674D01*
X5728777Y-20424674D02*
X5747825Y-20415150D01*
X5747825Y-20415150D02*
X5785920Y-20415150D01*
X5785920Y-20415150D02*
X5804968Y-20424674D01*
X5804968Y-20424674D02*
X5814491Y-20443722D01*
X5814491Y-20443722D02*
X5814491Y-20462770D01*
X5814491Y-20462770D02*
X5719253Y-20481817D01*
X5890682Y-20538960D02*
X5909730Y-20548484D01*
X5909730Y-20548484D02*
X5947825Y-20548484D01*
X5947825Y-20548484D02*
X5966872Y-20538960D01*
X5966872Y-20538960D02*
X5976396Y-20519912D01*
X5976396Y-20519912D02*
X5976396Y-20510389D01*
X5976396Y-20510389D02*
X5966872Y-20491341D01*
X5966872Y-20491341D02*
X5947825Y-20481817D01*
X5947825Y-20481817D02*
X5919253Y-20481817D01*
X5919253Y-20481817D02*
X5900206Y-20472293D01*
X5900206Y-20472293D02*
X5890682Y-20453246D01*
X5890682Y-20453246D02*
X5890682Y-20443722D01*
X5890682Y-20443722D02*
X5900206Y-20424674D01*
X5900206Y-20424674D02*
X5919253Y-20415150D01*
X5919253Y-20415150D02*
X5947825Y-20415150D01*
X5947825Y-20415150D02*
X5966872Y-20424674D01*
X6043063Y-20624674D02*
X6052587Y-20615150D01*
X6052587Y-20615150D02*
X6071634Y-20586579D01*
X6071634Y-20586579D02*
X6081158Y-20567531D01*
X6081158Y-20567531D02*
X6090682Y-20538960D01*
X6090682Y-20538960D02*
X6100206Y-20491341D01*
X6100206Y-20491341D02*
X6100206Y-20453246D01*
X6100206Y-20453246D02*
X6090682Y-20405627D01*
X6090682Y-20405627D02*
X6081158Y-20377055D01*
X6081158Y-20377055D02*
X6071634Y-20358008D01*
X6071634Y-20358008D02*
X6052587Y-20329436D01*
X6052587Y-20329436D02*
X6043063Y-20319912D01*
X6404968Y-20624674D02*
X6395444Y-20615150D01*
X6395444Y-20615150D02*
X6376396Y-20586579D01*
X6376396Y-20586579D02*
X6366872Y-20567531D01*
X6366872Y-20567531D02*
X6357349Y-20538960D01*
X6357349Y-20538960D02*
X6347825Y-20491341D01*
X6347825Y-20491341D02*
X6347825Y-20453246D01*
X6347825Y-20453246D02*
X6357349Y-20405627D01*
X6357349Y-20405627D02*
X6366872Y-20377055D01*
X6366872Y-20377055D02*
X6376396Y-20358008D01*
X6376396Y-20358008D02*
X6395444Y-20329436D01*
X6395444Y-20329436D02*
X6404968Y-20319912D01*
X6481158Y-20415150D02*
X6481158Y-20548484D01*
X6481158Y-20434198D02*
X6490682Y-20424674D01*
X6490682Y-20424674D02*
X6509730Y-20415150D01*
X6509730Y-20415150D02*
X6538301Y-20415150D01*
X6538301Y-20415150D02*
X6557349Y-20424674D01*
X6557349Y-20424674D02*
X6566872Y-20443722D01*
X6566872Y-20443722D02*
X6566872Y-20548484D01*
X6690682Y-20548484D02*
X6671634Y-20538960D01*
X6671634Y-20538960D02*
X6662111Y-20529436D01*
X6662111Y-20529436D02*
X6652587Y-20510389D01*
X6652587Y-20510389D02*
X6652587Y-20453246D01*
X6652587Y-20453246D02*
X6662111Y-20434198D01*
X6662111Y-20434198D02*
X6671634Y-20424674D01*
X6671634Y-20424674D02*
X6690682Y-20415150D01*
X6690682Y-20415150D02*
X6719253Y-20415150D01*
X6719253Y-20415150D02*
X6738301Y-20424674D01*
X6738301Y-20424674D02*
X6747825Y-20434198D01*
X6747825Y-20434198D02*
X6757349Y-20453246D01*
X6757349Y-20453246D02*
X6757349Y-20510389D01*
X6757349Y-20510389D02*
X6747825Y-20529436D01*
X6747825Y-20529436D02*
X6738301Y-20538960D01*
X6738301Y-20538960D02*
X6719253Y-20548484D01*
X6719253Y-20548484D02*
X6690682Y-20548484D01*
X6814492Y-20415150D02*
X6890682Y-20415150D01*
X6843063Y-20348484D02*
X6843063Y-20519912D01*
X6843063Y-20519912D02*
X6852587Y-20538960D01*
X6852587Y-20538960D02*
X6871634Y-20548484D01*
X6871634Y-20548484D02*
X6890682Y-20548484D01*
X7109730Y-20415150D02*
X7109730Y-20615150D01*
X7109730Y-20424674D02*
X7128777Y-20415150D01*
X7128777Y-20415150D02*
X7166873Y-20415150D01*
X7166873Y-20415150D02*
X7185920Y-20424674D01*
X7185920Y-20424674D02*
X7195444Y-20434198D01*
X7195444Y-20434198D02*
X7204968Y-20453246D01*
X7204968Y-20453246D02*
X7204968Y-20510389D01*
X7204968Y-20510389D02*
X7195444Y-20529436D01*
X7195444Y-20529436D02*
X7185920Y-20538960D01*
X7185920Y-20538960D02*
X7166873Y-20548484D01*
X7166873Y-20548484D02*
X7128777Y-20548484D01*
X7128777Y-20548484D02*
X7109730Y-20538960D01*
X7319253Y-20548484D02*
X7300206Y-20538960D01*
X7300206Y-20538960D02*
X7290682Y-20519912D01*
X7290682Y-20519912D02*
X7290682Y-20348484D01*
X7481158Y-20548484D02*
X7481158Y-20443722D01*
X7481158Y-20443722D02*
X7471634Y-20424674D01*
X7471634Y-20424674D02*
X7452587Y-20415150D01*
X7452587Y-20415150D02*
X7414492Y-20415150D01*
X7414492Y-20415150D02*
X7395444Y-20424674D01*
X7481158Y-20538960D02*
X7462111Y-20548484D01*
X7462111Y-20548484D02*
X7414492Y-20548484D01*
X7414492Y-20548484D02*
X7395444Y-20538960D01*
X7395444Y-20538960D02*
X7385920Y-20519912D01*
X7385920Y-20519912D02*
X7385920Y-20500865D01*
X7385920Y-20500865D02*
X7395444Y-20481817D01*
X7395444Y-20481817D02*
X7414492Y-20472293D01*
X7414492Y-20472293D02*
X7462111Y-20472293D01*
X7462111Y-20472293D02*
X7481158Y-20462770D01*
X7547825Y-20415150D02*
X7624015Y-20415150D01*
X7576396Y-20348484D02*
X7576396Y-20519912D01*
X7576396Y-20519912D02*
X7585920Y-20538960D01*
X7585920Y-20538960D02*
X7604968Y-20548484D01*
X7604968Y-20548484D02*
X7624015Y-20548484D01*
X7766873Y-20538960D02*
X7747825Y-20548484D01*
X7747825Y-20548484D02*
X7709730Y-20548484D01*
X7709730Y-20548484D02*
X7690682Y-20538960D01*
X7690682Y-20538960D02*
X7681158Y-20519912D01*
X7681158Y-20519912D02*
X7681158Y-20443722D01*
X7681158Y-20443722D02*
X7690682Y-20424674D01*
X7690682Y-20424674D02*
X7709730Y-20415150D01*
X7709730Y-20415150D02*
X7747825Y-20415150D01*
X7747825Y-20415150D02*
X7766873Y-20424674D01*
X7766873Y-20424674D02*
X7776396Y-20443722D01*
X7776396Y-20443722D02*
X7776396Y-20462770D01*
X7776396Y-20462770D02*
X7681158Y-20481817D01*
X7947825Y-20548484D02*
X7947825Y-20348484D01*
X7947825Y-20538960D02*
X7928777Y-20548484D01*
X7928777Y-20548484D02*
X7890682Y-20548484D01*
X7890682Y-20548484D02*
X7871634Y-20538960D01*
X7871634Y-20538960D02*
X7862111Y-20529436D01*
X7862111Y-20529436D02*
X7852587Y-20510389D01*
X7852587Y-20510389D02*
X7852587Y-20453246D01*
X7852587Y-20453246D02*
X7862111Y-20434198D01*
X7862111Y-20434198D02*
X7871634Y-20424674D01*
X7871634Y-20424674D02*
X7890682Y-20415150D01*
X7890682Y-20415150D02*
X7928777Y-20415150D01*
X7928777Y-20415150D02*
X7947825Y-20424674D01*
X8024015Y-20624674D02*
X8033539Y-20615150D01*
X8033539Y-20615150D02*
X8052587Y-20586579D01*
X8052587Y-20586579D02*
X8062111Y-20567531D01*
X8062111Y-20567531D02*
X8071634Y-20538960D01*
X8071634Y-20538960D02*
X8081158Y-20491341D01*
X8081158Y-20491341D02*
X8081158Y-20453246D01*
X8081158Y-20453246D02*
X8071634Y-20405627D01*
X8071634Y-20405627D02*
X8062111Y-20377055D01*
X8062111Y-20377055D02*
X8052587Y-20358008D01*
X8052587Y-20358008D02*
X8033539Y-20329436D01*
X8033539Y-20329436D02*
X8024015Y-20319912D01*
M02*
